<?xml version="1.0" encoding="iso-8859-1"?>
<!-- Generator: Adobe Illustrator 19.0.0, SVG Export Plug-In . SVG Version: 6.00 Build 0)  -->
<svg version="1.1" id="Layer_1" xmlns="http://www.w3.org/2000/svg" xmlns:xlink="http://www.w3.org/1999/xlink" x="0px" y="0px"
	 viewBox="0 0 504.107 504.107" style="enable-background:new 0 0 504.107 504.107;" xml:space="preserve">
<linearGradient id="SVGID_1_" gradientUnits="userSpaceOnUse" x1="-28.4266" y1="614.8865" x2="-6.1716" y2="609.1205" gradientTransform="matrix(7.8769 0 0 -7.8769 364.1079 4969.5996)">
	<stop  offset="0" style="stop-color:#29D3DA"/>
	<stop  offset="0.519" style="stop-color:#0077FF"/>
	<stop  offset="0.999" style="stop-color:#064093"/>
	<stop  offset="1" style="stop-color:#084698"/>
</linearGradient>
<path style="fill:url(#SVGID_1_);" d="M246.485,150.221c0,0-7.798-37.494-43.819-32.626c-36.053,4.86-48.215,40.416-48.215,40.416
	s14.604-19.968,43.347-14.612c28.719,5.364,24.828-4.86,33.107-3.891C239.183,140.477,246.485,150.221,246.485,150.221z"/>
<linearGradient id="SVGID_2_" gradientUnits="userSpaceOnUse" x1="-26.2728" y1="621.1066" x2="-6.5658" y2="616.0026" gradientTransform="matrix(7.8769 0 0 -7.8769 364.1079 4969.5996)">
	<stop  offset="0.012" style="stop-color:#E0B386"/>
	<stop  offset="0.519" style="stop-color:#DA498C"/>
	<stop  offset="1" style="stop-color:#961484"/>
</linearGradient>
<path style="fill:url(#SVGID_2_);" d="M242.83,130.985c0,0-9.988-18.511-38.227-24.584c-22.52-4.852-33.122-29.223-19.495-53.579
	c0,0,1.473,18.022,22.89,18.991c21.433,0.977,26.159,24.324,29.704,35.556C243.799,126.598,242.83,130.985,242.83,130.985z"/>
<linearGradient id="SVGID_3_" gradientUnits="userSpaceOnUse" x1="-27.4929" y1="618.3163" x2="-15.5159" y2="615.2144" gradientTransform="matrix(7.8769 0 0 -7.8769 364.1079 4969.5996)">
	<stop  offset="0.012" style="stop-color:#E0B386"/>
	<stop  offset="0.519" style="stop-color:#DA498C"/>
	<stop  offset="1" style="stop-color:#961484"/>
</linearGradient>
<path style="fill:url(#SVGID_3_);" d="M204.642,112.427c0,0-9.949-2.481-19.653-10.177c-9.712-7.672-17.18,2.269-25.088-4.064
	c0,0,4.71,17.124,21.024,16.723C199.459,114.46,204.642,112.427,204.642,112.427z"/>
<linearGradient id="SVGID_4_" gradientUnits="userSpaceOnUse" x1="-20.802" y1="622.5029" x2="-5.782" y2="618.6118" gradientTransform="matrix(7.8769 0 0 -7.8769 364.1079 4969.5996)">
	<stop  offset="0" style="stop-color:#29D3DA"/>
	<stop  offset="0.519" style="stop-color:#0077FF"/>
	<stop  offset="0.999" style="stop-color:#064093"/>
	<stop  offset="1" style="stop-color:#084698"/>
</linearGradient>
<path style="fill:url(#SVGID_4_);" d="M247.698,135.373c0,0-0.488-41.157-21.906-64.284C209.621,53.642,227.73,20.937,252.085,0
	v159.24L247.698,135.373z"/>
<linearGradient id="SVGID_5_" gradientUnits="userSpaceOnUse" x1="-22.4474" y1="624.994" x2="-18.1684" y2="623.885" gradientTransform="matrix(7.8769 0 0 -7.8769 364.1079 4969.5996)">
	<stop  offset="0" style="stop-color:#29D3DA"/>
	<stop  offset="0.519" style="stop-color:#0077FF"/>
	<stop  offset="0.999" style="stop-color:#064093"/>
	<stop  offset="1" style="stop-color:#084698"/>
</linearGradient>
<path style="fill:url(#SVGID_5_);" d="M204.107,64.276c0,0-23.851-9.263-6.317-28.333c0,0-1.308,5.522,5.183,10.39
	C209.479,51.2,204.107,64.276,204.107,64.276z"/>
<linearGradient id="SVGID_6_" gradientUnits="userSpaceOnUse" x1="-0.0229" y1="614.887" x2="-22.2789" y2="609.121" gradientTransform="matrix(7.8769 0 0 -7.8769 364.1079 4969.5996)">
	<stop  offset="0" style="stop-color:#29D3DA"/>
	<stop  offset="0.519" style="stop-color:#0077FF"/>
	<stop  offset="0.999" style="stop-color:#064093"/>
	<stop  offset="1" style="stop-color:#084698"/>
</linearGradient>
<path style="fill:url(#SVGID_6_);" d="M257.623,150.221c0,0,7.79-37.494,43.811-32.626c36.045,4.86,48.223,40.416,48.223,40.416
	s-14.604-19.968-43.339-14.612c-28.735,5.364-24.836-4.86-33.115-3.891C264.925,140.477,257.623,150.221,257.623,150.221z"/>
<linearGradient id="SVGID_7_" gradientUnits="userSpaceOnUse" x1="-2.1827" y1="621.1064" x2="-21.8837" y2="616.0024" gradientTransform="matrix(7.8769 0 0 -7.8769 364.1079 4969.5996)">
	<stop  offset="0.012" style="stop-color:#E0B386"/>
	<stop  offset="0.519" style="stop-color:#DA498C"/>
	<stop  offset="1" style="stop-color:#961484"/>
</linearGradient>
<path style="fill:url(#SVGID_7_);" d="M261.27,130.985c0,0,9.996-18.511,38.235-24.584c22.512-4.852,33.115-29.223,19.48-53.579
	c0,0-1.457,18.022-22.875,18.991c-21.433,0.977-26.167,24.324-29.704,35.556C260.301,126.598,261.27,130.985,261.27,130.985z"/>
<linearGradient id="SVGID_8_" gradientUnits="userSpaceOnUse" x1="-0.9614" y1="618.3163" x2="-12.9304" y2="615.2143" gradientTransform="matrix(7.8769 0 0 -7.8769 364.1079 4969.5996)">
	<stop  offset="0.012" style="stop-color:#E0B386"/>
	<stop  offset="0.519" style="stop-color:#DA498C"/>
	<stop  offset="1" style="stop-color:#961484"/>
</linearGradient>
<path style="fill:url(#SVGID_8_);" d="M299.457,112.427c0,0,9.949-2.481,19.661-10.177c9.712-7.672,17.18,2.269,25.08-4.064
	c0,0-4.71,17.124-21.016,16.723C304.648,114.46,299.457,112.427,299.457,112.427z"/>
<linearGradient id="SVGID_9_" gradientUnits="userSpaceOnUse" x1="-6.0285" y1="624.0049" x2="-16.9925" y2="619.7179" gradientTransform="matrix(7.8769 0 0 -7.8769 364.1079 4969.5996)">
	<stop  offset="0" style="stop-color:#29D3DA"/>
	<stop  offset="0.519" style="stop-color:#0077FF"/>
	<stop  offset="0.999" style="stop-color:#064093"/>
	<stop  offset="1" style="stop-color:#084698"/>
</linearGradient>
<path style="fill:url(#SVGID_9_);" d="M256.41,135.373c0,0,0.488-41.157,21.906-64.284C294.479,53.642,276.378,20.937,252.022,0
	v159.24L256.41,135.373z"/>
<linearGradient id="SVGID_10_" gradientUnits="userSpaceOnUse" x1="-6.0048" y1="624.9937" x2="-10.2848" y2="623.8847" gradientTransform="matrix(7.8769 0 0 -7.8769 364.1079 4969.5996)">
	<stop  offset="0" style="stop-color:#29D3DA"/>
	<stop  offset="0.519" style="stop-color:#0077FF"/>
	<stop  offset="0.999" style="stop-color:#064093"/>
	<stop  offset="1" style="stop-color:#084698"/>
</linearGradient>
<path style="fill:url(#SVGID_10_);" d="M299.993,64.276c0,0,23.859-9.263,6.333-28.333c0,0,1.284,5.522-5.199,10.39
	C294.628,51.2,299.993,64.276,299.993,64.276z"/>
<linearGradient id="SVGID_11_" gradientUnits="userSpaceOnUse" x1="-0.0246" y1="582.9274" x2="-22.2876" y2="588.6964" gradientTransform="matrix(7.8769 0 0 -7.8769 364.1079 4969.5996)">
	<stop  offset="0" style="stop-color:#29D3DA"/>
	<stop  offset="0.519" style="stop-color:#0077FF"/>
	<stop  offset="0.999" style="stop-color:#064093"/>
	<stop  offset="1" style="stop-color:#084698"/>
</linearGradient>
<path style="fill:url(#SVGID_11_);" d="M257.615,353.887c0,0,7.798,37.494,43.819,32.626c36.045-4.86,48.223-40.417,48.223-40.417
	s-14.604,19.968-43.339,14.612c-28.727-5.364-24.836,4.86-33.13,3.891C264.925,363.622,257.615,353.887,257.615,353.887z"/>
<linearGradient id="SVGID_12_" gradientUnits="userSpaceOnUse" x1="-2.1826" y1="576.7084" x2="-21.8836" y2="581.8124" gradientTransform="matrix(7.8769 0 0 -7.8769 364.1079 4969.5996)">
	<stop  offset="0.012" style="stop-color:#E0B386"/>
	<stop  offset="0.519" style="stop-color:#DA498C"/>
	<stop  offset="1" style="stop-color:#961484"/>
</linearGradient>
<path style="fill:url(#SVGID_12_);" d="M261.27,373.122c0,0,9.996,18.511,38.235,24.584c22.512,4.852,33.115,29.223,19.48,53.571
	c0,0-1.457-18.015-22.875-18.983c-21.449-0.985-26.167-24.324-29.704-35.556C260.301,377.509,261.27,373.122,261.27,373.122z"/>
<linearGradient id="SVGID_13_" gradientUnits="userSpaceOnUse" x1="-0.9598" y1="579.4985" x2="-12.9328" y2="582.5995" gradientTransform="matrix(7.8769 0 0 -7.8769 364.1079 4969.5996)">
	<stop  offset="0.012" style="stop-color:#E0B386"/>
	<stop  offset="0.519" style="stop-color:#DA498C"/>
	<stop  offset="1" style="stop-color:#961484"/>
</linearGradient>
<path style="fill:url(#SVGID_13_);" d="M299.457,391.68c0,0,9.949,2.481,19.653,10.169c9.72,7.68,17.187-2.261,25.08,4.064
	c0,0-4.703-17.117-21.008-16.715C304.648,389.648,299.457,391.68,299.457,391.68z"/>
<linearGradient id="SVGID_14_" gradientUnits="userSpaceOnUse" x1="-7.6446" y1="575.3111" x2="-22.6746" y2="579.2011" gradientTransform="matrix(7.8769 0 0 -7.8769 364.1079 4969.5996)">
	<stop  offset="0" style="stop-color:#29D3DA"/>
	<stop  offset="0.519" style="stop-color:#0077FF"/>
	<stop  offset="0.999" style="stop-color:#064093"/>
	<stop  offset="1" style="stop-color:#084698"/>
</linearGradient>
<path style="fill:url(#SVGID_14_);" d="M256.394,368.735c0,0,0.496,41.157,21.921,64.284c16.163,17.447-1.938,50.152-26.301,71.089
	V344.875L256.394,368.735z"/>
<linearGradient id="SVGID_15_" gradientUnits="userSpaceOnUse" x1="-6.0039" y1="572.82" x2="-10.2839" y2="573.9301" gradientTransform="matrix(7.8769 0 0 -7.8769 364.1079 4969.5996)">
	<stop  offset="0" style="stop-color:#29D3DA"/>
	<stop  offset="0.519" style="stop-color:#0077FF"/>
	<stop  offset="0.999" style="stop-color:#064093"/>
	<stop  offset="1" style="stop-color:#084698"/>
</linearGradient>
<path style="fill:url(#SVGID_15_);" d="M299.993,439.832c0,0,23.851,9.263,6.333,28.333c0,0,1.3-5.522-5.207-10.39
	C294.621,452.907,299.993,439.832,299.993,439.832z"/>
<linearGradient id="SVGID_16_" gradientUnits="userSpaceOnUse" x1="-28.4266" y1="582.9271" x2="-6.1716" y2="588.6961" gradientTransform="matrix(7.8769 0 0 -7.8769 364.1079 4969.5996)">
	<stop  offset="0" style="stop-color:#29D3DA"/>
	<stop  offset="0.519" style="stop-color:#0077FF"/>
	<stop  offset="0.999" style="stop-color:#064093"/>
	<stop  offset="1" style="stop-color:#084698"/>
</linearGradient>
<path style="fill:url(#SVGID_16_);" d="M246.477,353.887c0,0-7.79,37.494-43.819,32.626c-36.029-4.86-48.207-40.417-48.207-40.417
	s14.604,19.968,43.347,14.612c28.719-5.364,24.836,4.86,33.099,3.891C239.167,363.622,246.477,353.887,246.477,353.887z"/>
<linearGradient id="SVGID_17_" gradientUnits="userSpaceOnUse" x1="-26.2727" y1="576.7083" x2="-6.5657" y2="581.8123" gradientTransform="matrix(7.8769 0 0 -7.8769 364.1079 4969.5996)">
	<stop  offset="0.012" style="stop-color:#E0B386"/>
	<stop  offset="0.519" style="stop-color:#DA498C"/>
	<stop  offset="1" style="stop-color:#961484"/>
</linearGradient>
<path style="fill:url(#SVGID_17_);" d="M242.83,373.122c0,0-9.988,18.511-38.227,24.584c-22.52,4.852-33.122,29.223-19.495,53.571
	c0,0,1.473-18.015,22.89-18.983c21.425-0.985,26.159-24.324,29.704-35.556C243.807,377.509,242.83,373.122,242.83,373.122z"/>
<linearGradient id="SVGID_18_" gradientUnits="userSpaceOnUse" x1="-27.4911" y1="579.499" x2="-15.5151" y2="582.6" gradientTransform="matrix(7.8769 0 0 -7.8769 364.1079 4969.5996)">
	<stop  offset="0.012" style="stop-color:#E0B386"/>
	<stop  offset="0.519" style="stop-color:#DA498C"/>
	<stop  offset="1" style="stop-color:#961484"/>
</linearGradient>
<path style="fill:url(#SVGID_18_);" d="M204.642,391.68c0,0-9.949,2.481-19.653,10.169c-9.712,7.68-17.18-2.261-25.088,4.064
	c0,0,4.718-17.117,21.024-16.715C199.459,389.648,204.642,391.68,204.642,391.68z"/>
<linearGradient id="SVGID_19_" gradientUnits="userSpaceOnUse" x1="-22.4237" y1="573.8149" x2="-11.4587" y2="578.0949" gradientTransform="matrix(7.8769 0 0 -7.8769 364.1079 4969.5996)">
	<stop  offset="0" style="stop-color:#29D3DA"/>
	<stop  offset="0.519" style="stop-color:#0077FF"/>
	<stop  offset="0.999" style="stop-color:#064093"/>
	<stop  offset="1" style="stop-color:#084698"/>
</linearGradient>
<path style="fill:url(#SVGID_19_);" d="M247.69,368.735c0,0-0.48,41.157-21.898,64.284c-16.171,17.447,1.938,50.152,26.277,71.089
	V344.875L247.69,368.735z"/>
<linearGradient id="SVGID_20_" gradientUnits="userSpaceOnUse" x1="-22.4483" y1="572.8197" x2="-18.1693" y2="573.9297" gradientTransform="matrix(7.8769 0 0 -7.8769 364.1079 4969.5996)">
	<stop  offset="0" style="stop-color:#29D3DA"/>
	<stop  offset="0.519" style="stop-color:#0077FF"/>
	<stop  offset="0.999" style="stop-color:#064093"/>
	<stop  offset="1" style="stop-color:#084698"/>
</linearGradient>
<path style="fill:url(#SVGID_20_);" d="M204.107,439.832c0,0-23.867,9.263-6.317,28.333c0,0-1.308-5.522,5.183-10.39
	C209.471,452.907,204.107,439.832,204.107,439.832z"/>
<linearGradient id="SVGID_21_" gradientUnits="userSpaceOnUse" x1="-12.9696" y1="620.2476" x2="-1.3066" y2="600.4336" gradientTransform="matrix(7.8769 0 0 -7.8769 364.1079 4969.5996)">
	<stop  offset="0" style="stop-color:#29D3DA"/>
	<stop  offset="0.519" style="stop-color:#0077FF"/>
	<stop  offset="0.999" style="stop-color:#064093"/>
	<stop  offset="1" style="stop-color:#084698"/>
</linearGradient>
<path style="fill:url(#SVGID_21_);" d="M320.126,176.104c0,0,21-32.012-7.932-54.059c-28.916-22.04-62.661-5.498-62.661-5.498
	s24.45-3.797,40.976,20.315c16.534,24.096,21,14.108,26.159,20.653C321.851,164.061,320.126,176.104,320.126,176.104z"/>
<linearGradient id="SVGID_22_" gradientUnits="userSpaceOnUse" x1="-7.0439" y1="623.1224" x2="3.2731" y2="605.5864" gradientTransform="matrix(7.8769 0 0 -7.8769 364.1079 4969.5996)">
	<stop  offset="0.012" style="stop-color:#E0B386"/>
	<stop  offset="0.519" style="stop-color:#DA498C"/>
	<stop  offset="1" style="stop-color:#961484"/>
</linearGradient>
<path style="fill:url(#SVGID_22_);" d="M331.146,159.917c0,0,6.026-20.133-9.633-44.402c-12.509-19.354-2.781-44.087,24.096-51.665
	c0,0-11.713,13.777,2.749,29.617s1.3,35.69-4.128,46.135C334.927,157.507,331.146,159.917,331.146,159.917z"/>
<linearGradient id="SVGID_23_" gradientUnits="userSpaceOnUse" x1="-9.8844" y1="622.0106" x2="-3.6084" y2="611.3555" gradientTransform="matrix(7.8769 0 0 -7.8769 364.1079 4969.5996)">
	<stop  offset="0.012" style="stop-color:#E0B386"/>
	<stop  offset="0.519" style="stop-color:#DA498C"/>
	<stop  offset="1" style="stop-color:#961484"/>
</linearGradient>
<path style="fill:url(#SVGID_23_);" d="M317.259,119.808c0,0-5.27-8.783-6.703-21.094c-1.449-12.296-13.753-10.547-14.872-20.606
	c0,0-8.775,15.431,3.04,26.687C312.162,117.579,317.259,119.808,317.259,119.808z"/>
<linearGradient id="SVGID_24_" gradientUnits="userSpaceOnUse" x1="-2.1892" y1="620.2424" x2="5.6748" y2="606.8724" gradientTransform="matrix(7.8769 0 0 -7.8769 364.1079 4969.5996)">
	<stop  offset="0" style="stop-color:#29D3DA"/>
	<stop  offset="0.519" style="stop-color:#0077FF"/>
	<stop  offset="0.999" style="stop-color:#064093"/>
	<stop  offset="1" style="stop-color:#084698"/>
</linearGradient>
<path style="fill:url(#SVGID_24_);" d="M331.485,166.471c0,0,28.751-29.444,29.956-60.952c0.906-23.765,36.848-34.083,68.876-31.673
	L317.7,186.447L331.485,166.471z"/>
<linearGradient id="SVGID_25_" gradientUnits="userSpaceOnUse" x1="-1.5931" y1="623.1687" x2="0.6469" y2="619.3587" gradientTransform="matrix(7.8769 0 0 -7.8769 364.1079 4969.5996)">
	<stop  offset="0" style="stop-color:#29D3DA"/>
	<stop  offset="0.519" style="stop-color:#0077FF"/>
	<stop  offset="0.999" style="stop-color:#064093"/>
	<stop  offset="1" style="stop-color:#084698"/>
</linearGradient>
<path style="fill:url(#SVGID_25_);" d="M350.933,85.378c0,0-10.319-23.418,15.573-24.505c0,0-4.829,2.985-3.686,11.02
	C363.977,79.919,350.933,85.378,350.933,85.378z"/>
<linearGradient id="SVGID_26_" gradientUnits="userSpaceOnUse" x1="7.1131" y1="600.165" x2="-12.6969" y2="611.821" gradientTransform="matrix(7.8769 0 0 -7.8769 364.1079 4969.5996)">
	<stop  offset="0" style="stop-color:#29D3DA"/>
	<stop  offset="0.519" style="stop-color:#0077FF"/>
	<stop  offset="0.999" style="stop-color:#064093"/>
	<stop  offset="1" style="stop-color:#084698"/>
</linearGradient>
<path style="fill:url(#SVGID_26_);" d="M328.003,183.989c0,0,32.02-21.008,54.051,7.916c22.048,28.924,5.506,62.677,5.506,62.677
	s3.797-24.458-20.307-40.984c-24.103-16.534-14.115-21-20.661-26.167C340.055,182.264,328.003,183.989,328.003,183.989z"/>
<linearGradient id="SVGID_27_" gradientUnits="userSpaceOnUse" x1="9.9901" y1="606.0868" x2="-7.5459" y2="616.4088" gradientTransform="matrix(7.8769 0 0 -7.8769 364.1079 4969.5996)">
	<stop  offset="0.012" style="stop-color:#E0B386"/>
	<stop  offset="0.519" style="stop-color:#DA498C"/>
	<stop  offset="1" style="stop-color:#961484"/>
</linearGradient>
<path style="fill:url(#SVGID_27_);" d="M344.182,172.961c0,0,20.149-6.026,44.41,9.649c19.354,12.493,44.087,2.765,51.673-24.111
	c0,0-13.785,11.713-29.617-2.749c-15.848-14.462-35.698-1.3-46.143,4.128C346.592,169.181,344.182,172.961,344.182,172.961z"/>
<linearGradient id="SVGID_28_" gradientUnits="userSpaceOnUse" x1="8.8758" y1="603.2496" x2="-1.7772" y2="609.5236" gradientTransform="matrix(7.8769 0 0 -7.8769 364.1079 4969.5996)">
	<stop  offset="0.012" style="stop-color:#E0B386"/>
	<stop  offset="0.519" style="stop-color:#DA498C"/>
	<stop  offset="1" style="stop-color:#961484"/>
</linearGradient>
<path style="fill:url(#SVGID_28_);" d="M384.307,186.848c0,0,8.775,5.27,21.087,6.711c12.304,1.449,10.547,13.745,20.598,14.864
	c0,0-15.431,8.775-26.671-3.04C386.536,191.953,384.307,186.848,384.307,186.848z"/>
<linearGradient id="SVGID_29_" gradientUnits="userSpaceOnUse" x1="9.3145" y1="610.8585" x2="-1.4655" y2="615.5795" gradientTransform="matrix(7.8769 0 0 -7.8769 364.1079 4969.5996)">
	<stop  offset="0" style="stop-color:#29D3DA"/>
	<stop  offset="0.519" style="stop-color:#0077FF"/>
	<stop  offset="0.999" style="stop-color:#064093"/>
	<stop  offset="1" style="stop-color:#084698"/>
</linearGradient>
<path style="fill:url(#SVGID_29_);" d="M337.636,172.623c0,0,29.444-28.751,60.952-29.964c23.757-0.906,34.083-36.833,31.673-68.86
	L317.668,186.4L337.636,172.623z"/>
<linearGradient id="SVGID_30_" gradientUnits="userSpaceOnUse" x1="10.0342" y1="611.5399" x2="6.2212" y2="613.7838" gradientTransform="matrix(7.8769 0 0 -7.8769 364.1079 4969.5996)">
	<stop  offset="0" style="stop-color:#29D3DA"/>
	<stop  offset="0.519" style="stop-color:#0077FF"/>
	<stop  offset="0.999" style="stop-color:#064093"/>
	<stop  offset="1" style="stop-color:#084698"/>
</linearGradient>
<path style="fill:url(#SVGID_30_);" d="M418.729,153.167c0,0,23.426,10.335,24.505-15.557c0,0-2.985,4.821-11.02,3.679
	C424.18,140.138,418.729,153.167,418.729,153.167z"/>
<linearGradient id="SVGID_31_" gradientUnits="userSpaceOnUse" x1="-15.4832" y1="577.5656" x2="-27.1392" y2="597.3786" gradientTransform="matrix(7.8769 0 0 -7.8769 364.1079 4969.5996)">
	<stop  offset="0" style="stop-color:#29D3DA"/>
	<stop  offset="0.519" style="stop-color:#0077FF"/>
	<stop  offset="0.999" style="stop-color:#064093"/>
	<stop  offset="1" style="stop-color:#084698"/>
</linearGradient>
<path style="fill:url(#SVGID_31_);" d="M183.981,328.003c0,0-20.992,32.02,7.924,54.059c28.924,22.048,62.669,5.506,62.669,5.506
	s-24.442,3.789-40.984-20.315c-16.526-24.103-20.992-14.115-26.167-20.669C182.264,340.047,183.981,328.003,183.981,328.003z"/>
<linearGradient id="SVGID_32_" gradientUnits="userSpaceOnUse" x1="-21.405" y1="574.6906" x2="-31.727" y2="592.2275" gradientTransform="matrix(7.8769 0 0 -7.8769 364.1079 4969.5996)">
	<stop  offset="0.012" style="stop-color:#E0B386"/>
	<stop  offset="0.519" style="stop-color:#DA498C"/>
	<stop  offset="1" style="stop-color:#961484"/>
</linearGradient>
<path style="fill:url(#SVGID_32_);" d="M172.961,344.182c0,0-6.026,20.149,9.649,44.418c12.493,19.346,2.757,44.079-24.111,51.665
	c0,0,11.721-13.785-2.749-29.617c-14.462-15.848-1.3-35.698,4.128-46.135C169.181,346.6,172.961,344.182,172.961,344.182z"/>
<linearGradient id="SVGID_33_" gradientUnits="userSpaceOnUse" x1="-18.5681" y1="575.8057" x2="-24.8421" y2="586.4567" gradientTransform="matrix(7.8769 0 0 -7.8769 364.1079 4969.5996)">
	<stop  offset="0.012" style="stop-color:#E0B386"/>
	<stop  offset="0.519" style="stop-color:#DA498C"/>
	<stop  offset="1" style="stop-color:#961484"/>
</linearGradient>
<path style="fill:url(#SVGID_33_);" d="M186.841,384.307c0,0,5.278,8.783,6.711,21.087c1.457,12.304,13.753,10.547,14.864,20.598
	c0,0,8.775-15.423-3.033-26.671C191.945,386.536,186.841,384.307,186.841,384.307z"/>
<linearGradient id="SVGID_34_" gradientUnits="userSpaceOnUse" x1="-26.2598" y1="577.569" x2="-34.1298" y2="590.9431" gradientTransform="matrix(7.8769 0 0 -7.8769 364.1079 4969.5996)">
	<stop  offset="0" style="stop-color:#29D3DA"/>
	<stop  offset="0.519" style="stop-color:#0077FF"/>
	<stop  offset="0.999" style="stop-color:#064093"/>
	<stop  offset="1" style="stop-color:#084698"/>
</linearGradient>
<path style="fill:url(#SVGID_34_);" d="M172.623,337.636c0,0-28.751,29.444-29.964,60.952c-0.906,23.765-36.84,34.083-68.868,31.673
	l112.601-112.601L172.623,337.636z"/>
<linearGradient id="SVGID_35_" gradientUnits="userSpaceOnUse" x1="-26.8579" y1="574.646" x2="-29.0999" y2="578.4561" gradientTransform="matrix(7.8769 0 0 -7.8769 364.1079 4969.5996)">
	<stop  offset="0" style="stop-color:#29D3DA"/>
	<stop  offset="0.519" style="stop-color:#0077FF"/>
	<stop  offset="0.999" style="stop-color:#064093"/>
	<stop  offset="1" style="stop-color:#084698"/>
</linearGradient>
<path style="fill:url(#SVGID_35_);" d="M153.175,418.737c0,0,10.319,23.41-15.573,24.497c0,0,4.836-2.977,3.686-11.02
	C140.13,424.18,153.175,418.737,153.175,418.737z"/>
<linearGradient id="SVGID_36_" gradientUnits="userSpaceOnUse" x1="-35.5641" y1="597.6501" x2="-15.7541" y2="585.9881" gradientTransform="matrix(7.8769 0 0 -7.8769 364.1079 4969.5996)">
	<stop  offset="0" style="stop-color:#29D3DA"/>
	<stop  offset="0.519" style="stop-color:#0077FF"/>
	<stop  offset="0.999" style="stop-color:#064093"/>
	<stop  offset="1" style="stop-color:#084698"/>
</linearGradient>
<path style="fill:url(#SVGID_36_);" d="M176.096,320.118c0,0-32.004,21.008-54.051-7.916c-22.04-28.916-5.498-62.669-5.498-62.669
	s-3.797,24.45,20.315,40.976c24.096,16.534,14.115,21.008,20.645,26.159C164.053,321.843,176.096,320.118,176.096,320.118z"/>
<linearGradient id="SVGID_37_" gradientUnits="userSpaceOnUse" x1="-38.4401" y1="591.7255" x2="-20.9031" y2="581.4064" gradientTransform="matrix(7.8769 0 0 -7.8769 364.1079 4969.5996)">
	<stop  offset="0.012" style="stop-color:#E0B386"/>
	<stop  offset="0.519" style="stop-color:#DA498C"/>
	<stop  offset="1" style="stop-color:#961484"/>
</linearGradient>
<path style="fill:url(#SVGID_37_);" d="M159.917,331.146c0,0-20.133,6.026-44.402-9.641c-19.354-12.493-44.079-2.765-51.665,24.103
	c0,0,13.777-11.713,29.617,2.749c15.833,14.462,35.69,1.3,46.135-4.128C157.515,334.935,159.917,331.146,159.917,331.146z"/>
<linearGradient id="SVGID_38_" gradientUnits="userSpaceOnUse" x1="-37.3287" y1="594.5659" x2="-26.6747" y2="588.2889" gradientTransform="matrix(7.8769 0 0 -7.8769 364.1079 4969.5996)">
	<stop  offset="0.012" style="stop-color:#E0B386"/>
	<stop  offset="0.519" style="stop-color:#DA498C"/>
	<stop  offset="1" style="stop-color:#961484"/>
</linearGradient>
<path style="fill:url(#SVGID_38_);" d="M119.808,317.259c0,0-8.783-5.27-21.094-6.703c-12.296-1.449-10.547-13.753-20.606-14.872
	c0,0,15.439-8.767,26.687,3.048C117.579,312.162,119.808,317.259,119.808,317.259z"/>
<linearGradient id="SVGID_39_" gradientUnits="userSpaceOnUse" x1="-37.7701" y1="586.9561" x2="-26.9871" y2="582.236" gradientTransform="matrix(7.8769 0 0 -7.8769 364.1079 4969.5996)">
	<stop  offset="0" style="stop-color:#29D3DA"/>
	<stop  offset="0.519" style="stop-color:#0077FF"/>
	<stop  offset="0.999" style="stop-color:#064093"/>
	<stop  offset="1" style="stop-color:#084698"/>
</linearGradient>
<path style="fill:url(#SVGID_39_);" d="M166.471,331.485c0,0-29.444,28.751-60.952,29.964c-23.765,0.906-34.076,36.84-31.673,68.86
	l112.593-112.601L166.471,331.485z"/>
<linearGradient id="SVGID_40_" gradientUnits="userSpaceOnUse" x1="-38.4865" y1="586.274" x2="-34.6775" y2="584.034" gradientTransform="matrix(7.8769 0 0 -7.8769 364.1079 4969.5996)">
	<stop  offset="0" style="stop-color:#29D3DA"/>
	<stop  offset="0.519" style="stop-color:#0077FF"/>
	<stop  offset="0.999" style="stop-color:#064093"/>
	<stop  offset="1" style="stop-color:#084698"/>
</linearGradient>
<path style="fill:url(#SVGID_40_);" d="M85.378,350.941c0,0-23.434-10.335-24.505,15.565c0,0,2.985-4.829,11.012-3.686
	C79.919,363.969,85.378,350.941,85.378,350.941z"/>
<linearGradient id="SVGID_41_" gradientUnits="userSpaceOnUse" x1="1.7538" y1="613.1053" x2="-4.0132" y2="590.8503" gradientTransform="matrix(7.8769 0 0 -7.8769 364.1079 4969.5996)">
	<stop  offset="0" style="stop-color:#29D3DA"/>
	<stop  offset="0.519" style="stop-color:#0077FF"/>
	<stop  offset="0.999" style="stop-color:#064093"/>
	<stop  offset="1" style="stop-color:#084698"/>
</linearGradient>
<path style="fill:url(#SVGID_41_);" d="M353.887,246.493c0,0,37.494-7.79,32.634-43.827c-4.868-36.037-40.424-48.207-40.424-48.207
	s19.968,14.604,14.612,43.339c-5.356,28.727,4.86,24.828,3.883,33.107C363.622,239.183,353.887,246.493,353.887,246.493z"/>
<linearGradient id="SVGID_42_" gradientUnits="userSpaceOnUse" x1="7.9744" y1="610.9534" x2="2.8704" y2="591.2474" gradientTransform="matrix(7.8769 0 0 -7.8769 364.1079 4969.5996)">
	<stop  offset="0.012" style="stop-color:#E0B386"/>
	<stop  offset="0.519" style="stop-color:#DA498C"/>
	<stop  offset="1" style="stop-color:#961484"/>
</linearGradient>
<path style="fill:url(#SVGID_42_);" d="M373.13,242.83c0,0,18.495-9.98,24.576-38.219c4.852-22.52,29.216-33.122,53.579-19.488
	c0,0-18.03,1.457-18.991,22.875c-0.985,21.441-24.324,26.159-35.556,29.712C377.517,243.799,373.13,242.83,373.13,242.83z"/>
<linearGradient id="SVGID_43_" gradientUnits="userSpaceOnUse" x1="5.1832" y1="612.1749" x2="2.0812" y2="600.197" gradientTransform="matrix(7.8769 0 0 -7.8769 364.1079 4969.5996)">
	<stop  offset="0.012" style="stop-color:#E0B386"/>
	<stop  offset="0.519" style="stop-color:#DA498C"/>
	<stop  offset="1" style="stop-color:#961484"/>
</linearGradient>
<path style="fill:url(#SVGID_43_);" d="M391.68,204.65c0,0,2.481-9.941,10.161-19.653c7.688-9.72-2.253-17.187,4.08-25.096
	c0,0-17.124,4.71-16.723,21.031C389.64,199.467,391.68,204.65,391.68,204.65z"/>
<linearGradient id="SVGID_44_" gradientUnits="userSpaceOnUse" x1="9.3701" y1="605.4833" x2="5.4801" y2="590.4613" gradientTransform="matrix(7.8769 0 0 -7.8769 364.1079 4969.5996)">
	<stop  offset="0" style="stop-color:#29D3DA"/>
	<stop  offset="0.519" style="stop-color:#0077FF"/>
	<stop  offset="0.999" style="stop-color:#064093"/>
	<stop  offset="1" style="stop-color:#084698"/>
</linearGradient>
<path style="fill:url(#SVGID_44_);" d="M368.742,247.706c0,0,41.141-0.488,64.276-21.914c17.447-16.171,50.152,1.946,71.089,26.301
	H344.875L368.742,247.706z"/>
<linearGradient id="SVGID_45_" gradientUnits="userSpaceOnUse" x1="11.8615" y1="607.1279" x2="10.7515" y2="602.8489" gradientTransform="matrix(7.8769 0 0 -7.8769 364.1079 4969.5996)">
	<stop  offset="0" style="stop-color:#29D3DA"/>
	<stop  offset="0.519" style="stop-color:#0077FF"/>
	<stop  offset="0.999" style="stop-color:#064093"/>
	<stop  offset="1" style="stop-color:#084698"/>
</linearGradient>
<path style="fill:url(#SVGID_45_);" d="M439.832,204.115c0,0,9.263-23.851,28.333-6.325c0,0-5.506-1.3-10.39,5.191
	C452.899,209.487,439.832,204.115,439.832,204.115z"/>
<linearGradient id="SVGID_46_" gradientUnits="userSpaceOnUse" x1="1.754" y1="584.7061" x2="-4.014" y2="606.9661" gradientTransform="matrix(7.8769 0 0 -7.8769 364.1079 4969.5996)">
	<stop  offset="0" style="stop-color:#29D3DA"/>
	<stop  offset="0.519" style="stop-color:#0077FF"/>
	<stop  offset="0.999" style="stop-color:#064093"/>
	<stop  offset="1" style="stop-color:#084698"/>
</linearGradient>
<path style="fill:url(#SVGID_46_);" d="M353.887,257.631c0,0,37.494,7.79,32.634,43.819c-4.868,36.029-40.424,48.215-40.424,48.215
	s19.968-14.604,14.612-43.347c-5.364-28.727,4.86-24.828,3.883-33.115C363.63,264.932,353.887,257.631,353.887,257.631z"/>
<linearGradient id="SVGID_47_" gradientUnits="userSpaceOnUse" x1="7.9749" y1="586.8626" x2="2.8709" y2="606.5636" gradientTransform="matrix(7.8769 0 0 -7.8769 364.1079 4969.5996)">
	<stop  offset="0.012" style="stop-color:#E0B386"/>
	<stop  offset="0.519" style="stop-color:#DA498C"/>
	<stop  offset="1" style="stop-color:#961484"/>
</linearGradient>
<path style="fill:url(#SVGID_47_);" d="M373.13,261.278c0,0,18.511,9.988,24.576,38.235c4.852,22.504,29.223,33.115,53.587,19.472
	c0,0-18.038-1.457-18.991-22.867c-0.985-21.433-24.332-26.167-35.564-29.712C377.517,260.309,373.13,261.278,373.13,261.278z"/>
<linearGradient id="SVGID_48_" gradientUnits="userSpaceOnUse" x1="5.1825" y1="585.6412" x2="2.0815" y2="597.6142" gradientTransform="matrix(7.8769 0 0 -7.8769 364.1079 4969.5996)">
	<stop  offset="0.012" style="stop-color:#E0B386"/>
	<stop  offset="0.519" style="stop-color:#DA498C"/>
	<stop  offset="1" style="stop-color:#961484"/>
</linearGradient>
<path style="fill:url(#SVGID_48_);" d="M391.688,299.465c0,0,2.481,9.941,10.153,19.661c7.688,9.712-2.253,17.172,4.08,25.072
	c0,0-17.124-4.703-16.723-21.008C389.64,304.656,391.688,299.465,391.688,299.465z"/>
<linearGradient id="SVGID_49_" gradientUnits="userSpaceOnUse" x1="10.875" y1="590.7094" x2="6.585" y2="601.6724" gradientTransform="matrix(7.8769 0 0 -7.8769 364.1079 4969.5996)">
	<stop  offset="0" style="stop-color:#29D3DA"/>
	<stop  offset="0.519" style="stop-color:#0077FF"/>
	<stop  offset="0.999" style="stop-color:#064093"/>
	<stop  offset="1" style="stop-color:#084698"/>
</linearGradient>
<path style="fill:url(#SVGID_49_);" d="M368.735,256.41c0,0,41.149,0.488,64.284,21.914c17.447,16.156,50.152-1.938,71.089-26.293
	H344.875L368.735,256.41z"/>
<linearGradient id="SVGID_50_" gradientUnits="userSpaceOnUse" x1="11.8614" y1="590.6834" x2="10.7514" y2="594.9704" gradientTransform="matrix(7.8769 0 0 -7.8769 364.1079 4969.5996)">
	<stop  offset="0" style="stop-color:#29D3DA"/>
	<stop  offset="0.519" style="stop-color:#0077FF"/>
	<stop  offset="0.999" style="stop-color:#064093"/>
	<stop  offset="1" style="stop-color:#084698"/>
</linearGradient>
<path style="fill:url(#SVGID_50_);" d="M439.832,299.985c0,0,9.263,23.875,28.333,6.341c0,0-5.506,1.3-10.382-5.191
	C452.907,294.644,439.832,299.985,439.832,299.985z"/>
<linearGradient id="SVGID_51_" gradientUnits="userSpaceOnUse" x1="-30.2043" y1="584.7061" x2="-24.4373" y2="606.9661" gradientTransform="matrix(7.8769 0 0 -7.8769 364.1079 4969.5996)">
	<stop  offset="0" style="stop-color:#29D3DA"/>
	<stop  offset="0.519" style="stop-color:#0077FF"/>
	<stop  offset="0.999" style="stop-color:#064093"/>
	<stop  offset="1" style="stop-color:#084698"/>
</linearGradient>
<path style="fill:url(#SVGID_51_);" d="M150.221,257.623c0,0-37.494,7.798-32.626,43.819c4.86,36.045,40.424,48.223,40.424,48.223
	s-19.968-14.604-14.62-43.347c5.364-28.719-4.86-24.828-3.883-33.122C140.469,264.925,150.221,257.623,150.221,257.623z"/>
<linearGradient id="SVGID_52_" gradientUnits="userSpaceOnUse" x1="-36.4252" y1="586.8621" x2="-31.3212" y2="606.563" gradientTransform="matrix(7.8769 0 0 -7.8769 364.1079 4969.5996)">
	<stop  offset="0.012" style="stop-color:#E0B386"/>
	<stop  offset="0.519" style="stop-color:#DA498C"/>
	<stop  offset="1" style="stop-color:#961484"/>
</linearGradient>
<path style="fill:url(#SVGID_52_);" d="M130.985,261.278c0,0-18.511,9.988-24.584,38.235c-4.852,22.504-29.223,33.107-53.579,19.48
	c0,0,18.03-1.465,18.983-22.875c0.985-21.441,24.332-26.167,35.572-29.704C126.598,260.309,130.985,261.278,130.985,261.278z"/>
<linearGradient id="SVGID_53_" gradientUnits="userSpaceOnUse" x1="-33.6348" y1="585.6429" x2="-30.5328" y2="597.6119" gradientTransform="matrix(7.8769 0 0 -7.8769 364.1079 4969.5996)">
	<stop  offset="0.012" style="stop-color:#E0B386"/>
	<stop  offset="0.519" style="stop-color:#DA498C"/>
	<stop  offset="1" style="stop-color:#961484"/>
</linearGradient>
<path style="fill:url(#SVGID_53_);" d="M112.427,299.465c0,0-2.481,9.941-10.177,19.653c-7.672,9.72,2.261,17.18-4.064,25.072
	c0,0,17.117-4.695,16.723-21C114.46,304.656,112.427,299.465,112.427,299.465z"/>
<linearGradient id="SVGID_54_" gradientUnits="userSpaceOnUse" x1="-37.8214" y1="592.3268" x2="-33.9294" y2="607.3569" gradientTransform="matrix(7.8769 0 0 -7.8769 364.1079 4969.5996)">
	<stop  offset="0" style="stop-color:#29D3DA"/>
	<stop  offset="0.519" style="stop-color:#0077FF"/>
	<stop  offset="0.999" style="stop-color:#064093"/>
	<stop  offset="1" style="stop-color:#084698"/>
</linearGradient>
<path style="fill:url(#SVGID_54_);" d="M135.365,256.41c0,0-41.149,0.488-64.26,21.906C53.65,294.479,20.945,276.385,0,252.014
	h159.248L135.365,256.41z"/>
<linearGradient id="SVGID_55_" gradientUnits="userSpaceOnUse" x1="-40.3116" y1="590.6882" x2="-39.2026" y2="594.9672" gradientTransform="matrix(7.8769 0 0 -7.8769 364.1079 4969.5996)">
	<stop  offset="0" style="stop-color:#29D3DA"/>
	<stop  offset="0.519" style="stop-color:#0077FF"/>
	<stop  offset="0.999" style="stop-color:#064093"/>
	<stop  offset="1" style="stop-color:#084698"/>
</linearGradient>
<path style="fill:url(#SVGID_55_);" d="M64.276,300.001c0,0-9.255,23.843-28.333,6.325c0,0,5.522,1.308,10.382-5.199
	C51.2,294.628,64.276,300.001,64.276,300.001z"/>
<linearGradient id="SVGID_56_" gradientUnits="userSpaceOnUse" x1="-30.2038" y1="613.1061" x2="-24.4388" y2="590.8541" gradientTransform="matrix(7.8769 0 0 -7.8769 364.1079 4969.5996)">
	<stop  offset="0" style="stop-color:#29D3DA"/>
	<stop  offset="0.519" style="stop-color:#0077FF"/>
	<stop  offset="0.999" style="stop-color:#064093"/>
	<stop  offset="1" style="stop-color:#084698"/>
</linearGradient>
<path style="fill:url(#SVGID_56_);" d="M150.221,246.477c0,0-37.494-7.775-32.618-43.811c4.852-36.029,40.416-48.207,40.416-48.207
	s-19.968,14.604-14.612,43.339c5.356,28.719-4.868,24.836-3.891,33.099C140.469,239.175,150.221,246.477,150.221,246.477z"/>
<linearGradient id="SVGID_57_" gradientUnits="userSpaceOnUse" x1="-36.4244" y1="610.9512" x2="-31.3214" y2="591.2473" gradientTransform="matrix(7.8769 0 0 -7.8769 364.1079 4969.5996)">
	<stop  offset="0.012" style="stop-color:#E0B386"/>
	<stop  offset="0.519" style="stop-color:#DA498C"/>
	<stop  offset="1" style="stop-color:#961484"/>
</linearGradient>
<path style="fill:url(#SVGID_57_);" d="M130.985,242.83c0,0-18.511-9.98-24.584-38.219c-4.852-22.512-29.223-33.122-53.579-19.488
	c0,0,18.03,1.457,18.999,22.882s24.324,26.151,35.556,29.704C126.598,243.814,130.985,242.83,130.985,242.83z"/>
<linearGradient id="SVGID_58_" gradientUnits="userSpaceOnUse" x1="-33.6355" y1="612.1752" x2="-30.5325" y2="600.1972" gradientTransform="matrix(7.8769 0 0 -7.8769 364.1079 4969.5996)">
	<stop  offset="0.012" style="stop-color:#E0B386"/>
	<stop  offset="0.519" style="stop-color:#DA498C"/>
	<stop  offset="1" style="stop-color:#961484"/>
</linearGradient>
<path style="fill:url(#SVGID_58_);" d="M112.435,204.65c0,0-2.481-9.941-10.185-19.653c-7.672-9.72,2.261-17.187-4.064-25.096
	c0,0,17.124,4.726,16.723,21.031C114.46,199.467,112.435,204.65,112.435,204.65z"/>
<linearGradient id="SVGID_59_" gradientUnits="userSpaceOnUse" x1="-39.3217" y1="607.1022" x2="-35.0347" y2="596.1371" gradientTransform="matrix(7.8769 0 0 -7.8769 364.1079 4969.5996)">
	<stop  offset="0" style="stop-color:#29D3DA"/>
	<stop  offset="0.519" style="stop-color:#0077FF"/>
	<stop  offset="0.999" style="stop-color:#064093"/>
	<stop  offset="1" style="stop-color:#084698"/>
</linearGradient>
<path style="fill:url(#SVGID_59_);" d="M135.365,247.706c0,0-41.149-0.488-64.276-21.914C53.642,209.621,20.945,227.738,0,252.085
	h159.248L135.365,247.706z"/>
<linearGradient id="SVGID_60_" gradientUnits="userSpaceOnUse" x1="-40.3124" y1="607.128" x2="-39.2034" y2="602.849" gradientTransform="matrix(7.8769 0 0 -7.8769 364.1079 4969.5996)">
	<stop  offset="0" style="stop-color:#29D3DA"/>
	<stop  offset="0.519" style="stop-color:#0077FF"/>
	<stop  offset="0.999" style="stop-color:#064093"/>
	<stop  offset="1" style="stop-color:#084698"/>
</linearGradient>
<path style="fill:url(#SVGID_60_);" d="M64.276,204.115c0,0-9.255-23.859-28.333-6.325c0,0,5.522-1.3,10.382,5.191
	C51.2,209.471,64.276,204.115,64.276,204.115z"/>
<linearGradient id="SVGID_61_" gradientUnits="userSpaceOnUse" x1="7.1144" y1="597.6484" x2="-12.6946" y2="585.9954" gradientTransform="matrix(7.8769 0 0 -7.8769 364.1079 4969.5996)">
	<stop  offset="0" style="stop-color:#29D3DA"/>
	<stop  offset="0.519" style="stop-color:#0077FF"/>
	<stop  offset="0.999" style="stop-color:#064093"/>
	<stop  offset="1" style="stop-color:#084698"/>
</linearGradient>
<path style="fill:url(#SVGID_61_);" d="M328.003,320.134c0,0,32.012,20.992,54.051-7.932c22.048-28.916,5.506-62.661,5.506-62.661
	s3.797,24.45-20.307,40.976c-24.103,16.534-14.115,20.992-20.661,26.159C340.039,321.851,328.003,320.134,328.003,320.134z"/>
<linearGradient id="SVGID_62_" gradientUnits="userSpaceOnUse" x1="9.991" y1="591.7244" x2="-7.554" y2="581.4044" gradientTransform="matrix(7.8769 0 0 -7.8769 364.1079 4969.5996)">
	<stop  offset="0.012" style="stop-color:#E0B386"/>
	<stop  offset="0.519" style="stop-color:#DA498C"/>
	<stop  offset="1" style="stop-color:#961484"/>
</linearGradient>
<path style="fill:url(#SVGID_62_);" d="M344.19,331.154c0,0,20.133,6.026,44.402-9.649c19.354-12.493,44.079-2.765,51.665,24.111
	c0,0-13.777-11.721-29.609,2.741c-15.848,14.47-35.69,1.308-46.143-4.12C346.608,334.935,344.19,331.154,344.19,331.154z"/>
<linearGradient id="SVGID_63_" gradientUnits="userSpaceOnUse" x1="8.8763" y1="594.562" x2="-1.7787" y2="588.2939" gradientTransform="matrix(7.8769 0 0 -7.8769 364.1079 4969.5996)">
	<stop  offset="0.012" style="stop-color:#E0B386"/>
	<stop  offset="0.519" style="stop-color:#DA498C"/>
	<stop  offset="1" style="stop-color:#961484"/>
</linearGradient>
<path style="fill:url(#SVGID_63_);" d="M384.299,317.267c0,0,8.783-5.27,21.094-6.703c12.296-1.457,10.555-13.761,20.598-14.879
	c0,0-15.423-8.775-26.679,3.048C386.536,312.17,384.299,317.267,384.299,317.267z"/>
<linearGradient id="SVGID_64_" gradientUnits="userSpaceOnUse" x1="7.1102" y1="586.8701" x2="-6.2598" y2="579.0041" gradientTransform="matrix(7.8769 0 0 -7.8769 364.1079 4969.5996)">
	<stop  offset="0" style="stop-color:#29D3DA"/>
	<stop  offset="0.519" style="stop-color:#0077FF"/>
	<stop  offset="0.999" style="stop-color:#064093"/>
	<stop  offset="1" style="stop-color:#084698"/>
</linearGradient>
<path style="fill:url(#SVGID_64_);" d="M337.636,331.5c0,0,29.444,28.743,60.952,29.948c23.757,0.906,34.076,36.848,31.673,68.876
	L317.668,317.716L337.636,331.5z"/>
<linearGradient id="SVGID_65_" gradientUnits="userSpaceOnUse" x1="10.0363" y1="586.2739" x2="6.2263" y2="584.0339" gradientTransform="matrix(7.8769 0 0 -7.8769 364.1079 4969.5996)">
	<stop  offset="0" style="stop-color:#29D3DA"/>
	<stop  offset="0.519" style="stop-color:#0077FF"/>
	<stop  offset="0.999" style="stop-color:#064093"/>
	<stop  offset="1" style="stop-color:#084698"/>
</linearGradient>
<path style="fill:url(#SVGID_65_);" d="M418.729,350.941c0,0,23.418-10.327,24.505,15.573c0,0-2.977-4.829-11.02-3.694
	C424.18,363.985,418.729,350.941,418.729,350.941z"/>
<linearGradient id="SVGID_66_" gradientUnits="userSpaceOnUse" x1="-12.9693" y1="577.5644" x2="-1.3143" y2="597.3764" gradientTransform="matrix(7.8769 0 0 -7.8769 364.1079 4969.5996)">
	<stop  offset="0" style="stop-color:#29D3DA"/>
	<stop  offset="0.519" style="stop-color:#0077FF"/>
	<stop  offset="0.999" style="stop-color:#064093"/>
	<stop  offset="1" style="stop-color:#084698"/>
</linearGradient>
<path style="fill:url(#SVGID_66_);" d="M320.118,328.019c0,0,21.008,32.004-7.924,54.044c-28.908,22.04-62.669,5.506-62.669,5.506
	s24.45,3.797,40.984-20.315c16.534-24.103,21-14.115,26.159-20.661C321.851,340.063,320.118,328.019,320.118,328.019z"/>
<linearGradient id="SVGID_67_" gradientUnits="userSpaceOnUse" x1="-7.0445" y1="574.6891" x2="3.2745" y2="592.2271" gradientTransform="matrix(7.8769 0 0 -7.8769 364.1079 4969.5996)">
	<stop  offset="0.012" style="stop-color:#E0B386"/>
	<stop  offset="0.519" style="stop-color:#DA498C"/>
	<stop  offset="1" style="stop-color:#961484"/>
</linearGradient>
<path style="fill:url(#SVGID_67_);" d="M331.154,344.19c0,0,6.026,20.149-9.657,44.418c-12.485,19.338-2.765,44.079,24.119,51.657
	c0,0-11.721-13.777,2.741-29.609c14.462-15.848,1.308-35.698-4.128-46.143C334.935,346.608,331.154,344.19,331.154,344.19z"/>
<linearGradient id="SVGID_68_" gradientUnits="userSpaceOnUse" x1="-9.8851" y1="575.8016" x2="-3.6081" y2="586.4606" gradientTransform="matrix(7.8769 0 0 -7.8769 364.1079 4969.5996)">
	<stop  offset="0.012" style="stop-color:#E0B386"/>
	<stop  offset="0.519" style="stop-color:#DA498C"/>
	<stop  offset="1" style="stop-color:#961484"/>
</linearGradient>
<path style="fill:url(#SVGID_68_);" d="M317.267,384.307c0,0-5.278,8.783-6.719,21.094c-1.449,12.304-13.745,10.539-14.864,20.598
	c0,0-8.775-15.431,3.04-26.679C312.155,386.536,317.267,384.307,317.267,384.307z"/>
<linearGradient id="SVGID_69_" gradientUnits="userSpaceOnUse" x1="-2.2748" y1="575.3568" x2="2.4452" y2="586.1468" gradientTransform="matrix(7.8769 0 0 -7.8769 364.1079 4969.5996)">
	<stop  offset="0" style="stop-color:#29D3DA"/>
	<stop  offset="0.519" style="stop-color:#0077FF"/>
	<stop  offset="0.999" style="stop-color:#064093"/>
	<stop  offset="1" style="stop-color:#084698"/>
</linearGradient>
<path style="fill:url(#SVGID_69_);" d="M331.485,337.636c0,0,28.767,29.452,29.956,60.96c0.906,23.757,36.84,34.083,68.868,31.673
	L317.7,317.676L331.485,337.636z"/>
<linearGradient id="SVGID_70_" gradientUnits="userSpaceOnUse" x1="-1.594" y1="574.6442" x2="0.646" y2="578.4562" gradientTransform="matrix(7.8769 0 0 -7.8769 364.1079 4969.5996)">
	<stop  offset="0" style="stop-color:#29D3DA"/>
	<stop  offset="0.519" style="stop-color:#0077FF"/>
	<stop  offset="0.999" style="stop-color:#064093"/>
	<stop  offset="1" style="stop-color:#084698"/>
</linearGradient>
<path style="fill:url(#SVGID_70_);" d="M350.933,418.729c0,0-10.327,23.426,15.565,24.505c0,0-4.821-2.977-3.679-11.012
	C363.969,424.188,350.933,418.729,350.933,418.729z"/>
<linearGradient id="SVGID_71_" gradientUnits="userSpaceOnUse" x1="-35.5686" y1="600.1604" x2="-15.7536" y2="611.8264" gradientTransform="matrix(7.8769 0 0 -7.8769 364.1079 4969.5996)">
	<stop  offset="0" style="stop-color:#29D3DA"/>
	<stop  offset="0.519" style="stop-color:#0077FF"/>
	<stop  offset="0.999" style="stop-color:#064093"/>
	<stop  offset="1" style="stop-color:#084698"/>
</linearGradient>
<path style="fill:url(#SVGID_71_);" d="M176.104,183.989c0,0-32.02-21.008-54.059,7.916s-5.498,62.685-5.498,62.685
	s-3.789-24.45,20.307-40.992c24.103-16.518,14.108-20.992,20.677-26.167C164.061,182.264,176.104,183.989,176.104,183.989z"/>
<linearGradient id="SVGID_72_" gradientUnits="userSpaceOnUse" x1="-38.4399" y1="606.0877" x2="-20.9039" y2="616.4077" gradientTransform="matrix(7.8769 0 0 -7.8769 364.1079 4969.5996)">
	<stop  offset="0.012" style="stop-color:#E0B386"/>
	<stop  offset="0.519" style="stop-color:#DA498C"/>
	<stop  offset="1" style="stop-color:#961484"/>
</linearGradient>
<path style="fill:url(#SVGID_72_);" d="M159.917,172.969c0,0-20.133-6.034-44.41,9.649c-19.346,12.485-44.071,2.757-51.665-24.111
	c0,0,13.792,11.705,29.609-2.757c15.856-14.462,35.706-1.3,46.151,4.143C157.515,169.181,159.917,172.969,159.917,172.969z"/>
<linearGradient id="SVGID_73_" gradientUnits="userSpaceOnUse" x1="-37.3308" y1="603.2475" x2="-26.6758" y2="609.5225" gradientTransform="matrix(7.8769 0 0 -7.8769 364.1079 4969.5996)">
	<stop  offset="0.012" style="stop-color:#E0B386"/>
	<stop  offset="0.519" style="stop-color:#DA498C"/>
	<stop  offset="1" style="stop-color:#961484"/>
</linearGradient>
<path style="fill:url(#SVGID_73_);" d="M119.808,186.848c0,0-8.791,5.278-21.094,6.711c-12.304,1.457-10.547,13.745-20.598,14.864
	c0,0,15.423,8.775,26.663-3.04C117.571,191.961,119.808,186.848,119.808,186.848z"/>
<linearGradient id="SVGID_74_" gradientUnits="userSpaceOnUse" x1="-35.5594" y1="610.9427" x2="-22.1884" y2="618.8107" gradientTransform="matrix(7.8769 0 0 -7.8769 364.1079 4969.5996)">
	<stop  offset="0" style="stop-color:#29D3DA"/>
	<stop  offset="0.519" style="stop-color:#0077FF"/>
	<stop  offset="0.999" style="stop-color:#064093"/>
	<stop  offset="1" style="stop-color:#084698"/>
</linearGradient>
<path style="fill:url(#SVGID_74_);" d="M166.471,172.623c0,0-29.444-28.751-60.944-29.956
	c-23.765-0.906-34.083-36.833-31.673-68.876L186.463,186.4L166.471,172.623z"/>
<linearGradient id="SVGID_75_" gradientUnits="userSpaceOnUse" x1="-38.4862" y1="611.5392" x2="-34.6762" y2="613.7802" gradientTransform="matrix(7.8769 0 0 -7.8769 364.1079 4969.5996)">
	<stop  offset="0" style="stop-color:#29D3DA"/>
	<stop  offset="0.519" style="stop-color:#0077FF"/>
	<stop  offset="0.999" style="stop-color:#064093"/>
	<stop  offset="1" style="stop-color:#084698"/>
</linearGradient>
<path style="fill:url(#SVGID_75_);" d="M85.37,153.183c0,0-23.41,10.311-24.497-15.573c0,0,2.977,4.836,11.02,3.679
	C79.919,140.138,85.37,153.183,85.37,153.183z"/>
<linearGradient id="SVGID_76_" gradientUnits="userSpaceOnUse" x1="-15.4841" y1="620.2452" x2="-27.1381" y2="600.4373" gradientTransform="matrix(7.8769 0 0 -7.8769 364.1079 4969.5996)">
	<stop  offset="0" style="stop-color:#29D3DA"/>
	<stop  offset="0.519" style="stop-color:#0077FF"/>
	<stop  offset="0.999" style="stop-color:#064093"/>
	<stop  offset="1" style="stop-color:#084698"/>
</linearGradient>
<path style="fill:url(#SVGID_76_);" d="M183.989,176.096c0,0-21-32.004,7.916-54.044s62.669-5.498,62.669-5.498
	s-24.45-3.797-40.984,20.307c-16.526,24.096-21,14.123-26.144,20.653C182.264,164.061,183.989,176.096,183.989,176.096z"/>
<linearGradient id="SVGID_77_" gradientUnits="userSpaceOnUse" x1="-21.4055" y1="623.1221" x2="-31.7265" y2="605.5841" gradientTransform="matrix(7.8769 0 0 -7.8769 364.1079 4969.5996)">
	<stop  offset="0.012" style="stop-color:#E0B386"/>
	<stop  offset="0.519" style="stop-color:#DA498C"/>
	<stop  offset="1" style="stop-color:#961484"/>
</linearGradient>
<path style="fill:url(#SVGID_77_);" d="M172.969,159.925c0,0-6.034-20.141,9.633-44.41c12.485-19.346,2.765-44.087-24.103-51.657
	c0,0,11.721,13.777-2.749,29.617c-14.462,15.833-1.284,35.69,4.128,46.135C169.181,157.523,172.969,159.925,172.969,159.925z"/>
<linearGradient id="SVGID_78_" gradientUnits="userSpaceOnUse" x1="-18.567" y1="622.014" x2="-24.843" y2="611.348" gradientTransform="matrix(7.8769 0 0 -7.8769 364.1079 4969.5996)">
	<stop  offset="0.012" style="stop-color:#E0B386"/>
	<stop  offset="0.519" style="stop-color:#DA498C"/>
	<stop  offset="1" style="stop-color:#961484"/>
</linearGradient>
<path style="fill:url(#SVGID_78_);" d="M186.841,119.816c0,0,5.278-8.783,6.711-21.094c1.449-12.304,13.753-10.555,14.872-20.614
	c0,0,8.767,15.447-3.048,26.687C191.945,117.587,186.841,119.816,186.841,119.816z"/>
<linearGradient id="SVGID_79_" gradientUnits="userSpaceOnUse" x1="-26.177" y1="622.4493" x2="-30.898" y2="611.6674" gradientTransform="matrix(7.8769 0 0 -7.8769 364.1079 4969.5996)">
	<stop  offset="0" style="stop-color:#29D3DA"/>
	<stop  offset="0.519" style="stop-color:#0077FF"/>
	<stop  offset="0.999" style="stop-color:#064093"/>
	<stop  offset="1" style="stop-color:#084698"/>
</linearGradient>
<path style="fill:url(#SVGID_79_);" d="M172.623,166.479c0,0-28.751-29.452-29.964-60.96c-0.906-23.765-36.84-34.076-68.868-31.673
	l112.608,112.601L172.623,166.479z"/>
<linearGradient id="SVGID_80_" gradientUnits="userSpaceOnUse" x1="-26.858" y1="623.1684" x2="-29.1" y2="619.3574" gradientTransform="matrix(7.8769 0 0 -7.8769 364.1079 4969.5996)">
	<stop  offset="0" style="stop-color:#29D3DA"/>
	<stop  offset="0.519" style="stop-color:#0077FF"/>
	<stop  offset="0.999" style="stop-color:#064093"/>
	<stop  offset="1" style="stop-color:#084698"/>
</linearGradient>
<path style="fill:url(#SVGID_80_);" d="M153.167,85.378c0,0,10.335-23.418-15.565-24.497c0,0,4.829,2.985,3.686,11.012
	C140.138,79.919,153.167,85.378,153.167,85.378z"/>
<g>
</g>
<g>
</g>
<g>
</g>
<g>
</g>
<g>
</g>
<g>
</g>
<g>
</g>
<g>
</g>
<g>
</g>
<g>
</g>
<g>
</g>
<g>
</g>
<g>
</g>
<g>
</g>
<g>
</g>
</svg>
