<?xml version="1.0" encoding="iso-8859-1"?>
<!-- Generator: Adobe Illustrator 19.0.0, SVG Export Plug-In . SVG Version: 6.00 Build 0)  -->
<svg version="1.1" id="Layer_1" xmlns="http://www.w3.org/2000/svg" xmlns:xlink="http://www.w3.org/1999/xlink" x="0px" y="0px"
	 viewBox="0 0 504.123 504.123" style="enable-background:new 0 0 504.123 504.123;" xml:space="preserve">
<linearGradient id="SVGID_1_" gradientUnits="userSpaceOnUse" x1="-14.2183" y1="591.085" x2="-14.2183" y2="543.6951" gradientTransform="matrix(7.8769 0 0 -7.8769 364.0537 4969.6694)">
	<stop  offset="0.012" style="stop-color:#E0B386"/>
	<stop  offset="0.519" style="stop-color:#DA498C"/>
	<stop  offset="1" style="stop-color:#961484"/>
</linearGradient>
<path style="fill:url(#SVGID_1_);" d="M176.246,435.09v45.403c0,13.044,10.579,23.631,23.631,23.631h104.361
	c13.052,0,23.631-10.587,23.631-23.631V435.09l-75.808-75.815L176.246,435.09z"/>
<linearGradient id="SVGID_2_" gradientUnits="userSpaceOnUse" x1="-14.2183" y1="601.832" x2="-14.2183" y2="647.6801" gradientTransform="matrix(7.8769 0 0 -7.8769 364.0537 4969.6694)">
	<stop  offset="0.012" style="stop-color:#E0B386"/>
	<stop  offset="0.519" style="stop-color:#DA498C"/>
	<stop  offset="1" style="stop-color:#961484"/>
</linearGradient>
<path style="fill:url(#SVGID_2_);" d="M327.869,69.033V23.631C327.869,10.579,317.29,0,304.238,0H199.877
	c-13.052,0-23.631,10.579-23.631,23.631v45.395l75.815,75.815L327.869,69.033z"/>
<linearGradient id="SVGID_3_" gradientUnits="userSpaceOnUse" x1="-30.1979" y1="607.2792" x2="-90.5779" y2="559.8892" gradientTransform="matrix(7.8769 0 0 -7.8769 364.0537 4969.6694)">
	<stop  offset="0.012" style="stop-color:#E0B386"/>
	<stop  offset="0.519" style="stop-color:#DA498C"/>
	<stop  offset="1" style="stop-color:#961484"/>
</linearGradient>
<path style="fill:url(#SVGID_3_);" d="M69.033,176.246H23.631C10.579,176.246,0,186.825,0,199.877v104.369
	c0,13.044,10.579,23.631,23.631,23.631h45.395l75.808-75.823L69.033,176.246z"/>
<linearGradient id="SVGID_4_" gradientUnits="userSpaceOnUse" x1="5.1611" y1="604.9123" x2="62.6671" y2="557.5223" gradientTransform="matrix(7.8769 0 0 -7.8769 364.0537 4969.6694)">
	<stop  offset="0.012" style="stop-color:#E0B386"/>
	<stop  offset="0.519" style="stop-color:#DA498C"/>
	<stop  offset="1" style="stop-color:#961484"/>
</linearGradient>
<path style="fill:url(#SVGID_4_);" d="M480.492,176.246H435.09l-75.815,75.808l75.815,75.823h45.403
	c13.044,0,23.631-10.587,23.631-23.631V199.877C504.123,186.825,493.536,176.246,480.492,176.246z"/>
<linearGradient id="SVGID_5_" gradientUnits="userSpaceOnUse" x1="-16.1423" y1="596.9916" x2="-51.9783" y2="561.1556" gradientTransform="matrix(7.8769 0 0 -7.8769 364.0537 4969.6694)">
	<stop  offset="0" style="stop-color:#29D3DA"/>
	<stop  offset="0.519" style="stop-color:#0077FF"/>
	<stop  offset="0.999" style="stop-color:#064093"/>
	<stop  offset="1" style="stop-color:#084698"/>
</linearGradient>
<path style="fill:url(#SVGID_5_);" d="M69.025,327.877l-32.098,32.091c-9.232,9.232-9.232,24.19,0,33.422l73.799,73.799
	c9.232,9.224,24.19,9.224,33.414,0l32.106-32.098V327.877H69.025z"/>
<linearGradient id="SVGID_6_" gradientUnits="userSpaceOnUse" x1="-8.017" y1="605.1163" x2="26.342" y2="639.4753" gradientTransform="matrix(7.8769 0 0 -7.8769 364.0537 4969.6694)">
	<stop  offset="0" style="stop-color:#29D3DA"/>
	<stop  offset="0.519" style="stop-color:#0077FF"/>
	<stop  offset="0.999" style="stop-color:#064093"/>
	<stop  offset="1" style="stop-color:#084698"/>
</linearGradient>
<path style="fill:url(#SVGID_6_);" d="M435.09,176.246l32.098-32.106c9.232-9.224,9.232-24.182,0-33.414l-73.791-73.799
	c-9.248-9.232-24.198-9.232-33.422,0l-32.106,32.106v107.213H435.09z"/>
<linearGradient id="SVGID_7_" gradientUnits="userSpaceOnUse" x1="-17.1825" y1="601.8803" x2="-51.9055" y2="636.6033" gradientTransform="matrix(7.8769 0 0 -7.8769 364.0537 4969.6694)">
	<stop  offset="0" style="stop-color:#29D3DA"/>
	<stop  offset="0.519" style="stop-color:#0077FF"/>
	<stop  offset="0.999" style="stop-color:#064093"/>
	<stop  offset="1" style="stop-color:#084698"/>
</linearGradient>
<path style="fill:url(#SVGID_7_);" d="M176.246,69.025L144.14,36.927c-9.224-9.224-24.182-9.232-33.414,0l-73.799,73.799
	c-9.232,9.232-9.232,24.19,0,33.414l32.106,32.106h107.213V69.025z"/>
<linearGradient id="SVGID_8_" gradientUnits="userSpaceOnUse" x1="-3.0588" y1="587.756" x2="32.5822" y2="552.1151" gradientTransform="matrix(7.8769 0 0 -7.8769 364.0537 4969.6694)">
	<stop  offset="0" style="stop-color:#29D3DA"/>
	<stop  offset="0.519" style="stop-color:#0077FF"/>
	<stop  offset="0.999" style="stop-color:#064093"/>
	<stop  offset="1" style="stop-color:#084698"/>
</linearGradient>
<path style="fill:url(#SVGID_8_);" d="M327.869,435.09l32.106,32.098c9.224,9.224,24.19,9.224,33.422,0l73.791-73.799
	c9.232-9.232,9.232-24.19,0-33.422l-32.098-32.091H327.869V435.09z"/>
<linearGradient id="SVGID_9_" gradientUnits="userSpaceOnUse" x1="-19.4584" y1="594.5255" x2="-8.4284" y2="583.5034" gradientTransform="matrix(7.8769 0 0 -7.8769 364.0537 4969.6694)">
	<stop  offset="0.012" style="stop-color:#E0B386"/>
	<stop  offset="0.519" style="stop-color:#DA498C"/>
	<stop  offset="1" style="stop-color:#961484"/>
</linearGradient>
<polygon style="fill:url(#SVGID_9_);" points="252.062,359.274 283.459,327.877 220.656,327.877 "/>
<linearGradient id="SVGID_10_" gradientUnits="userSpaceOnUse" x1="-19.4576" y1="613.7782" x2="-8.4276" y2="602.7542" gradientTransform="matrix(7.8769 0 0 -7.8769 364.0537 4969.6694)">
	<stop  offset="0.012" style="stop-color:#E0B386"/>
	<stop  offset="0.519" style="stop-color:#DA498C"/>
	<stop  offset="1" style="stop-color:#961484"/>
</linearGradient>
<polygon style="fill:url(#SVGID_10_);" points="252.062,144.841 220.656,176.246 283.459,176.246 "/>
<linearGradient id="SVGID_11_" gradientUnits="userSpaceOnUse" x1="-9.8298" y1="604.156" x2="1.1942" y2="593.126" gradientTransform="matrix(7.8769 0 0 -7.8769 364.0537 4969.6694)">
	<stop  offset="0.012" style="stop-color:#E0B386"/>
	<stop  offset="0.519" style="stop-color:#DA498C"/>
	<stop  offset="1" style="stop-color:#961484"/>
</linearGradient>
<polygon style="fill:url(#SVGID_11_);" points="327.869,283.459 359.274,252.054 327.869,220.656 "/>
<linearGradient id="SVGID_12_" gradientUnits="userSpaceOnUse" x1="-29.0811" y1="604.1547" x2="-18.0571" y2="593.1247" gradientTransform="matrix(7.8769 0 0 -7.8769 364.0537 4969.6694)">
	<stop  offset="0.012" style="stop-color:#E0B386"/>
	<stop  offset="0.519" style="stop-color:#DA498C"/>
	<stop  offset="1" style="stop-color:#961484"/>
</linearGradient>
<polygon style="fill:url(#SVGID_12_);" points="144.833,252.054 176.246,283.459 176.246,220.664 "/>
<g>
</g>
<g>
</g>
<g>
</g>
<g>
</g>
<g>
</g>
<g>
</g>
<g>
</g>
<g>
</g>
<g>
</g>
<g>
</g>
<g>
</g>
<g>
</g>
<g>
</g>
<g>
</g>
<g>
</g>
</svg>
