<?xml version="1.0" encoding="iso-8859-1"?>
<!-- Generator: Adobe Illustrator 19.0.0, SVG Export Plug-In . SVG Version: 6.00 Build 0)  -->
<svg version="1.1" id="Layer_1" xmlns="http://www.w3.org/2000/svg" xmlns:xlink="http://www.w3.org/1999/xlink" x="0px" y="0px"
	 viewBox="0 0 504.123 504.123" style="enable-background:new 0 0 504.123 504.123;" xml:space="preserve">
<linearGradient id="SVGID_1_" gradientUnits="userSpaceOnUse" x1="-38.9954" y1="616.5194" x2="-41.1764" y2="618.7014" gradientTransform="matrix(7.8769 0 0 -7.8769 364.0537 4969.6694)">
	<stop  offset="0.012" style="stop-color:#E0B386"/>
	<stop  offset="0.519" style="stop-color:#DA498C"/>
	<stop  offset="1" style="stop-color:#961484"/>
</linearGradient>
<path style="fill:url(#SVGID_1_);" d="M59.124,100.447c-6.648-4.813-11.784-9.901-15.171-15.218
	c-3.135,4.907-4.829,9.996-4.829,15.218c0,5.23,1.694,10.319,4.829,15.226C47.34,110.356,52.476,105.259,59.124,100.447z"/>
<linearGradient id="SVGID_2_" gradientUnits="userSpaceOnUse" x1="-38.9955" y1="612.6563" x2="-41.1765" y2="614.8373" gradientTransform="matrix(7.8769 0 0 -7.8769 364.0537 4969.6694)">
	<stop  offset="0.012" style="stop-color:#E0B386"/>
	<stop  offset="0.519" style="stop-color:#DA498C"/>
	<stop  offset="1" style="stop-color:#961484"/>
</linearGradient>
<path style="fill:url(#SVGID_2_);" d="M59.124,130.891c-6.648-4.813-11.784-9.909-15.171-15.226
	c-3.135,4.907-4.829,9.996-4.829,15.226c0,5.222,1.694,10.311,4.829,15.218C47.34,140.792,52.476,135.704,59.124,130.891z"/>
<linearGradient id="SVGID_3_" gradientUnits="userSpaceOnUse" x1="-38.9961" y1="608.7927" x2="-41.1771" y2="610.9727" gradientTransform="matrix(7.8769 0 0 -7.8769 364.0537 4969.6694)">
	<stop  offset="0.012" style="stop-color:#E0B386"/>
	<stop  offset="0.519" style="stop-color:#DA498C"/>
	<stop  offset="1" style="stop-color:#961484"/>
</linearGradient>
<path style="fill:url(#SVGID_3_);" d="M59.124,161.327c-6.648-4.813-11.784-9.893-15.171-15.218
	c-3.135,4.907-4.829,10.004-4.829,15.226s1.694,10.311,4.829,15.218C47.34,171.229,52.476,166.14,59.124,161.327z"/>
<linearGradient id="SVGID_4_" gradientUnits="userSpaceOnUse" x1="-29.4011" y1="610.0207" x2="-35.0831" y2="615.7037" gradientTransform="matrix(7.8769 0 0 -7.8769 364.0537 4969.6694)">
	<stop  offset="0.012" style="stop-color:#E0B386"/>
	<stop  offset="0.519" style="stop-color:#DA498C"/>
	<stop  offset="1" style="stop-color:#961484"/>
</linearGradient>
<path style="fill:url(#SVGID_4_);" d="M87.489,115.665c-11.248,4.632-20.787,9.744-28.373,15.234
	c7.585,5.474,17.124,10.587,28.373,15.21c14.446-5.939,31.649-11.075,50.956-15.218C119.138,126.748,101.935,121.604,87.489,115.665
	z"/>
<linearGradient id="SVGID_5_" gradientUnits="userSpaceOnUse" x1="-0.9028" y1="575.915" x2="-36.9838" y2="611.993" gradientTransform="matrix(7.8769 0 0 -7.8769 364.0537 4969.6694)">
	<stop  offset="0.012" style="stop-color:#E0B386"/>
	<stop  offset="0.519" style="stop-color:#DA498C"/>
	<stop  offset="1" style="stop-color:#961484"/>
</linearGradient>
<path style="fill:url(#SVGID_5_);" d="M252.203,142.155C135.83,141.942,41.464,110.482,39.243,71.412h-0.118v218.719h0.032
	c0.323,39.629,95.476,71.719,213.047,71.932V142.155z"/>
<linearGradient id="SVGID_6_" gradientUnits="userSpaceOnUse" x1="-55.3407" y1="614.8091" x2="24.7423" y2="577.6661" gradientTransform="matrix(7.8769 0 0 -7.8769 364.0537 4969.6694)">
	<stop  offset="0.012" style="stop-color:#E0B386"/>
	<stop  offset="0.519" style="stop-color:#DA498C"/>
	<stop  offset="1" style="stop-color:#961484"/>
</linearGradient>
<path style="fill:url(#SVGID_6_);" d="M252.203,142.155C135.83,141.942,41.464,110.482,39.243,71.412h-0.118v218.719h0.032
	c0.323,39.629,95.476,71.719,213.047,71.932V142.155z"/>
<linearGradient id="SVGID_7_" gradientUnits="userSpaceOnUse" x1="-25.5155" y1="635.0018" x2="-30.3665" y2="579.4518" gradientTransform="matrix(7.8769 0 0 -7.8769 364.0537 4969.6694)">
	<stop  offset="0" style="stop-color:#29D3DA"/>
	<stop  offset="0.519" style="stop-color:#0077FF"/>
	<stop  offset="0.999" style="stop-color:#064093"/>
	<stop  offset="1" style="stop-color:#084698"/>
</linearGradient>
<path style="fill:url(#SVGID_7_);" d="M176.522,104.385c-18.936,1.591-36.722,4.167-52.752,7.617
	c16.03,3.45,33.816,6.018,52.752,7.617V104.385z"/>
<linearGradient id="SVGID_8_" gradientUnits="userSpaceOnUse" x1="-28.0216" y1="634.9091" x2="-32.8736" y2="579.3751" gradientTransform="matrix(7.8769 0 0 -7.8769 364.0537 4969.6694)">
	<stop  offset="0" style="stop-color:#29D3DA"/>
	<stop  offset="0.519" style="stop-color:#0077FF"/>
	<stop  offset="0.999" style="stop-color:#064093"/>
	<stop  offset="1" style="stop-color:#084698"/>
</linearGradient>
<path style="fill:url(#SVGID_8_);" d="M192.583,57.242C139.689,61.676,96.059,74.012,73.46,90.34
	c6.341,4.576,14.336,8.854,23.741,12.729c24.08-9.917,57.336-17.187,95.382-20.37L192.583,57.242L192.583,57.242z"/>
<linearGradient id="SVGID_9_" gradientUnits="userSpaceOnUse" x1="-28.9499" y1="636.1971" x2="-34.1629" y2="576.5381" gradientTransform="matrix(7.8769 0 0 -7.8769 364.0537 4969.6694)">
	<stop  offset="0" style="stop-color:#29D3DA"/>
	<stop  offset="0.519" style="stop-color:#0077FF"/>
	<stop  offset="0.999" style="stop-color:#064093"/>
	<stop  offset="1" style="stop-color:#084698"/>
</linearGradient>
<path style="fill:url(#SVGID_9_);" d="M201.476,0C117.618,7.026,55.477,32.54,55.477,62.96c0,4.703,1.52,9.279,4.34,13.682
	c15.399-24.166,70.782-43.299,141.659-49.247V0z"/>
<linearGradient id="SVGID_10_" gradientUnits="userSpaceOnUse" x1="10.565" y1="581.3078" x2="12.745" y2="579.1278" gradientTransform="matrix(7.8769 0 0 -7.8769 364.0537 4969.6694)">
	<stop  offset="0.012" style="stop-color:#E0B386"/>
	<stop  offset="0.519" style="stop-color:#DA498C"/>
	<stop  offset="1" style="stop-color:#961484"/>
</linearGradient>
<path style="fill:url(#SVGID_10_);" d="M445.015,403.661c6.648,4.813,11.784,9.909,15.171,15.226
	c3.135-4.907,4.813-9.996,4.813-15.226c0-5.222-1.678-10.311-4.813-15.218C456.799,393.759,451.663,398.856,445.015,403.661z"/>
<linearGradient id="SVGID_11_" gradientUnits="userSpaceOnUse" x1="10.562" y1="585.1748" x2="12.742" y2="582.9948" gradientTransform="matrix(7.8769 0 0 -7.8769 364.0537 4969.6694)">
	<stop  offset="0.012" style="stop-color:#E0B386"/>
	<stop  offset="0.519" style="stop-color:#DA498C"/>
	<stop  offset="1" style="stop-color:#961484"/>
</linearGradient>
<path style="fill:url(#SVGID_11_);" d="M445.015,373.224c6.648,4.813,11.784,9.901,15.171,15.226
	c3.135-4.907,4.813-10.004,4.813-15.226s-1.678-10.311-4.813-15.218C456.799,363.323,451.663,368.412,445.015,373.224z"/>
<linearGradient id="SVGID_12_" gradientUnits="userSpaceOnUse" x1="10.564" y1="589.0368" x2="12.744" y2="586.8568" gradientTransform="matrix(7.8769 0 0 -7.8769 364.0537 4969.6694)">
	<stop  offset="0.012" style="stop-color:#E0B386"/>
	<stop  offset="0.519" style="stop-color:#DA498C"/>
	<stop  offset="1" style="stop-color:#961484"/>
</linearGradient>
<path style="fill:url(#SVGID_12_);" d="M445.015,342.788c6.648,4.813,11.784,9.901,15.171,15.226
	c3.135-4.907,4.813-10.004,4.813-15.226c0-5.222-1.678-10.311-4.813-15.218C456.799,332.887,451.663,337.975,445.015,342.788z"/>
<linearGradient id="SVGID_13_" gradientUnits="userSpaceOnUse" x1="0.9666" y1="587.8084" x2="6.6526" y2="582.1254" gradientTransform="matrix(7.8769 0 0 -7.8769 364.0537 4969.6694)">
	<stop  offset="0.012" style="stop-color:#E0B386"/>
	<stop  offset="0.519" style="stop-color:#DA498C"/>
	<stop  offset="1" style="stop-color:#961484"/>
</linearGradient>
<path style="fill:url(#SVGID_13_);" d="M416.65,388.45c11.232-4.632,20.787-9.744,28.373-15.234
	c-7.585-5.474-17.14-10.587-28.373-15.21c-14.446,5.939-31.665,11.075-50.956,15.218C384.985,377.368,402.204,382.511,416.65,388.45
	z"/>
<linearGradient id="SVGID_14_" gradientUnits="userSpaceOnUse" x1="-27.5287" y1="621.9161" x2="8.5513" y2="585.8361" gradientTransform="matrix(7.8769 0 0 -7.8769 364.0537 4969.6694)">
	<stop  offset="0.012" style="stop-color:#E0B386"/>
	<stop  offset="0.519" style="stop-color:#DA498C"/>
	<stop  offset="1" style="stop-color:#961484"/>
</linearGradient>
<path style="fill:url(#SVGID_14_);" d="M251.936,361.96c116.366,0.205,210.723,31.673,212.953,70.735h0.11V213.984h-0.016
	c-0.323-39.629-95.476-71.719-213.047-71.932V361.96z"/>
<linearGradient id="SVGID_15_" gradientUnits="userSpaceOnUse" x1="27.4622" y1="594.6693" x2="-23.8448" y2="594.2372" gradientTransform="matrix(7.8769 0 0 -7.8769 364.0537 4969.6694)">
	<stop  offset="0.012" style="stop-color:#E0B386"/>
	<stop  offset="0.519" style="stop-color:#DA498C"/>
	<stop  offset="1" style="stop-color:#961484"/>
</linearGradient>
<path style="fill:url(#SVGID_15_);" d="M251.936,361.96c116.366,0.205,210.723,31.673,212.953,70.735h0.11V213.984h-0.016
	c-0.323-39.629-95.476-71.719-213.047-71.932V361.96z"/>
<linearGradient id="SVGID_16_" gradientUnits="userSpaceOnUse" x1="-2.9195" y1="562.8351" x2="1.9325" y2="618.3651" gradientTransform="matrix(7.8769 0 0 -7.8769 364.0537 4969.6694)">
	<stop  offset="0" style="stop-color:#29D3DA"/>
	<stop  offset="0.519" style="stop-color:#0077FF"/>
	<stop  offset="0.999" style="stop-color:#064093"/>
	<stop  offset="1" style="stop-color:#084698"/>
</linearGradient>
<path style="fill:url(#SVGID_16_);" d="M327.617,399.722c18.92-1.583,36.722-4.159,52.736-7.617
	c-16.014-3.442-33.816-6.01-52.736-7.609V399.722z"/>
<linearGradient id="SVGID_17_" gradientUnits="userSpaceOnUse" x1="-0.4124" y1="562.9255" x2="4.4376" y2="618.4454" gradientTransform="matrix(7.8769 0 0 -7.8769 364.0537 4969.6694)">
	<stop  offset="0" style="stop-color:#29D3DA"/>
	<stop  offset="0.519" style="stop-color:#0077FF"/>
	<stop  offset="0.999" style="stop-color:#064093"/>
	<stop  offset="1" style="stop-color:#084698"/>
</linearGradient>
<path style="fill:url(#SVGID_17_);" d="M311.54,446.874c52.909-4.435,96.54-16.77,119.138-33.099
	c-6.357-4.576-14.352-8.854-23.741-12.729c-24.096,9.909-57.336,17.187-95.397,20.37V446.874z"/>
<linearGradient id="SVGID_18_" gradientUnits="userSpaceOnUse" x1="0.515" y1="561.6318" x2="5.735" y2="621.2938" gradientTransform="matrix(7.8769 0 0 -7.8769 364.0537 4969.6694)">
	<stop  offset="0" style="stop-color:#29D3DA"/>
	<stop  offset="0.519" style="stop-color:#0077FF"/>
	<stop  offset="0.999" style="stop-color:#064093"/>
	<stop  offset="1" style="stop-color:#084698"/>
</linearGradient>
<path style="fill:url(#SVGID_18_);" d="M302.663,504.123c83.85-7.034,145.999-32.547,145.999-62.968c0-4.703-1.52-9.279-4.34-13.69
	c-15.399,24.174-70.798,43.307-141.659,49.247L302.663,504.123L302.663,504.123z"/>
<g>
</g>
<g>
</g>
<g>
</g>
<g>
</g>
<g>
</g>
<g>
</g>
<g>
</g>
<g>
</g>
<g>
</g>
<g>
</g>
<g>
</g>
<g>
</g>
<g>
</g>
<g>
</g>
<g>
</g>
</svg>
