<?xml version="1.0" encoding="iso-8859-1"?>
<!-- Generator: Adobe Illustrator 19.0.0, SVG Export Plug-In . SVG Version: 6.00 Build 0)  -->
<svg version="1.1" id="Layer_1" xmlns="http://www.w3.org/2000/svg" xmlns:xlink="http://www.w3.org/1999/xlink" x="0px" y="0px"
	 viewBox="0 0 504.139 504.139" style="enable-background:new 0 0 504.139 504.139;" xml:space="preserve">
<linearGradient id="SVGID_1_" gradientUnits="userSpaceOnUse" x1="-16.9732" y1="608.7175" x2="21.5298" y2="631.3735" gradientTransform="matrix(7.8769 0 0 -7.8769 363.9995 4969.7393)">
	<stop  offset="0.012" style="stop-color:#E0B386"/>
	<stop  offset="0.519" style="stop-color:#DA498C"/>
	<stop  offset="1" style="stop-color:#961484"/>
</linearGradient>
<path style="fill:url(#SVGID_1_);" d="M283.049,181.09c0,0-1.355-48.538,48.356-70.467c59.707-26.333,63.835-44.127,65.032-70.672
	c0,0,17.195,48.75-45.741,77.911C283.553,148.968,283.049,181.09,283.049,181.09z"/>
<linearGradient id="SVGID_2_" gradientUnits="userSpaceOnUse" x1="-13.9103" y1="605.6546" x2="24.5897" y2="628.3087" gradientTransform="matrix(7.8769 0 0 -7.8769 363.9995 4969.7393)">
	<stop  offset="0" style="stop-color:#29D3DA"/>
	<stop  offset="0.519" style="stop-color:#0077FF"/>
	<stop  offset="0.999" style="stop-color:#064093"/>
	<stop  offset="1" style="stop-color:#084698"/>
</linearGradient>
<path style="fill:url(#SVGID_2_);" d="M307.168,205.217c0,0-1.347-48.53,48.356-70.459c59.699-26.348,63.835-44.134,65.032-70.672
	c0,0,17.187,48.742-45.741,77.903C307.681,173.095,307.168,205.217,307.168,205.217z"/>
<linearGradient id="SVGID_3_" gradientUnits="userSpaceOnUse" x1="-10.8469" y1="602.5919" x2="27.6501" y2="625.2459" gradientTransform="matrix(7.8769 0 0 -7.8769 363.9995 4969.7393)">
	<stop  offset="0.012" style="stop-color:#E0B386"/>
	<stop  offset="0.519" style="stop-color:#DA498C"/>
	<stop  offset="1" style="stop-color:#961484"/>
</linearGradient>
<path style="fill:url(#SVGID_3_);" d="M331.303,229.337c0,0-1.355-48.53,48.349-70.459c59.707-26.34,63.835-44.134,65.032-70.672
	c0,0,17.203,48.75-45.726,77.911C331.8,197.215,331.303,229.337,331.303,229.337z"/>
<linearGradient id="SVGID_4_" gradientUnits="userSpaceOnUse" x1="-11.4479" y1="589.1296" x2="-49.9409" y2="566.4706" gradientTransform="matrix(7.8769 0 0 -7.8769 363.9995 4969.7393)">
	<stop  offset="0.012" style="stop-color:#E0B386"/>
	<stop  offset="0.519" style="stop-color:#DA498C"/>
	<stop  offset="1" style="stop-color:#961484"/>
</linearGradient>
<path style="fill:url(#SVGID_4_);" d="M221.105,323.048c0,0,1.355,48.53-48.356,70.459c-59.699,26.34-63.835,44.134-65.032,70.68
	c0,0-17.195-48.758,45.733-77.911C220.601,355.17,221.105,323.048,221.105,323.048z"/>
<linearGradient id="SVGID_5_" gradientUnits="userSpaceOnUse" x1="-14.5094" y1="592.1921" x2="-53.0064" y2="569.5361" gradientTransform="matrix(7.8769 0 0 -7.8769 363.9995 4969.7393)">
	<stop  offset="0" style="stop-color:#29D3DA"/>
	<stop  offset="0.519" style="stop-color:#0077FF"/>
	<stop  offset="0.999" style="stop-color:#064093"/>
	<stop  offset="1" style="stop-color:#084698"/>
</linearGradient>
<path style="fill:url(#SVGID_5_);" d="M196.986,298.921c0,0,1.355,48.53-48.356,70.459c-59.707,26.34-63.835,44.134-65.048,70.672
	c0,0-17.18-48.75,45.741-77.911C196.49,331.043,196.986,298.921,196.986,298.921z"/>
<linearGradient id="SVGID_6_" gradientUnits="userSpaceOnUse" x1="-17.5702" y1="595.2535" x2="-56.0692" y2="572.6014" gradientTransform="matrix(7.8769 0 0 -7.8769 363.9995 4969.7393)">
	<stop  offset="0.012" style="stop-color:#E0B386"/>
	<stop  offset="0.519" style="stop-color:#DA498C"/>
	<stop  offset="1" style="stop-color:#961484"/>
</linearGradient>
<path style="fill:url(#SVGID_6_);" d="M172.859,274.802c0,0,1.355,48.53-48.356,70.459c-59.699,26.34-63.835,44.134-65.048,70.672
	c0,0-17.187-48.75,45.741-77.911C172.363,306.924,172.859,274.802,172.859,274.802z"/>
<linearGradient id="SVGID_7_" gradientUnits="userSpaceOnUse" x1="-9.2347" y1="607.8028" x2="34.0003" y2="596.6008" gradientTransform="matrix(7.8769 0 0 -7.8769 363.9995 4969.7393)">
	<stop  offset="0.012" style="stop-color:#E0B386"/>
	<stop  offset="0.519" style="stop-color:#DA498C"/>
	<stop  offset="1" style="stop-color:#961484"/>
</linearGradient>
<path style="fill:url(#SVGID_7_);" d="M324.167,223.776c0,0,33.351-35.281,84.015-15.636c60.841,23.607,76.335,13.95,95.957-3.986
	c0,0-22.323,46.639-87.418,22.756C347.246,201.413,324.167,223.776,324.167,223.776z"/>
<linearGradient id="SVGID_8_" gradientUnits="userSpaceOnUse" x1="-9.2363" y1="603.4694" x2="33.9997" y2="592.2714" gradientTransform="matrix(7.8769 0 0 -7.8769 363.9995 4969.7393)">
	<stop  offset="0" style="stop-color:#29D3DA"/>
	<stop  offset="0.519" style="stop-color:#0077FF"/>
	<stop  offset="0.999" style="stop-color:#064093"/>
	<stop  offset="1" style="stop-color:#084698"/>
</linearGradient>
<path style="fill:url(#SVGID_8_);" d="M324.167,257.898c0,0,33.351-35.281,84.015-15.636c60.833,23.591,76.335,13.926,95.941-3.986
	c0,0-22.307,46.631-87.418,22.756C347.238,235.528,324.167,257.898,324.167,257.898z"/>
<linearGradient id="SVGID_9_" gradientUnits="userSpaceOnUse" x1="-9.2364" y1="599.1407" x2="33.9995" y2="587.9357" gradientTransform="matrix(7.8769 0 0 -7.8769 363.9995 4969.7393)">
	<stop  offset="0.012" style="stop-color:#E0B386"/>
	<stop  offset="0.519" style="stop-color:#DA498C"/>
	<stop  offset="1" style="stop-color:#961484"/>
</linearGradient>
<path style="fill:url(#SVGID_9_);" d="M324.167,292.013c0,0,33.351-35.273,84.015-15.628c60.841,23.591,76.335,13.926,95.957-3.986
	c0,0-22.323,46.631-87.434,22.749C347.231,269.643,324.167,292.013,324.167,292.013z"/>
<linearGradient id="SVGID_10_" gradientUnits="userSpaceOnUse" x1="-19.1845" y1="590.0444" x2="-62.4225" y2="601.2444" gradientTransform="matrix(7.8769 0 0 -7.8769 363.9995 4969.7393)">
	<stop  offset="0.012" style="stop-color:#E0B386"/>
	<stop  offset="0.519" style="stop-color:#DA498C"/>
	<stop  offset="1" style="stop-color:#961484"/>
</linearGradient>
<path style="fill:url(#SVGID_10_);" d="M179.988,280.363c0,0-33.351,35.273-84.007,15.628
	c-60.841-23.591-76.343-13.934-95.965,3.994c0,0,22.323-46.639,87.434-22.756C156.924,302.718,179.988,280.363,179.988,280.363z"/>
<linearGradient id="SVGID_11_" gradientUnits="userSpaceOnUse" x1="-19.1824" y1="594.3747" x2="-62.4204" y2="605.5767" gradientTransform="matrix(7.8769 0 0 -7.8769 363.9995 4969.7393)">
	<stop  offset="0" style="stop-color:#29D3DA"/>
	<stop  offset="0.519" style="stop-color:#0077FF"/>
	<stop  offset="0.999" style="stop-color:#064093"/>
	<stop  offset="1" style="stop-color:#084698"/>
</linearGradient>
<path style="fill:url(#SVGID_11_);" d="M179.988,246.248c0,0-33.351,35.281-84.007,15.628
	c-60.841-23.584-76.343-13.934-95.965,3.986c0,0,22.323-46.631,87.434-22.756C156.924,268.603,179.988,246.248,179.988,246.248z"/>
<linearGradient id="SVGID_12_" gradientUnits="userSpaceOnUse" x1="-19.1808" y1="598.7062" x2="-62.4268" y2="609.9102" gradientTransform="matrix(7.8769 0 0 -7.8769 363.9995 4969.7393)">
	<stop  offset="0.012" style="stop-color:#E0B386"/>
	<stop  offset="0.519" style="stop-color:#DA498C"/>
	<stop  offset="1" style="stop-color:#961484"/>
</linearGradient>
<path style="fill:url(#SVGID_12_);" d="M179.996,212.126c0,0-33.359,35.281-84.015,15.636C35.139,204.17,19.637,213.819,0,231.739
	c0,0,22.339-46.631,87.45-22.741C156.924,234.488,179.996,212.126,179.996,212.126z"/>
<linearGradient id="SVGID_13_" gradientUnits="userSpaceOnUse" x1="-4.4127" y1="601.6843" x2="18.2363" y2="563.1913" gradientTransform="matrix(7.8769 0 0 -7.8769 363.9995 4969.7393)">
	<stop  offset="0.012" style="stop-color:#E0B386"/>
	<stop  offset="0.519" style="stop-color:#DA498C"/>
	<stop  offset="1" style="stop-color:#961484"/>
</linearGradient>
<path style="fill:url(#SVGID_13_);" d="M323.064,283.049c0,0,48.538-1.355,70.467,48.356c26.317,59.707,44.119,63.835,70.656,65.032
	c0,0-48.75,17.187-77.895-45.741C355.186,283.538,323.064,283.049,323.064,283.049z"/>
<linearGradient id="SVGID_14_" gradientUnits="userSpaceOnUse" x1="-7.4788" y1="598.6255" x2="15.1782" y2="560.1235" gradientTransform="matrix(7.8769 0 0 -7.8769 363.9995 4969.7393)">
	<stop  offset="0" style="stop-color:#29D3DA"/>
	<stop  offset="0.519" style="stop-color:#0077FF"/>
	<stop  offset="0.999" style="stop-color:#064093"/>
	<stop  offset="1" style="stop-color:#084698"/>
</linearGradient>
<path style="fill:url(#SVGID_14_);" d="M298.929,307.161c0,0,48.53-1.355,70.459,48.356c26.333,59.699,44.134,63.835,70.672,65.04
	c0,0-48.75,17.187-77.911-45.741C331.059,307.673,298.929,307.161,298.929,307.161z"/>
<linearGradient id="SVGID_15_" gradientUnits="userSpaceOnUse" x1="-10.5396" y1="595.5611" x2="12.1144" y2="557.0631" gradientTransform="matrix(7.8769 0 0 -7.8769 363.9995 4969.7393)">
	<stop  offset="0.012" style="stop-color:#E0B386"/>
	<stop  offset="0.519" style="stop-color:#DA498C"/>
	<stop  offset="1" style="stop-color:#961484"/>
</linearGradient>
<path style="fill:url(#SVGID_15_);" d="M274.818,331.296c0,0,48.522-1.347,70.451,48.356c26.348,59.691,44.134,63.835,70.672,65.032
	c0,0-48.75,17.195-77.911-45.741C306.932,331.784,274.818,331.296,274.818,331.296z"/>
<linearGradient id="SVGID_16_" gradientUnits="userSpaceOnUse" x1="-24.0041" y1="596.1628" x2="-46.6591" y2="634.6578" gradientTransform="matrix(7.8769 0 0 -7.8769 363.9995 4969.7393)">
	<stop  offset="0.012" style="stop-color:#E0B386"/>
	<stop  offset="0.519" style="stop-color:#DA498C"/>
	<stop  offset="1" style="stop-color:#961484"/>
</linearGradient>
<path style="fill:url(#SVGID_16_);" d="M181.098,221.105c0,0-48.53,1.347-70.451-48.364c-26.356-59.691-44.142-63.835-70.68-65.04
	c0,0,48.758-17.187,77.911,45.741C148.992,220.601,181.098,221.105,181.098,221.105z"/>
<linearGradient id="SVGID_17_" gradientUnits="userSpaceOnUse" x1="-20.941" y1="599.2229" x2="-43.594" y2="637.7169" gradientTransform="matrix(7.8769 0 0 -7.8769 363.9995 4969.7393)">
	<stop  offset="0" style="stop-color:#29D3DA"/>
	<stop  offset="0.519" style="stop-color:#0077FF"/>
	<stop  offset="0.999" style="stop-color:#064093"/>
	<stop  offset="1" style="stop-color:#084698"/>
</linearGradient>
<path style="fill:url(#SVGID_17_);" d="M205.217,196.986c0,0-48.522,1.347-70.443-48.364c-26.348-59.699-44.142-63.835-70.68-65.04
	c0,0,48.766-17.187,77.911,45.741C173.111,196.466,205.217,196.986,205.217,196.986z"/>
<linearGradient id="SVGID_18_" gradientUnits="userSpaceOnUse" x1="-17.877" y1="602.284" x2="-40.534" y2="640.787" gradientTransform="matrix(7.8769 0 0 -7.8769 363.9995 4969.7393)">
	<stop  offset="0.012" style="stop-color:#E0B386"/>
	<stop  offset="0.519" style="stop-color:#DA498C"/>
	<stop  offset="1" style="stop-color:#961484"/>
</linearGradient>
<path style="fill:url(#SVGID_18_);" d="M229.344,172.859c0,0-48.538,1.355-70.467-48.356
	c-26.333-59.707-44.111-63.842-70.656-65.056c0,0,48.742-17.18,77.903,45.749C197.23,172.347,229.344,172.859,229.344,172.859z"/>
<linearGradient id="SVGID_19_" gradientUnits="userSpaceOnUse" x1="-5.3306" y1="593.9501" x2="-16.5306" y2="550.7131" gradientTransform="matrix(7.8769 0 0 -7.8769 363.9995 4969.7393)">
	<stop  offset="0.012" style="stop-color:#E0B386"/>
	<stop  offset="0.519" style="stop-color:#DA498C"/>
	<stop  offset="1" style="stop-color:#961484"/>
</linearGradient>
<path style="fill:url(#SVGID_19_);" d="M280.371,324.159c0,0,35.281,33.367,15.628,84.023
	c-23.599,60.833-13.934,76.327,3.978,95.949c0,0-46.623-22.323-22.733-87.418C302.726,347.238,280.371,324.159,280.371,324.159z"/>
<linearGradient id="SVGID_20_" gradientUnits="userSpaceOnUse" x1="-9.6603" y1="593.952" x2="-20.8633" y2="550.7131" gradientTransform="matrix(7.8769 0 0 -7.8769 363.9995 4969.7393)">
	<stop  offset="0" style="stop-color:#29D3DA"/>
	<stop  offset="0.519" style="stop-color:#0077FF"/>
	<stop  offset="0.999" style="stop-color:#064093"/>
	<stop  offset="1" style="stop-color:#084698"/>
</linearGradient>
<path style="fill:url(#SVGID_20_);" d="M246.256,324.151c0,0,35.281,33.359,15.636,84.015c-23.599,60.841-13.942,76.351,3.97,95.965
	c0,0-46.624-22.323-22.756-87.434C268.619,347.231,246.256,324.151,246.256,324.151z"/>
<linearGradient id="SVGID_21_" gradientUnits="userSpaceOnUse" x1="-13.993" y1="593.9479" x2="-25.194" y2="550.713" gradientTransform="matrix(7.8769 0 0 -7.8769 363.9995 4969.7393)">
	<stop  offset="0.012" style="stop-color:#E0B386"/>
	<stop  offset="0.519" style="stop-color:#DA498C"/>
	<stop  offset="1" style="stop-color:#961484"/>
</linearGradient>
<path style="fill:url(#SVGID_21_);" d="M212.141,324.167c0,0,35.265,33.351,15.62,84c-23.591,60.857-13.926,76.343,3.978,95.965
	c0,0-46.616-22.323-22.741-87.434C234.496,347.231,212.141,324.167,212.141,324.167z"/>
<linearGradient id="SVGID_22_" gradientUnits="userSpaceOnUse" x1="-23.0878" y1="603.8959" x2="-11.8858" y2="647.1379" gradientTransform="matrix(7.8769 0 0 -7.8769 363.9995 4969.7393)">
	<stop  offset="0.012" style="stop-color:#E0B386"/>
	<stop  offset="0.519" style="stop-color:#DA498C"/>
	<stop  offset="1" style="stop-color:#961484"/>
</linearGradient>
<path style="fill:url(#SVGID_22_);" d="M223.783,179.988c0,0-35.265-33.359-15.612-84.015c23.568-60.833,13.919-76.343-4.001-95.965
	c0,0,46.631,22.331,22.756,87.434C201.429,156.932,223.783,179.988,223.783,179.988z"/>
<linearGradient id="SVGID_23_" gradientUnits="userSpaceOnUse" x1="-18.7564" y1="603.8936" x2="-7.5584" y2="647.1356" gradientTransform="matrix(7.8769 0 0 -7.8769 363.9995 4969.7393)">
	<stop  offset="0" style="stop-color:#29D3DA"/>
	<stop  offset="0.519" style="stop-color:#0077FF"/>
	<stop  offset="0.999" style="stop-color:#064093"/>
	<stop  offset="1" style="stop-color:#084698"/>
</linearGradient>
<path style="fill:url(#SVGID_23_);" d="M257.89,179.988c0,0-35.273-33.351-15.612-84.015c23.576-60.833,13.911-76.351-3.994-95.965
	c0,0,46.639,22.331,22.749,87.426C235.552,156.916,257.89,179.988,257.89,179.988z"/>
<linearGradient id="SVGID_24_" gradientUnits="userSpaceOnUse" x1="-14.4231" y1="603.8968" x2="-3.2251" y2="647.1388" gradientTransform="matrix(7.8769 0 0 -7.8769 363.9995 4969.7393)">
	<stop  offset="0.012" style="stop-color:#E0B386"/>
	<stop  offset="0.519" style="stop-color:#DA498C"/>
	<stop  offset="1" style="stop-color:#961484"/>
</linearGradient>
<path style="fill:url(#SVGID_24_);" d="M292.013,179.988c0,0-35.281-33.351-15.636-84.007c23.591-60.849,13.95-76.343-3.962-95.972
	c0,0,46.623,22.323,22.749,87.434C269.674,156.924,292.013,179.988,292.013,179.988z"/>
<g>
</g>
<g>
</g>
<g>
</g>
<g>
</g>
<g>
</g>
<g>
</g>
<g>
</g>
<g>
</g>
<g>
</g>
<g>
</g>
<g>
</g>
<g>
</g>
<g>
</g>
<g>
</g>
<g>
</g>
</svg>
