<?xml version="1.0" encoding="iso-8859-1"?>
<!-- Generator: Adobe Illustrator 19.0.0, SVG Export Plug-In . SVG Version: 6.00 Build 0)  -->
<svg version="1.1" id="Layer_1" xmlns="http://www.w3.org/2000/svg" xmlns:xlink="http://www.w3.org/1999/xlink" x="0px" y="0px"
	 viewBox="0 0 504.115 504.115" style="enable-background:new 0 0 504.115 504.115;" xml:space="preserve">
<linearGradient id="SVGID_1_" gradientUnits="userSpaceOnUse" x1="-16.8193" y1="556.3113" x2="-14.3623" y2="592.4922" gradientTransform="matrix(7.8769 0 0 -7.8769 364.0898 4969.6353)">
	<stop  offset="0" style="stop-color:#29D3DA"/>
	<stop  offset="0.519" style="stop-color:#0077FF"/>
	<stop  offset="0.999" style="stop-color:#064093"/>
	<stop  offset="1" style="stop-color:#084698"/>
</linearGradient>
<path style="fill:url(#SVGID_1_);" d="M98.622,422.892c40.708,36.604,94.381,59.045,153.435,59.045
	c49.987,0,96.091-16.116,133.829-43.205L265.731,280.233C203.684,336.569,140.023,391.007,98.622,422.892z"/>
<linearGradient id="SVGID_2_" gradientUnits="userSpaceOnUse" x1="-20.0621" y1="562.6423" x2="-21.7051" y2="575.4492" gradientTransform="matrix(7.8769 0 0 -7.8769 364.0898 4969.6353)">
	<stop  offset="0" style="stop-color:#29D3DA"/>
	<stop  offset="0.519" style="stop-color:#0077FF"/>
	<stop  offset="0.999" style="stop-color:#064093"/>
	<stop  offset="1" style="stop-color:#084698"/>
</linearGradient>
<path style="fill:url(#SVGID_2_);" d="M265.731,280.233c-62.047,56.328-125.708,110.765-167.109,142.651
	c40.708,36.604,94.381,59.045,153.435,59.045"/>
<linearGradient id="SVGID_3_" gradientUnits="userSpaceOnUse" x1="-63.9616" y1="604.0372" x2="-9.9136" y2="591.3032" gradientTransform="matrix(7.8769 0 0 -7.8769 364.0898 4969.6353)">
	<stop  offset="0.012" style="stop-color:#E0B386"/>
	<stop  offset="0.519" style="stop-color:#DA498C"/>
	<stop  offset="1" style="stop-color:#961484"/>
</linearGradient>
<path style="fill:url(#SVGID_3_);" d="M65.381,118.245C38.3,155.959,22.176,202.071,22.176,252.05
	c0,59.061,22.449,112.742,59.045,153.45c31.878-41.441,86.292-105.062,142.643-167.133L65.381,118.245z"/>
<linearGradient id="SVGID_4_" gradientUnits="userSpaceOnUse" x1="-45.353" y1="610.9022" x2="-5.819" y2="581.4193" gradientTransform="matrix(7.8769 0 0 -7.8769 364.0898 4969.6353)">
	<stop  offset="0.012" style="stop-color:#E0B386"/>
	<stop  offset="0.519" style="stop-color:#DA498C"/>
	<stop  offset="1" style="stop-color:#961484"/>
</linearGradient>
<path style="fill:url(#SVGID_4_);" d="M223.873,238.376L65.381,118.245C38.3,155.959,22.176,202.071,22.176,252.05"/>
<linearGradient id="SVGID_5_" gradientUnits="userSpaceOnUse" x1="18.4768" y1="654.9954" x2="-105.4192" y2="531.1014" gradientTransform="matrix(7.8769 0 0 -7.8769 364.0898 4969.6353)">
	<stop  offset="0.012" style="stop-color:#E0B386"/>
	<stop  offset="0.519" style="stop-color:#DA498C"/>
	<stop  offset="1" style="stop-color:#961484"/>
</linearGradient>
<path style="fill:url(#SVGID_5_);" d="M383.869,72.472c1.757-1.772,3.277-3.237,4.939-4.892
	c-38.258-28.388-85.441-45.41-136.751-45.41c-50.428,0-96.941,16.439-134.861,43.977l199.908,73.232
	C320.948,135.44,380.104,76.229,383.869,72.472z"/>
<linearGradient id="SVGID_6_" gradientUnits="userSpaceOnUse" x1="-16.2708" y1="608.7702" x2="-12.1388" y2="634.7922" gradientTransform="matrix(7.8769 0 0 -7.8769 364.0898 4969.6353)">
	<stop  offset="0.012" style="stop-color:#E0B386"/>
	<stop  offset="0.519" style="stop-color:#DA498C"/>
	<stop  offset="1" style="stop-color:#961484"/>
</linearGradient>
<path style="fill:url(#SVGID_6_);" d="M383.869,72.472c1.757-1.772,3.277-3.237,4.939-4.892
	c-38.258-28.388-85.441-45.41-136.751-45.41c-50.428,0-96.941,16.439-134.861,43.977"/>
<linearGradient id="SVGID_7_" gradientUnits="userSpaceOnUse" x1="41.8561" y1="631.6082" x2="-82.0239" y2="507.7221" gradientTransform="matrix(7.8769 0 0 -7.8769 364.0898 4969.6353)">
	<stop  offset="0" style="stop-color:#29D3DA"/>
	<stop  offset="0.519" style="stop-color:#0077FF"/>
	<stop  offset="0.999" style="stop-color:#064093"/>
	<stop  offset="1" style="stop-color:#084698"/>
</linearGradient>
<path style="fill:url(#SVGID_7_);" d="M364.736,187.018l73.232,199.877c27.538-37.904,43.969-84.409,43.969-134.845
	c0-51.31-17.014-98.525-45.418-136.775c-1.646,1.678-3.119,3.174-4.892,4.955C427.853,123.987,368.658,183.15,364.736,187.018z"/>
<linearGradient id="SVGID_8_" gradientUnits="userSpaceOnUse" x1="28.627" y1="600.1614" x2="3.171" y2="598.6784" gradientTransform="matrix(7.8769 0 0 -7.8769 364.0898 4969.6353)">
	<stop  offset="0" style="stop-color:#29D3DA"/>
	<stop  offset="0.519" style="stop-color:#0077FF"/>
	<stop  offset="0.999" style="stop-color:#064093"/>
	<stop  offset="1" style="stop-color:#084698"/>
</linearGradient>
<path style="fill:url(#SVGID_8_);" d="M437.967,386.895c27.538-37.904,43.969-84.409,43.969-134.845
	c0-51.31-17.014-98.525-45.418-136.775c-1.646,1.678-3.119,3.174-4.892,4.955"/>
<linearGradient id="SVGID_9_" gradientUnits="userSpaceOnUse" x1="20.9988" y1="634.1314" x2="-60.4362" y2="552.6994" gradientTransform="matrix(7.8769 0 0 -7.8769 364.0898 4969.6353)">
	<stop  offset="0.012" style="stop-color:#E0B386"/>
	<stop  offset="0.519" style="stop-color:#DA498C"/>
	<stop  offset="1" style="stop-color:#961484"/>
</linearGradient>
<path style="fill:url(#SVGID_9_);" d="M81.222,405.5c-1.418,1.851-3.08,3.931-4.403,5.695l-59.329-15.226
	c-3.371-0.906-6.971,0.087-9.397,2.513l-5.199,5.238c-2.032,2.064-3.096,4.923-2.844,7.822c0.197,2.292,1.229,4.45,2.844,6.065
	c0.402,0.41,0.843,0.772,1.292,1.111l44.276,31.035c1.323,0.929,2.828,1.363,4.34,1.568c0.181,1.481,0.63,3.025,1.568,4.34
	l31.004,44.245c0.386,0.488,0.709,0.89,1.15,1.315c1.583,1.599,3.742,2.639,6.065,2.859c2.891,0.244,5.75-0.803,7.798-2.859
	l5.23-5.191c2.458-2.45,3.434-6.026,2.536-9.397L92.95,427.311c1.757-1.331,3.828-2.985,5.679-4.419
	C92.517,417.41,86.72,411.613,81.222,405.5z"/>
<linearGradient id="SVGID_10_" gradientUnits="userSpaceOnUse" x1="-2.473" y1="657.6312" x2="-83.933" y2="576.1713" gradientTransform="matrix(7.8769 0 0 -7.8769 364.0898 4969.6353)">
	<stop  offset="0.012" style="stop-color:#E0B386"/>
	<stop  offset="0.519" style="stop-color:#DA498C"/>
	<stop  offset="1" style="stop-color:#961484"/>
</linearGradient>
<path style="fill:url(#SVGID_10_);" d="M117.195,66.147l-64.52-23.639c-4.71-1.694-9.988-0.559-13.54,3.001L19.506,65.138
	c-2.615,2.631-3.97,6.27-3.742,9.972c0.244,3.143,1.552,6.018,3.757,8.216c0.402,0.402,0.859,0.819,1.339,1.166l44.52,33.753
	C79.764,98.206,97.275,80.64,117.195,66.147z"/>
<linearGradient id="SVGID_11_" gradientUnits="userSpaceOnUse" x1="-38.7112" y1="613.8911" x2="-37.4792" y2="624.722" gradientTransform="matrix(7.8769 0 0 -7.8769 364.0898 4969.6353)">
	<stop  offset="0.012" style="stop-color:#E0B386"/>
	<stop  offset="0.519" style="stop-color:#DA498C"/>
	<stop  offset="1" style="stop-color:#961484"/>
</linearGradient>
<path style="fill:url(#SVGID_11_);" d="M19.506,65.138c-2.615,2.631-3.97,6.27-3.742,9.972c0.244,3.143,1.552,6.018,3.757,8.216
	c0.402,0.402,0.859,0.819,1.339,1.166l44.52,33.753c14.383-20.039,31.894-37.597,51.814-52.09"/>
<linearGradient id="SVGID_12_" gradientUnits="userSpaceOnUse" x1="44.488" y1="610.6542" x2="-36.954" y2="529.2102" gradientTransform="matrix(7.8769 0 0 -7.8769 364.0898 4969.6353)">
	<stop  offset="0" style="stop-color:#29D3DA"/>
	<stop  offset="0.519" style="stop-color:#0077FF"/>
	<stop  offset="0.999" style="stop-color:#064093"/>
	<stop  offset="1" style="stop-color:#084698"/>
</linearGradient>
<path style="fill:url(#SVGID_12_);" d="M385.885,438.725l33.753,44.544c0.339,0.457,0.725,0.89,1.15,1.315
	c2.15,2.174,5.104,3.537,8.184,3.742c3.726,0.252,7.373-1.103,9.988-3.726l19.629-19.637c3.568-3.545,4.726-8.814,3.001-13.525
	l-23.631-64.544C423.458,406.847,405.885,424.334,385.885,438.725z"/>
<linearGradient id="SVGID_13_" gradientUnits="userSpaceOnUse" x1="-2.7565" y1="572.9336" x2="11.6565" y2="576.0735" gradientTransform="matrix(7.8769 0 0 -7.8769 364.0898 4969.6353)">
	<stop  offset="0" style="stop-color:#29D3DA"/>
	<stop  offset="0.519" style="stop-color:#0077FF"/>
	<stop  offset="0.999" style="stop-color:#064093"/>
	<stop  offset="1" style="stop-color:#084698"/>
</linearGradient>
<path style="fill:url(#SVGID_13_);" d="M438.968,484.6l19.629-19.637c3.568-3.545,4.726-8.814,3.001-13.525l-23.631-64.544"/>
<linearGradient id="SVGID_14_" gradientUnits="userSpaceOnUse" x1="21.0062" y1="634.143" x2="-60.4318" y2="552.702" gradientTransform="matrix(7.8769 0 0 -7.8769 364.0898 4969.6353)">
	<stop  offset="0" style="stop-color:#29D3DA"/>
	<stop  offset="0.519" style="stop-color:#0077FF"/>
	<stop  offset="0.999" style="stop-color:#064093"/>
	<stop  offset="1" style="stop-color:#084698"/>
</linearGradient>
<path style="fill:url(#SVGID_14_);" d="M502.07,2.021c-2.907-2.938-9.523-2.828-20.047,1.363c-4.198,0.922-8.988,3.23-14.171,7.026
	c-27.065,15.281-18.204-3.159-79.045,57.179c18.156,13.485,34.217,29.538,47.711,47.695c60.337-60.833,41.921-51.956,57.202-79.029
	c3.757-5.191,6.073-9.98,6.971-14.194C504.921,11.552,505.008,4.967,502.07,2.021z"/>
<linearGradient id="SVGID_15_" gradientUnits="userSpaceOnUse" x1="-8.7572" y1="608.1789" x2="36.2788" y2="641.7509" gradientTransform="matrix(7.8769 0 0 -7.8769 364.0898 4969.6353)">
	<stop  offset="0" style="stop-color:#29D3DA"/>
	<stop  offset="0.519" style="stop-color:#0077FF"/>
	<stop  offset="0.999" style="stop-color:#064093"/>
	<stop  offset="1" style="stop-color:#084698"/>
</linearGradient>
<path style="fill:url(#SVGID_15_);" d="M388.808,67.58c18.156,13.485,34.217,29.538,47.711,47.695
	c60.337-60.833,41.921-51.956,57.202-79.029c3.757-5.191,6.073-9.98,6.971-14.194c4.23-10.5,4.324-17.085,1.386-20.031"/>
<linearGradient id="SVGID_16_" gradientUnits="userSpaceOnUse" x1="12.1104" y1="614.937" x2="16.6484" y2="641.441" gradientTransform="matrix(7.8769 0 0 -7.8769 364.0898 4969.6353)">
	<stop  offset="0" style="stop-color:#29D3DA"/>
	<stop  offset="0.519" style="stop-color:#0077FF"/>
	<stop  offset="0.999" style="stop-color:#064093"/>
	<stop  offset="1" style="stop-color:#084698"/>
</linearGradient>
<path style="fill:url(#SVGID_16_);" d="M436.518,115.275c60.337-60.833,41.921-51.956,57.202-79.029
	c3.757-5.191,6.073-9.98,6.971-14.194c4.23-10.5,4.324-17.085,1.386-20.031"/>
<g>
</g>
<g>
</g>
<g>
</g>
<g>
</g>
<g>
</g>
<g>
</g>
<g>
</g>
<g>
</g>
<g>
</g>
<g>
</g>
<g>
</g>
<g>
</g>
<g>
</g>
<g>
</g>
<g>
</g>
</svg>
