<?xml version="1.0" encoding="iso-8859-1"?>
<!-- Generator: Adobe Illustrator 19.0.0, SVG Export Plug-In . SVG Version: 6.00 Build 0)  -->
<svg version="1.1" id="Layer_1" xmlns="http://www.w3.org/2000/svg" xmlns:xlink="http://www.w3.org/1999/xlink" x="0px" y="0px"
	 viewBox="0 0 504.123 504.123" style="enable-background:new 0 0 504.123 504.123;" xml:space="preserve">
<linearGradient id="SVGID_1_" gradientUnits="userSpaceOnUse" x1="-23.3212" y1="623.5853" x2="-8.5992" y2="621.6543" gradientTransform="matrix(7.8769 0 0 -7.8769 364.0649 4969.6768)">
	<stop  offset="0.012" style="stop-color:#E0B386"/>
	<stop  offset="0.519" style="stop-color:#DA498C"/>
	<stop  offset="1" style="stop-color:#961484"/>
</linearGradient>
<path style="fill:url(#SVGID_1_);" d="M246.767,70.436c0-31.831,21.205-58.691,50.278-67.261
	c-6.294-1.859-12.965-2.867-19.858-2.867c-38.731,0-70.128,31.397-70.128,70.128c0,38.739,31.397,70.136,70.128,70.136
	c6.9,0,13.572-1.016,19.858-2.867C267.971,129.143,246.767,102.275,246.767,70.436z"/>
<linearGradient id="SVGID_2_" gradientUnits="userSpaceOnUse" x1="-5.122" y1="574.2509" x2="-19.847" y2="576.1808" gradientTransform="matrix(7.8769 0 0 -7.8769 364.0649 4969.6768)">
	<stop  offset="0.012" style="stop-color:#E0B386"/>
	<stop  offset="0.519" style="stop-color:#DA498C"/>
	<stop  offset="1" style="stop-color:#961484"/>
</linearGradient>
<path style="fill:url(#SVGID_2_);" d="M257.322,433.665c0,31.831-21.205,58.699-50.278,67.261
	c6.302,1.859,12.965,2.867,19.866,2.867c38.723,0,70.12-31.397,70.12-70.128c0-38.739-31.397-70.136-70.12-70.136
	c-6.9,0-13.572,1.016-19.866,2.867C236.117,374.966,257.322,401.826,257.322,433.665z"/>
<linearGradient id="SVGID_3_" gradientUnits="userSpaceOnUse" x1="-3.2121" y1="622.7939" x2="5.8319" y2="611.0179" gradientTransform="matrix(7.8769 0 0 -7.8769 364.0649 4969.6768)">
	<stop  offset="0.012" style="stop-color:#E0B386"/>
	<stop  offset="0.519" style="stop-color:#DA498C"/>
	<stop  offset="1" style="stop-color:#961484"/>
</linearGradient>
<path style="fill:url(#SVGID_3_);" d="M376.736,119.903c22.496-22.496,56.501-26.506,83.102-12.012
	c-3.127-5.766-7.129-11.193-11.997-16.061c-27.404-27.404-71.798-27.404-99.194,0c-27.388,27.388-27.388,71.79,0,99.178
	c4.876,4.884,10.319,8.885,16.069,12.012C350.222,176.412,354.216,142.408,376.736,119.903z"/>
<linearGradient id="SVGID_4_" gradientUnits="userSpaceOnUse" x1="-25.2291" y1="575.0446" x2="-34.2741" y2="586.8156" gradientTransform="matrix(7.8769 0 0 -7.8769 364.0649 4969.6768)">
	<stop  offset="0.012" style="stop-color:#E0B386"/>
	<stop  offset="0.519" style="stop-color:#DA498C"/>
	<stop  offset="1" style="stop-color:#961484"/>
</linearGradient>
<path style="fill:url(#SVGID_4_);" d="M127.352,384.198c-22.496,22.512-56.501,26.514-83.109,12.02
	c3.135,5.758,7.144,11.193,12.012,16.061c27.388,27.388,71.79,27.388,99.186,0c27.388-27.396,27.388-71.782,0.016-99.178
	c-4.892-4.876-10.327-8.885-16.085-12.012C153.866,327.704,149.88,361.686,127.352,384.198z"/>
<linearGradient id="SVGID_5_" gradientUnits="userSpaceOnUse" x1="10.4449" y1="608.0173" x2="8.5149" y2="593.2953" gradientTransform="matrix(7.8769 0 0 -7.8769 364.0649 4969.6768)">
	<stop  offset="0.012" style="stop-color:#E0B386"/>
	<stop  offset="0.519" style="stop-color:#DA498C"/>
	<stop  offset="1" style="stop-color:#961484"/>
</linearGradient>
<path style="fill:url(#SVGID_5_);" d="M433.647,246.777c31.831,0,58.699,21.205,67.269,50.271
	c1.859-6.294,2.859-12.965,2.867-19.858c-0.008-38.747-31.397-70.136-70.136-70.128c-38.739-0.016-70.128,31.397-70.128,70.128
	c-0.008,6.892,1.008,13.564,2.859,19.858C374.956,267.982,401.816,246.761,433.647,246.777z"/>
<linearGradient id="SVGID_6_" gradientUnits="userSpaceOnUse" x1="-38.8884" y1="589.8199" x2="-36.9574" y2="604.5419" gradientTransform="matrix(7.8769 0 0 -7.8769 364.0649 4969.6768)">
	<stop  offset="0.012" style="stop-color:#E0B386"/>
	<stop  offset="0.519" style="stop-color:#DA498C"/>
	<stop  offset="1" style="stop-color:#961484"/>
</linearGradient>
<path style="fill:url(#SVGID_6_);" d="M70.434,257.332c-31.831,0-58.691-21.205-67.261-50.271
	c-1.859,6.294-2.867,12.965-2.867,19.858c0,38.723,31.397,70.12,70.128,70.12c38.739,0,70.128-31.397,70.136-70.12
	c0-6.9-1.016-13.572-2.867-19.858C129.133,236.127,102.272,257.332,70.434,257.332z"/>
<linearGradient id="SVGID_7_" gradientUnits="userSpaceOnUse" x1="9.6517" y1="587.9084" x2="-2.1203" y2="578.8644" gradientTransform="matrix(7.8769 0 0 -7.8769 364.0649 4969.6768)">
	<stop  offset="0.012" style="stop-color:#E0B386"/>
	<stop  offset="0.519" style="stop-color:#DA498C"/>
	<stop  offset="1" style="stop-color:#961484"/>
</linearGradient>
<path style="fill:url(#SVGID_7_);" d="M384.187,376.738c22.496,22.504,26.514,56.501,12.012,83.117
	c5.766-3.143,11.185-7.144,16.077-12.012c27.396-27.404,27.396-71.79-0.008-99.186c-27.38-27.404-71.79-27.388-99.178-0.008
	c-4.876,4.876-8.893,10.303-12.02,16.069C327.678,350.225,361.683,354.226,384.187,376.738z"/>
<linearGradient id="SVGID_8_" gradientUnits="userSpaceOnUse" x1="-38.0985" y1="609.925" x2="-26.3225" y2="618.97" gradientTransform="matrix(7.8769 0 0 -7.8769 364.0649 4969.6768)">
	<stop  offset="0.012" style="stop-color:#E0B386"/>
	<stop  offset="0.519" style="stop-color:#DA498C"/>
	<stop  offset="1" style="stop-color:#961484"/>
</linearGradient>
<path style="fill:url(#SVGID_8_);" d="M119.893,127.371c-22.504-22.504-26.522-56.501-12.012-83.102
	c-5.766,3.127-11.201,7.129-16.077,11.997c-27.388,27.388-27.388,71.79,0.008,99.194c27.396,27.38,71.79,27.38,99.178,0
	c4.876-4.868,8.877-10.319,12.012-16.077C176.402,153.884,142.413,149.883,119.893,127.371z"/>
<linearGradient id="SVGID_9_" gradientUnits="userSpaceOnUse" x1="-34.4361" y1="615.7292" x2="-20.7191" y2="621.4193" gradientTransform="matrix(7.8769 0 0 -7.8769 364.0649 4969.6768)">
	<stop  offset="0.012" style="stop-color:#E0B386"/>
	<stop  offset="0.519" style="stop-color:#DA498C"/>
	<stop  offset="1" style="stop-color:#961484"/>
</linearGradient>
<path style="fill:url(#SVGID_9_);" d="M156.67,97.415c-15.919-27.561-10.98-61.44,9.917-83.385
	c-6.388,1.528-12.674,3.994-18.637,7.436c-33.548,19.369-45.04,62.259-25.679,95.799c19.377,33.564,62.275,45.04,95.807,25.679
	c5.971-3.45,11.248-7.664,15.777-12.414C204.389,137.65,172.59,124.992,156.67,97.415z"/>
<linearGradient id="SVGID_10_" gradientUnits="userSpaceOnUse" x1="5.9952" y1="582.1044" x2="-7.7218" y2="576.4144" gradientTransform="matrix(7.8769 0 0 -7.8769 364.0649 4969.6768)">
	<stop  offset="0.012" style="stop-color:#E0B386"/>
	<stop  offset="0.519" style="stop-color:#DA498C"/>
	<stop  offset="1" style="stop-color:#961484"/>
</linearGradient>
<path style="fill:url(#SVGID_10_);" d="M347.434,406.702c15.919,27.569,10.988,61.432-9.909,83.377
	c6.388-1.528,12.658-3.994,18.629-7.436c33.54-19.361,45.032-62.259,25.671-95.799c-19.361-33.556-62.251-45.04-95.799-25.679
	c-5.963,3.45-11.24,7.656-15.77,12.414C299.707,366.459,331.507,379.133,347.434,406.702z"/>
<linearGradient id="SVGID_11_" gradientUnits="userSpaceOnUse" x1="-16.6287" y1="625.0984" x2="-2.9048" y2="619.4234" gradientTransform="matrix(7.8769 0 0 -7.8769 364.0649 4969.6768)">
	<stop  offset="0.012" style="stop-color:#E0B386"/>
	<stop  offset="0.519" style="stop-color:#DA498C"/>
	<stop  offset="1" style="stop-color:#961484"/>
</linearGradient>
<path style="fill:url(#SVGID_11_);" d="M293.957,75.273c8.239-30.744,35.682-51.208,65.977-51.956
	c-5.608-3.434-11.784-6.128-18.44-7.916C304.071,5.381,265.6,27.57,255.589,64.993c-10.012,37.408,12.186,75.871,49.593,85.89
	c6.672,1.796,13.367,2.536,19.913,2.371C299.258,137.461,285.71,106.016,293.957,75.273z"/>
<linearGradient id="SVGID_12_" gradientUnits="userSpaceOnUse" x1="-11.8187" y1="572.7328" x2="-25.5407" y2="578.4128" gradientTransform="matrix(7.8769 0 0 -7.8769 364.0649 4969.6768)">
	<stop  offset="0.012" style="stop-color:#E0B386"/>
	<stop  offset="0.519" style="stop-color:#DA498C"/>
	<stop  offset="1" style="stop-color:#961484"/>
</linearGradient>
<path style="fill:url(#SVGID_12_);" d="M210.139,428.844c-8.239,30.736-35.667,51.216-65.953,51.964
	c5.6,3.419,11.768,6.12,18.432,7.908c37.408,10.012,75.878-12.186,85.89-49.585c10.012-37.423-12.17-75.878-49.577-85.898
	c-6.672-1.796-13.367-2.536-19.929-2.363C204.854,366.648,218.386,398.093,210.139,428.844z"/>
<linearGradient id="SVGID_13_" gradientUnits="userSpaceOnUse" x1="2.5901" y1="619.1297" x2="8.2801" y2="605.4157" gradientTransform="matrix(7.8769 0 0 -7.8769 364.0649 4969.6768)">
	<stop  offset="0.012" style="stop-color:#E0B386"/>
	<stop  offset="0.519" style="stop-color:#DA498C"/>
	<stop  offset="1" style="stop-color:#961484"/>
</linearGradient>
<path style="fill:url(#SVGID_13_);" d="M406.684,156.689c27.569-15.919,61.456-10.988,83.393,9.901
	c-1.536-6.38-4.017-12.65-7.444-18.629c-19.377-33.548-62.259-45.04-95.799-25.663c-33.564,19.346-45.04,62.251-25.679,95.799
	c3.45,5.979,7.648,11.24,12.414,15.77C366.464,204.407,379.107,172.592,406.684,156.689z"/>
<linearGradient id="SVGID_14_" gradientUnits="userSpaceOnUse" x1="-31.0324" y1="578.7007" x2="-36.7214" y2="592.4167" gradientTransform="matrix(7.8769 0 0 -7.8769 364.0649 4969.6768)">
	<stop  offset="0.012" style="stop-color:#E0B386"/>
	<stop  offset="0.519" style="stop-color:#DA498C"/>
	<stop  offset="1" style="stop-color:#961484"/>
</linearGradient>
<path style="fill:url(#SVGID_14_);" d="M97.404,347.436c-27.553,15.919-61.432,10.98-83.385-9.909
	c1.552,6.388,4.017,12.658,7.459,18.629c19.354,33.54,62.243,45.032,95.799,25.671c33.548-19.369,45.017-62.251,25.663-95.799
	c-3.45-5.971-7.648-11.24-12.406-15.77C137.632,299.718,124.989,331.517,97.404,347.436z"/>
<linearGradient id="SVGID_15_" gradientUnits="userSpaceOnUse" x1="11.9601" y1="601.3145" x2="6.2841" y2="587.5975" gradientTransform="matrix(7.8769 0 0 -7.8769 364.0649 4969.6768)">
	<stop  offset="0.012" style="stop-color:#E0B386"/>
	<stop  offset="0.519" style="stop-color:#DA498C"/>
	<stop  offset="1" style="stop-color:#961484"/>
</linearGradient>
<path style="fill:url(#SVGID_15_);" d="M428.842,293.96c30.72,8.247,51.2,35.682,51.964,65.969
	c3.419-5.593,6.112-11.776,7.901-18.44c10.035-37.415-12.17-75.863-49.593-85.882c-37.408-10.043-75.871,12.178-85.89,49.577
	c-1.788,6.656-2.552,13.351-2.371,19.929C366.638,299.253,398.09,285.713,428.842,293.96z"/>
<linearGradient id="SVGID_16_" gradientUnits="userSpaceOnUse" x1="-40.401" y1="596.5148" x2="-34.726" y2="610.2358" gradientTransform="matrix(7.8769 0 0 -7.8769 364.0649 4969.6768)">
	<stop  offset="0.012" style="stop-color:#E0B386"/>
	<stop  offset="0.519" style="stop-color:#DA498C"/>
	<stop  offset="1" style="stop-color:#961484"/>
</linearGradient>
<path style="fill:url(#SVGID_16_);" d="M75.27,210.149c-30.744-8.224-51.224-35.667-51.964-65.953
	c-3.434,5.593-6.128,11.776-7.924,18.44c-10.027,37.4,12.178,75.855,49.601,85.882c37.4,10.027,75.855-12.17,85.89-49.585
	c1.788-6.664,2.521-13.359,2.371-19.921C137.451,204.864,106.006,218.396,75.27,210.149z"/>
<linearGradient id="SVGID_17_" gradientUnits="userSpaceOnUse" x1="-40.1337" y1="603.3661" x2="-31.0987" y2="615.1542" gradientTransform="matrix(7.8769 0 0 -7.8769 364.0649 4969.6768)">
	<stop  offset="0.012" style="stop-color:#E0B386"/>
	<stop  offset="0.519" style="stop-color:#DA498C"/>
	<stop  offset="1" style="stop-color:#961484"/>
</linearGradient>
<path style="fill:url(#SVGID_17_);" d="M92.135,165.826c-27.561-15.911-40.227-47.726-33.091-77.17
	c-4.766,4.513-8.995,9.791-12.438,15.77c-19.369,33.54-7.869,76.43,25.671,95.799c33.564,19.369,76.453,7.861,95.815-25.679
	c3.45-5.971,5.908-12.256,7.452-18.629C153.583,176.806,119.712,181.745,92.135,165.826z"/>
<linearGradient id="SVGID_18_" gradientUnits="userSpaceOnUse" x1="11.6982" y1="594.4638" x2="2.6582" y2="582.6788" gradientTransform="matrix(7.8769 0 0 -7.8769 364.0649 4969.6768)">
	<stop  offset="0.012" style="stop-color:#E0B386"/>
	<stop  offset="0.519" style="stop-color:#DA498C"/>
	<stop  offset="1" style="stop-color:#961484"/>
</linearGradient>
<path style="fill:url(#SVGID_18_);" d="M411.977,338.291c27.561,15.919,40.227,47.711,33.107,77.162
	c4.773-4.521,8.964-9.791,12.414-15.754c19.361-33.548,7.877-76.438-25.663-95.799c-33.548-19.377-76.438-7.877-95.799,25.663
	c-3.45,5.971-5.923,12.249-7.467,18.629C350.529,327.311,384.4,322.38,411.977,338.291z"/>
<linearGradient id="SVGID_19_" gradientUnits="userSpaceOnUse" x1="-29.3952" y1="620.3845" x2="-14.6692" y2="622.3345" gradientTransform="matrix(7.8769 0 0 -7.8769 364.0649 4969.6768)">
	<stop  offset="0.012" style="stop-color:#E0B386"/>
	<stop  offset="0.519" style="stop-color:#DA498C"/>
	<stop  offset="1" style="stop-color:#961484"/>
</linearGradient>
<path style="fill:url(#SVGID_19_);" d="M199.938,78.006c-8.231-30.752,5.317-62.196,31.169-77.982
	c-6.577-0.165-13.265,0.575-19.913,2.363c-37.423,10.027-59.636,48.482-49.609,85.906c10.035,37.4,48.49,59.605,85.906,49.585
	c6.672-1.788,12.832-4.482,18.432-7.901C235.652,129.206,208.193,108.758,199.938,78.006z"/>
<linearGradient id="SVGID_20_" gradientUnits="userSpaceOnUse" x1="0.9566" y1="577.4451" x2="-13.7624" y2="575.5001" gradientTransform="matrix(7.8769 0 0 -7.8769 364.0649 4969.6768)">
	<stop  offset="0.012" style="stop-color:#E0B386"/>
	<stop  offset="0.519" style="stop-color:#DA498C"/>
	<stop  offset="1" style="stop-color:#961484"/>
</linearGradient>
<path style="fill:url(#SVGID_20_);" d="M304.166,426.127c8.224,30.736-5.293,62.18-31.145,77.974
	c6.561,0.158,13.265-0.591,19.913-2.379c37.408-10.019,59.605-48.482,49.593-85.882c-10.035-37.415-48.467-59.628-85.874-49.601
	c-6.664,1.788-12.847,4.482-18.448,7.924C268.468,374.903,295.942,395.359,304.166,426.127z"/>
<linearGradient id="SVGID_21_" gradientUnits="userSpaceOnUse" x1="-9.7663" y1="624.828" x2="2.0177" y2="615.795" gradientTransform="matrix(7.8769 0 0 -7.8769 364.0649 4969.6768)">
	<stop  offset="0.012" style="stop-color:#E0B386"/>
	<stop  offset="0.519" style="stop-color:#DA498C"/>
	<stop  offset="1" style="stop-color:#961484"/>
</linearGradient>
<path style="fill:url(#SVGID_21_);" d="M338.289,92.145c15.919-27.561,47.742-40.235,77.17-33.122
	c-4.513-4.758-9.807-8.948-15.746-12.414c-33.579-19.361-76.438-7.869-95.807,25.679c-19.393,33.54-7.877,76.438,25.663,95.807
	c5.979,3.45,12.249,5.916,18.621,7.452C327.308,153.585,322.369,119.706,338.289,92.145z"/>
<linearGradient id="SVGID_22_" gradientUnits="userSpaceOnUse" x1="-18.6694" y1="573.0059" x2="-30.4564" y2="582.0359" gradientTransform="matrix(7.8769 0 0 -7.8769 364.0649 4969.6768)">
	<stop  offset="0.012" style="stop-color:#E0B386"/>
	<stop  offset="0.519" style="stop-color:#DA498C"/>
	<stop  offset="1" style="stop-color:#961484"/>
</linearGradient>
<path style="fill:url(#SVGID_22_);" d="M165.815,411.98c-15.911,27.569-47.718,40.227-77.162,33.115
	c4.537,4.758,9.791,8.964,15.777,12.406c33.532,19.369,76.422,7.877,95.783-25.671c19.385-33.548,7.869-76.43-25.655-95.791
	c-5.979-3.45-12.272-5.916-18.645-7.444C176.796,350.54,181.758,384.41,165.815,411.98z"/>
<linearGradient id="SVGID_23_" gradientUnits="userSpaceOnUse" x1="7.2511" y1="614.0878" x2="9.1961" y2="599.3658" gradientTransform="matrix(7.8769 0 0 -7.8769 364.0649 4969.6768)">
	<stop  offset="0.012" style="stop-color:#E0B386"/>
	<stop  offset="0.519" style="stop-color:#DA498C"/>
	<stop  offset="1" style="stop-color:#961484"/>
</linearGradient>
<path style="fill:url(#SVGID_23_);" d="M426.116,199.949c30.728-8.208,62.18,5.309,77.989,31.161
	c0.142-6.554-0.599-13.265-2.387-19.921c-10.019-37.423-48.467-59.605-85.89-49.577c-37.423,10.004-59.62,48.475-49.609,85.882
	c1.804,6.656,4.474,12.839,7.932,18.432C374.885,235.639,395.357,208.196,426.116,199.949z"/>
<linearGradient id="SVGID_24_" gradientUnits="userSpaceOnUse" x1="-35.6861" y1="583.7413" x2="-37.6361" y2="598.4634" gradientTransform="matrix(7.8769 0 0 -7.8769 364.0649 4969.6768)">
	<stop  offset="0.012" style="stop-color:#E0B386"/>
	<stop  offset="0.519" style="stop-color:#DA498C"/>
	<stop  offset="1" style="stop-color:#961484"/>
</linearGradient>
<path style="fill:url(#SVGID_24_);" d="M78.004,304.16c-30.752,8.247-62.188-5.293-77.982-31.145
	c-0.165,6.561,0.599,13.265,2.387,19.921c9.996,37.408,48.451,59.613,85.89,49.593c37.408-10.027,59.589-48.475,49.593-85.898
	c-1.788-6.664-4.513-12.824-7.932-18.44C129.204,268.486,108.755,295.921,78.004,304.16z"/>
<linearGradient id="SVGID_25_" gradientUnits="userSpaceOnUse" x1="-13.5566" y1="603.3655" x2="-15.1076" y2="591.5295" gradientTransform="matrix(7.8769 0 0 -7.8769 364.0649 4969.6768)">
	<stop  offset="0" style="stop-color:#29D3DA"/>
	<stop  offset="0.519" style="stop-color:#0077FF"/>
	<stop  offset="0.999" style="stop-color:#064093"/>
	<stop  offset="1" style="stop-color:#084698"/>
</linearGradient>
<path style="fill:url(#SVGID_25_);" d="M313.453,256.615c0-3.442-0.354-6.782-0.898-10.067
	c-4.813,29.097-30.027,51.318-60.495,51.318s-55.674-22.213-60.495-51.318c-0.551,3.285-0.898,6.632-0.898,10.067
	c0,33.91,27.49,61.393,61.393,61.393C285.954,318.008,313.453,290.525,313.453,256.615z"/>
<linearGradient id="SVGID_26_" gradientUnits="userSpaceOnUse" x1="-12.6963" y1="602.0021" x2="-45.8563" y2="573.3761" gradientTransform="matrix(7.8769 0 0 -7.8769 364.0649 4969.6768)">
	<stop  offset="0" style="stop-color:#29D3DA"/>
	<stop  offset="0.519" style="stop-color:#0077FF"/>
	<stop  offset="0.999" style="stop-color:#064093"/>
	<stop  offset="1" style="stop-color:#084698"/>
</linearGradient>
<path style="fill:url(#SVGID_26_);" d="M190.675,247.51c0,3.434,0.347,6.782,0.898,10.067c4.813-29.105,30.027-51.318,60.495-51.318
	s55.674,22.205,60.495,51.318c0.544-3.285,0.898-6.64,0.898-10.067c0-33.902-27.498-61.393-61.393-61.393
	C218.166,186.117,190.675,213.607,190.675,247.51z"/>
<g>
</g>
<g>
</g>
<g>
</g>
<g>
</g>
<g>
</g>
<g>
</g>
<g>
</g>
<g>
</g>
<g>
</g>
<g>
</g>
<g>
</g>
<g>
</g>
<g>
</g>
<g>
</g>
<g>
</g>
</svg>
