<?xml version="1.0" encoding="iso-8859-1"?>
<!-- Generator: Adobe Illustrator 19.0.0, SVG Export Plug-In . SVG Version: 6.00 Build 0)  -->
<svg version="1.1" id="Layer_1" xmlns="http://www.w3.org/2000/svg" xmlns:xlink="http://www.w3.org/1999/xlink" x="0px" y="0px"
	 viewBox="0 0 504.123 504.123" style="enable-background:new 0 0 504.123 504.123;" xml:space="preserve">
<g>
	
		<linearGradient id="SVGID_1_" gradientUnits="userSpaceOnUse" x1="-19.0008" y1="614.915" x2="27.7122" y2="614.915" gradientTransform="matrix(7.8769 0 0 -7.8769 364.0537 4969.6694)">
		<stop  offset="0" style="stop-color:#29D3DA"/>
		<stop  offset="0.519" style="stop-color:#0077FF"/>
		<stop  offset="0.999" style="stop-color:#064093"/>
		<stop  offset="1" style="stop-color:#084698"/>
	</linearGradient>
	<polygon style="fill:url(#SVGID_1_);" points="294.518,252.062 317.889,185.982 252.062,0 186.218,185.982 209.613,252.062 
		252.062,132.159 	"/>
	
		<linearGradient id="SVGID_2_" gradientUnits="userSpaceOnUse" x1="-19.0008" y1="582.915" x2="27.7122" y2="582.915" gradientTransform="matrix(7.8769 0 0 -7.8769 364.0537 4969.6694)">
		<stop  offset="0" style="stop-color:#29D3DA"/>
		<stop  offset="0.519" style="stop-color:#0077FF"/>
		<stop  offset="0.999" style="stop-color:#064093"/>
		<stop  offset="1" style="stop-color:#084698"/>
	</linearGradient>
	<polygon style="fill:url(#SVGID_2_);" points="252.062,371.972 209.613,252.062 186.218,318.141 252.062,504.123 317.889,318.141 
		294.518,252.062 	"/>
</g>
<linearGradient id="SVGID_3_" gradientUnits="userSpaceOnUse" x1="-6.2873" y1="613.6115" x2="26.7427" y2="580.5835" gradientTransform="matrix(7.8769 0 0 -7.8769 364.0537 4969.6694)">
	<stop  offset="0" style="stop-color:#29D3DA"/>
	<stop  offset="0.519" style="stop-color:#0077FF"/>
	<stop  offset="0.999" style="stop-color:#064093"/>
	<stop  offset="1" style="stop-color:#084698"/>
</linearGradient>
<polygon style="fill:url(#SVGID_3_);" points="282.088,282.073 345.34,251.896 430.293,73.838 252.227,158.783 222.05,222.043 
	336.849,167.274 "/>
<linearGradient id="SVGID_4_" gradientUnits="userSpaceOnUse" x1="-28.9146" y1="590.9843" x2="4.1194" y2="557.9542" gradientTransform="matrix(7.8769 0 0 -7.8769 364.0537 4969.6694)">
	<stop  offset="0" style="stop-color:#29D3DA"/>
	<stop  offset="0.519" style="stop-color:#0077FF"/>
	<stop  offset="0.999" style="stop-color:#064093"/>
	<stop  offset="1" style="stop-color:#084698"/>
</linearGradient>
<polygon style="fill:url(#SVGID_4_);" points="167.274,336.864 222.05,222.043 158.783,252.227 73.83,430.308 251.896,345.34 
	282.088,282.073 "/>
<linearGradient id="SVGID_5_" gradientUnits="userSpaceOnUse" x1="-2.712" y1="594.0331" x2="-30.429" y2="547.3202" gradientTransform="matrix(7.8769 0 0 -7.8769 364.0537 4969.6694)">
	<stop  offset="0" style="stop-color:#29D3DA"/>
	<stop  offset="0.519" style="stop-color:#0077FF"/>
	<stop  offset="0.999" style="stop-color:#064093"/>
	<stop  offset="1" style="stop-color:#084698"/>
</linearGradient>
<polygon style="fill:url(#SVGID_5_);" points="252.077,294.526 318.149,317.905 504.123,252.085 318.149,186.218 252.062,209.621 
	371.972,252.062 "/>
<linearGradient id="SVGID_6_" gradientUnits="userSpaceOnUse" x1="-24.0143" y1="606.671" x2="-51.7313" y2="559.96" gradientTransform="matrix(7.8769 0 0 -7.8769 364.0537 4969.6694)">
	<stop  offset="0" style="stop-color:#29D3DA"/>
	<stop  offset="0.519" style="stop-color:#0077FF"/>
	<stop  offset="0.999" style="stop-color:#064093"/>
	<stop  offset="1" style="stop-color:#084698"/>
</linearGradient>
<polygon style="fill:url(#SVGID_6_);" points="132.151,252.085 252.062,209.621 185.998,186.234 0,252.085 185.998,317.905 
	252.077,294.526 "/>
<linearGradient id="SVGID_7_" gradientUnits="userSpaceOnUse" x1="0.4815" y1="590.9858" x2="-32.5605" y2="557.9457" gradientTransform="matrix(7.8769 0 0 -7.8769 364.0537 4969.6694)">
	<stop  offset="0" style="stop-color:#29D3DA"/>
	<stop  offset="0.519" style="stop-color:#0077FF"/>
	<stop  offset="0.999" style="stop-color:#064093"/>
	<stop  offset="1" style="stop-color:#084698"/>
</linearGradient>
<polygon style="fill:url(#SVGID_7_);" points="222.05,282.088 252.227,345.364 430.285,430.308 345.356,252.227 282.081,222.058 
	336.857,336.857 "/>
<linearGradient id="SVGID_8_" gradientUnits="userSpaceOnUse" x1="-22.1509" y1="613.6082" x2="-55.1829" y2="580.5772" gradientTransform="matrix(7.8769 0 0 -7.8769 364.0537 4969.6694)">
	<stop  offset="0" style="stop-color:#29D3DA"/>
	<stop  offset="0.519" style="stop-color:#0077FF"/>
	<stop  offset="0.999" style="stop-color:#064093"/>
	<stop  offset="1" style="stop-color:#084698"/>
</linearGradient>
<polygon style="fill:url(#SVGID_8_);" points="167.259,167.298 282.081,222.058 251.896,158.807 73.815,73.838 158.783,251.92 
	222.05,282.088 "/>
<g>
</g>
<g>
</g>
<g>
</g>
<g>
</g>
<g>
</g>
<g>
</g>
<g>
</g>
<g>
</g>
<g>
</g>
<g>
</g>
<g>
</g>
<g>
</g>
<g>
</g>
<g>
</g>
<g>
</g>
</svg>
