<?xml version="1.0" encoding="iso-8859-1"?>
<!-- Generator: Adobe Illustrator 19.0.0, SVG Export Plug-In . SVG Version: 6.00 Build 0)  -->
<svg version="1.1" id="Layer_1" xmlns="http://www.w3.org/2000/svg" xmlns:xlink="http://www.w3.org/1999/xlink" x="0px" y="0px"
	 viewBox="0 0 504.131 504.131" style="enable-background:new 0 0 504.131 504.131;" xml:space="preserve">
<linearGradient id="SVGID_1_" gradientUnits="userSpaceOnUse" x1="-14.2138" y1="643.983" x2="-14.2138" y2="566.4291" gradientTransform="matrix(7.8769 0 0 -7.8769 364.0267 4969.6694)">
	<stop  offset="0" style="stop-color:#29D3DA"/>
	<stop  offset="0.519" style="stop-color:#0077FF"/>
	<stop  offset="0.999" style="stop-color:#064093"/>
	<stop  offset="1" style="stop-color:#084698"/>
</linearGradient>
<path style="fill:url(#SVGID_1_);" d="M252.065,0C112.849,0,0.004,112.845,0.004,252.062s112.845,252.062,252.062,252.062
	c-108.481,0-196.427-87.938-196.427-196.427s87.946-196.427,196.427-196.427s196.419,87.946,196.419,196.435
	s-87.938,196.419-196.419,196.419c139.217,0,252.062-112.845,252.062-252.062S391.282,0,252.065,0z"/>
<linearGradient id="SVGID_2_" gradientUnits="userSpaceOnUse" x1="-14.2138" y1="643.983" x2="-14.2138" y2="566.4301" gradientTransform="matrix(7.8769 0 0 -7.8769 364.0267 4969.6694)">
	<stop  offset="0.012" style="stop-color:#E0B386"/>
	<stop  offset="0.519" style="stop-color:#DA498C"/>
	<stop  offset="1" style="stop-color:#961484"/>
</linearGradient>
<path style="fill:url(#SVGID_2_);" d="M252.065,163.501c-94.058,0-170.315,76.249-170.315,170.315
	c0,94.058,76.256,170.307,170.315,170.307c-67.726,0-122.628-54.902-122.628-122.62c0-67.734,54.91-122.62,122.628-122.62
	s122.62,54.894,122.62,122.62s-54.902,122.62-122.62,122.62c94.058,0,170.315-76.249,170.315-170.307
	C422.38,239.75,346.124,163.501,252.065,163.501z"/>
<linearGradient id="SVGID_3_" gradientUnits="userSpaceOnUse" x1="-14.2138" y1="593.438" x2="-14.2138" y2="549.715" gradientTransform="matrix(7.8769 0 0 -7.8769 364.0267 4969.6694)">
	<stop  offset="0.012" style="stop-color:#E0B386"/>
	<stop  offset="0.519" style="stop-color:#DA498C"/>
	<stop  offset="1" style="stop-color:#961484"/>
</linearGradient>
<circle style="fill:url(#SVGID_3_);" cx="252.065" cy="403.07" r="101.061"/>
<linearGradient id="SVGID_4_" gradientUnits="userSpaceOnUse" x1="-14.2143" y1="593.0051" x2="-14.2143" y2="571.1451" gradientTransform="matrix(7.8769 0 0 -7.8769 364.0267 4969.6694)">
	<stop  offset="0.012" style="stop-color:#E0B386"/>
	<stop  offset="0.519" style="stop-color:#DA498C"/>
	<stop  offset="1" style="stop-color:#961484"/>
</linearGradient>
<path style="fill:url(#SVGID_4_);" d="M151.005,403.07c0-55.808,45.245-101.053,101.061-101.053s101.053,45.245,101.053,101.053"/>
<g>
</g>
<g>
</g>
<g>
</g>
<g>
</g>
<g>
</g>
<g>
</g>
<g>
</g>
<g>
</g>
<g>
</g>
<g>
</g>
<g>
</g>
<g>
</g>
<g>
</g>
<g>
</g>
<g>
</g>
</svg>
