<?xml version="1.0" encoding="iso-8859-1"?>
<!-- Generator: Adobe Illustrator 19.0.0, SVG Export Plug-In . SVG Version: 6.00 Build 0)  -->
<svg version="1.1" id="Layer_1" xmlns="http://www.w3.org/2000/svg" xmlns:xlink="http://www.w3.org/1999/xlink" x="0px" y="0px"
	 viewBox="0 0 504.107 504.107" style="enable-background:new 0 0 504.107 504.107;" xml:space="preserve">
<linearGradient id="SVGID_1_" gradientUnits="userSpaceOnUse" x1="-14.2208" y1="598.8926" x2="-29.8278" y2="625.9236" gradientTransform="matrix(7.8769 0 0 -7.8769 364.135 4969.5996)">
	<stop  offset="0" style="stop-color:#29D3DA"/>
	<stop  offset="0.332" style="stop-color:#27CEDC"/>
	<stop  offset="1" style="stop-color:#0077FF"/>
</linearGradient>
<path style="fill:url(#SVGID_1_);" d="M186.238,94.681c22.875,39.629,33.012,76.619,22.646,82.597s-37.321-21.276-60.219-60.904
	c-22.875-39.629-33.012-76.619-22.646-82.605S163.34,55.044,186.238,94.681z"/>
<linearGradient id="SVGID_2_" gradientUnits="userSpaceOnUse" x1="-14.2369" y1="598.922" x2="1.3701" y2="571.887" gradientTransform="matrix(7.8769 0 0 -7.8769 364.135 4969.5996)">
	<stop  offset="0" style="stop-color:#29D3DA"/>
	<stop  offset="0.332" style="stop-color:#27CEDC"/>
	<stop  offset="1" style="stop-color:#0077FF"/>
</linearGradient>
<path style="fill:url(#SVGID_2_);" d="M317.861,409.427c-22.875-39.629-33.012-76.619-22.646-82.597
	c10.366-5.979,37.321,21.276,60.219,60.904c22.875,39.629,33.012,76.619,22.646,82.605
	C367.714,476.325,340.76,449.063,317.861,409.427z"/>
<linearGradient id="SVGID_3_" gradientUnits="userSpaceOnUse" x1="-14.2336" y1="598.8912" x2="-6.1556" y2="629.0402" gradientTransform="matrix(7.8769 0 0 -7.8769 364.135 4969.5996)">
	<stop  offset="0" style="stop-color:#29D3DA"/>
	<stop  offset="0.332" style="stop-color:#27CEDC"/>
	<stop  offset="1" style="stop-color:#0077FF"/>
</linearGradient>
<path style="fill:url(#SVGID_3_);" d="M316.79,94.232c-11.847,44.205-30.83,77.517-42.401,74.413
	c-11.571-3.104-11.343-41.44,0.504-85.638c11.847-44.205,30.83-77.525,42.386-74.429C328.865,11.681,328.637,50.026,316.79,94.232z"
	/>
<linearGradient id="SVGID_4_" gradientUnits="userSpaceOnUse" x1="-14.225" y1="598.9216" x2="-22.303" y2="568.7776" gradientTransform="matrix(7.8769 0 0 -7.8769 364.135 4969.5996)">
	<stop  offset="0" style="stop-color:#29D3DA"/>
	<stop  offset="0.332" style="stop-color:#27CEDC"/>
	<stop  offset="1" style="stop-color:#0077FF"/>
</linearGradient>
<path style="fill:url(#SVGID_4_);" d="M187.309,409.876c11.847-44.205,30.83-77.517,42.401-74.413
	c11.571,3.104,11.335,41.448-0.504,85.638c-11.847,44.205-30.83,77.525-42.386,74.429
	C175.234,492.426,175.462,454.081,187.309,409.876z"/>
<linearGradient id="SVGID_5_" gradientUnits="userSpaceOnUse" x1="-14.2432" y1="598.8967" x2="12.7818" y2="614.5027" gradientTransform="matrix(7.8769 0 0 -7.8769 364.135 4969.5996)">
	<stop  offset="0" style="stop-color:#29D3DA"/>
	<stop  offset="0.332" style="stop-color:#27CEDC"/>
	<stop  offset="1" style="stop-color:#0077FF"/>
</linearGradient>
<path style="fill:url(#SVGID_5_);" d="M409.423,186.234c-39.629,22.882-76.603,33.012-82.582,22.662
	c-5.986-10.382,21.276-37.337,60.904-60.219s76.619-33.02,82.582-22.662C476.329,136.397,449.067,163.344,409.423,186.234z"/>
<linearGradient id="SVGID_6_" gradientUnits="userSpaceOnUse" x1="-14.2159" y1="598.9164" x2="-41.2459" y2="583.3094" gradientTransform="matrix(7.8769 0 0 -7.8769 364.135 4969.5996)">
	<stop  offset="0" style="stop-color:#29D3DA"/>
	<stop  offset="0.332" style="stop-color:#27CEDC"/>
	<stop  offset="1" style="stop-color:#0077FF"/>
</linearGradient>
<path style="fill:url(#SVGID_6_);" d="M94.669,317.873c39.645-22.882,76.619-33.012,82.613-22.646
	c5.971,10.366-21.291,37.321-60.92,60.203c-39.629,22.883-76.619,33.02-82.597,22.662C27.77,367.718,55.032,340.764,94.669,317.873z
	"/>
<linearGradient id="SVGID_7_" gradientUnits="userSpaceOnUse" x1="-14.2441" y1="598.9109" x2="15.9009" y2="590.8329" gradientTransform="matrix(7.8769 0 0 -7.8769 364.135 4969.5996)">
	<stop  offset="0" style="stop-color:#29D3DA"/>
	<stop  offset="0.332" style="stop-color:#27CEDC"/>
	<stop  offset="1" style="stop-color:#0077FF"/>
</linearGradient>
<path style="fill:url(#SVGID_7_);" d="M409.864,316.794c-44.213-11.855-77.509-30.822-74.413-42.378
	c3.111-11.579,41.433-11.359,85.646,0.488c44.213,11.839,77.54,30.83,74.429,42.37C492.422,328.877,454.077,328.641,409.864,316.794
	z"/>
<linearGradient id="SVGID_8_" gradientUnits="userSpaceOnUse" x1="-14.2176" y1="598.903" x2="-44.3626" y2="606.98" gradientTransform="matrix(7.8769 0 0 -7.8769 364.135 4969.5996)">
	<stop  offset="0" style="stop-color:#29D3DA"/>
	<stop  offset="0.332" style="stop-color:#27CEDC"/>
	<stop  offset="1" style="stop-color:#0077FF"/>
</linearGradient>
<path style="fill:url(#SVGID_8_);" d="M94.22,187.321c44.213,11.847,77.525,30.807,74.413,42.386
	c-3.096,11.563-41.433,11.335-85.63-0.488c-44.213-11.855-77.54-30.822-74.429-42.386C11.678,175.254,50.022,175.466,94.22,187.321z
	"/>
<linearGradient id="SVGID_9_" gradientUnits="userSpaceOnUse" x1="-14.2146" y1="598.8971" x2="-41.2456" y2="614.5041" gradientTransform="matrix(7.8769 0 0 -7.8769 364.135 4969.5996)">
	<stop  offset="0" style="stop-color:#29D3DA"/>
	<stop  offset="0.332" style="stop-color:#27CEDC"/>
	<stop  offset="1" style="stop-color:#0077FF"/>
</linearGradient>
<path style="fill:url(#SVGID_9_);" d="M116.354,148.669c39.629,22.882,66.907,49.845,60.92,60.211
	c-6.002,10.366-42.969,0.236-82.613-22.638c-39.629-22.882-66.891-49.837-60.904-60.219S76.725,125.794,116.354,148.669z"/>
<linearGradient id="SVGID_10_" gradientUnits="userSpaceOnUse" x1="-14.2452" y1="598.9202" x2="12.7828" y2="583.3113" gradientTransform="matrix(7.8769 0 0 -7.8769 364.135 4969.5996)">
	<stop  offset="0" style="stop-color:#29D3DA"/>
	<stop  offset="0.332" style="stop-color:#27CEDC"/>
	<stop  offset="1" style="stop-color:#0077FF"/>
</linearGradient>
<path style="fill:url(#SVGID_10_);" d="M387.745,355.438c-39.629-22.882-66.907-49.845-60.92-60.211
	c6.002-10.366,42.953-0.236,82.613,22.638c39.613,22.882,66.891,49.837,60.904,60.219
	C464.356,388.466,427.374,378.313,387.745,355.438z"/>
<linearGradient id="SVGID_11_" gradientUnits="userSpaceOnUse" x1="-14.225" y1="598.8923" x2="-22.303" y2="629.0393" gradientTransform="matrix(7.8769 0 0 -7.8769 364.135 4969.5996)">
	<stop  offset="0" style="stop-color:#29D3DA"/>
	<stop  offset="0.332" style="stop-color:#27CEDC"/>
	<stop  offset="1" style="stop-color:#0077FF"/>
</linearGradient>
<path style="fill:url(#SVGID_11_);" d="M229.207,83.007c11.847,44.205,12.06,82.542,0.48,85.646
	c-11.555,3.104-30.523-30.224-42.37-74.421c-11.847-44.205-12.06-82.55-0.504-85.646C198.392,5.474,217.36,38.802,229.207,83.007z"
	/>
<linearGradient id="SVGID_12_" gradientUnits="userSpaceOnUse" x1="-14.2341" y1="598.9221" x2="-6.1561" y2="568.777" gradientTransform="matrix(7.8769 0 0 -7.8769 364.135 4969.5996)">
	<stop  offset="0" style="stop-color:#29D3DA"/>
	<stop  offset="0.332" style="stop-color:#27CEDC"/>
	<stop  offset="1" style="stop-color:#0077FF"/>
</linearGradient>
<path style="fill:url(#SVGID_12_);" d="M274.893,421.1c-11.847-44.205-12.06-82.542-0.488-85.646
	c11.571-3.104,30.539,30.224,42.386,74.421c11.847,44.205,12.06,82.55,0.504,85.646C305.707,498.633,286.74,465.306,274.893,421.1z"
	/>
<linearGradient id="SVGID_13_" gradientUnits="userSpaceOnUse" x1="-14.2401" y1="598.8936" x2="1.3679" y2="625.9226" gradientTransform="matrix(7.8769 0 0 -7.8769 364.135 4969.5996)">
	<stop  offset="0" style="stop-color:#29D3DA"/>
	<stop  offset="0.332" style="stop-color:#27CEDC"/>
	<stop  offset="1" style="stop-color:#0077FF"/>
</linearGradient>
<path style="fill:url(#SVGID_13_);" d="M355.434,116.358c-22.89,39.637-49.845,66.891-60.203,60.92
	c-10.382-6.002-0.244-42.976,22.63-82.605c22.89-39.621,49.845-66.899,60.203-60.912C388.447,39.755,378.309,76.721,355.434,116.358
	z"/>
<linearGradient id="SVGID_14_" gradientUnits="userSpaceOnUse" x1="-14.2204" y1="598.9232" x2="-29.8274" y2="571.8882" gradientTransform="matrix(7.8769 0 0 -7.8769 364.135 4969.5996)">
	<stop  offset="0" style="stop-color:#29D3DA"/>
	<stop  offset="0.332" style="stop-color:#27CEDC"/>
	<stop  offset="1" style="stop-color:#0077FF"/>
</linearGradient>
<path style="fill:url(#SVGID_14_);" d="M148.665,387.757c22.89-39.645,49.845-66.899,60.219-60.92
	c10.366,5.994,0.213,42.969-22.646,82.597c-22.89,39.621-49.845,66.899-60.219,60.92
	C115.653,464.36,125.791,427.386,148.665,387.757z"/>
<linearGradient id="SVGID_15_" gradientUnits="userSpaceOnUse" x1="-14.2444" y1="598.9023" x2="15.9006" y2="606.9803" gradientTransform="matrix(7.8769 0 0 -7.8769 364.135 4969.5996)">
	<stop  offset="0" style="stop-color:#29D3DA"/>
	<stop  offset="0.332" style="stop-color:#27CEDC"/>
	<stop  offset="1" style="stop-color:#0077FF"/>
</linearGradient>
<path style="fill:url(#SVGID_15_);" d="M421.096,229.211c-44.213,11.847-82.542,12.06-85.63,0.512
	c-3.111-11.587,30.184-30.562,74.398-42.401c44.213-11.855,82.582-12.067,85.662-0.52
	C498.637,198.396,465.31,217.364,421.096,229.211z"/>
<linearGradient id="SVGID_16_" gradientUnits="userSpaceOnUse" x1="-14.2156" y1="598.9094" x2="-44.3616" y2="590.8324" gradientTransform="matrix(7.8769 0 0 -7.8769 364.135 4969.5996)">
	<stop  offset="0" style="stop-color:#29D3DA"/>
	<stop  offset="0.332" style="stop-color:#27CEDC"/>
	<stop  offset="1" style="stop-color:#0077FF"/>
</linearGradient>
<path style="fill:url(#SVGID_16_);" d="M83.003,274.905c44.213-11.847,82.542-12.075,85.63-0.496
	c3.111,11.563-30.216,30.539-74.398,42.394c-44.213,11.839-82.574,12.075-85.662,0.504C5.478,305.727,38.79,286.744,83.003,274.905z
	"/>
<linearGradient id="SVGID_17_" gradientUnits="userSpaceOnUse" x1="-14.2296" y1="598.8902" x2="-14.2296" y2="630.1022" gradientTransform="matrix(7.8769 0 0 -7.8769 364.135 4969.5996)">
	<stop  offset="0.012" style="stop-color:#E0B386"/>
	<stop  offset="0.65" style="stop-color:#DA498C"/>
	<stop  offset="1" style="stop-color:#961484"/>
</linearGradient>
<ellipse style="fill:url(#SVGID_17_);" cx="252.05" cy="82.857" rx="21.685" ry="82.857"/>
<linearGradient id="SVGID_18_" gradientUnits="userSpaceOnUse" x1="-14.2296" y1="598.9242" x2="-14.2296" y2="567.7172" gradientTransform="matrix(7.8769 0 0 -7.8769 364.135 4969.5996)">
	<stop  offset="0.012" style="stop-color:#E0B386"/>
	<stop  offset="0.65" style="stop-color:#DA498C"/>
	<stop  offset="1" style="stop-color:#961484"/>
</linearGradient>
<ellipse style="fill:url(#SVGID_18_);" cx="252.05" cy="421.25" rx="21.685" ry="82.857"/>
<linearGradient id="SVGID_19_" gradientUnits="userSpaceOnUse" x1="-14.2449" y1="598.8945" x2="7.8301" y2="620.9664" gradientTransform="matrix(7.8769 0 0 -7.8769 364.135 4969.5996)">
	<stop  offset="0.012" style="stop-color:#E0B386"/>
	<stop  offset="0.65" style="stop-color:#DA498C"/>
	<stop  offset="1" style="stop-color:#961484"/>
</linearGradient>
<path style="fill:url(#SVGID_19_);" d="M387.021,147.747c-32.351,32.358-65.449,51.712-73.925,43.252
	c-8.46-8.476,10.91-41.559,43.26-73.925c32.358-32.351,65.465-51.72,73.925-43.26C438.756,82.29,419.387,115.381,387.021,147.747z"
	/>
<linearGradient id="SVGID_20_" gradientUnits="userSpaceOnUse" x1="-14.2167" y1="598.9203" x2="-36.2877" y2="576.8483" gradientTransform="matrix(7.8769 0 0 -7.8769 364.135 4969.5996)">
	<stop  offset="0.012" style="stop-color:#E0B386"/>
	<stop  offset="0.65" style="stop-color:#DA498C"/>
	<stop  offset="1" style="stop-color:#961484"/>
</linearGradient>
<path style="fill:url(#SVGID_20_);" d="M117.071,356.368c32.358-32.366,65.457-51.72,73.925-43.26
	c8.468,8.476-10.902,41.567-43.252,73.925c-32.358,32.351-65.465,51.72-73.925,43.26C65.343,421.817,84.712,388.726,117.071,356.368
	z"/>
<linearGradient id="SVGID_21_" gradientUnits="userSpaceOnUse" x1="-3.5074" y1="588.1497" x2="27.7056" y2="619.3617" gradientTransform="matrix(7.8769 0 0 -7.8769 364.135 4969.5996)">
	<stop  offset="0.012" style="stop-color:#E0B386"/>
	<stop  offset="0.65" style="stop-color:#DA498C"/>
	<stop  offset="1" style="stop-color:#961484"/>
</linearGradient>
<ellipse style="fill:url(#SVGID_21_);" cx="421.246" cy="252.054" rx="82.857" ry="21.685"/>
<linearGradient id="SVGID_22_" gradientUnits="userSpaceOnUse" x1="-24.9548" y1="588.1517" x2="-56.1648" y2="619.3636" gradientTransform="matrix(7.8769 0 0 -7.8769 364.135 4969.5996)">
	<stop  offset="0.012" style="stop-color:#E0B386"/>
	<stop  offset="0.65" style="stop-color:#DA498C"/>
	<stop  offset="1" style="stop-color:#961484"/>
</linearGradient>
<ellipse style="fill:url(#SVGID_22_);" cx="82.853" cy="252.054" rx="82.849" ry="21.685"/>
<linearGradient id="SVGID_23_" gradientUnits="userSpaceOnUse" x1="-14.2414" y1="598.9194" x2="7.8296" y2="576.8464" gradientTransform="matrix(7.8769 0 0 -7.8769 364.135 4969.5996)">
	<stop  offset="0.012" style="stop-color:#E0B386"/>
	<stop  offset="0.65" style="stop-color:#DA498C"/>
	<stop  offset="1" style="stop-color:#961484"/>
</linearGradient>
<path style="fill:url(#SVGID_23_);" d="M356.356,387.033c-32.358-32.366-51.712-65.449-43.26-73.917
	c8.476-8.468,41.566,10.886,73.925,43.252c32.366,32.351,51.72,65.465,43.268,73.909
	C421.805,438.768,388.73,419.399,356.356,387.033z"/>
<linearGradient id="SVGID_24_" gradientUnits="userSpaceOnUse" x1="-14.2192" y1="598.8956" x2="-36.2872" y2="620.9646" gradientTransform="matrix(7.8769 0 0 -7.8769 364.135 4969.5996)">
	<stop  offset="0.012" style="stop-color:#E0B386"/>
	<stop  offset="0.65" style="stop-color:#DA498C"/>
	<stop  offset="1" style="stop-color:#961484"/>
</linearGradient>
<path style="fill:url(#SVGID_24_);" d="M147.736,117.075c32.358,32.366,51.728,65.449,43.252,73.925
	c-8.46,8.46-41.567-10.902-73.917-43.252C84.712,115.389,65.343,82.29,73.811,73.83C82.278,65.355,115.369,84.716,147.736,117.075z"
	/>
<g>
</g>
<g>
</g>
<g>
</g>
<g>
</g>
<g>
</g>
<g>
</g>
<g>
</g>
<g>
</g>
<g>
</g>
<g>
</g>
<g>
</g>
<g>
</g>
<g>
</g>
<g>
</g>
<g>
</g>
</svg>
