<?xml version="1.0" encoding="iso-8859-1"?>
<!-- Generator: Adobe Illustrator 19.0.0, SVG Export Plug-In . SVG Version: 6.00 Build 0)  -->
<svg version="1.1" id="Layer_1" xmlns="http://www.w3.org/2000/svg" xmlns:xlink="http://www.w3.org/1999/xlink" x="0px" y="0px"
	 viewBox="0 0 504.123 504.123" style="enable-background:new 0 0 504.123 504.123;" xml:space="preserve">
<linearGradient id="SVGID_1_" gradientUnits="userSpaceOnUse" x1="-12.3296" y1="553.9551" x2="-27.9326" y2="624.0621" gradientTransform="matrix(7.8769 0 0 -7.8769 364.0537 4969.6694)">
	<stop  offset="0" style="stop-color:#29D3DA"/>
	<stop  offset="0.519" style="stop-color:#0077FF"/>
	<stop  offset="0.999" style="stop-color:#064093"/>
	<stop  offset="1" style="stop-color:#084698"/>
</linearGradient>
<path style="fill:url(#SVGID_1_);" d="M252.062,0C149.977,4.017,55.414,57.62,55.414,149.536
	c0,43.441,12.288,260.561,196.647,354.588V0z"/>
<linearGradient id="SVGID_2_" gradientUnits="userSpaceOnUse" x1="-27.6583" y1="563.6711" x2="-26.4123" y2="597.1651" gradientTransform="matrix(7.8769 0 0 -7.8769 364.0537 4969.6694)">
	<stop  offset="0" style="stop-color:#29D3DA"/>
	<stop  offset="0.519" style="stop-color:#0077FF"/>
	<stop  offset="0.999" style="stop-color:#064093"/>
	<stop  offset="1" style="stop-color:#084698"/>
</linearGradient>
<path style="fill:url(#SVGID_2_);" d="M55.414,149.536c0,43.441,12.288,260.561,196.647,354.588"/>
<linearGradient id="SVGID_3_" gradientUnits="userSpaceOnUse" x1="-33.7251" y1="639.6859" x2="-22.2841" y2="609.942" gradientTransform="matrix(7.8769 0 0 -7.8769 364.0537 4969.6694)">
	<stop  offset="0" style="stop-color:#29D3DA"/>
	<stop  offset="0.519" style="stop-color:#0077FF"/>
	<stop  offset="0.999" style="stop-color:#064093"/>
	<stop  offset="1" style="stop-color:#084698"/>
</linearGradient>
<path style="fill:url(#SVGID_3_);" d="M252.062,0C149.977,4.017,55.414,57.62,55.414,149.536"/>
<linearGradient id="SVGID_4_" gradientUnits="userSpaceOnUse" x1="-16.1026" y1="553.9542" x2="-0.5036" y2="624.0612" gradientTransform="matrix(7.8769 0 0 -7.8769 364.0537 4969.6694)">
	<stop  offset="0.012" style="stop-color:#E0B386"/>
	<stop  offset="0.519" style="stop-color:#DA498C"/>
	<stop  offset="1" style="stop-color:#961484"/>
</linearGradient>
<path style="fill:url(#SVGID_4_);" d="M252.062,0c102.085,4.017,196.647,57.62,196.647,149.536
	c0,43.441-12.288,260.561-196.647,354.588V0z"/>
<linearGradient id="SVGID_5_" gradientUnits="userSpaceOnUse" x1="-0.7757" y1="563.6701" x2="-2.0237" y2="597.1651" gradientTransform="matrix(7.8769 0 0 -7.8769 364.0537 4969.6694)">
	<stop  offset="0.012" style="stop-color:#E0B386"/>
	<stop  offset="0.519" style="stop-color:#DA498C"/>
	<stop  offset="1" style="stop-color:#961484"/>
</linearGradient>
<path style="fill:url(#SVGID_5_);" d="M448.709,149.536c0,43.441-12.288,260.561-196.647,354.588"/>
<linearGradient id="SVGID_6_" gradientUnits="userSpaceOnUse" x1="5.2903" y1="639.6858" x2="-6.1517" y2="609.9428" gradientTransform="matrix(7.8769 0 0 -7.8769 364.0537 4969.6694)">
	<stop  offset="0.012" style="stop-color:#E0B386"/>
	<stop  offset="0.519" style="stop-color:#DA498C"/>
	<stop  offset="1" style="stop-color:#961484"/>
</linearGradient>
<path style="fill:url(#SVGID_6_);" d="M252.062,0c102.085,4.017,196.647,57.62,196.647,149.536"/>
<g>
</g>
<g>
</g>
<g>
</g>
<g>
</g>
<g>
</g>
<g>
</g>
<g>
</g>
<g>
</g>
<g>
</g>
<g>
</g>
<g>
</g>
<g>
</g>
<g>
</g>
<g>
</g>
<g>
</g>
</svg>
