<?xml version="1.0" encoding="iso-8859-1"?>
<!-- Generator: Adobe Illustrator 19.0.0, SVG Export Plug-In . SVG Version: 6.00 Build 0)  -->
<svg version="1.1" id="Layer_1" xmlns="http://www.w3.org/2000/svg" xmlns:xlink="http://www.w3.org/1999/xlink" x="0px" y="0px"
	 viewBox="0 0 504.122 504.122" style="enable-background:new 0 0 504.122 504.122;" xml:space="preserve">
<linearGradient id="SVGID_1_" gradientUnits="userSpaceOnUse" x1="-55.5913" y1="612.7208" x2="57.5217" y2="601.5848" gradientTransform="matrix(7.8769 0 0 -7.8769 364.0571 4969.665)">
	<stop  offset="0" style="stop-color:#29D3DA"/>
	<stop  offset="0.519" style="stop-color:#0077FF"/>
	<stop  offset="0.999" style="stop-color:#064093"/>
	<stop  offset="1" style="stop-color:#084698"/>
</linearGradient>
<path style="fill:url(#SVGID_1_);" d="M496.23,164.848C469.464,97.988,422.565,40.014,360.936,0.055
	C202.893-2.757,58.06,103.234,18.109,263.12c-6.215,24.836-9.444,49.735-10.201,74.295
	c64.307-157.113,235.89-247.375,405.465-205.028C442.982,139.807,470.693,150.85,496.23,164.848z"/>
<linearGradient id="SVGID_2_" gradientUnits="userSpaceOnUse" x1="18.6217" y1="619.6128" x2="-0.1313" y2="621.1128" gradientTransform="matrix(7.8769 0 0 -7.8769 364.0571 4969.665)">
	<stop  offset="0" style="stop-color:#29D3DA"/>
	<stop  offset="0.519" style="stop-color:#0077FF"/>
	<stop  offset="0.999" style="stop-color:#064093"/>
	<stop  offset="1" style="stop-color:#084698"/>
</linearGradient>
<path style="fill:url(#SVGID_2_);" d="M413.373,132.387c29.617,7.42,57.32,18.471,82.865,32.461
	C469.464,97.988,422.565,40.014,360.936,0.055"/>
<linearGradient id="SVGID_3_" gradientUnits="userSpaceOnUse" x1="45.5114" y1="599.6661" x2="-67.7786" y2="573.0361" gradientTransform="matrix(7.8769 0 0 -7.8769 364.0571 4969.665)">
	<stop  offset="0.012" style="stop-color:#E0B386"/>
	<stop  offset="0.519" style="stop-color:#DA498C"/>
	<stop  offset="1" style="stop-color:#961484"/>
</linearGradient>
<path style="fill:url(#SVGID_3_);" d="M7.892,339.29c26.766,66.859,73.689,124.841,135.294,164.777
	c158.043,2.812,302.876-103.164,342.827-263.058c6.246-24.82,9.476-49.719,10.201-74.311
	C431.923,323.843,260.34,414.097,90.75,371.719C61.156,364.347,33.429,353.295,7.892,339.29z"/>
<linearGradient id="SVGID_4_" gradientUnits="userSpaceOnUse" x1="-53.4781" y1="579.2757" x2="-31.2281" y2="576.7737" gradientTransform="matrix(7.8769 0 0 -7.8769 364.0571 4969.665)">
	<stop  offset="0.012" style="stop-color:#E0B386"/>
	<stop  offset="0.519" style="stop-color:#DA498C"/>
	<stop  offset="1" style="stop-color:#961484"/>
</linearGradient>
<path style="fill:url(#SVGID_4_);" d="M90.75,371.727c-29.601-7.389-57.32-18.44-82.865-32.437
	c26.766,66.859,73.689,124.841,135.294,164.777"/>
<linearGradient id="SVGID_5_" gradientUnits="userSpaceOnUse" x1="-26.6475" y1="613.2953" x2="-4.1765" y2="590.8253" gradientTransform="matrix(7.8769 0 0 -7.8769 364.0571 4969.665)">
	<stop  offset="0.012" style="stop-color:#E0B386"/>
	<stop  offset="0.519" style="stop-color:#DA498C"/>
	<stop  offset="1" style="stop-color:#961484"/>
</linearGradient>
<path style="fill:url(#SVGID_5_);" d="M210.613,281.93c-23.938-23.938-23.93-62.74,0.008-86.678s62.732-23.954,86.686-0.016"/>
<linearGradient id="SVGID_6_" gradientUnits="userSpaceOnUse" x1="-1.7905" y1="584.5333" x2="-24.2645" y2="607.0073" gradientTransform="matrix(7.8769 0 0 -7.8769 364.0571 4969.665)">
	<stop  offset="0" style="stop-color:#29D3DA"/>
	<stop  offset="0.519" style="stop-color:#0077FF"/>
	<stop  offset="0.999" style="stop-color:#064093"/>
	<stop  offset="1" style="stop-color:#084698"/>
</linearGradient>
<path style="fill:url(#SVGID_6_);" d="M293.502,222.192c23.93,23.938,23.93,62.74,0,86.678
	c-23.946,23.922-62.755,23.954-86.701,0.016"/>
<g>
</g>
<g>
</g>
<g>
</g>
<g>
</g>
<g>
</g>
<g>
</g>
<g>
</g>
<g>
</g>
<g>
</g>
<g>
</g>
<g>
</g>
<g>
</g>
<g>
</g>
<g>
</g>
<g>
</g>
</svg>
