<?xml version="1.0" encoding="iso-8859-1"?>
<!-- Generator: Adobe Illustrator 19.0.0, SVG Export Plug-In . SVG Version: 6.00 Build 0)  -->
<svg version="1.1" id="Layer_1" xmlns="http://www.w3.org/2000/svg" xmlns:xlink="http://www.w3.org/1999/xlink" x="0px" y="0px"
	 viewBox="0 0 504.123 504.123" style="enable-background:new 0 0 504.123 504.123;" xml:space="preserve">
<linearGradient id="SVGID_1_" gradientUnits="userSpaceOnUse" x1="38.2662" y1="598.915" x2="-40.0698" y2="598.915" gradientTransform="matrix(7.8769 0 0 -7.8769 364.0537 4969.6694)">
	<stop  offset="0" style="stop-color:#29D3DA"/>
	<stop  offset="0.519" style="stop-color:#0077FF"/>
	<stop  offset="0.999" style="stop-color:#064093"/>
	<stop  offset="1" style="stop-color:#084698"/>
</linearGradient>
<path style="fill:url(#SVGID_1_);" d="M252.062,0C112.853,0,0,112.853,0,252.062s112.853,252.062,252.062,252.062
	S504.123,391.27,504.123,252.062S391.27,0,252.062,0z M393.846,272.313c0,19.881-16.124,36.005-36.005,36.005h-49.514v49.514
	c0,19.881-16.124,36.005-36.013,36.005H231.81c-19.881,0-36.005-16.124-36.005-36.005v-49.514h-49.53
	c-19.873,0-35.998-16.124-35.998-36.005v-40.511c0-19.881,16.124-36.005,35.998-36.005h49.522v-49.514
	c0-19.881,16.124-36.005,36.005-36.005h40.503c19.889,0,36.013,16.124,36.013,36.005v49.514h49.514
	c19.881,0,36.005,16.124,36.005,36.005v40.511H393.846z"/>
<linearGradient id="SVGID_2_" gradientUnits="userSpaceOnUse" x1="-50.2338" y1="598.915" x2="24.0852" y2="598.915" gradientTransform="matrix(7.8769 0 0 -7.8769 364.0537 4969.6694)">
	<stop  offset="0.012" style="stop-color:#E0B386"/>
	<stop  offset="0.519" style="stop-color:#DA498C"/>
	<stop  offset="1" style="stop-color:#961484"/>
</linearGradient>
<path style="fill:url(#SVGID_2_);" d="M251.896,393.846H231.81c-19.881,0-36.005-16.124-36.005-36.005v-49.514h-49.53
	c-19.873,0-35.998-16.124-35.998-36.005V231.81c0-19.881,16.124-36.005,35.998-36.005h49.522V146.29
	c0-19.881,16.124-36.005,36.005-36.005h20.086V0.008C112.758,0.102,0,112.916,0,252.062s112.758,251.959,251.896,252.054V393.846z"
	/>
<g>
</g>
<g>
</g>
<g>
</g>
<g>
</g>
<g>
</g>
<g>
</g>
<g>
</g>
<g>
</g>
<g>
</g>
<g>
</g>
<g>
</g>
<g>
</g>
<g>
</g>
<g>
</g>
<g>
</g>
</svg>
