<?xml version="1.0" encoding="iso-8859-1"?>
<!-- Generator: Adobe Illustrator 19.0.0, SVG Export Plug-In . SVG Version: 6.00 Build 0)  -->
<svg version="1.1" id="Layer_1" xmlns="http://www.w3.org/2000/svg" xmlns:xlink="http://www.w3.org/1999/xlink" x="0px" y="0px"
	 viewBox="0 0 504.123 504.123" style="enable-background:new 0 0 504.123 504.123;" xml:space="preserve">
<linearGradient id="SVGID_1_" gradientUnits="userSpaceOnUse" x1="29.7722" y1="598.915" x2="-11.6478" y2="598.915" gradientTransform="matrix(7.8769 0 0 -7.8769 364.0537 4969.6694)">
	<stop  offset="0" style="stop-color:#29D3DA"/>
	<stop  offset="0.519" style="stop-color:#0077FF"/>
	<stop  offset="0.999" style="stop-color:#064093"/>
	<stop  offset="1" style="stop-color:#084698"/>
</linearGradient>
<polygon style="fill:url(#SVGID_1_);" points="252.069,367.002 320.63,435.554 504.123,252.062 320.63,68.569 252.069,137.121 
	367.002,252.062 "/>
<linearGradient id="SVGID_2_" gradientUnits="userSpaceOnUse" x1="-5.9435" y1="572.0046" x2="8.6535" y2="609.0616" gradientTransform="matrix(7.8769 0 0 -7.8769 364.0537 4969.6694)">
	<stop  offset="0" style="stop-color:#29D3DA"/>
	<stop  offset="0.519" style="stop-color:#0077FF"/>
	<stop  offset="0.999" style="stop-color:#064093"/>
	<stop  offset="1" style="stop-color:#084698"/>
</linearGradient>
<polyline style="fill:url(#SVGID_2_);" points="367.002,252.062 252.069,367.002 320.63,435.554 504.123,252.062 "/>
<linearGradient id="SVGID_3_" gradientUnits="userSpaceOnUse" x1="-46.6008" y1="598.915" x2="-13.9998" y2="598.915" gradientTransform="matrix(7.8769 0 0 -7.8769 364.0537 4969.6694)">
	<stop  offset="0.012" style="stop-color:#E0B386"/>
	<stop  offset="0.65" style="stop-color:#DA498C"/>
	<stop  offset="1" style="stop-color:#961484"/>
</linearGradient>
<polygon style="fill:url(#SVGID_3_);" points="137.129,252.062 252.069,137.121 183.509,68.569 0,252.062 183.509,435.554 
	252.069,367.002 "/>
<linearGradient id="SVGID_4_" gradientUnits="userSpaceOnUse" x1="-20.9979" y1="567.0046" x2="-35.4579" y2="605.6107" gradientTransform="matrix(7.8769 0 0 -7.8769 364.0537 4969.6694)">
	<stop  offset="0.012" style="stop-color:#E0B386"/>
	<stop  offset="0.65" style="stop-color:#DA498C"/>
	<stop  offset="1" style="stop-color:#961484"/>
</linearGradient>
<polyline style="fill:url(#SVGID_4_);" points="0,252.062 183.509,435.554 252.069,367.002 137.129,252.062 "/>
<linearGradient id="SVGID_5_" gradientUnits="userSpaceOnUse" x1="33.172" y1="561.2034" x2="-43.318" y2="602.6234" gradientTransform="matrix(7.8769 0 0 -7.8769 364.0537 4969.6694)">
	<stop  offset="0" style="stop-color:#29D3DA"/>
	<stop  offset="0.519" style="stop-color:#0077FF"/>
	<stop  offset="0.999" style="stop-color:#064093"/>
	<stop  offset="1" style="stop-color:#084698"/>
</linearGradient>
<polygon style="fill:url(#SVGID_5_);" points="137.121,252.069 68.569,320.63 252.062,504.123 435.554,320.63 367.002,252.069 
	252.062,367.002 "/>
<linearGradient id="SVGID_6_" gradientUnits="userSpaceOnUse" x1="-41.1342" y1="590.6439" x2="-4.0732" y2="576.0439" gradientTransform="matrix(7.8769 0 0 -7.8769 364.0537 4969.6694)">
	<stop  offset="0" style="stop-color:#29D3DA"/>
	<stop  offset="0.519" style="stop-color:#0077FF"/>
	<stop  offset="0.999" style="stop-color:#064093"/>
	<stop  offset="1" style="stop-color:#084698"/>
</linearGradient>
<polyline style="fill:url(#SVGID_6_);" points="252.062,367.002 137.121,252.069 68.569,320.63 252.062,504.123 "/>
<linearGradient id="SVGID_7_" gradientUnits="userSpaceOnUse" x1="-14.1332" y1="631.1826" x2="-14.2502" y2="598.5795" gradientTransform="matrix(7.8769 0 0 -7.8769 364.0537 4969.6694)">
	<stop  offset="0.012" style="stop-color:#E0B386"/>
	<stop  offset="0.65" style="stop-color:#DA498C"/>
	<stop  offset="1" style="stop-color:#961484"/>
</linearGradient>
<polygon style="fill:url(#SVGID_7_);" points="252.062,137.129 367.002,252.069 435.554,183.509 252.062,0 68.569,183.509 
	137.121,252.069 "/>
<linearGradient id="SVGID_8_" gradientUnits="userSpaceOnUse" x1="-46.1302" y1="605.6952" x2="-7.5182" y2="620.1562" gradientTransform="matrix(7.8769 0 0 -7.8769 364.0537 4969.6694)">
	<stop  offset="0.012" style="stop-color:#E0B386"/>
	<stop  offset="0.65" style="stop-color:#DA498C"/>
	<stop  offset="1" style="stop-color:#961484"/>
</linearGradient>
<polyline style="fill:url(#SVGID_8_);" points="252.062,0 68.569,183.509 137.121,252.069 252.062,137.129 "/>
<g>
</g>
<g>
</g>
<g>
</g>
<g>
</g>
<g>
</g>
<g>
</g>
<g>
</g>
<g>
</g>
<g>
</g>
<g>
</g>
<g>
</g>
<g>
</g>
<g>
</g>
<g>
</g>
<g>
</g>
</svg>
