<?xml version="1.0" encoding="iso-8859-1"?>
<!-- Generator: Adobe Illustrator 19.0.0, SVG Export Plug-In . SVG Version: 6.00 Build 0)  -->
<svg version="1.1" id="Layer_1" xmlns="http://www.w3.org/2000/svg" xmlns:xlink="http://www.w3.org/1999/xlink" x="0px" y="0px"
	 viewBox="0 0 504.139 504.139" style="enable-background:new 0 0 504.139 504.139;" xml:space="preserve">
<linearGradient id="SVGID_1_" gradientUnits="userSpaceOnUse" x1="-23.3151" y1="621.332" x2="-2.4401" y2="615.921" gradientTransform="matrix(7.8769 0 0 -7.8769 363.9996 4969.7393)">
	<stop  offset="0" style="stop-color:#29D3DA"/>
	<stop  offset="0.519" style="stop-color:#0077FF"/>
	<stop  offset="0.999" style="stop-color:#064093"/>
	<stop  offset="1" style="stop-color:#084698"/>
</linearGradient>
<path style="fill:url(#SVGID_1_);" d="M249.163,169.527c0,0-60.613-7.2-56.509-56.501C196.766,63.701,260.458,39.046,240.955,0
	c0,0,30.815,24.663,1.016,79.116c-29.791,54.445,22.087,58.557,21.575,35.958c0,0,7.184,28.759-18.999,32.863
	c0,0,16.045,7.066,16.565,19.905c0.504,12.847-10.398,17.219-10.398,17.219s7.389-5.049,6.16-10.657
	C255.968,170.291,249.163,169.527,249.163,169.527z"/>
<linearGradient id="SVGID_2_" gradientUnits="userSpaceOnUse" x1="-16.0947" y1="616.7897" x2="-11.8957" y2="615.7017" gradientTransform="matrix(7.8769 0 0 -7.8769 363.9996 4969.7393)">
	<stop  offset="0.012" style="stop-color:#E0B386"/>
	<stop  offset="0.519" style="stop-color:#DA498C"/>
	<stop  offset="1" style="stop-color:#961484"/>
</linearGradient>
<path style="fill:url(#SVGID_2_);" d="M256.866,109.426c-1.339,2.733-4.104,4.624-7.365,4.624c-3.237,0-6.026-1.89-7.357-4.624
	c-0.536,1.095-0.866,2.292-0.866,3.6c0,4.529,3.694,8.216,8.224,8.216c4.545,0,8.223-3.686,8.223-8.216
	C257.733,111.718,257.402,110.513,256.866,109.426z"/>
<linearGradient id="SVGID_3_" gradientUnits="userSpaceOnUse" x1="-15.3083" y1="618.9093" x2="-12.3083" y2="617.0433" gradientTransform="matrix(7.8769 0 0 -7.8769 363.9996 4969.7393)">
	<stop  offset="0.012" style="stop-color:#E0B386"/>
	<stop  offset="0.519" style="stop-color:#DA498C"/>
	<stop  offset="1" style="stop-color:#961484"/>
</linearGradient>
<path style="fill:url(#SVGID_3_);" d="M259.159,97.926c-1.709,1.804-4.324,2.584-6.845,1.804c-2.528-0.788-4.23-2.938-4.6-5.388
	c-0.693,0.717-1.221,1.583-1.552,2.592c-1.111,3.521,0.859,7.286,4.395,8.397c3.537,1.103,7.302-0.866,8.397-4.411
	C259.277,99.927,259.316,98.903,259.159,97.926z"/>
<linearGradient id="SVGID_4_" gradientUnits="userSpaceOnUse" x1="-14.2106" y1="620.6025" x2="-12.6906" y2="618.4675" gradientTransform="matrix(7.8769 0 0 -7.8769 363.9996 4969.7393)">
	<stop  offset="0.012" style="stop-color:#E0B386"/>
	<stop  offset="0.519" style="stop-color:#DA498C"/>
	<stop  offset="1" style="stop-color:#961484"/>
</linearGradient>
<path style="fill:url(#SVGID_4_);" d="M261.908,88.064c-1.686,0.74-3.71,0.528-5.207-0.725c-1.505-1.26-2.056-3.222-1.615-5.002
	c-0.677,0.291-1.292,0.725-1.796,1.323c-1.764,2.103-1.497,5.238,0.607,7.003c2.095,1.764,5.238,1.489,7.003-0.607
	C261.411,89.458,261.727,88.781,261.908,88.064z"/>
<linearGradient id="SVGID_5_" gradientUnits="userSpaceOnUse" x1="-15.2542" y1="608.6088" x2="-13.5002" y2="608.1558" gradientTransform="matrix(7.8769 0 0 -7.8769 363.9996 4969.7393)">
	<stop  offset="0" style="stop-color:#29D3DA"/>
	<stop  offset="0.519" style="stop-color:#0077FF"/>
	<stop  offset="0.999" style="stop-color:#064093"/>
	<stop  offset="1" style="stop-color:#084698"/>
</linearGradient>
<circle style="fill:url(#SVGID_5_);" cx="248.84" cy="177.065" r="3.426"/>
<linearGradient id="SVGID_6_" gradientUnits="userSpaceOnUse" x1="-16.1687" y1="618.9836" x2="0.6103" y2="614.6366" gradientTransform="matrix(7.8769 0 0 -7.8769 363.9996 4969.7393)">
	<stop  offset="0.012" style="stop-color:#E0B386"/>
	<stop  offset="0.519" style="stop-color:#DA498C"/>
	<stop  offset="1" style="stop-color:#961484"/>
</linearGradient>
<path style="fill:url(#SVGID_6_);" d="M263.546,149.323c0,0,19.527-3.096,14.037-40.416c-5.467-37.321-18.148-44.859-11.303-63.015
	c0,0-5.474,7.877,24.316,37.675c29.798,29.783,31.681,74.996-18.322,74.657c0,0-12.036-0.071-13.186-5.474
	C258.426,149.496,263.546,149.323,263.546,149.323z"/>
<linearGradient id="SVGID_7_" gradientUnits="userSpaceOnUse" x1="-5.1045" y1="576.5163" x2="-25.9875" y2="581.9243" gradientTransform="matrix(7.8769 0 0 -7.8769 363.9996 4969.7393)">
	<stop  offset="0" style="stop-color:#29D3DA"/>
	<stop  offset="0.519" style="stop-color:#0077FF"/>
	<stop  offset="0.999" style="stop-color:#064093"/>
	<stop  offset="1" style="stop-color:#084698"/>
</linearGradient>
<path style="fill:url(#SVGID_7_);" d="M254.976,334.612c0,0,60.613,7.2,56.509,56.501c-4.104,49.325-67.805,73.98-48.286,113.026
	c0,0-30.815-24.663-1.032-79.116c29.791-54.445-22.087-58.557-21.575-35.958c0,0-7.192-28.759,19.015-32.863
	c0,0-16.061-7.066-16.581-19.905c-0.504-12.847,10.405-17.219,10.405-17.219s-7.381,5.049-6.152,10.657
	C248.162,333.848,254.976,334.612,254.976,334.612z"/>
<linearGradient id="SVGID_8_" gradientUnits="userSpaceOnUse" x1="-12.3263" y1="581.0551" x2="-16.5193" y2="582.1451" gradientTransform="matrix(7.8769 0 0 -7.8769 363.9996 4969.7393)">
	<stop  offset="0.012" style="stop-color:#E0B386"/>
	<stop  offset="0.519" style="stop-color:#DA498C"/>
	<stop  offset="1" style="stop-color:#961484"/>
</linearGradient>
<path style="fill:url(#SVGID_8_);" d="M247.28,394.713c1.331-2.733,4.112-4.624,7.357-4.624c3.253,0,6.026,1.89,7.357,4.624
	c0.536-1.095,0.866-2.292,0.866-3.6c0-4.529-3.678-8.216-8.223-8.216c-4.529,0-8.208,3.686-8.208,8.216
	C246.422,392.42,246.737,393.626,247.28,394.713z"/>
<linearGradient id="SVGID_9_" gradientUnits="userSpaceOnUse" x1="-13.1118" y1="578.9347" x2="-16.1108" y2="580.8047" gradientTransform="matrix(7.8769 0 0 -7.8769 363.9996 4969.7393)">
	<stop  offset="0.012" style="stop-color:#E0B386"/>
	<stop  offset="0.519" style="stop-color:#DA498C"/>
	<stop  offset="1" style="stop-color:#961484"/>
</linearGradient>
<path style="fill:url(#SVGID_9_);" d="M244.98,406.213c1.709-1.804,4.324-2.584,6.861-1.804c2.513,0.788,4.214,2.938,4.6,5.388
	c0.67-0.717,1.221-1.583,1.536-2.591c1.111-3.521-0.866-7.286-4.387-8.397c-3.537-1.103-7.31,0.866-8.405,4.411
	C244.862,404.212,244.823,405.236,244.98,406.213z"/>
<linearGradient id="SVGID_10_" gradientUnits="userSpaceOnUse" x1="-14.2114" y1="577.2433" x2="-15.7294" y2="579.3832" gradientTransform="matrix(7.8769 0 0 -7.8769 363.9996 4969.7393)">
	<stop  offset="0.012" style="stop-color:#E0B386"/>
	<stop  offset="0.519" style="stop-color:#DA498C"/>
	<stop  offset="1" style="stop-color:#961484"/>
</linearGradient>
<path style="fill:url(#SVGID_10_);" d="M242.223,416.075c1.709-0.74,3.71-0.528,5.215,0.725c1.497,1.26,2.072,3.222,1.615,5.002
	c0.677-0.291,1.292-0.725,1.804-1.323c1.772-2.103,1.489-5.238-0.599-7.003c-2.111-1.764-5.254-1.489-7.018,0.607
	C242.743,414.681,242.412,415.358,242.223,416.075z"/>
<linearGradient id="SVGID_11_" gradientUnits="userSpaceOnUse" x1="-13.1655" y1="589.2383" x2="-14.9185" y2="589.6953" gradientTransform="matrix(7.8769 0 0 -7.8769 363.9996 4969.7393)">
	<stop  offset="0" style="stop-color:#29D3DA"/>
	<stop  offset="0.519" style="stop-color:#0077FF"/>
	<stop  offset="0.999" style="stop-color:#064093"/>
	<stop  offset="1" style="stop-color:#084698"/>
</linearGradient>
<circle style="fill:url(#SVGID_11_);" cx="255.323" cy="327.058" r="3.434"/>
<linearGradient id="SVGID_12_" gradientUnits="userSpaceOnUse" x1="-12.2512" y1="578.8618" x2="-29.0292" y2="583.2117" gradientTransform="matrix(7.8769 0 0 -7.8769 363.9996 4969.7393)">
	<stop  offset="0.012" style="stop-color:#E0B386"/>
	<stop  offset="0.519" style="stop-color:#DA498C"/>
	<stop  offset="1" style="stop-color:#961484"/>
</linearGradient>
<path style="fill:url(#SVGID_12_);" d="M240.593,354.816c0,0-19.527,3.096-14.037,40.417s18.148,44.859,11.303,63.015
	c0,0,5.482-7.877-24.308-37.675c-29.791-29.783-31.673-74.996,18.314-74.657c0,0,12.052,0.071,13.194,5.474
	C245.728,354.643,240.593,354.816,240.593,354.816z"/>
<linearGradient id="SVGID_13_" gradientUnits="userSpaceOnUse" x1="-4.8052" y1="621.2073" x2="6.1348" y2="602.6173" gradientTransform="matrix(7.8769 0 0 -7.8769 363.9996 4969.7393)">
	<stop  offset="0" style="stop-color:#29D3DA"/>
	<stop  offset="0.519" style="stop-color:#0077FF"/>
	<stop  offset="0.999" style="stop-color:#064093"/>
	<stop  offset="1" style="stop-color:#084698"/>
</linearGradient>
<path style="fill:url(#SVGID_13_);" d="M308.382,191.646c0,0-37.778-47.947-0.016-79.911c37.793-31.98,100.265-4.372,114.066-45.773
	c0,0,4.356,39.219-55.217,56.667c-59.565,17.424-25.781,57.013-10.169,40.676c0,0-15.25,25.427-36.691,9.799
	c0,0,6.365,16.345-2.347,25.789c-8.72,9.444-19.527,4.813-19.527,4.813s8.799,1.654,11.894-3.174
	C312.643,197.002,308.382,191.646,308.382,191.646z"/>
<linearGradient id="SVGID_14_" gradientUnits="userSpaceOnUse" x1="-2.909" y1="612.8909" x2="-0.71" y2="609.1528" gradientTransform="matrix(7.8769 0 0 -7.8769 363.9996 4969.7393)">
	<stop  offset="0.012" style="stop-color:#E0B386"/>
	<stop  offset="0.519" style="stop-color:#DA498C"/>
	<stop  offset="1" style="stop-color:#961484"/>
</linearGradient>
<path style="fill:url(#SVGID_14_);" d="M356.328,154.6c-2.891,0.977-6.176,0.354-8.476-1.938c-2.3-2.292-2.922-5.6-1.93-8.468
	c-1.158,0.394-2.245,1.008-3.167,1.93c-3.19,3.198-3.19,8.413,0.016,11.626c3.206,3.214,8.405,3.206,11.618,0.008
	C355.304,156.83,355.935,155.743,356.328,154.6z"/>
<linearGradient id="SVGID_15_" gradientUnits="userSpaceOnUse" x1="-0.8535" y1="613.8323" x2="-0.0525" y2="610.3932" gradientTransform="matrix(7.8769 0 0 -7.8769 363.9996 4969.7393)">
	<stop  offset="0.012" style="stop-color:#E0B386"/>
	<stop  offset="0.519" style="stop-color:#DA498C"/>
	<stop  offset="1" style="stop-color:#961484"/>
</linearGradient>
<path style="fill:url(#SVGID_15_);" d="M366.08,148.086c-2.473,0.063-4.884-1.221-6.112-3.56c-1.221-2.347-0.906-5.073,0.551-7.058
	c-0.992,0.016-1.985,0.244-2.922,0.725c-3.277,1.725-4.537,5.774-2.836,9.051c1.717,3.269,5.774,4.545,9.066,2.82
	C364.749,149.583,365.497,148.882,366.08,148.086z"/>
<linearGradient id="SVGID_16_" gradientUnits="userSpaceOnUse" x1="1.1204" y1="614.2526" x2="0.6824" y2="611.6705" gradientTransform="matrix(7.8769 0 0 -7.8769 363.9996 4969.7393)">
	<stop  offset="0.012" style="stop-color:#E0B386"/>
	<stop  offset="0.519" style="stop-color:#DA498C"/>
	<stop  offset="1" style="stop-color:#961484"/>
</linearGradient>
<path style="fill:url(#SVGID_16_);" d="M374.989,143.053c-1.709-0.67-2.985-2.237-3.167-4.198c-0.165-1.946,0.827-3.726,2.402-4.671
	c-0.693-0.268-1.434-0.402-2.206-0.339c-2.741,0.244-4.758,2.647-4.529,5.388c0.244,2.733,2.662,4.758,5.388,4.521
	C373.65,143.683,374.359,143.431,374.989,143.053z"/>
<linearGradient id="SVGID_17_" gradientUnits="userSpaceOnUse" x1="-8.0993" y1="606.5113" x2="-7.1823" y2="604.9523" gradientTransform="matrix(7.8769 0 0 -7.8769 363.9996 4969.7393)">
	<stop  offset="0" style="stop-color:#29D3DA"/>
	<stop  offset="0.519" style="stop-color:#0077FF"/>
	<stop  offset="0.999" style="stop-color:#064093"/>
	<stop  offset="1" style="stop-color:#084698"/>
</linearGradient>
<circle style="fill:url(#SVGID_17_);" cx="302.813" cy="196.734" r="3.419"/>
<linearGradient id="SVGID_18_" gradientUnits="userSpaceOnUse" x1="-1.4097" y1="614.493" x2="7.3803" y2="599.5561" gradientTransform="matrix(7.8769 0 0 -7.8769 363.9996 4969.7393)">
	<stop  offset="0.012" style="stop-color:#E0B386"/>
	<stop  offset="0.519" style="stop-color:#DA498C"/>
	<stop  offset="1" style="stop-color:#961484"/>
</linearGradient>
<path style="fill:url(#SVGID_18_);" d="M332.839,187.534c0,0,15.974,11.618,38.51-18.645c22.52-30.271,18.881-44.552,36.565-52.547
	c0,0-9.437,1.694-9.437,43.827c0,42.126-30.641,75.429-65.757,39.834c0,0-8.46-8.57-5.443-13.194
	C329.09,184.021,332.839,187.534,332.839,187.534z"/>
<linearGradient id="SVGID_19_" gradientUnits="userSpaceOnUse" x1="-23.6187" y1="576.6406" x2="-34.5537" y2="595.2336" gradientTransform="matrix(7.8769 0 0 -7.8769 363.9996 4969.7393)">
	<stop  offset="0" style="stop-color:#29D3DA"/>
	<stop  offset="0.519" style="stop-color:#0077FF"/>
	<stop  offset="0.999" style="stop-color:#064093"/>
	<stop  offset="1" style="stop-color:#084698"/>
</linearGradient>
<path style="fill:url(#SVGID_19_);" d="M195.757,312.501c0,0,37.77,47.947,0.008,79.911C157.98,424.385,95.5,396.776,81.707,438.185
	c0,0-4.356-39.219,55.217-56.674c59.565-17.424,25.781-57.013,10.169-40.669c0,0,15.265-25.427,36.683-9.799
	c0,0-6.357-16.345,2.355-25.797c8.728-9.444,19.527-4.813,19.527-4.813s-8.783-1.654-11.886,3.182
	C191.496,307.137,195.757,312.501,195.757,312.501z"/>
<linearGradient id="SVGID_20_" gradientUnits="userSpaceOnUse" x1="-25.5083" y1="584.9539" x2="-27.7083" y2="588.6889" gradientTransform="matrix(7.8769 0 0 -7.8769 363.9996 4969.7393)">
	<stop  offset="0.012" style="stop-color:#E0B386"/>
	<stop  offset="0.519" style="stop-color:#DA498C"/>
	<stop  offset="1" style="stop-color:#961484"/>
</linearGradient>
<path style="fill:url(#SVGID_20_);" d="M147.81,349.538c2.883-0.977,6.191-0.347,8.476,1.938c2.3,2.3,2.922,5.6,1.93,8.476
	c1.15-0.402,2.237-1.016,3.159-1.93c3.198-3.206,3.214-8.413,0-11.634c-3.206-3.198-8.413-3.198-11.626,0.008
	C148.834,347.317,148.196,348.396,147.81,349.538z"/>
<linearGradient id="SVGID_21_" gradientUnits="userSpaceOnUse" x1="-27.5631" y1="584.0122" x2="-28.3701" y2="587.4562" gradientTransform="matrix(7.8769 0 0 -7.8769 363.9996 4969.7393)">
	<stop  offset="0.012" style="stop-color:#E0B386"/>
	<stop  offset="0.519" style="stop-color:#DA498C"/>
	<stop  offset="1" style="stop-color:#961484"/>
</linearGradient>
<path style="fill:url(#SVGID_21_);" d="M138.067,356.053c2.465-0.063,4.876,1.229,6.105,3.568c1.237,2.347,0.906,5.073-0.551,7.066
	c1-0.032,1.985-0.252,2.922-0.748c3.277-1.717,4.545-5.758,2.836-9.043c-1.725-3.269-5.774-4.545-9.066-2.82
	C139.39,354.564,138.642,355.257,138.067,356.053z"/>
<linearGradient id="SVGID_22_" gradientUnits="userSpaceOnUse" x1="-29.5394" y1="583.5928" x2="-29.1033" y2="586.1729" gradientTransform="matrix(7.8769 0 0 -7.8769 363.9996 4969.7393)">
	<stop  offset="0.012" style="stop-color:#E0B386"/>
	<stop  offset="0.519" style="stop-color:#DA498C"/>
	<stop  offset="1" style="stop-color:#961484"/>
</linearGradient>
<path style="fill:url(#SVGID_22_);" d="M129.15,361.086c1.725,0.677,2.985,2.245,3.167,4.191c0.165,1.961-0.819,3.749-2.402,4.679
	c0.693,0.276,1.434,0.402,2.213,0.339c2.725-0.236,4.758-2.647,4.521-5.38c-0.244-2.733-2.662-4.758-5.388-4.521
	C130.489,360.456,129.78,360.708,129.15,361.086z"/>
<linearGradient id="SVGID_23_" gradientUnits="userSpaceOnUse" x1="-20.318" y1="591.3334" x2="-21.238" y2="592.8954" gradientTransform="matrix(7.8769 0 0 -7.8769 363.9996 4969.7393)">
	<stop  offset="0" style="stop-color:#29D3DA"/>
	<stop  offset="0.519" style="stop-color:#0077FF"/>
	<stop  offset="0.999" style="stop-color:#064093"/>
	<stop  offset="1" style="stop-color:#084698"/>
</linearGradient>
<circle style="fill:url(#SVGID_23_);" cx="201.342" cy="307.413" r="3.426"/>
<linearGradient id="SVGID_24_" gradientUnits="userSpaceOnUse" x1="-27.0108" y1="583.3524" x2="-35.8008" y2="598.2924" gradientTransform="matrix(7.8769 0 0 -7.8769 363.9996 4969.7393)">
	<stop  offset="0.012" style="stop-color:#E0B386"/>
	<stop  offset="0.519" style="stop-color:#DA498C"/>
	<stop  offset="1" style="stop-color:#961484"/>
</linearGradient>
<path style="fill:url(#SVGID_24_);" d="M171.299,316.605c0,0-15.982-11.618-38.51,18.645
	c-22.504,30.279-18.881,44.552-36.573,52.555c0,0,9.444-1.694,9.444-43.827c0.016-42.134,30.633-75.429,65.757-39.841
	c0,0,8.476,8.578,5.443,13.194C175.065,320.126,171.299,316.605,171.299,316.605z"/>
<linearGradient id="SVGID_25_" gradientUnits="userSpaceOnUse" x1="8.1963" y1="608.0279" x2="2.7903" y2="587.1529" gradientTransform="matrix(7.8769 0 0 -7.8769 363.9996 4969.7393)">
	<stop  offset="0" style="stop-color:#29D3DA"/>
	<stop  offset="0.519" style="stop-color:#0077FF"/>
	<stop  offset="0.999" style="stop-color:#064093"/>
	<stop  offset="1" style="stop-color:#084698"/>
</linearGradient>
<path style="fill:url(#SVGID_25_);" d="M334.612,249.163c0,0,7.192-60.605,56.501-56.509c49.333,4.112,73.98,67.805,113.018,48.293
	c0,0-24.663,30.814-79.116,1.024c-54.445-29.798-58.549,22.095-35.95,21.575c0,0-28.767,7.192-32.87-19.007
	c0,0-7.073,16.053-19.905,16.573c-12.839,0.504-17.211-10.405-17.211-10.405s5.041,7.389,10.657,6.16
	C333.848,255.961,334.612,249.163,334.612,249.163z"/>
<linearGradient id="SVGID_26_" gradientUnits="userSpaceOnUse" x1="3.658" y1="600.8065" x2="2.568" y2="596.6135" gradientTransform="matrix(7.8769 0 0 -7.8769 363.9996 4969.7393)">
	<stop  offset="0.012" style="stop-color:#E0B386"/>
	<stop  offset="0.519" style="stop-color:#DA498C"/>
	<stop  offset="1" style="stop-color:#961484"/>
</linearGradient>
<path style="fill:url(#SVGID_26_);" d="M394.713,256.859c-2.741-1.339-4.624-4.104-4.624-7.357s1.883-6.034,4.624-7.357
	c-1.103-0.536-2.292-0.866-3.6-0.866c-4.537,0-8.216,3.694-8.216,8.224c0,4.537,3.678,8.216,8.216,8.216
	C392.42,257.725,393.618,257.402,394.713,256.859z"/>
<linearGradient id="SVGID_27_" gradientUnits="userSpaceOnUse" x1="5.778" y1="600.0213" x2="3.908" y2="597.0213" gradientTransform="matrix(7.8769 0 0 -7.8769 363.9996 4969.7393)">
	<stop  offset="0.012" style="stop-color:#E0B386"/>
	<stop  offset="0.519" style="stop-color:#DA498C"/>
	<stop  offset="1" style="stop-color:#961484"/>
</linearGradient>
<path style="fill:url(#SVGID_27_);" d="M406.205,259.159c-1.788-1.709-2.584-4.324-1.804-6.853c0.788-2.513,2.946-4.214,5.388-4.6
	c-0.725-0.685-1.568-1.221-2.591-1.544c-3.521-1.111-7.286,0.866-8.381,4.395c-1.111,3.529,0.851,7.294,4.395,8.397
	C404.212,259.277,405.244,259.316,406.205,259.159z"/>
<linearGradient id="SVGID_28_" gradientUnits="userSpaceOnUse" x1="7.4691" y1="598.9213" x2="5.3291" y2="597.4043" gradientTransform="matrix(7.8769 0 0 -7.8769 363.9996 4969.7393)">
	<stop  offset="0.012" style="stop-color:#E0B386"/>
	<stop  offset="0.519" style="stop-color:#DA498C"/>
	<stop  offset="1" style="stop-color:#961484"/>
</linearGradient>
<path style="fill:url(#SVGID_28_);" d="M416.067,261.908c-0.74-1.694-0.528-3.71,0.74-5.207c1.245-1.497,3.198-2.064,4.986-1.615
	c-0.291-0.67-0.717-1.292-1.323-1.796c-2.095-1.772-5.238-1.497-7.003,0.599c-1.764,2.095-1.481,5.246,0.614,7.01
	C414.673,261.396,415.35,261.727,416.067,261.908z"/>
<linearGradient id="SVGID_29_" gradientUnits="userSpaceOnUse" x1="-4.5232" y1="599.9678" x2="-4.9812" y2="598.2238" gradientTransform="matrix(7.8769 0 0 -7.8769 363.9996 4969.7393)">
	<stop  offset="0" style="stop-color:#29D3DA"/>
	<stop  offset="0.519" style="stop-color:#0077FF"/>
	<stop  offset="0.999" style="stop-color:#064093"/>
	<stop  offset="1" style="stop-color:#084698"/>
</linearGradient>
<circle style="fill:url(#SVGID_29_);" cx="327.058" cy="248.84" r="3.426"/>
<linearGradient id="SVGID_30_" gradientUnits="userSpaceOnUse" x1="5.8507" y1="600.8818" x2="1.5007" y2="584.1028" gradientTransform="matrix(7.8769 0 0 -7.8769 363.9996 4969.7393)">
	<stop  offset="0.012" style="stop-color:#E0B386"/>
	<stop  offset="0.519" style="stop-color:#DA498C"/>
	<stop  offset="1" style="stop-color:#961484"/>
</linearGradient>
<path style="fill:url(#SVGID_30_);" d="M354.824,263.546c0,0,3.08,19.519,40.409,14.037c37.313-5.474,44.851-18.148,63.008-11.303
	c0,0-7.877-5.482-37.675,24.316c-29.783,29.791-74.996,31.673-74.65-18.322c0,0,0.063-12.044,5.474-13.178
	C354.643,258.418,354.824,263.546,354.824,263.546z"/>
<linearGradient id="SVGID_31_" gradientUnits="userSpaceOnUse" x1="-36.6181" y1="589.8155" x2="-31.2061" y2="610.6985" gradientTransform="matrix(7.8769 0 0 -7.8769 363.9996 4969.7393)">
	<stop  offset="0" style="stop-color:#29D3DA"/>
	<stop  offset="0.519" style="stop-color:#0077FF"/>
	<stop  offset="0.999" style="stop-color:#064093"/>
	<stop  offset="1" style="stop-color:#084698"/>
</linearGradient>
<path style="fill:url(#SVGID_31_);" d="M169.519,254.976c0,0-7.2,60.613-56.501,56.509c-49.325-4.112-73.98-67.797-113.01-48.286
	c0,0,24.647-30.807,79.116-1.032c54.445,29.791,58.549-22.087,35.942-21.575c0,0,28.759-7.184,32.87,19.015
	c0,0,7.058-16.053,19.897-16.573c12.847-0.512,17.227,10.398,17.227,10.398s-5.041-7.389-10.665-6.144
	C170.283,248.178,169.519,254.976,169.519,254.976z"/>
<linearGradient id="SVGID_32_" gradientUnits="userSpaceOnUse" x1="-32.0759" y1="597.0356" x2="-30.9899" y2="601.2327" gradientTransform="matrix(7.8769 0 0 -7.8769 363.9996 4969.7393)">
	<stop  offset="0.012" style="stop-color:#E0B386"/>
	<stop  offset="0.519" style="stop-color:#DA498C"/>
	<stop  offset="1" style="stop-color:#961484"/>
</linearGradient>
<path style="fill:url(#SVGID_32_);" d="M109.434,247.28c2.718,1.339,4.616,4.112,4.616,7.357c0,3.261-1.898,6.026-4.632,7.357
	c1.095,0.536,2.3,0.866,3.6,0.866c4.529,0.008,8.224-3.671,8.224-8.224c0-4.521-3.679-8.208-8.224-8.208
	C111.718,246.422,110.505,246.737,109.434,247.28z"/>
<linearGradient id="SVGID_33_" gradientUnits="userSpaceOnUse" x1="-34.1988" y1="597.8233" x2="-32.3308" y2="600.8253" gradientTransform="matrix(7.8769 0 0 -7.8769 363.9996 4969.7393)">
	<stop  offset="0.012" style="stop-color:#E0B386"/>
	<stop  offset="0.519" style="stop-color:#DA498C"/>
	<stop  offset="1" style="stop-color:#961484"/>
</linearGradient>
<path style="fill:url(#SVGID_33_);" d="M97.918,244.98c1.804,1.709,2.592,4.332,1.804,6.853c-0.788,2.528-2.938,4.214-5.388,4.616
	c0.717,0.662,1.583,1.213,2.584,1.528c3.521,1.103,7.294-0.866,8.397-4.395c1.119-3.521-0.851-7.302-4.403-8.405
	C99.919,244.862,98.887,244.823,97.918,244.98z"/>
<linearGradient id="SVGID_34_" gradientUnits="userSpaceOnUse" x1="-35.8908" y1="598.9219" x2="-33.7538" y2="600.4419" gradientTransform="matrix(7.8769 0 0 -7.8769 363.9996 4969.7393)">
	<stop  offset="0.012" style="stop-color:#E0B386"/>
	<stop  offset="0.519" style="stop-color:#DA498C"/>
	<stop  offset="1" style="stop-color:#961484"/>
</linearGradient>
<path style="fill:url(#SVGID_34_);" d="M88.056,242.231c0.74,1.701,0.528,3.71-0.725,5.207c-1.26,1.497-3.222,2.072-5.002,1.615
	c0.291,0.67,0.733,1.3,1.323,1.804c2.111,1.772,5.238,1.489,7.003-0.599c1.764-2.111,1.497-5.254-0.607-7.018
	C89.466,242.735,88.765,242.412,88.056,242.231z"/>
<linearGradient id="SVGID_35_" gradientUnits="userSpaceOnUse" x1="-23.8953" y1="597.8775" x2="-23.4423" y2="599.6306" gradientTransform="matrix(7.8769 0 0 -7.8769 363.9996 4969.7393)">
	<stop  offset="0" style="stop-color:#29D3DA"/>
	<stop  offset="0.519" style="stop-color:#0077FF"/>
	<stop  offset="0.999" style="stop-color:#064093"/>
	<stop  offset="1" style="stop-color:#084698"/>
</linearGradient>
<circle style="fill:url(#SVGID_35_);" cx="177.065" cy="255.323" r="3.434"/>
<linearGradient id="SVGID_36_" gradientUnits="userSpaceOnUse" x1="-34.2708" y1="596.9636" x2="-29.9238" y2="613.7416" gradientTransform="matrix(7.8769 0 0 -7.8769 363.9996 4969.7393)">
	<stop  offset="0.012" style="stop-color:#E0B386"/>
	<stop  offset="0.519" style="stop-color:#DA498C"/>
	<stop  offset="1" style="stop-color:#961484"/>
</linearGradient>
<path style="fill:url(#SVGID_36_);" d="M149.315,240.593c0,0-3.088-19.519-40.409-14.037c-37.329,5.482-44.867,18.141-63.015,11.303
	c0,0,7.869,5.482,37.667-24.316c29.791-29.783,74.996-31.673,74.665,18.322c0,0-0.079,12.06-5.474,13.186
	C149.496,245.729,149.315,240.593,149.315,240.593z"/>
<linearGradient id="SVGID_37_" gradientUnits="userSpaceOnUse" x1="8.0718" y1="589.5158" x2="-10.5192" y2="578.5778" gradientTransform="matrix(7.8769 0 0 -7.8769 363.9996 4969.7393)">
	<stop  offset="0" style="stop-color:#29D3DA"/>
	<stop  offset="0.519" style="stop-color:#0077FF"/>
	<stop  offset="0.999" style="stop-color:#064093"/>
	<stop  offset="1" style="stop-color:#084698"/>
</linearGradient>
<path style="fill:url(#SVGID_37_);" d="M312.485,308.374c0,0,47.947-37.762,79.911-0.008c31.98,37.793,4.372,100.265,45.781,114.066
	c0,0-39.227,4.356-56.674-55.217c-17.424-59.565-57.005-25.781-40.676-10.177c0,0-25.419-15.25-9.791-36.675
	c0,0-16.353,6.357-25.789-2.363c-9.437-8.72-4.805-19.527-4.805-19.527s-1.67,8.799,3.167,11.894
	C307.129,312.643,312.485,308.374,312.485,308.374z"/>
<linearGradient id="SVGID_38_" gradientUnits="userSpaceOnUse" x1="-0.2489" y1="587.6202" x2="-3.9769" y2="585.4243" gradientTransform="matrix(7.8769 0 0 -7.8769 363.9996 4969.7393)">
	<stop  offset="0.012" style="stop-color:#E0B386"/>
	<stop  offset="0.519" style="stop-color:#DA498C"/>
	<stop  offset="1" style="stop-color:#961484"/>
</linearGradient>
<path style="fill:url(#SVGID_38_);" d="M349.538,356.32c-0.985-2.883-0.347-6.176,1.93-8.468c2.292-2.292,5.6-2.93,8.468-1.93
	c-0.386-1.15-1.008-2.245-1.93-3.159c-3.198-3.206-8.413-3.198-11.618,0c-3.198,3.214-3.198,8.42,0,11.626
	C347.301,355.304,348.396,355.942,349.538,356.32z"/>
<linearGradient id="SVGID_39_" gradientUnits="userSpaceOnUse" x1="0.7001" y1="585.5668" x2="-2.7429" y2="584.7648" gradientTransform="matrix(7.8769 0 0 -7.8769 363.9996 4969.7393)">
	<stop  offset="0.012" style="stop-color:#E0B386"/>
	<stop  offset="0.519" style="stop-color:#DA498C"/>
	<stop  offset="1" style="stop-color:#961484"/>
</linearGradient>
<path style="fill:url(#SVGID_39_);" d="M356.053,366.08c-0.063-2.473,1.221-4.884,3.568-6.12c2.339-1.221,5.057-0.89,7.05,0.559
	c-0.008-0.992-0.244-1.985-0.725-2.93c-1.717-3.269-5.774-4.537-9.035-2.828c-3.285,1.733-4.561,5.766-2.836,9.058
	C354.548,364.757,355.257,365.497,356.053,366.08z"/>
<linearGradient id="SVGID_40_" gradientUnits="userSpaceOnUse" x1="1.1169" y1="583.5958" x2="-1.4691" y2="584.0278" gradientTransform="matrix(7.8769 0 0 -7.8769 363.9996 4969.7393)">
	<stop  offset="0.012" style="stop-color:#E0B386"/>
	<stop  offset="0.519" style="stop-color:#DA498C"/>
	<stop  offset="1" style="stop-color:#961484"/>
</linearGradient>
<path style="fill:url(#SVGID_40_);" d="M361.078,374.989c0.677-1.717,2.245-2.993,4.206-3.159c1.938-0.173,3.718,0.819,4.671,2.387
	c0.252-0.685,0.394-1.418,0.331-2.206c-0.236-2.733-2.647-4.758-5.38-4.513c-2.741,0.228-4.758,2.655-4.529,5.38
	C360.448,373.642,360.708,374.359,361.078,374.989z"/>
<linearGradient id="SVGID_41_" gradientUnits="userSpaceOnUse" x1="-6.6299" y1="592.81" x2="-8.1789" y2="591.896" gradientTransform="matrix(7.8769 0 0 -7.8769 363.9996 4969.7393)">
	<stop  offset="0" style="stop-color:#29D3DA"/>
	<stop  offset="0.519" style="stop-color:#0077FF"/>
	<stop  offset="0.999" style="stop-color:#064093"/>
	<stop  offset="1" style="stop-color:#084698"/>
</linearGradient>
<circle style="fill:url(#SVGID_41_);" cx="307.397" cy="302.805" r="3.419"/>
<linearGradient id="SVGID_42_" gradientUnits="userSpaceOnUse" x1="1.3602" y1="586.1228" x2="-13.5798" y2="577.3328" gradientTransform="matrix(7.8769 0 0 -7.8769 363.9996 4969.7393)">
	<stop  offset="0.012" style="stop-color:#E0B386"/>
	<stop  offset="0.519" style="stop-color:#DA498C"/>
	<stop  offset="1" style="stop-color:#961484"/>
</linearGradient>
<path style="fill:url(#SVGID_42_);" d="M316.605,332.839c0,0-11.626,15.974,18.637,38.502c30.271,22.52,44.544,18.889,52.547,36.573
	c0,0-1.694-9.444-43.827-9.444c-42.126,0-75.429-30.633-39.834-65.741c0,0,8.57-8.476,13.194-5.443
	C320.102,329.082,316.605,332.839,316.605,332.839z"/>
<linearGradient id="SVGID_43_" gradientUnits="userSpaceOnUse" x1="-36.4928" y1="608.3312" x2="-17.9018" y2="619.2672" gradientTransform="matrix(7.8769 0 0 -7.8769 363.9996 4969.7393)">
	<stop  offset="0" style="stop-color:#29D3DA"/>
	<stop  offset="0.519" style="stop-color:#0077FF"/>
	<stop  offset="0.999" style="stop-color:#064093"/>
	<stop  offset="1" style="stop-color:#084698"/>
</linearGradient>
<path style="fill:url(#SVGID_43_);" d="M191.63,195.757c0,0-47.939,37.77-79.904,0.008C79.754,157.98,107.355,95.508,65.946,81.707
	c0,0,39.219-4.356,56.682,55.217c17.416,59.565,57.005,25.789,40.669,10.169c0,0,25.419,15.258,9.799,36.675
	c0,0,16.345-6.357,25.789,2.363c9.46,8.72,4.813,19.527,4.813,19.527s1.646-8.791-3.182-11.894
	C196.994,191.496,191.63,195.757,191.63,195.757z"/>
<linearGradient id="SVGID_44_" gradientUnits="userSpaceOnUse" x1="-28.1758" y1="610.2228" x2="-24.4428" y2="612.4229" gradientTransform="matrix(7.8769 0 0 -7.8769 363.9996 4969.7393)">
	<stop  offset="0.012" style="stop-color:#E0B386"/>
	<stop  offset="0.519" style="stop-color:#DA498C"/>
	<stop  offset="1" style="stop-color:#961484"/>
</linearGradient>
<path style="fill:url(#SVGID_44_);" d="M154.592,147.818c0.977,2.867,0.354,6.176-1.93,8.468c-2.3,2.308-5.608,2.914-8.468,1.93
	c0.386,1.15,1,2.237,1.922,3.151c3.198,3.206,8.405,3.222,11.634,0c3.19-3.198,3.19-8.413-0.016-11.626
	C156.822,148.842,155.735,148.196,154.592,147.818z"/>
<linearGradient id="SVGID_45_" gradientUnits="userSpaceOnUse" x1="-29.1195" y1="612.2812" x2="-25.6795" y2="613.0802" gradientTransform="matrix(7.8769 0 0 -7.8769 363.9996 4969.7393)">
	<stop  offset="0.012" style="stop-color:#E0B386"/>
	<stop  offset="0.519" style="stop-color:#DA498C"/>
	<stop  offset="1" style="stop-color:#961484"/>
</linearGradient>
<path style="fill:url(#SVGID_45_);" d="M148.086,138.051c0.063,2.473-1.237,4.884-3.576,6.112c-2.347,1.237-5.073,0.906-7.066-0.536
	c0.039,0.977,0.26,1.977,0.748,2.914c1.717,3.269,5.766,4.537,9.043,2.828c3.269-1.717,4.545-5.774,2.836-9.058
	C149.575,139.382,148.882,138.642,148.086,138.051z"/>
<linearGradient id="SVGID_46_" gradientUnits="userSpaceOnUse" x1="-29.54" y1="614.2525" x2="-26.957" y2="613.8175" gradientTransform="matrix(7.8769 0 0 -7.8769 363.9996 4969.7393)">
	<stop  offset="0.012" style="stop-color:#E0B386"/>
	<stop  offset="0.519" style="stop-color:#DA498C"/>
	<stop  offset="1" style="stop-color:#961484"/>
</linearGradient>
<path style="fill:url(#SVGID_46_);" d="M143.045,129.142c-0.677,1.725-2.245,3.001-4.191,3.167
	c-1.953,0.165-3.742-0.819-4.679-2.395c-0.26,0.685-0.402,1.441-0.339,2.213c0.252,2.733,2.647,4.75,5.38,4.513
	s4.766-2.655,4.529-5.388C143.675,130.489,143.431,129.772,143.045,129.142z"/>
<linearGradient id="SVGID_47_" gradientUnits="userSpaceOnUse" x1="-21.7986" y1="605.0318" x2="-20.2386" y2="605.9498" gradientTransform="matrix(7.8769 0 0 -7.8769 363.9996 4969.7393)">
	<stop  offset="0" style="stop-color:#29D3DA"/>
	<stop  offset="0.519" style="stop-color:#0077FF"/>
	<stop  offset="0.999" style="stop-color:#064093"/>
	<stop  offset="1" style="stop-color:#084698"/>
</linearGradient>
<circle style="fill:url(#SVGID_47_);" cx="196.726" cy="201.342" r="3.434"/>
<linearGradient id="SVGID_48_" gradientUnits="userSpaceOnUse" x1="-29.7795" y1="611.724" x2="-14.8445" y2="620.514" gradientTransform="matrix(7.8769 0 0 -7.8769 363.9996 4969.7393)">
	<stop  offset="0.012" style="stop-color:#E0B386"/>
	<stop  offset="0.519" style="stop-color:#DA498C"/>
	<stop  offset="1" style="stop-color:#961484"/>
</linearGradient>
<path style="fill:url(#SVGID_48_);" d="M187.534,171.292c0,0,11.611-15.974-18.66-38.495c-30.263-22.52-44.544-18.905-52.539-36.573
	c0,0,1.686,9.437,43.819,9.437c42.134,0.008,75.437,30.641,39.841,65.749c0,0-8.586,8.476-13.194,5.451
	C184.021,175.057,187.534,171.292,187.534,171.292z"/>
<g>
</g>
<g>
</g>
<g>
</g>
<g>
</g>
<g>
</g>
<g>
</g>
<g>
</g>
<g>
</g>
<g>
</g>
<g>
</g>
<g>
</g>
<g>
</g>
<g>
</g>
<g>
</g>
<g>
</g>
</svg>
