<?xml version="1.0" encoding="iso-8859-1"?>
<!-- Generator: Adobe Illustrator 19.0.0, SVG Export Plug-In . SVG Version: 6.00 Build 0)  -->
<svg version="1.1" id="Layer_1" xmlns="http://www.w3.org/2000/svg" xmlns:xlink="http://www.w3.org/1999/xlink" x="0px" y="0px"
	 viewBox="0 0 504.123 504.123" style="enable-background:new 0 0 504.123 504.123;" xml:space="preserve">
<linearGradient id="SVGID_1_" gradientUnits="userSpaceOnUse" x1="-22.5055" y1="633.746" x2="-23.1715" y2="571.415" gradientTransform="matrix(7.8769 0 0 -7.8769 340.3549 4969.6694)">
	<stop  offset="0" style="stop-color:#29D3DA"/>
	<stop  offset="0.519" style="stop-color:#0077FF"/>
	<stop  offset="0.999" style="stop-color:#064093"/>
	<stop  offset="1" style="stop-color:#084698"/>
</linearGradient>
<path style="fill:url(#SVGID_1_);" d="M251.569,81.235V0C157.046,0,68.25,82.07,68.25,183.312s88.797,183.32,183.32,183.32v-81.25
	c-55.138,0-102.077-45.694-102.077-102.069S196.431,81.235,251.569,81.235z"/>
<linearGradient id="SVGID_2_" gradientUnits="userSpaceOnUse" x1="-22.4953" y1="581.7241" x2="-22.9953" y2="615.345" gradientTransform="matrix(7.8769 0 0 -7.8769 340.3549 4969.6694)">
	<stop  offset="0" style="stop-color:#29D3DA"/>
	<stop  offset="0.519" style="stop-color:#0077FF"/>
	<stop  offset="0.999" style="stop-color:#064093"/>
	<stop  offset="1" style="stop-color:#084698"/>
</linearGradient>
<path style="fill:url(#SVGID_2_);" d="M70.219,183.312c0,101.25,86.827,183.32,181.35,183.32v-81.25
	c-55.138,0-101.092-45.694-101.092-102.069"/>
<linearGradient id="SVGID_3_" gradientUnits="userSpaceOnUse" x1="0.3649" y1="553.7451" x2="0.3649" y2="621.1481" gradientTransform="matrix(7.8769 0 0 -7.8769 340.3549 4969.6694)">
	<stop  offset="0.012" style="stop-color:#E0B386"/>
	<stop  offset="0.519" style="stop-color:#DA498C"/>
	<stop  offset="1" style="stop-color:#961484"/>
</linearGradient>
<path style="fill:url(#SVGID_3_);" d="M251.569,422.88v81.243c102.4,0,183.32-82.078,183.32-183.32s-80.92-183.32-183.32-183.32
	v81.235c63.015,0,102.077,45.702,102.077,102.077S314.585,422.88,251.569,422.88z"/>
<linearGradient id="SVGID_4_" gradientUnits="userSpaceOnUse" x1="0.4274" y1="560.335" x2="0.4274" y2="594.035" gradientTransform="matrix(7.8769 0 0 -7.8769 340.3549 4969.6694)">
	<stop  offset="0.012" style="stop-color:#E0B386"/>
	<stop  offset="0.519" style="stop-color:#DA498C"/>
	<stop  offset="1" style="stop-color:#961484"/>
</linearGradient>
<path style="fill:url(#SVGID_4_);" d="M355.616,320.803c0,56.375-41.031,102.077-104.046,102.077v81.243
	c102.4,0,184.304-82.078,184.304-183.32"/>
<g>
</g>
<g>
</g>
<g>
</g>
<g>
</g>
<g>
</g>
<g>
</g>
<g>
</g>
<g>
</g>
<g>
</g>
<g>
</g>
<g>
</g>
<g>
</g>
<g>
</g>
<g>
</g>
<g>
</g>
</svg>
