<?xml version="1.0" encoding="iso-8859-1"?>
<!-- Generator: Adobe Illustrator 19.0.0, SVG Export Plug-In . SVG Version: 6.00 Build 0)  -->
<svg version="1.1" id="Layer_1" xmlns="http://www.w3.org/2000/svg" xmlns:xlink="http://www.w3.org/1999/xlink" x="0px" y="0px"
	 viewBox="0 0 504.039 504.039" style="enable-background:new 0 0 504.039 504.039;" xml:space="preserve">
<linearGradient id="SVGID_1_" gradientUnits="userSpaceOnUse" x1="-20.9787" y1="631.8101" x2="-18.9787" y2="546.1451" gradientTransform="matrix(7.8769 0 0 -7.8769 364.3524 4969.3145)">
	<stop  offset="0" style="stop-color:#29D3DA"/>
	<stop  offset="0.519" style="stop-color:#0077FF"/>
	<stop  offset="0.999" style="stop-color:#064093"/>
	<stop  offset="1" style="stop-color:#084698"/>
</linearGradient>
<path style="fill:url(#SVGID_1_);" d="M104.192,353.854c-48.293-69.955-41.37-166.526,20.89-228.777
	c62.243-62.243,158.815-69.175,228.77-20.882l51.877-51.87c-98.848-76.28-241.31-69.175-331.941,21.457
	c-90.64,90.64-97.745,233.102-21.472,331.949L104.192,353.854z"/>
<linearGradient id="SVGID_2_" gradientUnits="userSpaceOnUse" x1="13.1177" y1="552.605" x2="-27.5503" y2="625.27" gradientTransform="matrix(7.8769 0 0 -7.8769 364.3524 4969.3145)">
	<stop  offset="0.012" style="stop-color:#E0B386"/>
	<stop  offset="0.519" style="stop-color:#DA498C"/>
	<stop  offset="1" style="stop-color:#961484"/>
</linearGradient>
<path style="fill:url(#SVGID_2_);" d="M451.714,98.311l-51.862,51.87c48.286,69.955,41.362,166.526-20.882,228.769
	c-62.251,62.251-158.83,69.183-228.777,20.89l-51.877,51.877c98.848,76.28,241.31,69.167,331.941-21.473
	C520.889,339.621,528.002,197.159,451.714,98.311z"/>
<g>
</g>
<g>
</g>
<g>
</g>
<g>
</g>
<g>
</g>
<g>
</g>
<g>
</g>
<g>
</g>
<g>
</g>
<g>
</g>
<g>
</g>
<g>
</g>
<g>
</g>
<g>
</g>
<g>
</g>
</svg>
