<?xml version="1.0" encoding="iso-8859-1"?>
<!-- Generator: Adobe Illustrator 19.0.0, SVG Export Plug-In . SVG Version: 6.00 Build 0)  -->
<svg version="1.1" id="Layer_1" xmlns="http://www.w3.org/2000/svg" xmlns:xlink="http://www.w3.org/1999/xlink" x="0px" y="0px"
	 viewBox="0 0 504.123 504.123" style="enable-background:new 0 0 504.123 504.123;" xml:space="preserve">
<linearGradient id="SVGID_1_" gradientUnits="userSpaceOnUse" x1="19.2331" y1="584.5231" x2="-56.3449" y2="610.5821" gradientTransform="matrix(7.8769 0 0 -7.8769 364.0537 4969.6694)">
	<stop  offset="0.012" style="stop-color:#E0B386"/>
	<stop  offset="0.519" style="stop-color:#DA498C"/>
	<stop  offset="1" style="stop-color:#961484"/>
</linearGradient>
<path style="fill:url(#SVGID_1_);" d="M126.834,378.88L0,252.069c138.988-138.996,365.127-138.996,504.123,0L377.281,378.88
	C308.248,309.831,195.883,309.831,126.834,378.88z"/>
<linearGradient id="SVGID_2_" gradientUnits="userSpaceOnUse" x1="-14.2178" y1="592.3251" x2="-14.2178" y2="659.8121" gradientTransform="matrix(7.8769 0 0 -7.8769 364.0537 4969.6694)">
	<stop  offset="0.012" style="stop-color:#E0B386"/>
	<stop  offset="0.519" style="stop-color:#DA498C"/>
	<stop  offset="1" style="stop-color:#961484"/>
</linearGradient>
<path style="fill:url(#SVGID_2_);" d="M377.305,125.243l126.818,126.826C365.127,391.05,138.988,391.05,0,252.069l126.834-126.826
	C195.883,194.308,308.248,194.308,377.305,125.243z"/>
<linearGradient id="SVGID_3_" gradientUnits="userSpaceOnUse" x1="-14.2178" y1="565.582" x2="-14.2178" y2="632.1791" gradientTransform="matrix(7.8769 0 0 -7.8769 364.0537 4969.6694)">
	<stop  offset="0" style="stop-color:#29D3DA"/>
	<stop  offset="0.519" style="stop-color:#0077FF"/>
	<stop  offset="0.999" style="stop-color:#064093"/>
	<stop  offset="1" style="stop-color:#084698"/>
</linearGradient>
<path style="fill:url(#SVGID_3_);" d="M333.044,346.648c62.685-14.541,122.281-45.796,171.079-94.578
	c-48.79-48.798-108.379-80.077-171.095-94.602c-50.68,25.994-111.254,26.01-161.957,0C108.402,172.008,48.798,203.272,0,252.069
	c48.782,48.774,108.386,80.053,171.079,94.578C221.751,320.654,282.356,320.654,333.044,346.648z"/>
<linearGradient id="SVGID_4_" gradientUnits="userSpaceOnUse" x1="-14.2178" y1="611.3351" x2="-14.2178" y2="567.462" gradientTransform="matrix(7.8769 0 0 -7.8769 364.0537 4969.6694)">
	<stop  offset="0" style="stop-color:#29D3DA"/>
	<stop  offset="0.519" style="stop-color:#0077FF"/>
	<stop  offset="0.999" style="stop-color:#064093"/>
	<stop  offset="1" style="stop-color:#084698"/>
</linearGradient>
<path style="fill:url(#SVGID_4_);" d="M504.123,252.069c-48.79-48.798-108.379-80.077-171.095-94.602
	c-50.68,25.994-111.254,26.01-161.957,0C108.402,172.008,48.798,203.272,0,252.069"/>
<linearGradient id="SVGID_5_" gradientUnits="userSpaceOnUse" x1="-14.2178" y1="590.582" x2="-14.2178" y2="616.6411" gradientTransform="matrix(7.8769 0 0 -7.8769 364.0537 4969.6694)">
	<stop  offset="0.012" style="stop-color:#E0B386"/>
	<stop  offset="0.519" style="stop-color:#DA498C"/>
	<stop  offset="1" style="stop-color:#961484"/>
</linearGradient>
<ellipse style="fill:url(#SVGID_5_);" cx="252.062" cy="252.062" rx="119.635" ry="36.431"/>
<linearGradient id="SVGID_6_" gradientUnits="userSpaceOnUse" x1="-14.2178" y1="602.707" x2="-14.2178" y2="580.1951" gradientTransform="matrix(7.8769 0 0 -7.8769 364.0537 4969.6694)">
	<stop  offset="0.012" style="stop-color:#E0B386"/>
	<stop  offset="0.519" style="stop-color:#DA498C"/>
	<stop  offset="1" style="stop-color:#961484"/>
</linearGradient>
<path style="fill:url(#SVGID_6_);" d="M132.427,252.062c0-20.126,53.563-36.431,119.635-36.431
	c66.064,0,119.635,16.305,119.635,36.431"/>
<g>
</g>
<g>
</g>
<g>
</g>
<g>
</g>
<g>
</g>
<g>
</g>
<g>
</g>
<g>
</g>
<g>
</g>
<g>
</g>
<g>
</g>
<g>
</g>
<g>
</g>
<g>
</g>
<g>
</g>
</svg>
