<?xml version="1.0" encoding="iso-8859-1"?>
<!-- Generator: Adobe Illustrator 19.0.0, SVG Export Plug-In . SVG Version: 6.00 Build 0)  -->
<svg version="1.1" id="Layer_1" xmlns="http://www.w3.org/2000/svg" xmlns:xlink="http://www.w3.org/1999/xlink" x="0px" y="0px"
	 viewBox="0 0 504.131 504.131" style="enable-background:new 0 0 504.131 504.131;" xml:space="preserve">
<linearGradient id="SVGID_1_" gradientUnits="userSpaceOnUse" x1="-14.2099" y1="623.0469" x2="-14.2099" y2="592.9009" gradientTransform="matrix(7.8769 0 0 -7.8769 363.9995 4969.7393)">
	<stop  offset="0.012" style="stop-color:#E0B386"/>
	<stop  offset="0.519" style="stop-color:#DA498C"/>
	<stop  offset="1" style="stop-color:#961484"/>
</linearGradient>
<circle style="fill:url(#SVGID_1_);" cx="252.069" cy="162.666" r="33.54"/>
<linearGradient id="SVGID_2_" gradientUnits="userSpaceOnUse" x1="-14.2104" y1="601.5829" x2="-14.2104" y2="612.3829" gradientTransform="matrix(7.8769 0 0 -7.8769 363.9995 4969.7393)">
	<stop  offset="0.012" style="stop-color:#E0B386"/>
	<stop  offset="0.519" style="stop-color:#DA498C"/>
	<stop  offset="1" style="stop-color:#961484"/>
</linearGradient>
<path style="fill:url(#SVGID_2_);" d="M285.609,162.682c0,18.534-15.013,33.548-33.54,33.548c-18.534,0-33.548-15.013-33.548-33.548
	"/>
<linearGradient id="SVGID_3_" gradientUnits="userSpaceOnUse" x1="-14.2099" y1="627.3459" x2="-14.2099" y2="608.653" gradientTransform="matrix(7.8769 0 0 -7.8769 363.9995 4969.7393)">
	<stop  offset="0.012" style="stop-color:#E0B386"/>
	<stop  offset="0.519" style="stop-color:#DA498C"/>
	<stop  offset="1" style="stop-color:#961484"/>
</linearGradient>
<circle style="fill:url(#SVGID_3_);" cx="252.069" cy="90.569" r="20.795"/>
<linearGradient id="SVGID_4_" gradientUnits="userSpaceOnUse" x1="-10.9557" y1="625.7575" x2="-22.0657" y2="595.6115" gradientTransform="matrix(7.8769 0 0 -7.8769 363.9995 4969.7393)">
	<stop  offset="0.012" style="stop-color:#E0B386"/>
	<stop  offset="0.519" style="stop-color:#DA498C"/>
	<stop  offset="1" style="stop-color:#961484"/>
</linearGradient>
<path style="fill:url(#SVGID_4_);" d="M252.069,69.774c11.477,0,20.795,9.311,20.795,20.795c0,11.492-9.318,20.803-20.795,20.803"/>
<linearGradient id="SVGID_5_" gradientUnits="userSpaceOnUse" x1="-14.2099" y1="633.3929" x2="-14.2099" y2="613.4129" gradientTransform="matrix(7.8769 0 0 -7.8769 363.9995 4969.7393)">
	<stop  offset="0" style="stop-color:#29D3DA"/>
	<stop  offset="0.519" style="stop-color:#0077FF"/>
	<stop  offset="0.999" style="stop-color:#064093"/>
	<stop  offset="1" style="stop-color:#084698"/>
</linearGradient>
<circle style="fill:url(#SVGID_5_);" cx="252.069" cy="6.38" r="6.372"/>
<linearGradient id="SVGID_6_" gradientUnits="userSpaceOnUse" x1="-14.2099" y1="633.3939" x2="-14.2099" y2="613.4129" gradientTransform="matrix(7.8769 0 0 -7.8769 363.9995 4969.7393)">
	<stop  offset="0" style="stop-color:#29D3DA"/>
	<stop  offset="0.519" style="stop-color:#0077FF"/>
	<stop  offset="0.999" style="stop-color:#064093"/>
	<stop  offset="1" style="stop-color:#084698"/>
</linearGradient>
<circle style="fill:url(#SVGID_6_);" cx="252.069" cy="26.837" r="6.372"/>
<linearGradient id="SVGID_7_" gradientUnits="userSpaceOnUse" x1="-14.2099" y1="633.395" x2="-14.2099" y2="613.4129" gradientTransform="matrix(7.8769 0 0 -7.8769 363.9995 4969.7393)">
	<stop  offset="0" style="stop-color:#29D3DA"/>
	<stop  offset="0.519" style="stop-color:#0077FF"/>
	<stop  offset="0.999" style="stop-color:#064093"/>
	<stop  offset="1" style="stop-color:#084698"/>
</linearGradient>
<circle style="fill:url(#SVGID_7_);" cx="252.069" cy="47.301" r="6.372"/>
<linearGradient id="SVGID_8_" gradientUnits="userSpaceOnUse" x1="-14.2099" y1="574.8009" x2="-14.2099" y2="604.9409" gradientTransform="matrix(7.8769 0 0 -7.8769 363.9995 4969.7393)">
	<stop  offset="0.012" style="stop-color:#E0B386"/>
	<stop  offset="0.519" style="stop-color:#DA498C"/>
	<stop  offset="1" style="stop-color:#961484"/>
</linearGradient>
<circle style="fill:url(#SVGID_8_);" cx="252.069" cy="341.457" r="33.54"/>
<linearGradient id="SVGID_9_" gradientUnits="userSpaceOnUse" x1="-14.2099" y1="596.2629" x2="-14.2099" y2="585.4699" gradientTransform="matrix(7.8769 0 0 -7.8769 363.9995 4969.7393)">
	<stop  offset="0.012" style="stop-color:#E0B386"/>
	<stop  offset="0.519" style="stop-color:#DA498C"/>
	<stop  offset="1" style="stop-color:#961484"/>
</linearGradient>
<path style="fill:url(#SVGID_9_);" d="M218.529,341.457c0-18.527,15.013-33.54,33.54-33.54s33.54,15.013,33.54,33.54"/>
<linearGradient id="SVGID_10_" gradientUnits="userSpaceOnUse" x1="-14.2099" y1="570.4999" x2="-14.2099" y2="589.1959" gradientTransform="matrix(7.8769 0 0 -7.8769 363.9995 4969.7393)">
	<stop  offset="0.012" style="stop-color:#E0B386"/>
	<stop  offset="0.519" style="stop-color:#DA498C"/>
	<stop  offset="1" style="stop-color:#961484"/>
</linearGradient>
<circle style="fill:url(#SVGID_10_);" cx="252.069" cy="413.546" r="20.803"/>
<linearGradient id="SVGID_11_" gradientUnits="userSpaceOnUse" x1="-30.7798" y1="620.8519" x2="-19.6618" y2="590.7059" gradientTransform="matrix(7.8769 0 0 -7.8769 363.9995 4969.7393)">
	<stop  offset="0.012" style="stop-color:#E0B386"/>
	<stop  offset="0.519" style="stop-color:#DA498C"/>
	<stop  offset="1" style="stop-color:#961484"/>
</linearGradient>
<path style="fill:url(#SVGID_11_);" d="M252.069,434.373c-11.477,0-20.803-9.311-20.803-20.803s9.326-20.803,20.803-20.803"/>
<linearGradient id="SVGID_12_" gradientUnits="userSpaceOnUse" x1="-14.2099" y1="564.4519" x2="-14.2099" y2="584.4229" gradientTransform="matrix(7.8769 0 0 -7.8769 363.9995 4969.7393)">
	<stop  offset="0" style="stop-color:#29D3DA"/>
	<stop  offset="0.519" style="stop-color:#0077FF"/>
	<stop  offset="0.999" style="stop-color:#064093"/>
	<stop  offset="1" style="stop-color:#084698"/>
</linearGradient>
<circle style="fill:url(#SVGID_12_);" cx="252.069" cy="497.751" r="6.372"/>
<linearGradient id="SVGID_13_" gradientUnits="userSpaceOnUse" x1="-14.2099" y1="564.4389" x2="-14.2099" y2="584.4569" gradientTransform="matrix(7.8769 0 0 -7.8769 363.9995 4969.7393)">
	<stop  offset="0" style="stop-color:#29D3DA"/>
	<stop  offset="0.519" style="stop-color:#0077FF"/>
	<stop  offset="0.999" style="stop-color:#064093"/>
	<stop  offset="1" style="stop-color:#084698"/>
</linearGradient>
<circle style="fill:url(#SVGID_13_);" cx="252.069" cy="477.271" r="6.372"/>
<linearGradient id="SVGID_14_" gradientUnits="userSpaceOnUse" x1="-14.2099" y1="564.4539" x2="-14.2099" y2="584.4249" gradientTransform="matrix(7.8769 0 0 -7.8769 363.9995 4969.7393)">
	<stop  offset="0" style="stop-color:#29D3DA"/>
	<stop  offset="0.519" style="stop-color:#0077FF"/>
	<stop  offset="0.999" style="stop-color:#064093"/>
	<stop  offset="1" style="stop-color:#084698"/>
</linearGradient>
<circle style="fill:url(#SVGID_14_);" cx="252.069" cy="456.869" r="6.372"/>
<linearGradient id="SVGID_15_" gradientUnits="userSpaceOnUse" x1="2.8457" y1="615.9785" x2="-18.4703" y2="594.6625" gradientTransform="matrix(7.8769 0 0 -7.8769 363.9995 4969.7393)">
	<stop  offset="0.012" style="stop-color:#E0B386"/>
	<stop  offset="0.519" style="stop-color:#DA498C"/>
	<stop  offset="1" style="stop-color:#961484"/>
</linearGradient>
<circle style="fill:url(#SVGID_15_);" cx="315.266" cy="188.873" r="33.54"/>
<linearGradient id="SVGID_16_" gradientUnits="userSpaceOnUse" x1="-12.3285" y1="600.8016" x2="-4.6985" y2="608.4355" gradientTransform="matrix(7.8769 0 0 -7.8769 363.9995 4969.7393)">
	<stop  offset="0.012" style="stop-color:#E0B386"/>
	<stop  offset="0.519" style="stop-color:#DA498C"/>
	<stop  offset="1" style="stop-color:#961484"/>
</linearGradient>
<path style="fill:url(#SVGID_16_);" d="M338.976,212.59c-13.091,13.091-34.32,13.091-47.427,0
	c-13.099-13.099-13.099-34.328,0-47.435"/>
<linearGradient id="SVGID_17_" gradientUnits="userSpaceOnUse" x1="5.889" y1="619.0226" x2="-7.329" y2="605.8076" gradientTransform="matrix(7.8769 0 0 -7.8769 363.9995 4969.7393)">
	<stop  offset="0.012" style="stop-color:#E0B386"/>
	<stop  offset="0.519" style="stop-color:#DA498C"/>
	<stop  offset="1" style="stop-color:#961484"/>
</linearGradient>
<circle style="fill:url(#SVGID_17_);" cx="366.269" cy="137.854" r="20.795"/>
<linearGradient id="SVGID_18_" gradientUnits="userSpaceOnUse" x1="7.8001" y1="605.9059" x2="-0.0609" y2="613.7679" gradientTransform="matrix(7.8769 0 0 -7.8769 363.9995 4969.7393)">
	<stop  offset="0.012" style="stop-color:#E0B386"/>
	<stop  offset="0.519" style="stop-color:#DA498C"/>
	<stop  offset="1" style="stop-color:#961484"/>
</linearGradient>
<path style="fill:url(#SVGID_18_);" d="M380.967,123.179c8.121,8.113,8.121,21.291,0.008,29.397
	c-8.129,8.129-21.299,8.129-29.412,0.008"/>
<linearGradient id="SVGID_19_" gradientUnits="userSpaceOnUse" x1="10.1672" y1="623.2949" x2="-3.9628" y2="609.1658" gradientTransform="matrix(7.8769 0 0 -7.8769 363.9995 4969.7393)">
	<stop  offset="0" style="stop-color:#29D3DA"/>
	<stop  offset="0.519" style="stop-color:#0077FF"/>
	<stop  offset="0.999" style="stop-color:#064093"/>
	<stop  offset="1" style="stop-color:#084698"/>
</linearGradient>
<circle style="fill:url(#SVGID_19_);" cx="425.834" cy="78.344" r="6.372"/>
<linearGradient id="SVGID_20_" gradientUnits="userSpaceOnUse" x1="10.162" y1="623.2951" x2="-3.959" y2="609.1731" gradientTransform="matrix(7.8769 0 0 -7.8769 363.9995 4969.7393)">
	<stop  offset="0" style="stop-color:#29D3DA"/>
	<stop  offset="0.519" style="stop-color:#0077FF"/>
	<stop  offset="0.999" style="stop-color:#064093"/>
	<stop  offset="1" style="stop-color:#084698"/>
</linearGradient>
<circle style="fill:url(#SVGID_20_);" cx="411.325" cy="92.814" r="6.372"/>
<linearGradient id="SVGID_21_" gradientUnits="userSpaceOnUse" x1="10.1583" y1="623.2897" x2="-3.9547" y2="609.1777" gradientTransform="matrix(7.8769 0 0 -7.8769 363.9995 4969.7393)">
	<stop  offset="0" style="stop-color:#29D3DA"/>
	<stop  offset="0.519" style="stop-color:#0077FF"/>
	<stop  offset="0.999" style="stop-color:#064093"/>
	<stop  offset="1" style="stop-color:#084698"/>
</linearGradient>
<circle style="fill:url(#SVGID_21_);" cx="396.855" cy="107.292" r="6.372"/>
<linearGradient id="SVGID_22_" gradientUnits="userSpaceOnUse" x1="-31.2637" y1="581.8679" x2="-9.9517" y2="603.1829" gradientTransform="matrix(7.8769 0 0 -7.8769 363.9995 4969.7393)">
	<stop  offset="0.012" style="stop-color:#E0B386"/>
	<stop  offset="0.519" style="stop-color:#DA498C"/>
	<stop  offset="1" style="stop-color:#961484"/>
</linearGradient>
<circle style="fill:url(#SVGID_22_);" cx="188.865" cy="315.274" r="33.532"/>
<linearGradient id="SVGID_23_" gradientUnits="userSpaceOnUse" x1="-16.0932" y1="597.0402" x2="-23.7252" y2="589.4063" gradientTransform="matrix(7.8769 0 0 -7.8769 363.9995 4969.7393)">
	<stop  offset="0.012" style="stop-color:#E0B386"/>
	<stop  offset="0.519" style="stop-color:#DA498C"/>
	<stop  offset="1" style="stop-color:#961484"/>
</linearGradient>
<path style="fill:url(#SVGID_23_);" d="M165.155,291.564c13.099-13.091,34.328-13.091,47.427,0
	c13.099,13.099,13.099,34.328,0,47.427"/>
<linearGradient id="SVGID_24_" gradientUnits="userSpaceOnUse" x1="-34.3121" y1="578.8213" x2="-21.0921" y2="592.0423" gradientTransform="matrix(7.8769 0 0 -7.8769 363.9995 4969.7393)">
	<stop  offset="0.012" style="stop-color:#E0B386"/>
	<stop  offset="0.519" style="stop-color:#DA498C"/>
	<stop  offset="1" style="stop-color:#961484"/>
</linearGradient>
<circle style="fill:url(#SVGID_24_);" cx="137.854" cy="366.277" r="20.803"/>
<linearGradient id="SVGID_25_" gradientUnits="userSpaceOnUse" x1="-36.2204" y1="591.9384" x2="-28.3584" y2="584.0744" gradientTransform="matrix(7.8769 0 0 -7.8769 363.9995 4969.7393)">
	<stop  offset="0.012" style="stop-color:#E0B386"/>
	<stop  offset="0.519" style="stop-color:#DA498C"/>
	<stop  offset="1" style="stop-color:#961484"/>
</linearGradient>
<path style="fill:url(#SVGID_25_);" d="M123.164,380.983c-8.121-8.121-8.129-21.291,0-29.412c8.121-8.129,21.307-8.121,29.412,0"/>
<linearGradient id="SVGID_26_" gradientUnits="userSpaceOnUse" x1="-38.5819" y1="574.5469" x2="-24.4609" y2="588.6679" gradientTransform="matrix(7.8769 0 0 -7.8769 363.9995 4969.7393)">
	<stop  offset="0" style="stop-color:#29D3DA"/>
	<stop  offset="0.519" style="stop-color:#0077FF"/>
	<stop  offset="0.999" style="stop-color:#064093"/>
	<stop  offset="1" style="stop-color:#084698"/>
</linearGradient>
<circle style="fill:url(#SVGID_26_);" cx="78.336" cy="425.834" r="6.365"/>
<linearGradient id="SVGID_27_" gradientUnits="userSpaceOnUse" x1="-38.59" y1="574.541" x2="-24.444" y2="588.688" gradientTransform="matrix(7.8769 0 0 -7.8769 363.9995 4969.7393)">
	<stop  offset="0" style="stop-color:#29D3DA"/>
	<stop  offset="0.519" style="stop-color:#0077FF"/>
	<stop  offset="0.999" style="stop-color:#064093"/>
	<stop  offset="1" style="stop-color:#084698"/>
</linearGradient>
<path style="fill:url(#SVGID_27_);" d="M88.308,406.835c2.481-2.481,6.514-2.497,9.011-0.008c2.497,2.489,2.481,6.53-0.016,9.027
	c-2.473,2.465-6.506,2.481-9.003,0C85.811,413.365,85.827,409.324,88.308,406.835z"/>
<linearGradient id="SVGID_28_" gradientUnits="userSpaceOnUse" x1="-38.5736" y1="574.5566" x2="-24.4686" y2="588.6606" gradientTransform="matrix(7.8769 0 0 -7.8769 363.9995 4969.7393)">
	<stop  offset="0" style="stop-color:#29D3DA"/>
	<stop  offset="0.519" style="stop-color:#0077FF"/>
	<stop  offset="0.999" style="stop-color:#064093"/>
	<stop  offset="1" style="stop-color:#084698"/>
</linearGradient>
<circle style="fill:url(#SVGID_28_);" cx="107.292" cy="396.871" r="6.365"/>
<linearGradient id="SVGID_29_" gradientUnits="userSpaceOnUse" x1="15.5836" y1="617.3684" x2="-14.5624" y2="587.2224" gradientTransform="matrix(7.8769 0 0 -7.8769 363.9995 4969.7393)">
	<stop  offset="0.012" style="stop-color:#E0B386"/>
	<stop  offset="0.519" style="stop-color:#DA498C"/>
	<stop  offset="1" style="stop-color:#961484"/>
</linearGradient>
<circle style="fill:url(#SVGID_29_);" cx="341.449" cy="252.077" r="33.54"/>
<linearGradient id="SVGID_30_" gradientUnits="userSpaceOnUse" x1="-12.8356" y1="622.5825" x2="-2.0396" y2="592.4365" gradientTransform="matrix(7.8769 0 0 -7.8769 363.9995 4969.7393)">
	<stop  offset="0.012" style="stop-color:#E0B386"/>
	<stop  offset="0.519" style="stop-color:#DA498C"/>
	<stop  offset="1" style="stop-color:#961484"/>
</linearGradient>
<path style="fill:url(#SVGID_30_);" d="M341.449,285.625c-18.527,0-33.54-15.013-33.54-33.54
	c-0.008-18.534,15.006-33.548,33.548-33.548"/>
<linearGradient id="SVGID_31_" gradientUnits="userSpaceOnUse" x1="19.2944" y1="619.8926" x2="0.6004" y2="589.7466" gradientTransform="matrix(7.8769 0 0 -7.8769 363.9995 4969.7393)">
	<stop  offset="0.012" style="stop-color:#E0B386"/>
	<stop  offset="0.519" style="stop-color:#DA498C"/>
	<stop  offset="1" style="stop-color:#961484"/>
</linearGradient>
<circle style="fill:url(#SVGID_31_);" cx="413.546" cy="252.077" r="20.795"/>
<linearGradient id="SVGID_32_" gradientUnits="userSpaceOnUse" x1="6.2921" y1="588.3029" x2="6.2921" y2="599.4129" gradientTransform="matrix(7.8769 0 0 -7.8769 363.9995 4969.7393)">
	<stop  offset="0.012" style="stop-color:#E0B386"/>
	<stop  offset="0.519" style="stop-color:#DA498C"/>
	<stop  offset="1" style="stop-color:#961484"/>
</linearGradient>
<path style="fill:url(#SVGID_32_);" d="M434.357,252.085c0.008,11.477-9.311,20.795-20.795,20.795s-20.803-9.318-20.795-20.795"/>
<linearGradient id="SVGID_33_" gradientUnits="userSpaceOnUse" x1="35.8573" y1="617.7858" x2="15.8633" y2="597.8058" gradientTransform="matrix(7.8769 0 0 -7.8769 363.9995 4969.7393)">
	<stop  offset="0" style="stop-color:#29D3DA"/>
	<stop  offset="0.519" style="stop-color:#0077FF"/>
	<stop  offset="0.999" style="stop-color:#064093"/>
	<stop  offset="1" style="stop-color:#084698"/>
</linearGradient>
<circle style="fill:url(#SVGID_33_);" cx="497.751" cy="252.077" r="6.38"/>
<linearGradient id="SVGID_34_" gradientUnits="userSpaceOnUse" x1="34.5587" y1="619.0873" x2="14.5647" y2="599.1074" gradientTransform="matrix(7.8769 0 0 -7.8769 363.9995 4969.7393)">
	<stop  offset="0" style="stop-color:#29D3DA"/>
	<stop  offset="0.519" style="stop-color:#0077FF"/>
	<stop  offset="0.999" style="stop-color:#064093"/>
	<stop  offset="1" style="stop-color:#084698"/>
</linearGradient>
<circle style="fill:url(#SVGID_34_);" cx="477.271" cy="252.069" r="6.372"/>
<linearGradient id="SVGID_35_" gradientUnits="userSpaceOnUse" x1="33.2673" y1="620.383" x2="13.2723" y2="600.403" gradientTransform="matrix(7.8769 0 0 -7.8769 363.9995 4969.7393)">
	<stop  offset="0" style="stop-color:#29D3DA"/>
	<stop  offset="0.519" style="stop-color:#0077FF"/>
	<stop  offset="0.999" style="stop-color:#064093"/>
	<stop  offset="1" style="stop-color:#084698"/>
</linearGradient>
<circle style="fill:url(#SVGID_35_);" cx="456.869" cy="252.077" r="6.372"/>
<linearGradient id="SVGID_36_" gradientUnits="userSpaceOnUse" x1="-44.0037" y1="617.3676" x2="-13.8607" y2="587.2216" gradientTransform="matrix(7.8769 0 0 -7.8769 363.9995 4969.7393)">
	<stop  offset="0.012" style="stop-color:#E0B386"/>
	<stop  offset="0.519" style="stop-color:#DA498C"/>
	<stop  offset="1" style="stop-color:#961484"/>
</linearGradient>
<circle style="fill:url(#SVGID_36_);" cx="162.666" cy="252.077" r="33.532"/>
<linearGradient id="SVGID_37_" gradientUnits="userSpaceOnUse" x1="-15.5849" y1="622.5813" x2="-26.3809" y2="592.4353" gradientTransform="matrix(7.8769 0 0 -7.8769 363.9995 4969.7393)">
	<stop  offset="0.012" style="stop-color:#E0B386"/>
	<stop  offset="0.519" style="stop-color:#DA498C"/>
	<stop  offset="1" style="stop-color:#961484"/>
</linearGradient>
<path style="fill:url(#SVGID_37_);" d="M162.682,218.545c18.527,0,33.54,15.006,33.54,33.54c0,18.527-15.013,33.54-33.54,33.532"/>
<linearGradient id="SVGID_38_" gradientUnits="userSpaceOnUse" x1="-47.7186" y1="619.8901" x2="-29.0226" y2="589.7441" gradientTransform="matrix(7.8769 0 0 -7.8769 363.9995 4969.7393)">
	<stop  offset="0.012" style="stop-color:#E0B386"/>
	<stop  offset="0.519" style="stop-color:#DA498C"/>
	<stop  offset="1" style="stop-color:#961484"/>
</linearGradient>
<circle style="fill:url(#SVGID_38_);" cx="90.561" cy="252.085" r="20.803"/>
<linearGradient id="SVGID_39_" gradientUnits="userSpaceOnUse" x1="-34.7139" y1="609.5459" x2="-34.7139" y2="598.4279" gradientTransform="matrix(7.8769 0 0 -7.8769 363.9995 4969.7393)">
	<stop  offset="0.012" style="stop-color:#E0B386"/>
	<stop  offset="0.519" style="stop-color:#DA498C"/>
	<stop  offset="1" style="stop-color:#961484"/>
</linearGradient>
<path style="fill:url(#SVGID_39_);" d="M69.758,252.085c0.008-11.485,9.311-20.811,20.803-20.803c11.5,0,20.803,9.318,20.803,20.803
	"/>
<linearGradient id="SVGID_40_" gradientUnits="userSpaceOnUse" x1="-64.2734" y1="617.8047" x2="-44.3064" y2="597.8247" gradientTransform="matrix(7.8769 0 0 -7.8769 363.9995 4969.7393)">
	<stop  offset="0" style="stop-color:#29D3DA"/>
	<stop  offset="0.519" style="stop-color:#0077FF"/>
	<stop  offset="0.999" style="stop-color:#064093"/>
	<stop  offset="1" style="stop-color:#084698"/>
</linearGradient>
<circle style="fill:url(#SVGID_40_);" cx="6.372" cy="252.085" r="6.372"/>
<linearGradient id="SVGID_41_" gradientUnits="userSpaceOnUse" x1="-62.9831" y1="619.084" x2="-42.988" y2="599.104" gradientTransform="matrix(7.8769 0 0 -7.8769 363.9995 4969.7393)">
	<stop  offset="0" style="stop-color:#29D3DA"/>
	<stop  offset="0.519" style="stop-color:#0077FF"/>
	<stop  offset="0.999" style="stop-color:#064093"/>
	<stop  offset="1" style="stop-color:#084698"/>
</linearGradient>
<path style="fill:url(#SVGID_41_);" d="M26.821,245.713c3.521,0,6.388,2.844,6.388,6.372s-2.859,6.372-6.388,6.372
	c-3.497,0-6.372-2.844-6.372-6.372C20.456,248.556,23.316,245.713,26.821,245.713z"/>
<linearGradient id="SVGID_42_" gradientUnits="userSpaceOnUse" x1="-61.6734" y1="620.4045" x2="-41.7074" y2="600.4245" gradientTransform="matrix(7.8769 0 0 -7.8769 363.9995 4969.7393)">
	<stop  offset="0" style="stop-color:#29D3DA"/>
	<stop  offset="0.519" style="stop-color:#0077FF"/>
	<stop  offset="0.999" style="stop-color:#064093"/>
	<stop  offset="1" style="stop-color:#084698"/>
</linearGradient>
<circle style="fill:url(#SVGID_42_);" cx="47.301" cy="252.077" r="6.365"/>
<linearGradient id="SVGID_43_" gradientUnits="userSpaceOnUse" x1="2.8439" y1="581.8645" x2="-18.4722" y2="603.1845" gradientTransform="matrix(7.8769 0 0 -7.8769 363.9995 4969.7393)">
	<stop  offset="0.012" style="stop-color:#E0B386"/>
	<stop  offset="0.519" style="stop-color:#DA498C"/>
	<stop  offset="1" style="stop-color:#961484"/>
</linearGradient>
<circle style="fill:url(#SVGID_43_);" cx="315.258" cy="315.282" r="33.54"/>
<linearGradient id="SVGID_44_" gradientUnits="userSpaceOnUse" x1="-12.3326" y1="597.0422" x2="-4.7016" y2="589.4112" gradientTransform="matrix(7.8769 0 0 -7.8769 363.9995 4969.7393)">
	<stop  offset="0.012" style="stop-color:#E0B386"/>
	<stop  offset="0.519" style="stop-color:#DA498C"/>
	<stop  offset="1" style="stop-color:#961484"/>
</linearGradient>
<path style="fill:url(#SVGID_44_);" d="M291.541,338.999c-13.091-13.099-13.091-34.328,0-47.427
	c13.099-13.099,34.328-13.099,47.435,0"/>
<linearGradient id="SVGID_45_" gradientUnits="userSpaceOnUse" x1="5.8876" y1="578.8218" x2="-7.3284" y2="592.0418" gradientTransform="matrix(7.8769 0 0 -7.8769 363.9995 4969.7393)">
	<stop  offset="0.012" style="stop-color:#E0B386"/>
	<stop  offset="0.519" style="stop-color:#DA498C"/>
	<stop  offset="1" style="stop-color:#961484"/>
</linearGradient>
<circle style="fill:url(#SVGID_45_);" cx="366.269" cy="366.285" r="20.795"/>
<linearGradient id="SVGID_46_" gradientUnits="userSpaceOnUse" x1="-7.226" y1="576.9161" x2="0.637" y2="584.774" gradientTransform="matrix(7.8769 0 0 -7.8769 363.9995 4969.7393)">
	<stop  offset="0.012" style="stop-color:#E0B386"/>
	<stop  offset="0.519" style="stop-color:#DA498C"/>
	<stop  offset="1" style="stop-color:#961484"/>
</linearGradient>
<path style="fill:url(#SVGID_46_);" d="M380.952,380.983c-8.113,8.121-21.276,8.121-29.389,0.008
	c-8.129-8.129-8.137-21.299-0.008-29.412"/>
<linearGradient id="SVGID_47_" gradientUnits="userSpaceOnUse" x1="10.1604" y1="574.5512" x2="-3.9436" y2="588.6552" gradientTransform="matrix(7.8769 0 0 -7.8769 363.9995 4969.7393)">
	<stop  offset="0" style="stop-color:#29D3DA"/>
	<stop  offset="0.519" style="stop-color:#0077FF"/>
	<stop  offset="0.999" style="stop-color:#064093"/>
	<stop  offset="1" style="stop-color:#084698"/>
</linearGradient>
<path style="fill:url(#SVGID_47_);" d="M421.297,430.324c-2.505-2.489-2.505-6.53,0-9.019c2.473-2.481,6.506-2.481,9.003-0.008
	c2.489,2.489,2.489,6.522-0.008,9.027C427.819,432.798,423.778,432.798,421.297,430.324z"/>
<linearGradient id="SVGID_48_" gradientUnits="userSpaceOnUse" x1="10.1564" y1="574.5552" x2="-3.9476" y2="588.6592" gradientTransform="matrix(7.8769 0 0 -7.8769 363.9995 4969.7393)">
	<stop  offset="0" style="stop-color:#29D3DA"/>
	<stop  offset="0.519" style="stop-color:#0077FF"/>
	<stop  offset="0.999" style="stop-color:#064093"/>
	<stop  offset="1" style="stop-color:#084698"/>
</linearGradient>
<path style="fill:url(#SVGID_48_);" d="M406.819,415.854c-2.497-2.489-2.489-6.53-0.008-9.019c2.489-2.489,6.522-2.497,9.019-0.016
	c2.481,2.497,2.465,6.538-0.024,9.027C413.342,418.32,409.309,418.328,406.819,415.854z"/>
<linearGradient id="SVGID_49_" gradientUnits="userSpaceOnUse" x1="10.1616" y1="574.5494" x2="-3.9604" y2="588.6704" gradientTransform="matrix(7.8769 0 0 -7.8769 363.9995 4969.7393)">
	<stop  offset="0" style="stop-color:#29D3DA"/>
	<stop  offset="0.519" style="stop-color:#0077FF"/>
	<stop  offset="0.999" style="stop-color:#064093"/>
	<stop  offset="1" style="stop-color:#084698"/>
</linearGradient>
<path style="fill:url(#SVGID_49_);" d="M392.35,401.384c-2.489-2.497-2.481-6.522,0-9.011c2.497-2.513,6.522-2.505,9.011-0.008
	c2.497,2.489,2.497,6.514,0,9.019C398.872,403.866,394.839,403.866,392.35,401.384z"/>
<linearGradient id="SVGID_50_" gradientUnits="userSpaceOnUse" x1="-31.2643" y1="615.9754" x2="-9.9453" y2="594.6564" gradientTransform="matrix(7.8769 0 0 -7.8769 363.9995 4969.7393)">
	<stop  offset="0.012" style="stop-color:#E0B386"/>
	<stop  offset="0.519" style="stop-color:#DA498C"/>
	<stop  offset="1" style="stop-color:#961484"/>
</linearGradient>
<circle style="fill:url(#SVGID_50_);" cx="188.865" cy="188.881" r="33.532"/>
<linearGradient id="SVGID_51_" gradientUnits="userSpaceOnUse" x1="-16.0916" y1="600.8022" x2="-23.7246" y2="608.4352" gradientTransform="matrix(7.8769 0 0 -7.8769 363.9995 4969.7393)">
	<stop  offset="0.012" style="stop-color:#E0B386"/>
	<stop  offset="0.519" style="stop-color:#DA498C"/>
	<stop  offset="1" style="stop-color:#961484"/>
</linearGradient>
<path style="fill:url(#SVGID_51_);" d="M212.575,165.171c13.084,13.099,13.091,34.32,0,47.427
	c-13.107,13.091-34.336,13.091-47.427-0.008"/>
<linearGradient id="SVGID_52_" gradientUnits="userSpaceOnUse" x1="-34.3123" y1="619.0253" x2="-21.0923" y2="605.8054" gradientTransform="matrix(7.8769 0 0 -7.8769 363.9995 4969.7393)">
	<stop  offset="0.012" style="stop-color:#E0B386"/>
	<stop  offset="0.519" style="stop-color:#DA498C"/>
	<stop  offset="1" style="stop-color:#961484"/>
</linearGradient>
<circle style="fill:url(#SVGID_52_);" cx="137.854" cy="137.854" r="20.803"/>
<linearGradient id="SVGID_53_" gradientUnits="userSpaceOnUse" x1="-21.1959" y1="620.9329" x2="-29.0579" y2="613.0709" gradientTransform="matrix(7.8769 0 0 -7.8769 363.9995 4969.7393)">
	<stop  offset="0.012" style="stop-color:#E0B386"/>
	<stop  offset="0.519" style="stop-color:#DA498C"/>
	<stop  offset="1" style="stop-color:#961484"/>
</linearGradient>
<path style="fill:url(#SVGID_53_);" d="M123.148,123.179c8.129-8.121,21.291-8.137,29.412,0c8.137,8.129,8.129,21.291,0,29.412"/>
<linearGradient id="SVGID_54_" gradientUnits="userSpaceOnUse" x1="-38.5835" y1="623.2933" x2="-24.4705" y2="609.1823" gradientTransform="matrix(7.8769 0 0 -7.8769 363.9995 4969.7393)">
	<stop  offset="0" style="stop-color:#29D3DA"/>
	<stop  offset="0.519" style="stop-color:#0077FF"/>
	<stop  offset="0.999" style="stop-color:#064093"/>
	<stop  offset="1" style="stop-color:#084698"/>
</linearGradient>
<circle style="fill:url(#SVGID_54_);" cx="78.328" cy="78.352" r="6.365"/>
<linearGradient id="SVGID_55_" gradientUnits="userSpaceOnUse" x1="-38.5894" y1="623.2994" x2="-24.4514" y2="609.1614" gradientTransform="matrix(7.8769 0 0 -7.8769 363.9995 4969.7393)">
	<stop  offset="0" style="stop-color:#29D3DA"/>
	<stop  offset="0.519" style="stop-color:#0077FF"/>
	<stop  offset="0.999" style="stop-color:#064093"/>
	<stop  offset="1" style="stop-color:#084698"/>
</linearGradient>
<path style="fill:url(#SVGID_55_);" d="M97.304,88.324c2.473,2.481,2.497,6.522,0,9.011c-2.481,2.481-6.514,2.481-9.011-0.016
	c-2.481-2.465-2.497-6.506-0.008-9.003C90.782,85.819,94.815,85.835,97.304,88.324z"/>
<linearGradient id="SVGID_56_" gradientUnits="userSpaceOnUse" x1="-38.576" y1="623.2878" x2="-24.469" y2="609.1838" gradientTransform="matrix(7.8769 0 0 -7.8769 363.9995 4969.7393)">
	<stop  offset="0" style="stop-color:#29D3DA"/>
	<stop  offset="0.519" style="stop-color:#0077FF"/>
	<stop  offset="0.999" style="stop-color:#064093"/>
	<stop  offset="1" style="stop-color:#084698"/>
</linearGradient>
<circle style="fill:url(#SVGID_56_);" cx="107.292" cy="107.292" r="6.365"/>
<g>
</g>
<g>
</g>
<g>
</g>
<g>
</g>
<g>
</g>
<g>
</g>
<g>
</g>
<g>
</g>
<g>
</g>
<g>
</g>
<g>
</g>
<g>
</g>
<g>
</g>
<g>
</g>
<g>
</g>
</svg>
