<?xml version="1.0" encoding="iso-8859-1"?>
<!-- Generator: Adobe Illustrator 19.0.0, SVG Export Plug-In . SVG Version: 6.00 Build 0)  -->
<svg version="1.1" id="Layer_1" xmlns="http://www.w3.org/2000/svg" xmlns:xlink="http://www.w3.org/1999/xlink" x="0px" y="0px"
	 viewBox="0 0 500.72 500.72" style="enable-background:new 0 0 500.72 500.72;" xml:space="preserve">
<linearGradient id="SVGID_1_" gradientUnits="userSpaceOnUse" x1="-15.9192" y1="583.9691" x2="-15.9192" y2="640.306" gradientTransform="matrix(7.8769 0 0 -7.8769 375.7542 4978.7593)">
	<stop  offset="0.012" style="stop-color:#E0B386"/>
	<stop  offset="0.519" style="stop-color:#DA498C"/>
	<stop  offset="1" style="stop-color:#961484"/>
</linearGradient>
<path style="fill:url(#SVGID_1_);" d="M250.36,0C112.766,0,1.221,115.239,1.221,249.147h86.938
	c0-86.646,72.617-162.202,162.202-162.202s162.202,75.555,162.202,162.202h86.938C499.499,115.239,387.946,0,250.36,0z"/>
<linearGradient id="SVGID_2_" gradientUnits="userSpaceOnUse" x1="-15.9192" y1="594.837" x2="-15.9192" y2="609.7651" gradientTransform="matrix(7.8769 0 0 -7.8769 375.7542 4978.7593)">
	<stop  offset="0.012" style="stop-color:#E0B386"/>
	<stop  offset="0.519" style="stop-color:#DA498C"/>
	<stop  offset="1" style="stop-color:#961484"/>
</linearGradient>
<path style="fill:url(#SVGID_2_);" d="M326.916,249.147c0-39.385-34.272-76.564-76.556-76.564s-76.556,37.179-76.556,76.564H326.916
	z"/>
<linearGradient id="SVGID_3_" gradientUnits="userSpaceOnUse" x1="-15.9197" y1="598.1091" x2="-15.9197" y2="548.9691" gradientTransform="matrix(7.8769 0 0 -7.8769 375.7542 4978.7593)">
	<stop  offset="0" style="stop-color:#29D3DA"/>
	<stop  offset="0.519" style="stop-color:#0077FF"/>
	<stop  offset="0.999" style="stop-color:#064093"/>
	<stop  offset="1" style="stop-color:#084698"/>
</linearGradient>
<path style="fill:url(#SVGID_3_);" d="M33.319,375.178c4.427,7.877,9.279,15.754,14.501,23.631h405.071
	c5.23-7.877,10.075-15.754,14.501-23.631H33.319z"/>
<linearGradient id="SVGID_4_" gradientUnits="userSpaceOnUse" x1="-15.9187" y1="598.4841" x2="-15.9187" y2="549.3391" gradientTransform="matrix(7.8769 0 0 -7.8769 375.7542 4978.7593)">
	<stop  offset="0" style="stop-color:#29D3DA"/>
	<stop  offset="0.519" style="stop-color:#0077FF"/>
	<stop  offset="0.999" style="stop-color:#064093"/>
	<stop  offset="1" style="stop-color:#084698"/>
</linearGradient>
<path style="fill:url(#SVGID_4_);" d="M397.808,453.947c9.602-2.71,18.361-7.877,26.726-23.631H76.193
	c8.357,15.754,16.258,20.921,26.711,23.631H397.808z"/>
<linearGradient id="SVGID_5_" gradientUnits="userSpaceOnUse" x1="-15.9197" y1="597.7451" x2="-15.9197" y2="550.5261" gradientTransform="matrix(7.8769 0 0 -7.8769 375.7542 4978.7593)">
	<stop  offset="0" style="stop-color:#29D3DA"/>
	<stop  offset="0.519" style="stop-color:#0077FF"/>
	<stop  offset="0.999" style="stop-color:#064093"/>
	<stop  offset="1" style="stop-color:#084698"/>
</linearGradient>
<path style="fill:url(#SVGID_5_);" d="M164.313,485.455c26.813,7.877,55.8,15.265,86.048,15.265s59.227-7.389,86.04-15.265H164.313z
	"/>
<linearGradient id="SVGID_6_" gradientUnits="userSpaceOnUse" x1="-15.9192" y1="597.7391" x2="-15.9192" y2="548.5991" gradientTransform="matrix(7.8769 0 0 -7.8769 375.7542 4978.7593)">
	<stop  offset="0" style="stop-color:#29D3DA"/>
	<stop  offset="0.519" style="stop-color:#0077FF"/>
	<stop  offset="0.999" style="stop-color:#064093"/>
	<stop  offset="1" style="stop-color:#084698"/>
</linearGradient>
<path style="fill:url(#SVGID_6_);" d="M10.272,320.039c2.135,7.877,4.624,15.754,7.459,23.631h465.258
	c2.836-7.877,5.333-15.754,7.459-23.631H10.272z"/>
<g>
</g>
<g>
</g>
<g>
</g>
<g>
</g>
<g>
</g>
<g>
</g>
<g>
</g>
<g>
</g>
<g>
</g>
<g>
</g>
<g>
</g>
<g>
</g>
<g>
</g>
<g>
</g>
<g>
</g>
</svg>
