<?xml version="1.0" encoding="iso-8859-1"?>
<!-- Generator: Adobe Illustrator 19.0.0, SVG Export Plug-In . SVG Version: 6.00 Build 0)  -->
<svg version="1.1" id="Layer_1" xmlns="http://www.w3.org/2000/svg" xmlns:xlink="http://www.w3.org/1999/xlink" x="0px" y="0px"
	 viewBox="0 0 504.123 504.123" style="enable-background:new 0 0 504.123 504.123;" xml:space="preserve">
<linearGradient id="SVGID_1_" gradientUnits="userSpaceOnUse" x1="-19.4691" y1="568.785" x2="-19.4691" y2="619.16" gradientTransform="matrix(7.8769 0 0 -7.8769 364.0541 4969.6694)">
	<stop  offset="0.012" style="stop-color:#E0B386"/>
	<stop  offset="0.519" style="stop-color:#DA498C"/>
	<stop  offset="1" style="stop-color:#961484"/>
</linearGradient>
<path style="fill:url(#SVGID_1_);" d="M252.243,219.262c-5.711-16.849-21.614-28.995-40.385-28.995
	c-23.552,0-41.551,19.117-42.646,42.661c-1.292,27.427,17.904,76.06,82.739,100.785c0.095,0.047,0.165,0.047,0.291,0.079V219.262z"
	/>
<linearGradient id="SVGID_2_" gradientUnits="userSpaceOnUse" x1="7.6822" y1="601.4297" x2="-15.9268" y2="596.8808" gradientTransform="matrix(7.8769 0 0 -7.8769 364.0541 4969.6694)">
	<stop  offset="0.012" style="stop-color:#E0B386"/>
	<stop  offset="0.519" style="stop-color:#DA498C"/>
	<stop  offset="1" style="stop-color:#961484"/>
</linearGradient>
<path style="fill:url(#SVGID_2_);" d="M251.896,219.262c5.711-16.849,21.599-28.995,40.369-28.995
	c23.552,0,41.551,19.117,42.661,42.661c1.26,27.427-17.92,76.06-82.755,100.785c-0.11,0.047-0.181,0.047-0.276,0.079V219.262z"/>
<linearGradient id="SVGID_3_" gradientUnits="userSpaceOnUse" x1="-14.2178" y1="638.0881" x2="-14.2178" y2="547.925" gradientTransform="matrix(7.8769 0 0 -7.8769 364.0541 4969.6694)">
	<stop  offset="0" style="stop-color:#29D3DA"/>
	<stop  offset="0.519" style="stop-color:#0077FF"/>
	<stop  offset="0.999" style="stop-color:#064093"/>
	<stop  offset="1" style="stop-color:#084698"/>
</linearGradient>
<path style="fill:url(#SVGID_3_);" d="M251.557,85.047v-0.284c0.181,0.063,0.354,0.102,0.504,0.134
	c0.158-0.032,0.339-0.071,0.504-0.134v0.291c107.788,41.173,172.308,104.936,207.265,167.007
	c26.419-46.939,35.935-92.932,34.32-127.441C490.937,55.879,438.351,0,369.538,0c-54.335,0-100.431,34.855-117.476,83.377
	C235.032,34.855,188.936,0,134.601,0C65.772,0,13.186,55.879,9.972,124.621c-1.615,34.509,7.908,80.494,34.336,127.441
	C79.25,189.984,143.785,126.22,251.557,85.047z"/>
<linearGradient id="SVGID_4_" gradientUnits="userSpaceOnUse" x1="-14.2178" y1="537.2551" x2="-14.2178" y2="599.7061" gradientTransform="matrix(7.8769 0 0 -7.8769 364.0541 4969.6694)">
	<stop  offset="0" style="stop-color:#29D3DA"/>
	<stop  offset="0.519" style="stop-color:#0077FF"/>
	<stop  offset="0.999" style="stop-color:#064093"/>
	<stop  offset="1" style="stop-color:#084698"/>
</linearGradient>
<path style="fill:url(#SVGID_4_);" d="M252.566,419.068v0.291c-0.165-0.063-0.339-0.102-0.504-0.142
	c-0.158,0.039-0.323,0.079-0.504,0.142v-0.291C143.785,377.903,79.25,314.14,44.308,252.062
	c-26.427,46.946-35.95,92.932-34.336,127.441c3.214,68.742,55.8,124.621,124.613,124.621c54.351,0,100.431-34.855,117.476-83.377
	c17.046,48.522,63.141,83.377,117.461,83.377c68.829,0,121.415-55.879,124.629-124.621c1.615-34.509-7.908-80.494-34.32-127.441
	C424.873,314.14,360.353,377.903,252.566,419.068z"/>
<g>
</g>
<g>
</g>
<g>
</g>
<g>
</g>
<g>
</g>
<g>
</g>
<g>
</g>
<g>
</g>
<g>
</g>
<g>
</g>
<g>
</g>
<g>
</g>
<g>
</g>
<g>
</g>
<g>
</g>
</svg>
