<?xml version="1.0" encoding="iso-8859-1"?>
<!-- Generator: Adobe Illustrator 19.0.0, SVG Export Plug-In . SVG Version: 6.00 Build 0)  -->
<svg version="1.1" id="Layer_1" xmlns="http://www.w3.org/2000/svg" xmlns:xlink="http://www.w3.org/1999/xlink" x="0px" y="0px"
	 viewBox="0 0 504.123 504.123" style="enable-background:new 0 0 504.123 504.123;" xml:space="preserve">
<linearGradient id="SVGID_1_" gradientUnits="userSpaceOnUse" x1="1.6912" y1="614.8271" x2="-19.4488" y2="593.6831" gradientTransform="matrix(7.8769 0 0 -7.8769 364.0537 4969.6694)">
	<stop  offset="0.012" style="stop-color:#E0B386"/>
	<stop  offset="0.519" style="stop-color:#DA498C"/>
	<stop  offset="1" style="stop-color:#961484"/>
</linearGradient>
<path style="fill:url(#SVGID_1_);" d="M329.539,252.062c21.417-34.682,33.335-73.563,35.478-112.963
	c-39.4,2.143-78.281,14.06-112.955,35.47c15.399,9.515,30.05,20.701,43.425,34.068S320.039,236.662,329.539,252.062z"/>
<linearGradient id="SVGID_2_" gradientUnits="userSpaceOnUse" x1="-27.6567" y1="585.479" x2="-13.5967" y2="599.535" gradientTransform="matrix(7.8769 0 0 -7.8769 364.0537 4969.6694)">
	<stop  offset="0.012" style="stop-color:#E0B386"/>
	<stop  offset="0.519" style="stop-color:#DA498C"/>
	<stop  offset="1" style="stop-color:#961484"/>
</linearGradient>
<path style="fill:url(#SVGID_2_);" d="M174.568,252.062c-21.409,34.682-33.319,73.555-35.454,112.947
	c39.392-2.135,78.265-14.045,112.947-35.462c-15.399-9.507-30.058-20.693-43.433-34.06
	C195.269,282.112,184.076,267.461,174.568,252.062z"/>
<linearGradient id="SVGID_3_" gradientUnits="userSpaceOnUse" x1="-2.3276" y1="587.0252" x2="-20.8486" y2="605.5442" gradientTransform="matrix(7.8769 0 0 -7.8769 364.0537 4969.6694)">
	<stop  offset="0.012" style="stop-color:#E0B386"/>
	<stop  offset="0.519" style="stop-color:#DA498C"/>
	<stop  offset="1" style="stop-color:#961484"/>
</linearGradient>
<path style="fill:url(#SVGID_3_);" d="M295.479,295.487c-13.359,13.359-28.01,24.56-43.418,34.06
	c34.674,21.417,73.57,33.335,112.955,35.462c-2.127-39.377-14.052-78.265-35.478-112.947
	C320.047,267.469,308.846,282.112,295.479,295.487z"/>
<linearGradient id="SVGID_4_" gradientUnits="userSpaceOnUse" x1="-33.909" y1="618.6068" x2="-5.268" y2="589.9648" gradientTransform="matrix(7.8769 0 0 -7.8769 364.0537 4969.6694)">
	<stop  offset="0.012" style="stop-color:#E0B386"/>
	<stop  offset="0.519" style="stop-color:#DA498C"/>
	<stop  offset="1" style="stop-color:#961484"/>
</linearGradient>
<path style="fill:url(#SVGID_4_);" d="M252.062,174.568c-34.69-21.409-73.57-33.327-112.955-35.47
	c2.127,39.4,14.045,78.281,35.462,112.963c9.507-15.407,20.708-30.05,34.06-43.425C222.003,195.277,236.646,184.068,252.062,174.568
	z"/>
<linearGradient id="SVGID_5_" gradientUnits="userSpaceOnUse" x1="11.2394" y1="610.6418" x2="-18.6586" y2="589.4978" gradientTransform="matrix(7.8769 0 0 -7.8769 364.0537 4969.6694)">
	<stop  offset="0.012" style="stop-color:#E0B386"/>
	<stop  offset="0.519" style="stop-color:#DA498C"/>
	<stop  offset="1" style="stop-color:#961484"/>
</linearGradient>
<path style="fill:url(#SVGID_5_);" d="M306.853,306.853c39.66-9.389,75.579-28.444,104.952-54.8
	c-29.373-26.34-65.292-45.41-104.944-54.784c4.167,17.613,6.617,35.887,6.617,54.792S311.012,289.241,306.853,306.853z"/>
<linearGradient id="SVGID_6_" gradientUnits="userSpaceOnUse" x1="-36.5639" y1="611.6782" x2="-16.6849" y2="590.5342" gradientTransform="matrix(7.8769 0 0 -7.8769 364.0537 4969.6694)">
	<stop  offset="0.012" style="stop-color:#E0B386"/>
	<stop  offset="0.519" style="stop-color:#DA498C"/>
	<stop  offset="1" style="stop-color:#961484"/>
</linearGradient>
<path style="fill:url(#SVGID_6_);" d="M197.27,197.27c-39.668,9.381-75.579,28.444-104.928,54.792
	c29.357,26.348,65.268,45.41,104.936,54.792c-4.167-17.613-6.632-35.887-6.632-54.792S193.111,214.882,197.27,197.27z"/>
<linearGradient id="SVGID_7_" gradientUnits="userSpaceOnUse" x1="0.218" y1="579.3701" x2="-48.192" y2="605.5601" gradientTransform="matrix(7.8769 0 0 -7.8769 364.0537 4969.6694)">
	<stop  offset="0.012" style="stop-color:#E0B386"/>
	<stop  offset="0.519" style="stop-color:#DA498C"/>
	<stop  offset="1" style="stop-color:#961484"/>
</linearGradient>
<path style="fill:url(#SVGID_7_);" d="M252.062,313.47c-18.905,0-37.179-2.45-54.784-6.617
	c9.381,39.66,28.444,75.595,54.792,104.936c26.34-29.349,45.403-65.276,54.784-104.936
	C289.249,311.028,270.966,313.462,252.062,313.47z"/>
<linearGradient id="SVGID_8_" gradientUnits="userSpaceOnUse" x1="3.5763" y1="624.5115" x2="-44.8337" y2="584.0035" gradientTransform="matrix(7.8769 0 0 -7.8769 364.0537 4969.6694)">
	<stop  offset="0.012" style="stop-color:#E0B386"/>
	<stop  offset="0.519" style="stop-color:#DA498C"/>
	<stop  offset="1" style="stop-color:#961484"/>
</linearGradient>
<path style="fill:url(#SVGID_8_);" d="M306.861,197.27c-9.389-39.668-28.451-75.595-54.792-104.952
	c-26.364,29.365-45.41,65.284-54.8,104.952c17.613-4.175,35.887-6.617,54.792-6.617S289.249,193.087,306.861,197.27z"/>
<linearGradient id="SVGID_9_" gradientUnits="userSpaceOnUse" x1="-14.8338" y1="619.4335" x2="41.6422" y2="619.4335" gradientTransform="matrix(7.8769 0 0 -7.8769 364.0537 4969.6694)">
	<stop  offset="0" style="stop-color:#29D3DA"/>
	<stop  offset="0.519" style="stop-color:#0077FF"/>
	<stop  offset="0.999" style="stop-color:#064093"/>
	<stop  offset="1" style="stop-color:#084698"/>
</linearGradient>
<path style="fill:url(#SVGID_9_);" d="M365.017,139.099c37.597-2.032,75.524,4.829,110.521,20.385
	c2.757-7.16,5.104-14.509,7.184-21.984c-15.139-22.457-32.571-43.811-52.429-63.677s-41.212-37.289-63.669-52.429
	c-7.483,2.072-14.84,4.427-22.008,7.176C360.188,63.567,367.041,101.502,365.017,139.099z"/>
<linearGradient id="SVGID_10_" gradientUnits="userSpaceOnUse" x1="-55.8658" y1="578.3965" x2="0.6022" y2="578.3965" gradientTransform="matrix(7.8769 0 0 -7.8769 364.0537 4969.6694)">
	<stop  offset="0" style="stop-color:#29D3DA"/>
	<stop  offset="0.519" style="stop-color:#0077FF"/>
	<stop  offset="0.999" style="stop-color:#064093"/>
	<stop  offset="1" style="stop-color:#084698"/>
</linearGradient>
<path style="fill:url(#SVGID_10_);" d="M139.114,365.009c-37.604,2.04-75.548-4.813-110.545-20.37
	c-2.757,7.168-5.096,14.517-7.168,21.992c15.139,22.457,32.571,43.811,52.429,63.669s41.22,37.297,63.677,52.429
	c7.475-2.072,14.816-4.419,21.984-7.168C143.935,440.556,137.074,402.605,139.114,365.009z"/>
<linearGradient id="SVGID_11_" gradientUnits="userSpaceOnUse" x1="-14.8278" y1="578.397" x2="41.6422" y2="578.397" gradientTransform="matrix(7.8769 0 0 -7.8769 364.0537 4969.6694)">
	<stop  offset="0" style="stop-color:#29D3DA"/>
	<stop  offset="0.519" style="stop-color:#0077FF"/>
	<stop  offset="0.999" style="stop-color:#064093"/>
	<stop  offset="1" style="stop-color:#084698"/>
</linearGradient>
<path style="fill:url(#SVGID_11_);" d="M365.017,365.009c2.024,37.612-4.813,75.555-20.378,110.545
	c7.16,2.757,14.509,5.096,21.977,7.168c22.457-15.132,43.811-32.563,63.677-52.421s37.297-41.228,52.429-63.685
	c-2.064-7.467-4.419-14.824-7.168-21.977C440.556,360.196,402.613,367.041,365.017,365.009z"/>
<linearGradient id="SVGID_12_" gradientUnits="userSpaceOnUse" x1="-55.8668" y1="619.4326" x2="0.6022" y2="619.4326" gradientTransform="matrix(7.8769 0 0 -7.8769 364.0537 4969.6694)">
	<stop  offset="0" style="stop-color:#29D3DA"/>
	<stop  offset="0.519" style="stop-color:#0077FF"/>
	<stop  offset="0.999" style="stop-color:#064093"/>
	<stop  offset="1" style="stop-color:#084698"/>
</linearGradient>
<path style="fill:url(#SVGID_12_);" d="M139.106,139.099c-2.032-37.604,4.813-75.532,20.37-110.529
	c-7.152-2.757-14.509-5.096-21.977-7.168C115.042,36.533,93.688,53.965,73.83,73.823C53.965,93.688,36.525,115.05,21.386,137.5
	c2.08,7.475,4.427,14.832,7.184,21.992C63.567,143.927,101.502,137.074,139.106,139.099z"/>
<linearGradient id="SVGID_13_" gradientUnits="userSpaceOnUse" x1="-2.2028" y1="598.915" x2="35.5522" y2="598.915" gradientTransform="matrix(7.8769 0 0 -7.8769 364.0537 4969.6694)">
	<stop  offset="0" style="stop-color:#29D3DA"/>
	<stop  offset="0.519" style="stop-color:#0077FF"/>
	<stop  offset="0.999" style="stop-color:#064093"/>
	<stop  offset="1" style="stop-color:#084698"/>
</linearGradient>
<path style="fill:url(#SVGID_13_);" d="M411.806,252.054c28.026,25.151,50.003,56.832,63.748,92.585
	c7.018-3.119,13.871-6.656,20.614-10.476c5.175-26.585,7.956-54.012,7.956-82.109s-2.773-55.509-7.94-82.085
	c-6.75-3.82-13.619-7.365-20.645-10.484C461.8,195.23,439.832,226.903,411.806,252.054z"/>
<linearGradient id="SVGID_14_" gradientUnits="userSpaceOnUse" x1="-54.4858" y1="598.9146" x2="-16.7248" y2="598.9146" gradientTransform="matrix(7.8769 0 0 -7.8769 364.0537 4969.6694)">
	<stop  offset="0" style="stop-color:#29D3DA"/>
	<stop  offset="0.519" style="stop-color:#0077FF"/>
	<stop  offset="0.999" style="stop-color:#064093"/>
	<stop  offset="1" style="stop-color:#084698"/>
</linearGradient>
<path style="fill:url(#SVGID_14_);" d="M92.341,252.062c-28.05-25.151-50.018-56.816-63.772-92.57
	c-7.018,3.119-13.879,6.656-20.614,10.468C2.773,196.545,0,223.98,0,252.069s2.773,55.524,7.956,82.101
	c6.751,3.82,13.603,7.365,20.614,10.468C42.323,308.886,64.307,277.205,92.341,252.062z"/>
<linearGradient id="SVGID_15_" gradientUnits="userSpaceOnUse" x1="-42.5468" y1="572.7761" x2="33.1652" y2="572.7761" gradientTransform="matrix(7.8769 0 0 -7.8769 364.0537 4969.6694)">
	<stop  offset="0" style="stop-color:#29D3DA"/>
	<stop  offset="0.519" style="stop-color:#0077FF"/>
	<stop  offset="0.999" style="stop-color:#064093"/>
	<stop  offset="1" style="stop-color:#084698"/>
</linearGradient>
<path style="fill:url(#SVGID_15_);" d="M252.069,411.79c-25.167,28.042-56.84,50.018-92.577,63.772
	c3.119,7.003,6.648,13.863,10.468,20.598c26.577,5.175,54.012,7.964,82.101,7.964s55.524-2.781,82.109-7.964
	c3.812-6.735,7.357-13.603,10.468-20.606C308.894,461.808,277.228,439.824,252.069,411.79z"/>
<linearGradient id="SVGID_16_" gradientUnits="userSpaceOnUse" x1="-42.5488" y1="625.0551" x2="33.1602" y2="625.0551" gradientTransform="matrix(7.8769 0 0 -7.8769 364.0537 4969.6694)">
	<stop  offset="0" style="stop-color:#29D3DA"/>
	<stop  offset="0.519" style="stop-color:#0077FF"/>
	<stop  offset="0.999" style="stop-color:#064093"/>
	<stop  offset="1" style="stop-color:#084698"/>
</linearGradient>
<path style="fill:url(#SVGID_16_);" d="M252.069,92.318c25.151-28.026,56.808-50.003,92.546-63.748
	c-3.111-7.018-6.648-13.871-10.476-20.622C307.578,2.781,280.151,0,252.069,0c-28.097,0-55.532,2.781-82.117,7.948
	c-3.82,6.751-7.357,13.619-10.476,20.622C195.23,42.315,226.911,64.291,252.069,92.318z"/>
<g>
</g>
<g>
</g>
<g>
</g>
<g>
</g>
<g>
</g>
<g>
</g>
<g>
</g>
<g>
</g>
<g>
</g>
<g>
</g>
<g>
</g>
<g>
</g>
<g>
</g>
<g>
</g>
<g>
</g>
</svg>
