<?xml version="1.0" encoding="iso-8859-1"?>
<!-- Generator: Adobe Illustrator 19.0.0, SVG Export Plug-In . SVG Version: 6.00 Build 0)  -->
<svg version="1.1" id="Layer_1" xmlns="http://www.w3.org/2000/svg" xmlns:xlink="http://www.w3.org/1999/xlink" x="0px" y="0px"
	 viewBox="0 0 504.123 504.123" style="enable-background:new 0 0 504.123 504.123;" xml:space="preserve">
<linearGradient id="SVGID_1_" gradientUnits="userSpaceOnUse" x1="-29.6418" y1="634.0773" x2="-29.6418" y2="529.7933" gradientTransform="matrix(7.8769 0 0 -7.8769 364.0493 4969.6533)">
	<stop  offset="0" style="stop-color:#29D3DA"/>
	<stop  offset="0.519" style="stop-color:#0077FF"/>
	<stop  offset="0.999" style="stop-color:#064093"/>
	<stop  offset="1" style="stop-color:#084698"/>
</linearGradient>
<path style="fill:url(#SVGID_1_);" d="M67.057,424.123c-31.051-45.025-26.632-107.189,13.438-147.235
	c40.07-40.062,102.219-44.528,147.259-13.446l33.367-33.39c-63.614-49.073-155.309-44.505-213.638,13.832
	c-58.329,58.329-62.889,150.016-13.808,213.63L67.057,424.123z"/>
<linearGradient id="SVGID_2_" gradientUnits="userSpaceOnUse" x1="1.2058" y1="634.0793" x2="1.2058" y2="529.7833" gradientTransform="matrix(7.8769 0 0 -7.8769 364.0493 4969.6533)">
	<stop  offset="0" style="stop-color:#29D3DA"/>
	<stop  offset="0.519" style="stop-color:#0077FF"/>
	<stop  offset="0.999" style="stop-color:#064093"/>
	<stop  offset="1" style="stop-color:#084698"/>
</linearGradient>
<path style="fill:url(#SVGID_2_);" d="M437.044,79.98c31.09,45.032,26.624,107.181-13.43,147.243
	c-40.062,40.07-102.242,44.528-147.251,13.446l-33.382,33.375c63.63,49.089,155.301,44.52,213.654-13.808
	c58.329-58.329,62.897-150.024,13.808-213.63L437.044,79.98z"/>
<linearGradient id="SVGCleanerId_0_2_" gradientUnits="userSpaceOnUse" x1="-21.6558" y1="560.8034" x2="-29.7398" y2="635.3854" gradientTransform="matrix(7.8769 0 0 -7.8769 364.0493 4969.6533)">
	<stop  offset="0.012" style="stop-color:#E0B386"/>
	<stop  offset="0.519" style="stop-color:#DA498C"/>
	<stop  offset="1" style="stop-color:#961484"/>
</linearGradient>
<path id="SVGCleanerId_0" style="fill:url(#SVGCleanerId_0_2_);" d="M79.983,437.049c45.032,31.067,107.181,26.64,147.243-13.446
	c40.062-40.054,44.536-102.219,13.446-147.243l33.39-33.359c49.073,63.606,44.505,155.294-13.824,213.63
	c-58.336,58.329-150.032,62.897-213.638,13.808L79.983,437.049z"/>
<linearGradient id="SVGCleanerId_1_2_" gradientUnits="userSpaceOnUse" x1="7.0118" y1="643.2263" x2="-47.3552" y2="540.3323" gradientTransform="matrix(7.8769 0 0 -7.8769 364.0493 4969.6533)">
	<stop  offset="0.012" style="stop-color:#E0B386"/>
	<stop  offset="0.519" style="stop-color:#DA498C"/>
	<stop  offset="1" style="stop-color:#961484"/>
</linearGradient>
<path id="SVGCleanerId_1" style="fill:url(#SVGCleanerId_1_2_);" d="M424.126,67.062C379.093,35.98,316.944,40.438,276.898,80.5
	c-40.078,40.07-44.536,102.235-13.454,147.251l-33.39,33.382c-49.073-63.63-44.497-155.317,13.832-213.654
	c58.321-58.321,150.016-62.897,213.622-13.824L424.126,67.062z"/>
<linearGradient id="SVGID_3_" gradientUnits="userSpaceOnUse" x1="8.4782" y1="646.5416" x2="-95.8028" y2="542.2576" gradientTransform="matrix(7.8769 0 0 -7.8769 364.0493 4969.6533)">
	<stop  offset="0" style="stop-color:#29D3DA"/>
	<stop  offset="0.519" style="stop-color:#0077FF"/>
	<stop  offset="0.999" style="stop-color:#064093"/>
	<stop  offset="1" style="stop-color:#084698"/>
</linearGradient>
<path style="fill:url(#SVGID_3_);" d="M79.983,67.062c45.032-31.067,107.181-26.632,147.243,13.446
	c40.062,40.062,44.536,102.219,13.446,147.251l33.398,33.367c49.073-63.614,44.497-155.309-13.832-213.638
	S110.215-15.409,46.608,33.664L79.983,67.062z"/>
<g>
	
		<linearGradient id="SVGCleanerId_1_3_" gradientUnits="userSpaceOnUse" x1="7.0118" y1="643.2263" x2="-47.3552" y2="540.3323" gradientTransform="matrix(7.8769 0 0 -7.8769 364.0493 4969.6533)">
		<stop  offset="0.012" style="stop-color:#E0B386"/>
		<stop  offset="0.519" style="stop-color:#DA498C"/>
		<stop  offset="1" style="stop-color:#961484"/>
	</linearGradient>
	<path id="SVGCleanerId_1_1_" style="fill:url(#SVGCleanerId_1_3_);" d="M424.126,67.062C379.093,35.98,316.944,40.438,276.898,80.5
		c-40.078,40.07-44.536,102.235-13.454,147.251l-33.39,33.382c-49.073-63.63-44.497-155.317,13.832-213.654
		c58.321-58.321,150.016-62.897,213.622-13.824L424.126,67.062z"/>
</g>
<linearGradient id="SVGID_4_" gradientUnits="userSpaceOnUse" x1="-12.0117" y1="606.9973" x2="-14.7857" y2="625.0323" gradientTransform="matrix(7.8769 0 0 -7.8769 364.0493 4969.6533)">
	<stop  offset="0.012" style="stop-color:#E0B386"/>
	<stop  offset="0.519" style="stop-color:#DA498C"/>
	<stop  offset="1" style="stop-color:#961484"/>
</linearGradient>
<path style="fill:url(#SVGID_4_);" d="M221.673,75.42c1.883,1.646,3.765,3.293,5.561,5.088c10.98,10.98,19.196,23.654,24.812,37.155
	c5.64-13.501,13.855-26.175,24.844-37.163c1.788-1.796,3.679-3.434,5.553-5.088c-6.278-9.886-13.58-19.298-22.197-27.924
	c-2.631-2.631-5.419-5.049-8.2-7.459c-2.757,2.418-5.537,4.813-8.168,7.452C235.245,56.106,227.943,65.526,221.673,75.42z"/>
<linearGradient id="SVGID_5_" gradientUnits="userSpaceOnUse" x1="33.4171" y1="621.6113" x2="-70.8819" y2="517.3273" gradientTransform="matrix(7.8769 0 0 -7.8769 364.0493 4969.6533)">
	<stop  offset="0" style="stop-color:#29D3DA"/>
	<stop  offset="0.519" style="stop-color:#0077FF"/>
	<stop  offset="0.999" style="stop-color:#064093"/>
	<stop  offset="1" style="stop-color:#084698"/>
</linearGradient>
<path style="fill:url(#SVGID_5_);" d="M424.126,437.049c-45.025,31.09-107.181,26.624-147.228-13.43
	c-40.078-40.07-44.536-102.235-13.446-147.251l-33.39-33.382c-49.081,63.63-44.505,155.309,13.824,213.654
	c58.321,58.329,150.016,62.905,213.622,13.808L424.126,437.049z"/>
<g>
	
		<linearGradient id="SVGCleanerId_0_3_" gradientUnits="userSpaceOnUse" x1="-21.6558" y1="560.8034" x2="-29.7398" y2="635.3854" gradientTransform="matrix(7.8769 0 0 -7.8769 364.0493 4969.6533)">
		<stop  offset="0.012" style="stop-color:#E0B386"/>
		<stop  offset="0.519" style="stop-color:#DA498C"/>
		<stop  offset="1" style="stop-color:#961484"/>
	</linearGradient>
	<path id="SVGCleanerId_0_1_" style="fill:url(#SVGCleanerId_0_3_);" d="M79.983,437.049
		c45.032,31.067,107.181,26.64,147.243-13.446c40.062-40.054,44.536-102.219,13.446-147.243l33.39-33.359
		c49.073,63.606,44.505,155.294-13.824,213.63c-58.336,58.329-150.032,62.897-213.638,13.808L79.983,437.049z"/>
</g>
<linearGradient id="SVGID_6_" gradientUnits="userSpaceOnUse" x1="-15.6959" y1="582.5046" x2="-13.7589" y2="574.6276" gradientTransform="matrix(7.8769 0 0 -7.8769 364.0493 4969.6533)">
	<stop  offset="0.012" style="stop-color:#E0B386"/>
	<stop  offset="0.519" style="stop-color:#DA498C"/>
	<stop  offset="1" style="stop-color:#961484"/>
</linearGradient>
<path style="fill:url(#SVGID_6_);" d="M282.459,428.7c-1.89-1.654-3.773-3.285-5.569-5.081
	c-10.996-10.988-19.204-23.662-24.844-37.163c-5.624,13.493-13.832,26.159-24.812,37.148c-1.804,1.796-3.679,3.442-5.561,5.088
	c6.27,9.893,13.58,19.314,22.205,27.939c2.631,2.631,5.419,5.041,8.168,7.452c2.788-2.418,5.569-4.829,8.2-7.459
	C268.872,447.998,276.181,438.585,282.459,428.7z"/>
<linearGradient id="SVGID_7_" gradientUnits="userSpaceOnUse" x1="-52.3219" y1="606.3514" x2="22.2531" y2="614.4344" gradientTransform="matrix(7.8769 0 0 -7.8769 364.0493 4969.6533)">
	<stop  offset="0.012" style="stop-color:#E0B386"/>
	<stop  offset="0.519" style="stop-color:#DA498C"/>
	<stop  offset="1" style="stop-color:#961484"/>
</linearGradient>
<path style="fill:url(#SVGID_7_);" d="M67.057,79.996C36.006,125.021,40.425,187.17,80.511,227.232
	c40.054,40.062,102.211,44.536,147.251,13.446l33.359,33.398c-63.614,49.073-155.294,44.497-213.63-13.832
	c-58.329-58.337-62.897-150.032-13.824-213.638L67.057,79.996z"/>
<linearGradient id="SVGID_8_" gradientUnits="userSpaceOnUse" x1="-25.5536" y1="638.8185" x2="-53.3956" y2="534.5345" gradientTransform="matrix(7.8769 0 0 -7.8769 364.0493 4969.6533)">
	<stop  offset="0" style="stop-color:#29D3DA"/>
	<stop  offset="0.519" style="stop-color:#0077FF"/>
	<stop  offset="0.999" style="stop-color:#064093"/>
	<stop  offset="1" style="stop-color:#084698"/>
</linearGradient>
<path style="fill:url(#SVGID_8_);" d="M117.65,252.06c-13.485-5.64-26.159-13.84-37.14-24.82c-1.796-1.804-3.442-3.686-5.088-5.569
	c-9.878,6.27-19.306,13.58-27.932,22.205c-2.639,2.631-5.041,5.419-7.452,8.184c2.418,2.773,4.821,5.553,7.459,8.192
	c8.617,8.625,18.046,15.919,27.916,22.197c1.654-1.883,3.293-3.773,5.088-5.569C91.483,265.9,104.157,257.692,117.65,252.06z"/>
<linearGradient id="SVGID_9_" gradientUnits="userSpaceOnUse" x1="30.0923" y1="577.6852" x2="-72.7977" y2="632.0512" gradientTransform="matrix(7.8769 0 0 -7.8769 364.0493 4969.6533)">
	<stop  offset="0.012" style="stop-color:#E0B386"/>
	<stop  offset="0.519" style="stop-color:#DA498C"/>
	<stop  offset="1" style="stop-color:#961484"/>
</linearGradient>
<path style="fill:url(#SVGID_9_);" d="M437.044,424.131c31.09-45.032,26.624-107.173-13.43-147.235
	c-40.062-40.078-102.219-44.528-147.251-13.454L242.98,230.06c63.63-49.089,155.309-44.505,213.654,13.816
	c58.329,58.329,62.905,150.016,13.808,213.63L437.044,424.131z"/>
<linearGradient id="SVGID_10_" gradientUnits="userSpaceOnUse" x1="15.553" y1="599.2711" x2="-30.216" y2="597.0411" gradientTransform="matrix(7.8769 0 0 -7.8769 364.0493 4969.6533)">
	<stop  offset="0" style="stop-color:#29D3DA"/>
	<stop  offset="0.519" style="stop-color:#0077FF"/>
	<stop  offset="0.999" style="stop-color:#064093"/>
	<stop  offset="1" style="stop-color:#084698"/>
</linearGradient>
<path style="fill:url(#SVGID_10_);" d="M456.634,243.876c-8.641-8.633-18.054-15.935-27.932-22.205
	c-1.654,1.883-3.293,3.773-5.089,5.561c-10.996,10.996-23.67,19.196-37.171,24.828c13.501,5.632,26.167,13.84,37.171,24.828
	c1.796,1.796,3.434,3.679,5.089,5.561c9.878-6.278,19.291-13.588,27.932-22.205c2.631-2.631,5.049-5.419,7.459-8.184
	C461.675,249.287,459.265,246.507,456.634,243.876z"/>
<g>
</g>
<g>
</g>
<g>
</g>
<g>
</g>
<g>
</g>
<g>
</g>
<g>
</g>
<g>
</g>
<g>
</g>
<g>
</g>
<g>
</g>
<g>
</g>
<g>
</g>
<g>
</g>
<g>
</g>
</svg>
