<?xml version="1.0" encoding="iso-8859-1"?>
<!-- Generator: Adobe Illustrator 19.0.0, SVG Export Plug-In . SVG Version: 6.00 Build 0)  -->
<svg version="1.1" id="Layer_1" xmlns="http://www.w3.org/2000/svg" xmlns:xlink="http://www.w3.org/1999/xlink" x="0px" y="0px"
	 viewBox="0 0 504.123 504.123" style="enable-background:new 0 0 504.123 504.123;" xml:space="preserve">
<linearGradient id="SVGID_1_" gradientUnits="userSpaceOnUse" x1="-30.2178" y1="574.0851" x2="-30.2178" y2="594.483" gradientTransform="matrix(7.8769 0 0 -7.8769 364.0537 4969.6694)">
	<stop  offset="0" style="stop-color:#29D3DA"/>
	<stop  offset="0.519" style="stop-color:#0077FF"/>
	<stop  offset="0.999" style="stop-color:#064093"/>
	<stop  offset="1" style="stop-color:#084698"/>
</linearGradient>
<polygon style="fill:url(#SVGID_1_);" points="252.062,106.764 251.967,106.591 83.984,106.591 0,252.062 83.984,397.533 
	251.967,397.533 252.062,397.359 168.172,252.062 "/>
<linearGradient id="SVGID_2_" gradientUnits="userSpaceOnUse" x1="-23.204" y1="628.8345" x2="-38.454" y2="583.8345" gradientTransform="matrix(7.8769 0 0 -7.8769 364.0537 4969.6694)">
	<stop  offset="0" style="stop-color:#29D3DA"/>
	<stop  offset="0.519" style="stop-color:#0077FF"/>
	<stop  offset="0.999" style="stop-color:#064093"/>
	<stop  offset="1" style="stop-color:#084698"/>
</linearGradient>
<polyline style="fill:url(#SVGID_2_);" points="168.172,252.062 252.062,106.764 251.967,106.591 83.984,106.591 0,252.062 "/>
<linearGradient id="SVGID_3_" gradientUnits="userSpaceOnUse" x1="-1.892" y1="575.136" x2="-0.556" y2="587.136" gradientTransform="matrix(7.8769 0 0 -7.8769 364.0537 4969.6694)">
	<stop  offset="0.012" style="stop-color:#E0B386"/>
	<stop  offset="0.519" style="stop-color:#DA498C"/>
	<stop  offset="1" style="stop-color:#961484"/>
</linearGradient>
<polygon style="fill:url(#SVGID_3_);" points="420.139,106.591 252.156,106.591 252.062,106.764 335.951,252.062 252.062,397.359 
	252.156,397.533 420.139,397.533 504.123,252.062 "/>
<linearGradient id="SVGID_4_" gradientUnits="userSpaceOnUse" x1="-1.5459" y1="619.9243" x2="2.7841" y2="580.5912" gradientTransform="matrix(7.8769 0 0 -7.8769 364.0537 4969.6694)">
	<stop  offset="0.012" style="stop-color:#E0B386"/>
	<stop  offset="0.519" style="stop-color:#DA498C"/>
	<stop  offset="1" style="stop-color:#961484"/>
</linearGradient>
<polyline style="fill:url(#SVGID_4_);" points="504.123,252.062 420.139,106.591 252.156,106.591 252.062,106.764 335.951,252.062 
	252.062,397.359 "/>
<g>
</g>
<g>
</g>
<g>
</g>
<g>
</g>
<g>
</g>
<g>
</g>
<g>
</g>
<g>
</g>
<g>
</g>
<g>
</g>
<g>
</g>
<g>
</g>
<g>
</g>
<g>
</g>
<g>
</g>
</svg>
