<?xml version="1.0" encoding="iso-8859-1"?>
<!-- Generator: Adobe Illustrator 19.0.0, SVG Export Plug-In . SVG Version: 6.00 Build 0)  -->
<svg version="1.1" id="Layer_1" xmlns="http://www.w3.org/2000/svg" xmlns:xlink="http://www.w3.org/1999/xlink" x="0px" y="0px"
	 viewBox="0 0 504.121 504.121" style="enable-background:new 0 0 504.121 504.121;" xml:space="preserve">
<linearGradient id="SVGID_1_" gradientUnits="userSpaceOnUse" x1="-29.6427" y1="634.0763" x2="-29.6427" y2="529.7913" gradientTransform="matrix(7.8769 0 0 -7.8769 364.054 4969.6357)">
	<stop  offset="0" style="stop-color:#29D3DA"/>
	<stop  offset="0.519" style="stop-color:#0077FF"/>
	<stop  offset="0.999" style="stop-color:#064093"/>
	<stop  offset="1" style="stop-color:#084698"/>
</linearGradient>
<path style="fill:url(#SVGID_1_);" d="M67.056,424.129C35.99,379.105,40.424,316.948,80.51,276.894
	c40.062-40.054,102.211-44.536,147.243-13.446l33.367-33.398c-63.614-49.073-155.309-44.497-213.638,13.832
	s-62.897,150.032-13.808,213.638L67.056,424.129z"/>
<linearGradient id="SVGID_2_" gradientUnits="userSpaceOnUse" x1="1.2055" y1="634.0773" x2="1.2055" y2="529.7813" gradientTransform="matrix(7.8769 0 0 -7.8769 364.054 4969.6357)">
	<stop  offset="0" style="stop-color:#29D3DA"/>
	<stop  offset="0.519" style="stop-color:#0077FF"/>
	<stop  offset="0.999" style="stop-color:#064093"/>
	<stop  offset="1" style="stop-color:#084698"/>
</linearGradient>
<path style="fill:url(#SVGID_2_);" d="M437.043,79.994c31.09,45.024,26.632,107.166-13.43,147.235
	c-40.062,40.062-102.227,44.52-147.243,13.438l-33.39,33.39c63.638,49.081,155.317,44.505,213.654-13.824
	c58.329-58.329,62.905-150.008,13.824-213.63L437.043,79.994z"/>
<linearGradient id="SVGID_3_" gradientUnits="userSpaceOnUse" x1="-21.6564" y1="560.8014" x2="-29.7404" y2="635.3864" gradientTransform="matrix(7.8769 0 0 -7.8769 364.054 4969.6357)">
	<stop  offset="0.012" style="stop-color:#E0B386"/>
	<stop  offset="0.519" style="stop-color:#DA498C"/>
	<stop  offset="1" style="stop-color:#961484"/>
</linearGradient>
<path style="fill:url(#SVGID_3_);" d="M79.99,437.063c45.024,31.067,107.181,26.632,147.243-13.454
	c40.062-40.062,44.528-102.211,13.438-147.235l33.39-33.375c49.081,63.614,44.513,155.301-13.824,213.63
	c-58.329,58.344-150.024,62.905-213.638,13.824L79.99,437.063z"/>
<linearGradient id="SVGID_4_" gradientUnits="userSpaceOnUse" x1="7.0112" y1="643.2232" x2="-47.3558" y2="540.3302" gradientTransform="matrix(7.8769 0 0 -7.8769 364.054 4969.6357)">
	<stop  offset="0.012" style="stop-color:#E0B386"/>
	<stop  offset="0.519" style="stop-color:#DA498C"/>
	<stop  offset="1" style="stop-color:#961484"/>
</linearGradient>
<path style="fill:url(#SVGID_4_);" d="M424.141,67.076c-45.04-31.082-107.181-26.624-147.243,13.43
	c-40.07,40.062-44.536,102.227-13.446,147.251l-33.39,33.382c-49.081-63.638-44.505-155.309,13.824-213.654
	c58.321-58.329,150.016-62.905,213.622-13.824L424.141,67.076z"/>
<g>
</g>
<g>
</g>
<g>
</g>
<g>
</g>
<g>
</g>
<g>
</g>
<g>
</g>
<g>
</g>
<g>
</g>
<g>
</g>
<g>
</g>
<g>
</g>
<g>
</g>
<g>
</g>
<g>
</g>
</svg>
