<?xml version="1.0" encoding="iso-8859-1"?>
<!-- Generator: Adobe Illustrator 19.0.0, SVG Export Plug-In . SVG Version: 6.00 Build 0)  -->
<svg version="1.1" id="Layer_1" xmlns="http://www.w3.org/2000/svg" xmlns:xlink="http://www.w3.org/1999/xlink" x="0px" y="0px"
	 viewBox="0 0 503.984 503.984" style="enable-background:new 0 0 503.984 503.984;" xml:space="preserve">
<linearGradient id="SVGID_1_" gradientUnits="userSpaceOnUse" x1="-14.2872" y1="633.5112" x2="-14.2872" y2="589.0042" gradientTransform="matrix(7.8769 0 0 -7.8769 364.5311 4969.04)">
	<stop  offset="0" style="stop-color:#29D3DA"/>
	<stop  offset="0.519" style="stop-color:#0077FF"/>
	<stop  offset="0.999" style="stop-color:#064093"/>
	<stop  offset="1" style="stop-color:#084698"/>
</linearGradient>
<path style="fill:url(#SVGID_1_);" d="M166.732,138.886c50.373-38.038,120.155-38.038,170.52,0l78.462-78.462
	c-94.074-80.565-233.37-80.565-327.444,0L166.732,138.886z"/>
<linearGradient id="SVGID_2_" gradientUnits="userSpaceOnUse" x1="-14.2872" y1="631.9991" x2="-14.2872" y2="612.6371" gradientTransform="matrix(7.8769 0 0 -7.8769 364.5311 4969.04)">
	<stop  offset="0" style="stop-color:#29D3DA"/>
	<stop  offset="0.519" style="stop-color:#0077FF"/>
	<stop  offset="0.999" style="stop-color:#064093"/>
	<stop  offset="1" style="stop-color:#084698"/>
</linearGradient>
<path style="fill:url(#SVGID_2_);" d="M415.714,60.424c-94.074-80.565-233.37-80.565-327.444,0"/>
<linearGradient id="SVGID_3_" gradientUnits="userSpaceOnUse" x1="7.9239" y1="576.4451" x2="11.0749" y2="666.4341" gradientTransform="matrix(7.8769 0 0 -7.8769 364.5311 4969.04)">
	<stop  offset="0.012" style="stop-color:#E0B386"/>
	<stop  offset="0.519" style="stop-color:#DA498C"/>
	<stop  offset="1" style="stop-color:#961484"/>
</linearGradient>
<path style="fill:url(#SVGID_3_);" d="M365.097,166.739c38.03,50.365,38.046,120.155,0,170.504l78.462,78.462
	c80.557-94.074,80.573-233.354,0-327.428L365.097,166.739z"/>
<linearGradient id="SVGID_4_" gradientUnits="userSpaceOnUse" x1="17.7715" y1="574.5267" x2="-4.3585" y2="664.5157" gradientTransform="matrix(7.8769 0 0 -7.8769 364.5311 4969.04)">
	<stop  offset="0.012" style="stop-color:#E0B386"/>
	<stop  offset="0.519" style="stop-color:#DA498C"/>
	<stop  offset="1" style="stop-color:#961484"/>
</linearGradient>
<path style="fill:url(#SVGID_4_);" d="M443.559,415.712c80.557-94.074,80.573-233.354,0-327.428"/>
<linearGradient id="SVGID_5_" gradientUnits="userSpaceOnUse" x1="-14.2872" y1="550.2642" x2="-14.2872" y2="595.5552" gradientTransform="matrix(7.8769 0 0 -7.8769 364.5311 4969.04)">
	<stop  offset="0" style="stop-color:#29D3DA"/>
	<stop  offset="0.519" style="stop-color:#0077FF"/>
	<stop  offset="0.999" style="stop-color:#064093"/>
	<stop  offset="1" style="stop-color:#084698"/>
</linearGradient>
<path style="fill:url(#SVGID_5_);" d="M337.252,365.095c-50.357,38.046-120.155,38.038-170.504,0L88.27,443.557
	c94.074,80.573,233.37,80.565,327.444,0L337.252,365.095z"/>
<linearGradient id="SVGID_6_" gradientUnits="userSpaceOnUse" x1="-14.2872" y1="559.6342" x2="-14.2872" y2="579.3442" gradientTransform="matrix(7.8769 0 0 -7.8769 364.5311 4969.04)">
	<stop  offset="0" style="stop-color:#29D3DA"/>
	<stop  offset="0.519" style="stop-color:#0077FF"/>
	<stop  offset="0.999" style="stop-color:#064093"/>
	<stop  offset="1" style="stop-color:#084698"/>
</linearGradient>
<path style="fill:url(#SVGID_6_);" d="M88.27,443.557c94.074,80.573,233.37,80.565,327.444,0"/>
<linearGradient id="SVGID_7_" gradientUnits="userSpaceOnUse" x1="-38.0701" y1="576.3521" x2="-34.9191" y2="666.3431" gradientTransform="matrix(7.8769 0 0 -7.8769 364.5311 4969.04)">
	<stop  offset="0.012" style="stop-color:#E0B386"/>
	<stop  offset="0.519" style="stop-color:#DA498C"/>
	<stop  offset="1" style="stop-color:#961484"/>
</linearGradient>
<path style="fill:url(#SVGID_7_);" d="M138.887,337.25c-38.03-50.365-38.03-120.155,0-170.504l-78.462-78.47
	c-80.557,94.066-80.573,233.354,0,327.428L138.887,337.25z"/>
<linearGradient id="SVGID_8_" gradientUnits="userSpaceOnUse" x1="-47.8624" y1="574.4468" x2="-18.4204" y2="664.4359" gradientTransform="matrix(7.8769 0 0 -7.8769 364.5311 4969.04)">
	<stop  offset="0.012" style="stop-color:#E0B386"/>
	<stop  offset="0.519" style="stop-color:#DA498C"/>
	<stop  offset="1" style="stop-color:#961484"/>
</linearGradient>
<path style="fill:url(#SVGID_8_);" d="M60.425,88.277c-80.557,94.066-80.573,233.354,0,327.428"/>
<g>
</g>
<g>
</g>
<g>
</g>
<g>
</g>
<g>
</g>
<g>
</g>
<g>
</g>
<g>
</g>
<g>
</g>
<g>
</g>
<g>
</g>
<g>
</g>
<g>
</g>
<g>
</g>
<g>
</g>
</svg>
