<?xml version="1.0" encoding="iso-8859-1"?>
<!-- Generator: Adobe Illustrator 19.0.0, SVG Export Plug-In . SVG Version: 6.00 Build 0)  -->
<svg version="1.1" id="Layer_1" xmlns="http://www.w3.org/2000/svg" xmlns:xlink="http://www.w3.org/1999/xlink" x="0px" y="0px"
	 viewBox="0 0 504.123 504.123" style="enable-background:new 0 0 504.123 504.123;" xml:space="preserve">
<linearGradient id="SVGID_1_" gradientUnits="userSpaceOnUse" x1="-15.0931" y1="643.303" x2="-17.1361" y2="609.928" gradientTransform="matrix(7.8769 0 0 -7.8769 364.0537 4969.6694)">
	<stop  offset="0" style="stop-color:#29D3DA"/>
	<stop  offset="0.519" style="stop-color:#0077FF"/>
	<stop  offset="0.999" style="stop-color:#064093"/>
	<stop  offset="1" style="stop-color:#084698"/>
</linearGradient>
<path style="fill:url(#SVGID_1_);" d="M248.525,170.378c0,0-58.258-47.128,1.142-89.844C309.083,37.817,287.972,11.792,271.281,0
	c0,0,11.957,28.971-42.228,41.574c-49.601,11.54-82.983,89.198,19.157,129.134L248.525,170.378z"/>
<linearGradient id="SVGID_2_" gradientUnits="userSpaceOnUse" x1="-18.7191" y1="624.4377" x2="-7.2481" y2="611.0967" gradientTransform="matrix(7.8769 0 0 -7.8769 364.0537 4969.6694)">
	<stop  offset="0" style="stop-color:#29D3DA"/>
	<stop  offset="0.519" style="stop-color:#0077FF"/>
	<stop  offset="0.999" style="stop-color:#064093"/>
	<stop  offset="1" style="stop-color:#084698"/>
</linearGradient>
<path style="fill:url(#SVGID_2_);" d="M229.045,41.574c-44.631,10.382-76.123,74.342-7.507,116.129
	c-14.446-15.195-43.158-54.949,8.003-91.727c34.525-24.82,44.142-44.473,42.843-59.376
	C272.494,15.919,266.988,32.744,229.045,41.574z"/>
<linearGradient id="SVGID_3_" gradientUnits="userSpaceOnUse" x1="-13.3441" y1="554.5281" x2="-11.3011" y2="587.9001" gradientTransform="matrix(7.8769 0 0 -7.8769 364.0537 4969.6694)">
	<stop  offset="0" style="stop-color:#29D3DA"/>
	<stop  offset="0.519" style="stop-color:#0077FF"/>
	<stop  offset="0.999" style="stop-color:#064093"/>
	<stop  offset="1" style="stop-color:#084698"/>
</linearGradient>
<path style="fill:url(#SVGID_3_);" d="M255.567,333.761c0,0,58.273,47.12-1.142,89.844c-59.392,42.709-38.29,68.734-21.591,80.518
	c0,0-11.957-28.956,42.228-41.559c49.601-11.532,82.968-89.206-19.157-129.142L255.567,333.761z"/>
<linearGradient id="SVGID_4_" gradientUnits="userSpaceOnUse" x1="-9.7205" y1="573.3936" x2="-21.1915" y2="586.7305" gradientTransform="matrix(7.8769 0 0 -7.8769 364.0537 4969.6694)">
	<stop  offset="0" style="stop-color:#29D3DA"/>
	<stop  offset="0.519" style="stop-color:#0077FF"/>
	<stop  offset="0.999" style="stop-color:#064093"/>
	<stop  offset="1" style="stop-color:#084698"/>
</linearGradient>
<path style="fill:url(#SVGID_4_);" d="M275.062,462.564c44.631-10.39,76.123-74.342,7.491-116.129
	c14.462,15.202,43.166,54.949-7.971,91.719c-34.54,24.828-44.15,44.473-42.858,59.376
	C231.613,488.22,237.127,471.394,275.062,462.564z"/>
<linearGradient id="SVGID_5_" gradientUnits="userSpaceOnUse" x1="16.583" y1="630.9063" x2="-8.547" y2="608.6772" gradientTransform="matrix(7.8769 0 0 -7.8769 364.0537 4969.6694)">
	<stop  offset="0" style="stop-color:#29D3DA"/>
	<stop  offset="0.519" style="stop-color:#0077FF"/>
	<stop  offset="0.999" style="stop-color:#064093"/>
	<stop  offset="1" style="stop-color:#084698"/>
</linearGradient>
<path style="fill:url(#SVGID_5_);" d="M307.326,192.985c0,0-7.877-75.114,64.339-63.315c72.216,11.8,75.674-21.827,72.216-41.945
	c0,0-12.028,29.365-59.242-0.032c-43.236-26.915-121.761,2.891-77.792,105.291H307.326z"/>
<linearGradient id="SVGID_6_" gradientUnits="userSpaceOnUse" x1="0.6459" y1="620.1448" x2="-0.6741" y2="602.6008" gradientTransform="matrix(7.8769 0 0 -7.8769 364.0537 4969.6694)">
	<stop  offset="0" style="stop-color:#29D3DA"/>
	<stop  offset="0.519" style="stop-color:#0077FF"/>
	<stop  offset="0.999" style="stop-color:#064093"/>
	<stop  offset="1" style="stop-color:#084698"/>
</linearGradient>
<path style="fill:url(#SVGID_6_);" d="M384.63,86.961c-38.904-24.222-106.401-1.268-87.434,76.808
	c0.52-20.96,8.342-69.372,70.506-59.203c41.968,6.853,62.661-0.236,72.294-11.689C433.491,99.533,417.69,107.536,384.63,86.961z"/>
<linearGradient id="SVGID_7_" gradientUnits="userSpaceOnUse" x1="-45.0211" y1="566.9232" x2="-19.8901" y2="589.1532" gradientTransform="matrix(7.8769 0 0 -7.8769 364.0537 4969.6694)">
	<stop  offset="0" style="stop-color:#29D3DA"/>
	<stop  offset="0.519" style="stop-color:#0077FF"/>
	<stop  offset="0.999" style="stop-color:#064093"/>
	<stop  offset="1" style="stop-color:#084698"/>
</linearGradient>
<path style="fill:url(#SVGID_7_);" d="M196.766,311.138c0,0,7.893,75.122-64.339,63.315c-72.2-11.807-75.658,21.827-72.2,41.96
	c0,0,12.028-29.373,59.242,0.024c43.236,26.915,121.761-2.899,77.792-105.299H196.766z"/>
<linearGradient id="SVGID_8_" gradientUnits="userSpaceOnUse" x1="-29.0835" y1="577.687" x2="-27.7615" y2="595.235" gradientTransform="matrix(7.8769 0 0 -7.8769 364.0537 4969.6694)">
	<stop  offset="0" style="stop-color:#29D3DA"/>
	<stop  offset="0.519" style="stop-color:#0077FF"/>
	<stop  offset="0.999" style="stop-color:#064093"/>
	<stop  offset="1" style="stop-color:#084698"/>
</linearGradient>
<path style="fill:url(#SVGID_8_);" d="M119.477,417.178c38.904,24.214,106.401,1.268,87.434-76.808
	c-0.52,20.96-8.342,69.372-70.506,59.203c-41.968-6.853-62.661,0.228-72.294,11.697C70.617,404.598,86.402,396.603,119.477,417.178z
	"/>
<linearGradient id="SVGID_9_" gradientUnits="userSpaceOnUse" x1="30.1722" y1="599.7888" x2="-3.2038" y2="601.8318" gradientTransform="matrix(7.8769 0 0 -7.8769 364.0537 4969.6694)">
	<stop  offset="0" style="stop-color:#29D3DA"/>
	<stop  offset="0.519" style="stop-color:#0077FF"/>
	<stop  offset="0.999" style="stop-color:#064093"/>
	<stop  offset="1" style="stop-color:#084698"/>
</linearGradient>
<path style="fill:url(#SVGID_9_);" d="M333.737,248.548c0,0,47.135-58.273,89.844,1.134c42.724,59.4,68.758,38.298,80.542,21.606
	c0,0-28.971,11.957-41.582-42.22c-11.524-49.601-89.198-82.976-129.126,19.149L333.737,248.548z"/>
<linearGradient id="SVGID_10_" gradientUnits="userSpaceOnUse" x1="11.3033" y1="603.4138" x2="-2.0377" y2="591.9418" gradientTransform="matrix(7.8769 0 0 -7.8769 364.0537 4969.6694)">
	<stop  offset="0" style="stop-color:#29D3DA"/>
	<stop  offset="0.519" style="stop-color:#0077FF"/>
	<stop  offset="0.999" style="stop-color:#064093"/>
	<stop  offset="1" style="stop-color:#084698"/>
</linearGradient>
<path style="fill:url(#SVGID_10_);" d="M462.541,229.061c-10.382-44.639-74.342-76.13-116.122-7.499
	c15.202-14.454,54.957-43.158,91.727,8.003c24.812,34.517,44.473,44.142,59.368,42.835
	C488.204,272.51,471.387,266.996,462.541,229.061z"/>
<linearGradient id="SVGID_11_" gradientUnits="userSpaceOnUse" x1="-58.6068" y1="598.0389" x2="-25.2328" y2="595.9959" gradientTransform="matrix(7.8769 0 0 -7.8769 364.0537 4969.6694)">
	<stop  offset="0" style="stop-color:#29D3DA"/>
	<stop  offset="0.519" style="stop-color:#0077FF"/>
	<stop  offset="0.999" style="stop-color:#064093"/>
	<stop  offset="1" style="stop-color:#084698"/>
</linearGradient>
<path style="fill:url(#SVGID_11_);" d="M170.354,255.59c0,0-47.12,58.273-89.844-1.142c-42.709-59.4-68.726-38.29-80.51-21.591
	c0,0,28.956-11.957,41.551,42.22c11.54,49.601,89.214,82.976,129.142-19.149L170.354,255.59z"/>
<linearGradient id="SVGID_12_" gradientUnits="userSpaceOnUse" x1="-39.7421" y1="594.4142" x2="-26.4001" y2="605.8853" gradientTransform="matrix(7.8769 0 0 -7.8769 364.0537 4969.6694)">
	<stop  offset="0" style="stop-color:#29D3DA"/>
	<stop  offset="0.519" style="stop-color:#0077FF"/>
	<stop  offset="0.999" style="stop-color:#064093"/>
	<stop  offset="1" style="stop-color:#084698"/>
</linearGradient>
<path style="fill:url(#SVGID_12_);" d="M41.551,275.078c10.382,44.631,74.342,76.138,116.137,7.499
	c-15.202,14.454-54.957,43.158-91.727-7.979c-24.828-34.54-44.473-44.15-59.384-42.85C15.896,231.629,32.721,237.135,41.551,275.078
	z"/>
<linearGradient id="SVGID_13_" gradientUnits="userSpaceOnUse" x1="17.7749" y1="568.1174" x2="-4.4551" y2="593.2374" gradientTransform="matrix(7.8769 0 0 -7.8769 364.0537 4969.6694)">
	<stop  offset="0" style="stop-color:#29D3DA"/>
	<stop  offset="0.519" style="stop-color:#0077FF"/>
	<stop  offset="0.999" style="stop-color:#064093"/>
	<stop  offset="1" style="stop-color:#084698"/>
</linearGradient>
<path style="fill:url(#SVGID_13_);" d="M311.138,307.334c0,0,75.106-7.869,63.307,64.339c-11.8,72.216,21.827,75.681,41.952,72.216
	c0,0-29.365-12.02,0.024-59.242c26.923-43.229-2.883-121.761-105.283-77.785V307.334z"/>
<linearGradient id="SVGID_14_" gradientUnits="userSpaceOnUse" x1="7.0095" y1="584.0484" x2="-10.5375" y2="585.3784" gradientTransform="matrix(7.8769 0 0 -7.8769 364.0537 4969.6694)">
	<stop  offset="0" style="stop-color:#29D3DA"/>
	<stop  offset="0.519" style="stop-color:#0077FF"/>
	<stop  offset="0.999" style="stop-color:#064093"/>
	<stop  offset="1" style="stop-color:#084698"/>
</linearGradient>
<path style="fill:url(#SVGID_14_);" d="M417.154,384.638c24.229-38.896,1.276-106.409-76.8-87.426
	c20.953,0.52,69.372,8.35,59.187,70.522c-6.845,41.953,0.244,62.661,11.705,72.271C404.582,433.506,396.587,417.721,417.154,384.638
	z"/>
<linearGradient id="SVGID_15_" gradientUnits="userSpaceOnUse" x1="-46.2236" y1="629.6812" x2="-24.0706" y2="604.6392" gradientTransform="matrix(7.8769 0 0 -7.8769 364.0537 4969.6694)">
	<stop  offset="0" style="stop-color:#29D3DA"/>
	<stop  offset="0.519" style="stop-color:#0077FF"/>
	<stop  offset="0.999" style="stop-color:#064093"/>
	<stop  offset="1" style="stop-color:#084698"/>
</linearGradient>
<path style="fill:url(#SVGID_15_);" d="M191.787,196.789c0,0-74.524,7.885-62.724-64.347c11.815-72.192-21.52-75.658-41.645-72.192
	c0,0,28.924,12.02-0.48,59.25c-26.908,43.213,4.403,121.746,104.858,77.769L191.787,196.789z"/>
<linearGradient id="SVGID_16_" gradientUnits="userSpaceOnUse" x1="-35.4498" y1="613.7792" x2="-17.9048" y2="612.4573" gradientTransform="matrix(7.8769 0 0 -7.8769 364.0537 4969.6694)">
	<stop  offset="0" style="stop-color:#29D3DA"/>
	<stop  offset="0.519" style="stop-color:#0077FF"/>
	<stop  offset="0.999" style="stop-color:#064093"/>
	<stop  offset="1" style="stop-color:#084698"/>
</linearGradient>
<path style="fill:url(#SVGID_16_);" d="M86.938,119.509c-24.214,38.896-1.276,106.394,76.816,87.41
	c-20.968-0.512-69.372-8.342-59.219-70.498c6.861-41.968-0.213-62.661-11.674-72.294C99.509,70.632,107.504,86.418,86.938,119.509z"
	/>
<linearGradient id="SVGID_17_" gradientUnits="userSpaceOnUse" x1="-37.17" y1="636.9199" x2="-22.253" y2="606.9969" gradientTransform="matrix(7.8769 0 0 -7.8769 364.0537 4969.6694)">
	<stop  offset="0" style="stop-color:#29D3DA"/>
	<stop  offset="0.519" style="stop-color:#0077FF"/>
	<stop  offset="0.999" style="stop-color:#064093"/>
	<stop  offset="1" style="stop-color:#084698"/>
</linearGradient>
<path style="fill:url(#SVGID_17_);" d="M208.171,183.083c0,0-74.027-11.681-43.953-78.383c30.106-66.694-1.197-78.675-21.536-80.542
	c0,0,24.828,19.117-15.785,57.116c-37.187,34.792-27.262,118.745,81.14,102.258L208.171,183.083z"/>
<linearGradient id="SVGID_18_" gradientUnits="userSpaceOnUse" x1="-30.878" y1="618.7681" x2="-14.275" y2="612.9501" gradientTransform="matrix(7.8769 0 0 -7.8769 364.0537 4969.6694)">
	<stop  offset="0" style="stop-color:#29D3DA"/>
	<stop  offset="0.519" style="stop-color:#0077FF"/>
	<stop  offset="0.999" style="stop-color:#064093"/>
	<stop  offset="1" style="stop-color:#084698"/>
</linearGradient>
<path style="fill:url(#SVGID_18_);" d="M126.889,81.274c-33.461,31.327-28.767,102.447,51.554,104.33
	c-20.11-5.939-64.843-26.017-38.936-83.44c17.495-38.754,15.982-60.581,7.428-72.838C151.678,37.329,155.341,54.658,126.889,81.274z
	"/>
<linearGradient id="SVGID_19_" gradientUnits="userSpaceOnUse" x1="8.7326" y1="560.9052" x2="-6.1834" y2="590.8342" gradientTransform="matrix(7.8769 0 0 -7.8769 364.0537 4969.6694)">
	<stop  offset="0" style="stop-color:#29D3DA"/>
	<stop  offset="0.519" style="stop-color:#0077FF"/>
	<stop  offset="0.999" style="stop-color:#064093"/>
	<stop  offset="1" style="stop-color:#084698"/>
</linearGradient>
<path style="fill:url(#SVGID_19_);" d="M295.952,321.056c0,0,74.027,11.674,43.922,78.383c-30.09,66.694,1.213,78.659,21.567,80.534
	c0,0-24.828-19.109,15.785-57.116c37.187-34.777,27.262-118.745-81.156-102.25L295.952,321.056z"/>
<linearGradient id="SVGID_20_" gradientUnits="userSpaceOnUse" x1="2.4409" y1="579.0612" x2="-14.1671" y2="584.8762" gradientTransform="matrix(7.8769 0 0 -7.8769 364.0537 4969.6694)">
	<stop  offset="0" style="stop-color:#29D3DA"/>
	<stop  offset="0.519" style="stop-color:#0077FF"/>
	<stop  offset="0.999" style="stop-color:#064093"/>
	<stop  offset="1" style="stop-color:#084698"/>
</linearGradient>
<path style="fill:url(#SVGID_20_);" d="M377.234,422.857c33.461-31.319,28.767-102.439-51.586-104.322
	c20.141,5.939,64.859,26.017,38.951,83.424c-17.495,38.77-15.998,60.597-7.412,72.854
	C352.429,466.81,348.782,449.473,377.234,422.857z"/>
<linearGradient id="SVGID_21_" gradientUnits="userSpaceOnUse" x1="-3.5765" y1="642.0156" x2="-14.1865" y2="610.3046" gradientTransform="matrix(7.8769 0 0 -7.8769 364.0537 4969.6694)">
	<stop  offset="0" style="stop-color:#29D3DA"/>
	<stop  offset="0.519" style="stop-color:#0077FF"/>
	<stop  offset="0.999" style="stop-color:#064093"/>
	<stop  offset="1" style="stop-color:#084698"/>
</linearGradient>
<path style="fill:url(#SVGID_21_);" d="M269.785,172.253c0,0-44.063-60.605,24.355-86.496
	c68.458-25.884,54.784-56.485,41.724-72.184c0,0,4.064,31.067-51.554,29.223c-50.877-1.701-103.243,64.701-14.927,129.701
	L269.785,172.253z"/>
<linearGradient id="SVGID_22_" gradientUnits="userSpaceOnUse" x1="-11.9586" y1="624.7351" x2="-4.3356" y2="608.8791" gradientTransform="matrix(7.8769 0 0 -7.8769 364.0537 4969.6694)">
	<stop  offset="0" style="stop-color:#29D3DA"/>
	<stop  offset="0.519" style="stop-color:#0077FF"/>
	<stop  offset="0.999" style="stop-color:#064093"/>
	<stop  offset="1" style="stop-color:#084698"/>
</linearGradient>
<path style="fill:url(#SVGID_22_);" d="M284.31,42.795c-45.796-1.52-92.767,52.106-37.289,110.23
	c-10.012-18.424-27.459-64.244,31.445-86.52c39.771-15.037,54.17-31.539,56.769-46.277C332.91,29.247,323.245,44.079,284.31,42.795z
	"/>
<linearGradient id="SVGID_23_" gradientUnits="userSpaceOnUse" x1="-24.8627" y1="555.814" x2="-14.2517" y2="587.5211" gradientTransform="matrix(7.8769 0 0 -7.8769 364.0537 4969.6694)">
	<stop  offset="0" style="stop-color:#29D3DA"/>
	<stop  offset="0.519" style="stop-color:#0077FF"/>
	<stop  offset="0.999" style="stop-color:#064093"/>
	<stop  offset="1" style="stop-color:#084698"/>
</linearGradient>
<path style="fill:url(#SVGID_23_);" d="M234.307,331.894c0,0,44.095,60.597-24.371,86.489
	c-68.419,25.868-54.768,56.47-41.693,72.176c0,0-4.049-31.059,51.554-29.223c50.893,1.701,103.227-64.693,14.927-129.694
	L234.307,331.894z"/>
<linearGradient id="SVGID_24_" gradientUnits="userSpaceOnUse" x1="-16.4771" y1="573.0954" x2="-24.1031" y2="588.9464" gradientTransform="matrix(7.8769 0 0 -7.8769 364.0537 4969.6694)">
	<stop  offset="0" style="stop-color:#29D3DA"/>
	<stop  offset="0.519" style="stop-color:#0077FF"/>
	<stop  offset="0.999" style="stop-color:#064093"/>
	<stop  offset="1" style="stop-color:#084698"/>
</linearGradient>
<path style="fill:url(#SVGID_24_);" d="M219.798,461.336c45.796,1.512,92.782-52.09,37.305-110.222
	c10.012,18.416,27.459,64.244-31.46,86.52c-39.771,15.045-54.154,31.531-56.753,46.277
	C171.181,474.884,180.878,460.06,219.798,461.336z"/>
<linearGradient id="SVGID_25_" gradientUnits="userSpaceOnUse" x1="23.7834" y1="621.8657" x2="-6.1366" y2="606.9477" gradientTransform="matrix(7.8769 0 0 -7.8769 364.0537 4969.6694)">
	<stop  offset="0" style="stop-color:#29D3DA"/>
	<stop  offset="0.519" style="stop-color:#0077FF"/>
	<stop  offset="0.999" style="stop-color:#064093"/>
	<stop  offset="1" style="stop-color:#084698"/>
</linearGradient>
<path style="fill:url(#SVGID_25_);" d="M321.032,208.187c0,0,11.689-74.035,78.383-43.945c66.71,30.082,78.675-1.205,80.542-21.559
	c0,0-19.109,24.836-57.108-15.77c-34.769-37.203-118.752-27.262-102.258,81.14L321.032,208.187z"/>
<linearGradient id="SVGID_26_" gradientUnits="userSpaceOnUse" x1="5.6342" y1="615.5714" x2="-0.1798" y2="598.9684" gradientTransform="matrix(7.8769 0 0 -7.8769 364.0537 4969.6694)">
	<stop  offset="0" style="stop-color:#29D3DA"/>
	<stop  offset="0.519" style="stop-color:#0077FF"/>
	<stop  offset="0.999" style="stop-color:#064093"/>
	<stop  offset="1" style="stop-color:#084698"/>
</linearGradient>
<path style="fill:url(#SVGID_26_);" d="M422.849,126.905c-31.311-33.469-102.463-28.767-104.322,51.562
	c5.923-20.118,26.017-64.851,83.432-38.936c38.77,17.479,60.581,15.99,72.846,7.412
	C466.786,151.694,449.465,155.341,422.849,126.905z"/>
<linearGradient id="SVGID_27_" gradientUnits="userSpaceOnUse" x1="-52.2216" y1="575.9648" x2="-22.2976" y2="590.8798" gradientTransform="matrix(7.8769 0 0 -7.8769 364.0537 4969.6694)">
	<stop  offset="0" style="stop-color:#29D3DA"/>
	<stop  offset="0.519" style="stop-color:#0077FF"/>
	<stop  offset="0.999" style="stop-color:#064093"/>
	<stop  offset="1" style="stop-color:#084698"/>
</linearGradient>
<path style="fill:url(#SVGID_27_);" d="M183.06,295.975c0,0-11.658,74.019-78.368,43.93c-66.71-30.106-78.675,1.197-80.526,21.543
	c0,0,19.094-24.82,57.092,15.793c34.785,37.187,118.752,27.262,102.274-81.164L183.06,295.975z"/>
<linearGradient id="SVGID_28_" gradientUnits="userSpaceOnUse" x1="-34.0725" y1="582.255" x2="-28.2545" y2="598.861" gradientTransform="matrix(7.8769 0 0 -7.8769 364.0537 4969.6694)">
	<stop  offset="0" style="stop-color:#29D3DA"/>
	<stop  offset="0.519" style="stop-color:#0077FF"/>
	<stop  offset="0.999" style="stop-color:#064093"/>
	<stop  offset="1" style="stop-color:#084698"/>
</linearGradient>
<path style="fill:url(#SVGID_28_);" d="M81.258,377.25c31.327,33.445,102.432,28.767,104.338-51.57
	c-5.955,20.126-26.033,64.851-83.432,38.944c-38.77-17.495-60.581-16.014-72.862-7.42C37.305,352.445,54.65,348.806,81.258,377.25z"
	/>
<linearGradient id="SVGID_29_" gradientUnits="userSpaceOnUse" x1="28.8814" y1="588.2726" x2="-2.8246" y2="598.8816" gradientTransform="matrix(7.8769 0 0 -7.8769 364.0537 4969.6694)">
	<stop  offset="0" style="stop-color:#29D3DA"/>
	<stop  offset="0.519" style="stop-color:#0077FF"/>
	<stop  offset="0.999" style="stop-color:#064093"/>
	<stop  offset="1" style="stop-color:#084698"/>
</linearGradient>
<path style="fill:url(#SVGID_29_);" d="M331.878,269.8c0,0,60.597-44.079,86.465,24.363c25.907,68.435,56.509,54.776,72.2,41.708
	c0,0-31.059,4.041-29.216-51.547c1.709-50.893-64.677-103.235-129.694-14.927L331.878,269.8z"/>
<linearGradient id="SVGID_30_" gradientUnits="userSpaceOnUse" x1="11.6015" y1="596.6576" x2="-4.2545" y2="589.0266" gradientTransform="matrix(7.8769 0 0 -7.8769 364.0537 4969.6694)">
	<stop  offset="0" style="stop-color:#29D3DA"/>
	<stop  offset="0.519" style="stop-color:#0077FF"/>
	<stop  offset="0.999" style="stop-color:#064093"/>
	<stop  offset="1" style="stop-color:#084698"/>
</linearGradient>
<path style="fill:url(#SVGID_30_);" d="M461.32,284.325c1.52-45.796-52.106-92.782-110.23-37.305
	c18.416-10.012,64.244-27.451,86.52,31.484c15.061,39.755,31.539,54.146,46.277,56.73C474.86,332.942,460.06,323.261,461.32,284.325
	z"/>
<linearGradient id="SVGID_31_" gradientUnits="userSpaceOnUse" x1="-57.3194" y1="609.556" x2="-25.6074" y2="598.9451" gradientTransform="matrix(7.8769 0 0 -7.8769 364.0537 4969.6694)">
	<stop  offset="0" style="stop-color:#29D3DA"/>
	<stop  offset="0.519" style="stop-color:#0077FF"/>
	<stop  offset="0.999" style="stop-color:#064093"/>
	<stop  offset="1" style="stop-color:#084698"/>
</linearGradient>
<path style="fill:url(#SVGID_31_);" d="M172.229,234.331c0,0-60.581,44.087-86.489-24.371
	c-25.876-68.427-56.478-54.752-72.168-41.685c0,0,31.043-4.057,29.2,51.539c-1.694,50.893,64.709,103.235,129.709,14.935
	L172.229,234.331z"/>
<linearGradient id="SVGID_32_" gradientUnits="userSpaceOnUse" x1="-40.0373" y1="601.1742" x2="-24.1823" y2="608.7972" gradientTransform="matrix(7.8769 0 0 -7.8769 364.0537 4969.6694)">
	<stop  offset="0" style="stop-color:#29D3DA"/>
	<stop  offset="0.519" style="stop-color:#0077FF"/>
	<stop  offset="0.999" style="stop-color:#064093"/>
	<stop  offset="1" style="stop-color:#084698"/>
</linearGradient>
<path style="fill:url(#SVGID_32_);" d="M42.772,219.813c-1.52,45.789,52.106,92.782,110.23,37.297
	c-18.416,10.043-64.244,27.459-86.52-31.445c-15.029-39.786-31.523-54.162-46.261-56.769
	C29.231,171.205,44.064,180.878,42.772,219.813z"/>
<linearGradient id="SVGID_33_" gradientUnits="userSpaceOnUse" x1="-53.097" y1="620.3531" x2="-25.217" y2="601.8931" gradientTransform="matrix(7.8769 0 0 -7.8769 364.0537 4969.6694)">
	<stop  offset="0" style="stop-color:#29D3DA"/>
	<stop  offset="0.519" style="stop-color:#0077FF"/>
	<stop  offset="0.999" style="stop-color:#064093"/>
	<stop  offset="1" style="stop-color:#084698"/>
</linearGradient>
<path style="fill:url(#SVGID_33_);" d="M179.554,214.276c0,0-69.971,26.884-77.265-45.915
	c-7.278-72.806-40.369-67.529-58.912-58.975c0,0,31.059,4.135,14.88,57.352c-14.816,48.727,35.785,116.468,121.399,48.002
	L179.554,214.276z"/>
<linearGradient id="SVGID_34_" gradientUnits="userSpaceOnUse" x1="-38.5725" y1="607.7784" x2="-21.2855" y2="611.0414" gradientTransform="matrix(7.8769 0 0 -7.8769 364.0537 4969.6694)">
	<stop  offset="0" style="stop-color:#29D3DA"/>
	<stop  offset="0.519" style="stop-color:#0077FF"/>
	<stop  offset="0.999" style="stop-color:#064093"/>
	<stop  offset="1" style="stop-color:#084698"/>
</linearGradient>
<path style="fill:url(#SVGID_34_);" d="M58.258,166.739c-13.304,43.851,26.309,103.109,96.815,64.567
	c-20.385,4.915-69.152,9.893-75.429-52.783c-4.23-42.307-16.447-60.455-30.003-66.788C57.754,116.295,69.601,129.473,58.258,166.739
	z"/>
<linearGradient id="SVGID_35_" gradientUnits="userSpaceOnUse" x1="24.6628" y1="577.4769" x2="-3.2222" y2="595.9339" gradientTransform="matrix(7.8769 0 0 -7.8769 364.0537 4969.6694)">
	<stop  offset="0" style="stop-color:#29D3DA"/>
	<stop  offset="0.519" style="stop-color:#0077FF"/>
	<stop  offset="0.999" style="stop-color:#064093"/>
	<stop  offset="1" style="stop-color:#084698"/>
</linearGradient>
<path style="fill:url(#SVGID_35_);" d="M324.584,289.863c0,0,69.939-26.9,77.217,45.915c7.278,72.814,40.385,67.521,58.935,58.967
	c0,0-31.059-4.135-14.88-57.352c14.801-48.719-35.769-116.468-121.415-47.994L324.584,289.863z"/>
<linearGradient id="SVGID_36_" gradientUnits="userSpaceOnUse" x1="10.1369" y1="590.0514" x2="-7.1531" y2="586.7834" gradientTransform="matrix(7.8769 0 0 -7.8769 364.0537 4969.6694)">
	<stop  offset="0" style="stop-color:#29D3DA"/>
	<stop  offset="0.519" style="stop-color:#0077FF"/>
	<stop  offset="0.999" style="stop-color:#064093"/>
	<stop  offset="1" style="stop-color:#084698"/>
</linearGradient>
<path style="fill:url(#SVGID_36_);" d="M445.865,337.392c13.304-43.851-26.309-103.101-96.831-64.559
	c20.385-4.923,69.167-9.901,75.429,52.76c4.246,42.323,16.447,60.487,30.003,66.804
	C446.338,387.844,434.523,374.658,445.865,337.392z"/>
<linearGradient id="SVGID_37_" gradientUnits="userSpaceOnUse" x1="-26.5492" y1="641.5668" x2="-19.8862" y2="608.7968" gradientTransform="matrix(7.8769 0 0 -7.8769 364.0537 4969.6694)">
	<stop  offset="0" style="stop-color:#29D3DA"/>
	<stop  offset="0.519" style="stop-color:#0077FF"/>
	<stop  offset="0.999" style="stop-color:#064093"/>
	<stop  offset="1" style="stop-color:#084698"/>
</linearGradient>
<path style="fill:url(#SVGID_37_);" d="M227.525,174.08c0,0-68.49-30.444-22.166-87.087c46.34-56.643,19.204-76.312,0.047-83.385
	c0,0,19.031,24.891-30.043,51.09c-44.906,23.969-57.06,107.654,51.94,119.784L227.525,174.08z"/>
<linearGradient id="SVGID_38_" gradientUnits="userSpaceOnUse" x1="-25.171" y1="622.4047" x2="-10.638" y2="612.4847" gradientTransform="matrix(7.8769 0 0 -7.8769 364.0537 4969.6694)">
	<stop  offset="0" style="stop-color:#29D3DA"/>
	<stop  offset="0.519" style="stop-color:#0077FF"/>
	<stop  offset="0.999" style="stop-color:#064093"/>
	<stop  offset="1" style="stop-color:#084698"/>
</linearGradient>
<path style="fill:url(#SVGID_38_);" d="M175.356,54.697c-40.432,21.583-54.296,91.514,22.812,114.113
	c-17.889-10.949-55.91-41.905-16.03-90.663c26.923-32.91,31.153-54.382,26.033-68.45C210.66,18.668,209.723,36.344,175.356,54.697z"
	/>
<linearGradient id="SVGID_39_" gradientUnits="userSpaceOnUse" x1="-1.8853" y1="556.2645" x2="-8.5503" y2="589.0345" gradientTransform="matrix(7.8769 0 0 -7.8769 364.0537 4969.6694)">
	<stop  offset="0" style="stop-color:#29D3DA"/>
	<stop  offset="0.519" style="stop-color:#0077FF"/>
	<stop  offset="0.999" style="stop-color:#064093"/>
	<stop  offset="1" style="stop-color:#084698"/>
</linearGradient>
<path style="fill:url(#SVGID_39_);" d="M276.598,330.067c0,0,68.49,30.429,22.142,87.087c-46.308,56.619-19.188,76.296,0,83.361
	c0,0-19.046-24.883,30.027-51.082c44.906-23.977,57.045-107.638-51.925-119.784L276.598,330.067z"/>
<linearGradient id="SVGID_40_" gradientUnits="userSpaceOnUse" x1="-3.2601" y1="575.4216" x2="-17.7971" y2="585.3416" gradientTransform="matrix(7.8769 0 0 -7.8769 364.0537 4969.6694)">
	<stop  offset="0" style="stop-color:#29D3DA"/>
	<stop  offset="0.519" style="stop-color:#0077FF"/>
	<stop  offset="0.999" style="stop-color:#064093"/>
	<stop  offset="1" style="stop-color:#084698"/>
</linearGradient>
<path style="fill:url(#SVGID_40_);" d="M328.767,449.434c40.417-21.583,54.296-91.506-22.804-114.113
	c17.881,10.941,55.895,41.913,15.998,90.663c-26.908,32.918-31.137,54.382-26.017,68.45
	C293.431,485.471,294.4,467.787,328.767,449.434z"/>
<linearGradient id="SVGID_41_" gradientUnits="userSpaceOnUse" x1="7.2192" y1="637.7941" x2="-11.2378" y2="609.9121" gradientTransform="matrix(7.8769 0 0 -7.8769 364.0537 4969.6694)">
	<stop  offset="0" style="stop-color:#29D3DA"/>
	<stop  offset="0.519" style="stop-color:#0077FF"/>
	<stop  offset="0.999" style="stop-color:#064093"/>
	<stop  offset="1" style="stop-color:#084698"/>
</linearGradient>
<path style="fill:url(#SVGID_41_);" d="M289.831,179.578c0,0-26.876-69.971,45.922-77.257c72.83-7.31,67.537-40.385,58.982-58.935
	c0,0-4.135,31.059-57.352,14.903c-48.711-14.832-116.476,35.761-48.002,121.391L289.831,179.578z"/>
<linearGradient id="SVGID_42_" gradientUnits="userSpaceOnUse" x1="-5.3552" y1="623.2695" x2="-2.0882" y2="605.9796" gradientTransform="matrix(7.8769 0 0 -7.8769 364.0537 4969.6694)">
	<stop  offset="0" style="stop-color:#29D3DA"/>
	<stop  offset="0.519" style="stop-color:#0077FF"/>
	<stop  offset="0.999" style="stop-color:#064093"/>
	<stop  offset="1" style="stop-color:#084698"/>
</linearGradient>
<path style="fill:url(#SVGID_42_);" d="M337.384,58.281c-43.859-13.336-103.125,26.317-64.567,96.815
	c-4.923-20.385-9.878-69.175,52.768-75.437c42.338-4.246,60.479-16.447,66.812-30.011C387.844,57.769,374.642,69.593,337.384,58.281
	z"/>
<linearGradient id="SVGID_43_" gradientUnits="userSpaceOnUse" x1="-35.6559" y1="560.0339" x2="-17.196" y2="587.9199" gradientTransform="matrix(7.8769 0 0 -7.8769 364.0537 4969.6694)">
	<stop  offset="0" style="stop-color:#29D3DA"/>
	<stop  offset="0.519" style="stop-color:#0077FF"/>
	<stop  offset="0.999" style="stop-color:#064093"/>
	<stop  offset="1" style="stop-color:#084698"/>
</linearGradient>
<path style="fill:url(#SVGID_43_);" d="M214.244,324.584c0,0,26.923,69.947-45.907,77.233
	c-72.799,7.294-67.521,40.377-58.935,58.919c0,0,4.104-31.035,57.336-14.872c48.711,14.809,116.476-35.769,48.002-121.423
	L214.244,324.584z"/>
<linearGradient id="SVGID_44_" gradientUnits="userSpaceOnUse" x1="-23.0824" y1="574.5593" x2="-26.3444" y2="591.8453" gradientTransform="matrix(7.8769 0 0 -7.8769 364.0537 4969.6694)">
	<stop  offset="0" style="stop-color:#29D3DA"/>
	<stop  offset="0.519" style="stop-color:#0077FF"/>
	<stop  offset="0.999" style="stop-color:#064093"/>
	<stop  offset="1" style="stop-color:#084698"/>
</linearGradient>
<path style="fill:url(#SVGID_44_);" d="M166.739,445.865c43.843,13.304,103.077-26.301,64.567-96.823
	c4.907,20.393,9.893,69.175-52.783,75.437c-42.323,4.238-60.463,16.423-66.796,30.011
	C116.279,446.369,129.465,434.554,166.739,445.865z"/>
<linearGradient id="SVGID_45_" gradientUnits="userSpaceOnUse" x1="28.4321" y1="611.2459" x2="-4.3379" y2="604.5839" gradientTransform="matrix(7.8769 0 0 -7.8769 364.0537 4969.6694)">
	<stop  offset="0" style="stop-color:#29D3DA"/>
	<stop  offset="0.519" style="stop-color:#0077FF"/>
	<stop  offset="0.999" style="stop-color:#064093"/>
	<stop  offset="1" style="stop-color:#084698"/>
</linearGradient>
<path style="fill:url(#SVGID_45_);" d="M330.027,227.525c0,0,30.444-68.482,87.079-22.15c56.659,46.316,76.319,19.188,83.401,0.024
	c0,0-24.891,19.031-51.074-30.027c-23.985-44.922-107.646-57.068-119.8,51.925L330.027,227.525z"/>
<linearGradient id="SVGID_46_" gradientUnits="userSpaceOnUse" x1="9.2716" y1="609.8681" x2="-0.6464" y2="595.3341" gradientTransform="matrix(7.8769 0 0 -7.8769 364.0537 4969.6694)">
	<stop  offset="0" style="stop-color:#29D3DA"/>
	<stop  offset="0.519" style="stop-color:#0077FF"/>
	<stop  offset="0.999" style="stop-color:#064093"/>
	<stop  offset="1" style="stop-color:#084698"/>
</linearGradient>
<path style="fill:url(#SVGID_46_);" d="M449.434,175.372c-21.583-40.432-91.522-54.311-114.121,22.812
	c10.941-17.888,41.905-55.91,90.663-15.998c32.926,26.9,54.382,31.13,68.443,25.994C485.447,210.7,467.803,209.723,449.434,175.372z
	"/>
<linearGradient id="SVGID_47_" gradientUnits="userSpaceOnUse" x1="-56.8627" y1="586.5806" x2="-24.1007" y2="593.2446" gradientTransform="matrix(7.8769 0 0 -7.8769 364.0537 4969.6694)">
	<stop  offset="0" style="stop-color:#29D3DA"/>
	<stop  offset="0.519" style="stop-color:#0077FF"/>
	<stop  offset="0.999" style="stop-color:#064093"/>
	<stop  offset="1" style="stop-color:#084698"/>
</linearGradient>
<path style="fill:url(#SVGID_47_);" d="M174.064,276.622c0,0-30.413,68.466-87.095,22.142c-56.627-46.316-76.296-19.18-83.338-0.016
	c0,0,24.844-19.039,51.058,30.035c23.969,44.922,107.646,57.045,119.784-51.925L174.064,276.622z"/>
<linearGradient id="SVGID_48_" gradientUnits="userSpaceOnUse" x1="-37.7103" y1="587.9568" x2="-27.7893" y2="602.4938" gradientTransform="matrix(7.8769 0 0 -7.8769 364.0537 4969.6694)">
	<stop  offset="0" style="stop-color:#29D3DA"/>
	<stop  offset="0.519" style="stop-color:#0077FF"/>
	<stop  offset="0.999" style="stop-color:#064093"/>
	<stop  offset="1" style="stop-color:#084698"/>
</linearGradient>
<path style="fill:url(#SVGID_48_);" d="M54.689,328.783c21.567,40.417,91.522,54.296,114.105-22.812
	c-10.925,17.904-41.905,55.903-90.663,16.022c-32.894-26.931-54.382-31.137-68.435-26.033
	C18.645,293.455,36.336,294.408,54.689,328.783z"/>
<g>
</g>
<g>
</g>
<g>
</g>
<g>
</g>
<g>
</g>
<g>
</g>
<g>
</g>
<g>
</g>
<g>
</g>
<g>
</g>
<g>
</g>
<g>
</g>
<g>
</g>
<g>
</g>
<g>
</g>
</svg>
