<?xml version="1.0" encoding="iso-8859-1"?>
<!-- Generator: Adobe Illustrator 19.0.0, SVG Export Plug-In . SVG Version: 6.00 Build 0)  -->
<svg version="1.1" id="Layer_1" xmlns="http://www.w3.org/2000/svg" xmlns:xlink="http://www.w3.org/1999/xlink" x="0px" y="0px"
	 viewBox="0 0 504.123 504.123" style="enable-background:new 0 0 504.123 504.123;" xml:space="preserve">
<linearGradient id="SVGID_1_" gradientUnits="userSpaceOnUse" x1="-14.2178" y1="587.5811" x2="-14.2178" y2="602.6041" gradientTransform="matrix(7.8769 0 0 -7.8769 364.0537 4969.6694)">
	<stop  offset="0.012" style="stop-color:#E0B386"/>
	<stop  offset="0.519" style="stop-color:#DA498C"/>
	<stop  offset="1" style="stop-color:#961484"/>
</linearGradient>
<path style="fill:url(#SVGID_1_);" d="M301.954,252.069c0,27.553-22.339,49.877-49.892,49.877s-49.892-22.323-49.892-49.877
	c0-27.569,22.339-49.892,49.892-49.892S301.954,224.5,301.954,252.069z"/>
<linearGradient id="SVGID_2_" gradientUnits="userSpaceOnUse" x1="-14.2178" y1="613.499" x2="-14.2178" y2="587.6281" gradientTransform="matrix(7.8769 0 0 -7.8769 364.0537 4969.6694)">
	<stop  offset="0.012" style="stop-color:#E0B386"/>
	<stop  offset="0.519" style="stop-color:#DA498C"/>
	<stop  offset="1" style="stop-color:#961484"/>
</linearGradient>
<path style="fill:url(#SVGID_2_);" d="M202.169,252.069c0-27.569,22.339-49.892,49.892-49.892s49.892,22.323,49.892,49.892"/>
<linearGradient id="SVGID_3_" gradientUnits="userSpaceOnUse" x1="-14.2178" y1="553.085" x2="-14.2178" y2="672.845" gradientTransform="matrix(7.8769 0 0 -7.8769 364.0537 4969.6694)">
	<stop  offset="0" style="stop-color:#29D3DA"/>
	<stop  offset="0.519" style="stop-color:#0077FF"/>
	<stop  offset="0.999" style="stop-color:#064093"/>
	<stop  offset="1" style="stop-color:#084698"/>
</linearGradient>
<path style="fill:url(#SVGID_3_);" d="M279.394,42.079V0h-54.666v42.079C120.674,55.493,40.259,144.36,40.259,252.062
	s80.416,196.569,184.47,209.983v42.079h54.658v-42.079c104.054-13.414,184.478-102.282,184.478-209.983
	S383.441,55.493,279.394,42.079z M279.394,400.4v-68.254c-8.586,2.93-17.762,4.592-27.333,4.592c-9.578,0-18.755-1.662-27.333-4.592
	V400.4c-70.254-12.871-123.518-74.358-123.518-148.346c0-73.972,53.264-135.459,123.518-148.33v68.254
	c8.578-2.93,17.755-4.592,27.333-4.592c9.57,0,18.747,1.662,27.333,4.592v-68.254c70.254,12.871,123.518,74.358,123.518,148.33
	C402.905,326.034,349.649,387.529,279.394,400.4z"/>
<g>
</g>
<g>
</g>
<g>
</g>
<g>
</g>
<g>
</g>
<g>
</g>
<g>
</g>
<g>
</g>
<g>
</g>
<g>
</g>
<g>
</g>
<g>
</g>
<g>
</g>
<g>
</g>
<g>
</g>
</svg>
