<?xml version="1.0" encoding="iso-8859-1"?>
<!-- Generator: Adobe Illustrator 19.0.0, SVG Export Plug-In . SVG Version: 6.00 Build 0)  -->
<svg version="1.1" id="Layer_1" xmlns="http://www.w3.org/2000/svg" xmlns:xlink="http://www.w3.org/1999/xlink" x="0px" y="0px"
	 viewBox="0 0 504.131 504.131" style="enable-background:new 0 0 504.131 504.131;" xml:space="preserve">
<linearGradient id="SVGID_1_" gradientUnits="userSpaceOnUse" x1="-34.2429" y1="597.4838" x2="11.6721" y2="585.5878" gradientTransform="matrix(7.8769 0 0 -7.8769 364.0558 4969.6694)">
	<stop  offset="0" style="stop-color:#29D3DA"/>
	<stop  offset="0.519" style="stop-color:#0077FF"/>
	<stop  offset="0.999" style="stop-color:#064093"/>
	<stop  offset="1" style="stop-color:#084698"/>
</linearGradient>
<path style="fill:url(#SVGID_1_);" d="M245.665,469.953c0,0-133.301-15.825-124.258-124.266
	c9.035-108.457,149.118-162.674,106.189-248.533c0,0,67.773,54.225,2.253,173.97s48.577,128.788,47.443,79.076
	c0,0,15.817,63.26-41.795,72.302c0,0,35.296,15.541,36.431,43.78c1.134,28.247-22.882,37.849-22.882,37.849
	s16.258-11.099,13.564-23.442C260.631,471.647,245.665,469.953,245.665,469.953z"/>
<linearGradient id="SVGID_2_" gradientUnits="userSpaceOnUse" x1="-18.3617" y1="587.5016" x2="-9.1356" y2="585.1066" gradientTransform="matrix(7.8769 0 0 -7.8769 364.0558 4969.6694)">
	<stop  offset="0.012" style="stop-color:#E0B386"/>
	<stop  offset="0.519" style="stop-color:#DA498C"/>
	<stop  offset="1" style="stop-color:#961484"/>
</linearGradient>
<path style="fill:url(#SVGID_2_);" d="M262.608,337.778c-2.946,6.002-9.051,10.169-16.187,10.169s-13.241-4.167-16.187-10.169
	c-1.166,2.402-1.89,5.057-1.89,7.908c0,9.988,8.082,18.078,18.078,18.078c9.98,0,18.078-8.09,18.078-18.078
	C264.507,342.827,263.774,340.181,262.608,337.778z"/>
<linearGradient id="SVGID_3_" gradientUnits="userSpaceOnUse" x1="-16.6378" y1="592.1655" x2="-10.0328" y2="588.0555" gradientTransform="matrix(7.8769 0 0 -7.8769 364.0558 4969.6694)">
	<stop  offset="0.012" style="stop-color:#E0B386"/>
	<stop  offset="0.519" style="stop-color:#DA498C"/>
	<stop  offset="1" style="stop-color:#961484"/>
</linearGradient>
<path style="fill:url(#SVGID_3_);" d="M267.673,312.485c-3.765,3.954-9.523,5.711-15.084,3.97
	c-5.545-1.733-9.295-6.459-10.114-11.847c-1.497,1.583-2.702,3.474-3.411,5.695c-2.418,7.767,1.906,16.037,9.673,18.479
	c7.767,2.418,16.045-1.906,18.487-9.681C267.91,316.881,267.996,314.636,267.673,312.485z"/>
<linearGradient id="SVGID_4_" gradientUnits="userSpaceOnUse" x1="-14.2172" y1="595.8834" x2="-10.8772" y2="591.1864" gradientTransform="matrix(7.8769 0 0 -7.8769 364.0558 4969.6694)">
	<stop  offset="0.012" style="stop-color:#E0B386"/>
	<stop  offset="0.519" style="stop-color:#DA498C"/>
	<stop  offset="1" style="stop-color:#961484"/>
</linearGradient>
<path style="fill:url(#SVGID_4_);" d="M273.691,290.8c-3.71,1.631-8.145,1.174-11.453-1.591c-3.3-2.773-4.513-7.073-3.529-10.996
	c-1.481,0.646-2.851,1.599-3.962,2.922c-3.875,4.616-3.277,11.516,1.331,15.391c4.624,3.868,11.524,3.277,15.415-1.339
	C272.588,293.888,273.305,292.368,273.691,290.8z"/>
<linearGradient id="SVGID_5_" gradientUnits="userSpaceOnUse" x1="-16.519" y1="569.5067" x2="-12.669" y2="568.5086" gradientTransform="matrix(7.8769 0 0 -7.8769 364.0558 4969.6694)">
	<stop  offset="0" style="stop-color:#29D3DA"/>
	<stop  offset="0.519" style="stop-color:#0077FF"/>
	<stop  offset="0.999" style="stop-color:#064093"/>
	<stop  offset="1" style="stop-color:#084698"/>
</linearGradient>
<circle style="fill:url(#SVGID_5_);" cx="244.925" cy="486.558" r="7.538"/>
<linearGradient id="SVGID_6_" gradientUnits="userSpaceOnUse" x1="-28.7832" y1="621.1344" x2="-11.2412" y2="616.5894" gradientTransform="matrix(7.8769 0 0 -7.8769 364.0558 4969.6694)">
	<stop  offset="0.012" style="stop-color:#E0B386"/>
	<stop  offset="0.519" style="stop-color:#DA498C"/>
	<stop  offset="1" style="stop-color:#961484"/>
</linearGradient>
<path style="fill:url(#SVGID_6_);" d="M216.292,99.415c0,0,0.008,72.302-45.757,77.383c-51.83,5.75-28.806-95.46,29.94-176.798
	c0,0-32.957,70.609-20.338,98.288C195.592,132.167,216.292,99.415,216.292,99.415z"/>
<linearGradient id="SVGID_7_" gradientUnits="userSpaceOnUse" x1="-18.5284" y1="592.3239" x2="18.3716" y2="582.7619" gradientTransform="matrix(7.8769 0 0 -7.8769 364.0558 4969.6694)">
	<stop  offset="0.012" style="stop-color:#E0B386"/>
	<stop  offset="0.519" style="stop-color:#DA498C"/>
	<stop  offset="1" style="stop-color:#961484"/>
</linearGradient>
<path style="fill:url(#SVGID_7_);" d="M277.299,425.519c0,0,42.937-6.774,30.885-88.867
	c-12.052-82.085-39.905-98.651-24.852-138.571c0,0-12.052,17.313,53.469,82.842c65.512,65.512,69.671,164.935-40.283,164.194
	c0,0-26.498-0.165-29.003-12.06C266.003,425.897,277.299,425.519,277.299,425.519z"/>
<g>
</g>
<g>
</g>
<g>
</g>
<g>
</g>
<g>
</g>
<g>
</g>
<g>
</g>
<g>
</g>
<g>
</g>
<g>
</g>
<g>
</g>
<g>
</g>
<g>
</g>
<g>
</g>
<g>
</g>
</svg>
