<?xml version="1.0" encoding="iso-8859-1"?>
<!-- Generator: Adobe Illustrator 19.0.0, SVG Export Plug-In . SVG Version: 6.00 Build 0)  -->
<svg version="1.1" id="Layer_1" xmlns="http://www.w3.org/2000/svg" xmlns:xlink="http://www.w3.org/1999/xlink" x="0px" y="0px"
	 viewBox="0 0 497.719 497.719" style="enable-background:new 0 0 497.719 497.719;" xml:space="preserve">
<linearGradient id="SVGID_1_" gradientUnits="userSpaceOnUse" x1="-18.2402" y1="586.7552" x2="-18.2402" y2="626.3622" gradientTransform="matrix(7.8769 0 0 -7.8769 386.0734 4941.2808)">
	<stop  offset="0" style="stop-color:#29D3DA"/>
	<stop  offset="0.519" style="stop-color:#0077FF"/>
	<stop  offset="0.999" style="stop-color:#064093"/>
	<stop  offset="1" style="stop-color:#084698"/>
</linearGradient>
<path style="fill:url(#SVGID_1_);" d="M228.884,80.809c-2.473-1.883-4.884-2.946-7.263-3.411c2.182,0.906,4.293,2.379,6.325,4.632
	c18.03,20.015,23.135,88.458,10.902,152.198c-5.49,28.593-13.548,51.287-22.37,65.898c3.931,6.892,8.09,12.296,12.406,15.581
	c21.48,16.392,39.432-22.481,39.432-87.481C268.316,163.312,250.356,97.067,228.884,80.809z"/>
<linearGradient id="SVGID_2_" gradientUnits="userSpaceOnUse" x1="-26.0272" y1="603.8911" x2="-26.0272" y2="618.996" gradientTransform="matrix(7.8769 0 0 -7.8769 386.0734 4941.2808)">
	<stop  offset="0" style="stop-color:#29D3DA"/>
	<stop  offset="0.519" style="stop-color:#0077FF"/>
	<stop  offset="0.999" style="stop-color:#064093"/>
	<stop  offset="1" style="stop-color:#084698"/>
</linearGradient>
<path style="fill:url(#SVGID_2_);" d="M181.024,63.819c-25.001,0-47.269,11.366-62.212,29.097l4.789,4.797l6.388-6.388l6.388,6.388
	l6.388-6.388l6.388,6.388l6.38-6.388l6.388,6.396l6.372-6.396l6.38,6.396l6.38-6.396l6.388,6.388l6.38-6.388l6.388,6.388
	l6.396-6.388l6.38,6.388l6.38-6.388l6.372,6.396l6.388-6.396l6.38,6.396l4.797-4.805C228.293,75.185,206.041,63.819,181.024,63.819z
	"/>
<linearGradient id="SVGID_3_" gradientUnits="userSpaceOnUse" x1="-14.6572" y1="603.157" x2="-14.6572" y2="632.127" gradientTransform="matrix(7.8769 0 0 -7.8769 386.0734 4941.2808)">
	<stop  offset="0" style="stop-color:#29D3DA"/>
	<stop  offset="0.519" style="stop-color:#0077FF"/>
	<stop  offset="0.999" style="stop-color:#064093"/>
	<stop  offset="1" style="stop-color:#084698"/>
</linearGradient>
<path style="fill:url(#SVGID_3_);" d="M287.236,110.324c-14.375-14.391-33.745-20.661-52.547-19.054l-0.016,5.522l7.333-0.008v7.357
	h7.373l-0.008,7.349l7.349-0.008l-0.008,7.357l7.365-0.008l-0.016,7.357l7.341-0.008v7.357l7.349-0.008v7.341h7.357v7.357
	l7.349-0.008v7.365l7.349-0.016l-0.016,7.349h5.537C307.905,144.069,301.643,124.723,287.236,110.324z"/>
<linearGradient id="SVGID_4_" gradientUnits="userSpaceOnUse" x1="-20.3057" y1="598.027" x2="-20.3057" y2="621.911" gradientTransform="matrix(7.8769 0 0 -7.8769 386.0734 4941.2808)">
	<stop  offset="0" style="stop-color:#29D3DA"/>
	<stop  offset="0.519" style="stop-color:#0077FF"/>
	<stop  offset="0.999" style="stop-color:#064093"/>
	<stop  offset="1" style="stop-color:#084698"/>
</linearGradient>
<path style="fill:url(#SVGID_4_);" d="M212.326,144.479c-0.008,20.346,9.263,38.479,23.686,50.633l3.915-3.891l-5.191-5.183
	l5.191-5.183l-5.199-5.222l5.199-5.183l-5.199-5.183l5.199-5.199l-5.191-5.199l5.191-5.175l-5.191-5.199l5.191-5.191l-5.191-5.183
	l5.191-5.191l-5.199-5.207l5.199-5.191l-5.191-5.199l5.191-5.191l-5.199-5.175l5.199-5.199l-3.915-3.915
	C221.59,106.008,212.326,124.117,212.326,144.479z"/>
<linearGradient id="SVGID_5_" gradientUnits="userSpaceOnUse" x1="-23.4405" y1="599.857" x2="-23.4405" y2="620.187" gradientTransform="matrix(7.8769 0 0 -7.8769 386.0734 4941.2808)">
	<stop  offset="0" style="stop-color:#29D3DA"/>
	<stop  offset="0.519" style="stop-color:#0077FF"/>
	<stop  offset="0.999" style="stop-color:#064093"/>
	<stop  offset="1" style="stop-color:#084698"/>
</linearGradient>
<path style="fill:url(#SVGID_5_);" d="M224.071,32.035C208.979,12.091,186.474,1.213,163.316,0l-0.937,6.711l8.94,1.229
	l-1.237,8.956l8.964,1.237l-1.245,8.932l8.948,1.229l-1.245,8.94l8.948,1.229l-1.245,8.94l8.948,1.237l-1.237,8.932l8.956,1.237
	l-1.268,8.94l8.956,1.245l-1.252,8.932l8.948,1.229l-1.245,8.94l8.964,1.229l-1.245,8.948l6.719,0.922
	C243.558,76.579,239.171,51.964,224.071,32.035z"/>
<linearGradient id="SVGID_6_" gradientUnits="userSpaceOnUse" x1="-23.7774" y1="603.768" x2="-23.7774" y2="619.096" gradientTransform="matrix(7.8769 0 0 -7.8769 386.0734 4941.2808)">
	<stop  offset="0" style="stop-color:#29D3DA"/>
	<stop  offset="0.519" style="stop-color:#0077FF"/>
	<stop  offset="0.999" style="stop-color:#064093"/>
	<stop  offset="1" style="stop-color:#084698"/>
</linearGradient>
<path style="fill:url(#SVGID_6_);" d="M178.353,110.836c-17.684,17.684-25.395,41.464-23.418,64.575l6.782,0.008l-0.008-9.027h9.027
	v-9.035l9.027,0.008l-0.008-9.027l9.035,0.008l-0.016-9.035l9.027,0.016V130.3l9.019,0.008v-9.027h9.027l0.008-9.027l9.019,0.008
	v-9.043l9.035,0.008l-0.016-9.027l9.035,0.008l-0.016-6.782C219.809,85.457,196.037,93.145,178.353,110.836z"/>
<linearGradient id="SVGID_7_" gradientUnits="userSpaceOnUse" x1="-11.8462" y1="606.826" x2="-11.8462" y2="620.277" gradientTransform="matrix(7.8769 0 0 -7.8769 386.0734 4941.2808)">
	<stop  offset="0" style="stop-color:#29D3DA"/>
	<stop  offset="0.519" style="stop-color:#0077FF"/>
	<stop  offset="0.999" style="stop-color:#064093"/>
	<stop  offset="1" style="stop-color:#084698"/>
</linearGradient>
<path style="fill:url(#SVGID_7_);" d="M292.726,64.465c-25.009,0-47.269,11.359-62.212,29.097l4.789,4.797l6.38-6.38l6.38,6.38
	l6.396-6.38l6.388,6.38l6.388-6.38l6.372,6.388l6.388-6.388l6.372,6.388l6.388-6.388l6.38,6.38l6.38-6.38l6.396,6.38l6.388-6.38
	l6.38,6.38l6.388-6.38l6.38,6.388l6.372-6.388l6.388,6.388l4.797-4.805C339.996,75.831,317.743,64.465,292.726,64.465z"/>
<linearGradient id="SVGID_8_" gradientUnits="userSpaceOnUse" x1="-13.7958" y1="602.422" x2="-13.7958" y2="620.283" gradientTransform="matrix(7.8769 0 0 -7.8769 386.0734 4941.2808)">
	<stop  offset="0" style="stop-color:#29D3DA"/>
	<stop  offset="0.519" style="stop-color:#0077FF"/>
	<stop  offset="0.999" style="stop-color:#064093"/>
	<stop  offset="1" style="stop-color:#084698"/>
</linearGradient>
<path style="fill:url(#SVGID_8_);" d="M256.973,32.831c-17.684,17.676-25.387,41.456-23.418,64.575l6.774,0.008v-9.027h9.027v-9.035
	l9.027,0.008l0.008-9.027l9.027,0.008l-0.008-9.035l9.027,0.016l-0.008-9.027l9.027,0.008l-0.008-9.027h9.035v-9.043l9.027,0.008
	v-9.035l9.027,0.008l-0.016-9.027l9.035,0.008V9.421C298.437,7.452,274.664,15.132,256.973,32.831z"/>
<linearGradient id="SVGID_9_" gradientUnits="userSpaceOnUse" x1="-28.0337" y1="566.328" x2="-28.0337" y2="594.768" gradientTransform="matrix(7.8769 0 0 -7.8769 386.0734 4941.2808)">
	<stop  offset="0.012" style="stop-color:#E0B386"/>
	<stop  offset="0.519" style="stop-color:#DA498C"/>
	<stop  offset="1" style="stop-color:#961484"/>
</linearGradient>
<path style="fill:url(#SVGID_9_);" d="M189.869,210.802c-5.719,0-11.091,1.371-15.88,3.757l-0.205-1.473l3.946-0.551l-0.544-3.938
	l3.938-0.536l-0.551-3.931l3.946-0.544l-0.544-3.938l3.938-0.536l-0.544-3.931l3.931-0.536l-0.544-3.938l3.931-0.544l-0.536-3.938
	l3.938-0.536l-0.41-2.962c-10.193,0.536-20.102,5.333-26.75,14.108c-3.111,4.096-5.128,8.641-6.239,13.336
	c-1.725-4.742-4.435-9.192-8.239-12.989c-7.79-7.79-18.251-11.169-28.428-10.311v2.993h3.978l-0.016,3.97l3.986-0.008v3.978h3.97
	v3.97h3.97v3.97h3.986l-0.016,3.97h3.978v3.206c-3.505-1.15-7.247-1.812-11.138-1.812c-11.004,0-20.811,5.01-27.404,12.816
	l2.135,2.111l2.788-2.804l2.804,2.804l2.812-2.804l2.804,2.804l2.796-2.804l2.812,2.804l2.812-2.804l2.796,2.804l2.812-2.804
	l2.796,2.804l2.804-2.804l2.812,2.804l2.804-2.804l1.481,1.481c-3.749,1.41-7.286,3.56-10.295,6.585
	c-6.349,6.341-9.098,14.856-8.397,23.135h2.434v-3.23l3.23,0.008v-3.23h3.237v-3.237h3.23v-3.237h3.237v-3.222l3.222,0.008v-3.237
	h3.23v-3.237l3.237,0.008v-3.237h1.804c-5.931,12.698-10.138,33.792-10.138,54.626c0,28.601,7.893,45.71,17.345,38.495
	c1.906-1.441,3.734-3.82,5.467-6.853c-3.883-6.428-7.428-16.423-9.846-29.011c-3.915-20.385-3.781-41.819-0.378-55.414l2.182,2.19
	l-2.284,2.292l2.284,2.292l-2.284,2.292l2.284,2.276l-2.284,2.284l2.284,2.284l-2.292,2.284l2.292,2.292l-2.292,2.276l2.292,2.284
	l-2.284,2.284l2.284,2.284l-2.284,2.308l2.284,2.276l-2.284,2.276l1.725,1.717c6.349-5.348,10.429-13.328,10.421-22.284
	c0-5.191-1.489-9.98-3.875-14.186l2.324-0.008v3.978h3.978v3.978h3.97v3.97h3.962v3.97h3.986v3.97h3.962v3.97h3.978l-0.008,3.986
	l2.985-0.008c0.882-10.169-2.513-20.638-10.295-28.42c-2.718-2.702-5.821-4.687-9.051-6.333l2.261-2.253l2.788,2.812l2.812-2.812
	l2.804,2.82l2.804-2.82l2.804,2.82l2.812-2.82l2.788,2.812l2.804-2.812l2.812,2.812l2.804-2.812l2.804,2.812l2.119-2.119
	C210.672,215.804,200.873,210.802,189.869,210.802z M155.817,213.669v0.796c-0.63-0.291-1.284-0.536-1.938-0.796H155.817z
	 M157.542,223.201l0.315,0.307c-0.276,0.055-0.536,0.134-0.819,0.189L157.542,223.201z M163.025,225.312h0.213
	c-0.079,0.134-0.142,0.268-0.213,0.402V225.312z M164.104,230.14c0.284-1.158,0.607-2.253,0.953-3.293l1.166,1.166L164.104,230.14z
	 M169.626,228.139h0.929v1.308C170.256,229.006,169.972,228.565,169.626,228.139z M178.211,223.342l0.417-0.433l1.197,1.197
	C179.275,223.878,178.763,223.531,178.211,223.342z"/>
<linearGradient id="SVGID_10_" gradientUnits="userSpaceOnUse" x1="-6.8147" y1="581.817" x2="-6.8147" y2="626.769" gradientTransform="matrix(7.8769 0 0 -7.8769 386.0734 4941.2808)">
	<stop  offset="0.012" style="stop-color:#E0B386"/>
	<stop  offset="0.519" style="stop-color:#DA498C"/>
	<stop  offset="1" style="stop-color:#961484"/>
</linearGradient>
<path style="fill:url(#SVGID_10_);" d="M280.47,223.61l2.119,2.119l2.804-2.812l2.804,2.812l2.812-2.812l2.804,2.812l2.788-2.812
	l2.812,2.82l2.804-2.82l2.804,2.82l2.804-2.82l2.804,2.812l2.804-2.812l2.245,2.253c-3.222,1.646-6.333,3.631-9.043,6.333
	c-7.775,7.782-11.177,18.251-10.295,28.42l2.985,0.008l-0.008-3.986h3.978v-3.97h3.962v-3.97h3.986v-3.97h3.962v-3.97h3.97v-3.978
	h3.978v-3.978l2.324,0.008c-2.387,4.206-3.875,8.995-3.875,14.186c0,8.956,4.08,16.935,10.421,22.284l1.717-1.717l-2.276-2.276
	l2.276-2.276l-2.276-2.308l2.276-2.284l-2.276-2.284l2.292-2.284l-2.292-2.276l2.292-2.292l-2.292-2.284l2.276-2.284l-2.276-2.284
	l2.276-2.276l-2.276-2.292l2.276-2.292l-2.276-2.292l2.182-2.19c3.411,13.603,3.537,35.029-0.378,55.414
	c-2.418,12.587-5.963,22.575-9.846,29.011c1.733,3.033,3.56,5.419,5.467,6.853c9.452,7.215,17.345-9.893,17.345-38.495
	c0-20.834-4.206-41.921-10.145-54.626h1.804v3.237l3.237-0.008v3.237h3.23l-0.008,3.237l3.23-0.008v3.222h3.237v3.237h3.23v3.237
	h3.237v3.23l3.23-0.008v3.23h2.434c0.709-8.279-2.056-16.794-8.397-23.135c-3.009-3.025-6.546-5.175-10.295-6.585l1.481-1.481
	l2.804,2.804l2.812-2.804l2.796,2.804l2.804-2.804l2.804,2.804l2.804-2.804l2.812,2.804l2.804-2.804l2.804,2.804l2.804-2.804
	l2.812,2.804l2.804-2.804l2.788,2.804l2.127-2.111c-6.585-7.806-16.384-12.816-27.396-12.816c-3.891,0-7.633,0.662-11.138,1.812
	v-3.206h3.978l-0.016-3.97h3.986v-3.946h3.97v-3.97h3.97v-3.978l3.986,0.008l-0.016-3.97h3.978v-2.993
	c-10.177-0.859-20.638,2.513-28.428,10.311c-3.797,3.797-6.514,8.255-8.239,12.989c-1.103-4.703-3.135-9.248-6.239-13.336
	c-6.656-8.775-16.557-13.572-26.75-14.108l-0.41,2.962l3.938,0.536l-0.544,3.938l3.938,0.544l-0.544,3.938l3.931,0.536l-0.544,3.931
	l3.938,0.536l-0.543,3.938l3.946,0.544l-0.551,3.931l3.938,0.536l-0.544,3.938l3.938,0.551l-0.197,1.473
	c-4.781-2.387-10.161-3.757-15.88-3.757C296.846,210.802,287.047,215.804,280.47,223.61z M343.832,213.669
	c-0.646,0.252-1.3,0.496-1.93,0.796v-0.796H343.832z M340.673,223.705c-0.284-0.063-0.536-0.142-0.819-0.189l0.315-0.307
	L340.673,223.705z M334.694,225.713c-0.079-0.134-0.142-0.268-0.213-0.402h0.213V225.713z M331.489,228.021l1.166-1.166
	c0.347,1.04,0.67,2.135,0.953,3.293L331.489,228.021z M327.156,229.447v-1.308h0.929
	C327.747,228.565,327.463,229.006,327.156,229.447z M317.893,224.106l1.197-1.197l0.417,0.433
	C318.948,223.531,318.444,223.878,317.893,224.106z"/>
<linearGradient id="SVGID_11_" gradientUnits="userSpaceOnUse" x1="-17.4197" y1="567.047" x2="-17.4197" y2="617.389" gradientTransform="matrix(7.8769 0 0 -7.8769 386.0734 4941.2808)">
	<stop  offset="0" style="stop-color:#29D3DA"/>
	<stop  offset="0.519" style="stop-color:#0077FF"/>
	<stop  offset="0.999" style="stop-color:#064093"/>
	<stop  offset="1" style="stop-color:#084698"/>
</linearGradient>
<path style="fill:url(#SVGID_11_);" d="M481.229,416.855c0,2.135-1.725,3.86-3.86,3.86H20.35c-2.135,0-3.86-1.725-3.86-3.86l0,0
	c0-2.127,1.725-3.844,3.86-3.844h457.019C479.504,413.011,481.229,414.736,481.229,416.855L481.229,416.855z"/>
<g>
	
		<linearGradient id="SVGID_12_" gradientUnits="userSpaceOnUse" x1="-17.4197" y1="567.057" x2="-17.4197" y2="617.344" gradientTransform="matrix(7.8769 0 0 -7.8769 386.0734 4941.2808)">
		<stop  offset="0" style="stop-color:#29D3DA"/>
		<stop  offset="0.519" style="stop-color:#0077FF"/>
		<stop  offset="0.999" style="stop-color:#064093"/>
		<stop  offset="1" style="stop-color:#084698"/>
	</linearGradient>
	<path style="fill:url(#SVGID_12_);" d="M404.2,442.541c0,2.127-1.725,3.844-3.852,3.844H97.378c-2.135,0-3.86-1.725-3.86-3.844l0,0
		c0-2.135,1.733-3.852,3.86-3.852h302.97C402.475,438.689,404.2,440.399,404.2,442.541L404.2,442.541z"/>
	
		<linearGradient id="SVGID_13_" gradientUnits="userSpaceOnUse" x1="-17.4197" y1="567.057" x2="-17.4197" y2="617.344" gradientTransform="matrix(7.8769 0 0 -7.8769 386.0734 4941.2808)">
		<stop  offset="0" style="stop-color:#29D3DA"/>
		<stop  offset="0.519" style="stop-color:#0077FF"/>
		<stop  offset="0.999" style="stop-color:#064093"/>
		<stop  offset="1" style="stop-color:#084698"/>
	</linearGradient>
	<path style="fill:url(#SVGID_13_);" d="M365.682,468.212c0,2.127-1.717,3.844-3.844,3.844h-225.95
		c-2.135,0-3.852-1.725-3.852-3.844l0,0c0-2.135,1.717-3.852,3.852-3.852h225.95C363.965,464.352,365.682,466.078,365.682,468.212
		L365.682,468.212z"/>
</g>
<linearGradient id="SVGID_14_" gradientUnits="userSpaceOnUse" x1="-17.4197" y1="567.057" x2="-17.4197" y2="617.343" gradientTransform="matrix(7.8769 0 0 -7.8769 386.0734 4941.2808)">
	<stop  offset="0" style="stop-color:#29D3DA"/>
	<stop  offset="0.519" style="stop-color:#0077FF"/>
	<stop  offset="0.999" style="stop-color:#064093"/>
	<stop  offset="1" style="stop-color:#084698"/>
</linearGradient>
<path style="fill:url(#SVGID_14_);" d="M327.172,493.875c0,2.135-1.733,3.844-3.852,3.844H174.399c-2.127,0-3.852-1.717-3.852-3.844
	l0,0c0-2.135,1.733-3.852,3.852-3.852H323.32C325.447,490.023,327.172,491.748,327.172,493.875L327.172,493.875z"/>
<linearGradient id="SVGID_15_" gradientUnits="userSpaceOnUse" x1="-17.4197" y1="547.657" x2="-17.4197" y2="600.5161" gradientTransform="matrix(7.8769 0 0 -7.8769 386.0734 4941.2808)">
	<stop  offset="0.012" style="stop-color:#E0B386"/>
	<stop  offset="0.519" style="stop-color:#DA498C"/>
	<stop  offset="1" style="stop-color:#961484"/>
</linearGradient>
<path style="fill:url(#SVGID_15_);" d="M407.131,388.608c-27.041-60.503-87.717-102.699-158.271-102.699
	S117.63,328.105,90.589,388.608H407.131z"/>
<linearGradient id="SVGID_16_" gradientUnits="userSpaceOnUse" x1="-3.5262" y1="603.0963" x2="-13.0582" y2="557.0063" gradientTransform="matrix(7.8769 0 0 -7.8769 386.0734 4941.2808)">
	<stop  offset="0.012" style="stop-color:#E0B386"/>
	<stop  offset="0.519" style="stop-color:#DA498C"/>
	<stop  offset="1" style="stop-color:#961484"/>
</linearGradient>
<path style="fill:url(#SVGID_16_);" d="M407.131,388.608c-27.041-60.503-87.717-102.699-158.271-102.699"/>
<linearGradient id="SVGID_17_" gradientUnits="userSpaceOnUse" x1="-31.1234" y1="600.3429" x2="-24.8904" y2="573.3329" gradientTransform="matrix(7.8769 0 0 -7.8769 386.0734 4941.2808)">
	<stop  offset="0.012" style="stop-color:#E0B386"/>
	<stop  offset="0.519" style="stop-color:#DA498C"/>
	<stop  offset="1" style="stop-color:#961484"/>
</linearGradient>
<path style="fill:url(#SVGID_17_);" d="M248.86,285.909c-70.554,0-131.23,42.189-158.271,102.699"/>
<g>
</g>
<g>
</g>
<g>
</g>
<g>
</g>
<g>
</g>
<g>
</g>
<g>
</g>
<g>
</g>
<g>
</g>
<g>
</g>
<g>
</g>
<g>
</g>
<g>
</g>
<g>
</g>
<g>
</g>
</svg>
