<?xml version="1.0" encoding="iso-8859-1"?>
<!-- Generator: Adobe Illustrator 19.0.0, SVG Export Plug-In . SVG Version: 6.00 Build 0)  -->
<svg version="1.1" id="Layer_1" xmlns="http://www.w3.org/2000/svg" xmlns:xlink="http://www.w3.org/1999/xlink" x="0px" y="0px"
	 viewBox="0 0 504.123 504.123" style="enable-background:new 0 0 504.123 504.123;" xml:space="preserve">
<linearGradient id="SVGID_1_" gradientUnits="userSpaceOnUse" x1="12.1278" y1="625.2605" x2="-22.0562" y2="591.0745" gradientTransform="matrix(7.8769 0 0 -7.8769 364.0402 4969.6694)">
	<stop  offset="0.012" style="stop-color:#E0B386"/>
	<stop  offset="0.519" style="stop-color:#DA498C"/>
	<stop  offset="1" style="stop-color:#961484"/>
</linearGradient>
<path style="fill:url(#SVGID_1_);" d="M190.308,313.825c-63.291-63.291-2.891-212.519,53.847-269.28
	c59.4-59.392,156.034-59.392,215.418,0c59.4,59.392,59.4,156.026,0,215.418C402.836,316.715,253.6,377.116,190.308,313.825z
	 M416.494,87.639c-35.627-35.635-93.601-35.635-129.245,0c-43.953,43.953-81.755,155.199-53.862,183.091
	c27.892,27.892,139.154-9.886,183.107-53.847C452.137,181.248,452.137,123.266,416.494,87.639z"/>
<linearGradient id="SVGID_2_" gradientUnits="userSpaceOnUse" x1="-40.5622" y1="572.5705" x2="-6.3762" y2="606.7545" gradientTransform="matrix(7.8769 0 0 -7.8769 364.0402 4969.6694)">
	<stop  offset="0.012" style="stop-color:#E0B386"/>
	<stop  offset="0.519" style="stop-color:#DA498C"/>
	<stop  offset="1" style="stop-color:#961484"/>
</linearGradient>
<path style="fill:url(#SVGID_2_);" d="M313.819,190.314c63.291,63.291,2.891,212.512-53.862,269.265
	c-59.384,59.392-156.018,59.392-215.418,0c-59.384-59.4-59.384-156.026,0-215.418C101.291,187.408,250.528,127.015,313.819,190.314z
	 M87.633,416.5c35.627,35.619,93.617,35.635,129.245,0c43.953-43.961,81.739-155.215,53.847-183.107
	c-27.908-27.892-139.138,9.901-183.091,53.862C51.99,322.875,51.99,380.857,87.633,416.5z"/>
<linearGradient id="SVGID_3_" gradientUnits="userSpaceOnUse" x1="3.148" y1="581.5508" x2="-18.646" y2="603.3448" gradientTransform="matrix(7.8769 0 0 -7.8769 364.0402 4969.6694)">
	<stop  offset="0" style="stop-color:#29D3DA"/>
	<stop  offset="0.519" style="stop-color:#0077FF"/>
	<stop  offset="0.999" style="stop-color:#064093"/>
	<stop  offset="1" style="stop-color:#084698"/>
</linearGradient>
<path style="fill:url(#SVGID_3_);" d="M340.742,262.9c-21.063,8.413-42.646,14.438-61.306,16.549
	c-2.095,18.653-8.137,40.243-16.542,61.29c21.646,0.48,44.954-3.253,67.986-9.838C337.481,307.846,341.215,284.562,340.742,262.9z"
	/>
<linearGradient id="SVGID_4_" gradientUnits="userSpaceOnUse" x1="-30.6253" y1="615.3256" x2="-9.7513" y2="594.4516" gradientTransform="matrix(7.8769 0 0 -7.8769 364.0402 4969.6694)">
	<stop  offset="0" style="stop-color:#29D3DA"/>
	<stop  offset="0.519" style="stop-color:#0077FF"/>
	<stop  offset="0.999" style="stop-color:#064093"/>
	<stop  offset="1" style="stop-color:#084698"/>
</linearGradient>
<path style="fill:url(#SVGID_4_);" d="M163.385,241.207c21.063-8.381,42.646-14.431,61.306-16.534
	c2.095-18.653,8.121-40.243,16.542-61.282c-21.662-0.48-44.954,3.261-68.001,9.846C166.63,196.285,162.912,219.561,163.385,241.207z
	"/>
<linearGradient id="SVGID_5_" gradientUnits="userSpaceOnUse" x1="-18.8003" y1="583.6945" x2="-2.8473" y2="595.6365" gradientTransform="matrix(7.8769 0 0 -7.8769 364.0402 4969.6694)">
	<stop  offset="0" style="stop-color:#29D3DA"/>
	<stop  offset="0.519" style="stop-color:#0077FF"/>
	<stop  offset="0.999" style="stop-color:#064093"/>
	<stop  offset="1" style="stop-color:#084698"/>
</linearGradient>
<path style="fill:url(#SVGID_5_);" d="M279.436,279.45c-2.095,18.653-8.137,40.243-16.542,61.29
	c21.646,0.48,44.954-3.253,67.986-9.838"/>
<linearGradient id="SVGID_6_" gradientUnits="userSpaceOnUse" x1="-28.2297" y1="596.6996" x2="-18.0187" y2="609.2766" gradientTransform="matrix(7.8769 0 0 -7.8769 364.0402 4969.6694)">
	<stop  offset="0" style="stop-color:#29D3DA"/>
	<stop  offset="0.519" style="stop-color:#0077FF"/>
	<stop  offset="0.999" style="stop-color:#064093"/>
	<stop  offset="1" style="stop-color:#084698"/>
</linearGradient>
<path style="fill:url(#SVGID_6_);" d="M173.231,173.237c-6.601,23.048-10.327,46.324-9.846,67.97
	c21.063-8.381,42.646-14.431,61.306-16.534"/>
<g>
</g>
<g>
</g>
<g>
</g>
<g>
</g>
<g>
</g>
<g>
</g>
<g>
</g>
<g>
</g>
<g>
</g>
<g>
</g>
<g>
</g>
<g>
</g>
<g>
</g>
<g>
</g>
<g>
</g>
</svg>
