<?xml version="1.0" encoding="iso-8859-1"?>
<!-- Generator: Adobe Illustrator 19.0.0, SVG Export Plug-In . SVG Version: 6.00 Build 0)  -->
<svg version="1.1" id="Layer_1" xmlns="http://www.w3.org/2000/svg" xmlns:xlink="http://www.w3.org/1999/xlink" x="0px" y="0px"
	 viewBox="0 0 499.807 499.807" style="enable-background:new 0 0 499.807 499.807;" xml:space="preserve">
<linearGradient id="SVGID_1_" gradientUnits="userSpaceOnUse" x1="-16.8747" y1="615.3251" x2="45.2153" y2="556.0682" gradientTransform="matrix(7.8769 0 0 -7.8769 378.8961 4950.5103)">
	<stop  offset="0" style="stop-color:#29D3DA"/>
	<stop  offset="0.519" style="stop-color:#0077FF"/>
	<stop  offset="0.999" style="stop-color:#064093"/>
	<stop  offset="1" style="stop-color:#084698"/>
</linearGradient>
<path style="fill:url(#SVGID_1_);" d="M435.011,426.433c-86.646-15.313-146.999-88.489-146.999-176.545
	c0-88.025,60.353-161.209,146.999-176.522V0C308.98,15.967,215.473,121.722,215.473,249.903S308.98,483.84,435.011,499.807V426.433z
	"/>
<linearGradient id="SVGID_2_" gradientUnits="userSpaceOnUse" x1="8.1132" y1="583.3956" x2="-72.0758" y2="606.0377" gradientTransform="matrix(7.8769 0 0 -7.8769 378.8961 4950.5103)">
	<stop  offset="0.012" style="stop-color:#E0B386"/>
	<stop  offset="0.519" style="stop-color:#DA498C"/>
	<stop  offset="1" style="stop-color:#961484"/>
</linearGradient>
<path style="fill:url(#SVGID_2_);" d="M64.796,0.008v73.35c86.646,15.321,146.999,88.497,146.983,176.53
	c0.016,88.048-60.337,161.233-146.983,176.545v73.358c126.031-15.951,219.538-121.722,219.538-249.888
	C284.333,121.722,190.826,15.967,64.796,0.008z"/>
<linearGradient id="SVGID_3_" gradientUnits="userSpaceOnUse" x1="-2.348" y1="582.7288" x2="-20.987" y2="601.3678" gradientTransform="matrix(7.8769 0 0 -7.8769 378.8961 4950.5103)">
	<stop  offset="0.012" style="stop-color:#E0B386"/>
	<stop  offset="0.519" style="stop-color:#DA498C"/>
	<stop  offset="1" style="stop-color:#961484"/>
</linearGradient>
<path style="fill:url(#SVGID_3_);" d="M213.717,249.903c0,47.624,13.233,92.136,36.187,130.111
	c22.953-37.975,36.187-82.495,36.187-130.111c0-47.624-13.233-92.136-36.187-130.111
	C226.95,157.767,213.717,202.279,213.717,249.903z"/>
<g>
</g>
<g>
</g>
<g>
</g>
<g>
</g>
<g>
</g>
<g>
</g>
<g>
</g>
<g>
</g>
<g>
</g>
<g>
</g>
<g>
</g>
<g>
</g>
<g>
</g>
<g>
</g>
<g>
</g>
</svg>
