<?xml version="1.0" encoding="iso-8859-1"?>
<!-- Generator: Adobe Illustrator 19.0.0, SVG Export Plug-In . SVG Version: 6.00 Build 0)  -->
<svg version="1.1" id="Layer_1" xmlns="http://www.w3.org/2000/svg" xmlns:xlink="http://www.w3.org/1999/xlink" x="0px" y="0px"
	 viewBox="0 0 504.123 504.123" style="enable-background:new 0 0 504.123 504.123;" xml:space="preserve">
<linearGradient id="SVGID_1_" gradientUnits="userSpaceOnUse" x1="-14.2183" y1="630.915" x2="-14.2183" y2="585.759" gradientTransform="matrix(7.8769 0 0 -7.8769 364.0537 4969.6694)">
	<stop  offset="0" style="stop-color:#29D3DA"/>
	<stop  offset="0.519" style="stop-color:#0077FF"/>
	<stop  offset="0.999" style="stop-color:#064093"/>
	<stop  offset="1" style="stop-color:#084698"/>
</linearGradient>
<path style="fill:url(#SVGID_1_);" d="M252.062,115.893c87.032,0,160.658,57.265,185.32,136.168
	c5.695-18.298,8.791-37.754,8.791-57.943C446.18,86.906,359.274,0,252.062,0S57.943,86.906,57.943,194.119
	c0,20.189,3.096,39.645,8.799,57.943C91.404,173.151,165.029,115.893,252.062,115.893z"/>
<linearGradient id="SVGID_2_" gradientUnits="userSpaceOnUse" x1="-31.7378" y1="618.616" x2="3.2612" y2="596.115" gradientTransform="matrix(7.8769 0 0 -7.8769 364.0537 4969.6694)">
	<stop  offset="0" style="stop-color:#29D3DA"/>
	<stop  offset="0.519" style="stop-color:#0077FF"/>
	<stop  offset="0.999" style="stop-color:#064093"/>
	<stop  offset="1" style="stop-color:#084698"/>
</linearGradient>
<path style="fill:url(#SVGID_2_);" d="M252.062,0C144.849,0,57.943,86.906,57.943,194.119c0,20.189,3.096,39.645,8.799,57.943
	c24.655-78.911,98.288-136.168,185.313-136.168"/>
<linearGradient id="SVGID_3_" gradientUnits="userSpaceOnUse" x1="-14.2173" y1="565.582" x2="-14.2173" y2="614.725" gradientTransform="matrix(7.8769 0 0 -7.8769 364.0537 4969.6694)">
	<stop  offset="0" style="stop-color:#29D3DA"/>
	<stop  offset="0.519" style="stop-color:#0077FF"/>
	<stop  offset="0.999" style="stop-color:#064093"/>
	<stop  offset="1" style="stop-color:#084698"/>
</linearGradient>
<path style="fill:url(#SVGID_3_);" d="M446.18,310.004c0-20.189-3.104-39.645-8.791-57.943
	c-24.671,78.911-98.296,136.168-185.328,136.168S91.404,330.973,66.749,252.062c-5.711,18.298-8.799,37.754-8.799,57.943
	c-0.008,107.213,86.898,194.119,194.111,194.119S446.18,417.217,446.18,310.004z"/>
<linearGradient id="SVGID_4_" gradientUnits="userSpaceOnUse" x1="-29.5142" y1="564.0549" x2="-20.8482" y2="611.558" gradientTransform="matrix(7.8769 0 0 -7.8769 364.0537 4969.6694)">
	<stop  offset="0" style="stop-color:#29D3DA"/>
	<stop  offset="0.519" style="stop-color:#0077FF"/>
	<stop  offset="0.999" style="stop-color:#064093"/>
	<stop  offset="1" style="stop-color:#084698"/>
</linearGradient>
<path style="fill:url(#SVGID_4_);" d="M252.062,388.23c-87.032,0-160.658-57.265-185.313-136.168
	c-5.711,18.298-8.799,37.754-8.799,57.943c-0.008,107.213,86.898,194.119,194.111,194.119"/>
<linearGradient id="SVGID_5_" gradientUnits="userSpaceOnUse" x1="-16.7245" y1="585.1852" x2="-10.3485" y2="620.1082" gradientTransform="matrix(7.8769 0 0 -7.8769 364.0537 4969.6694)">
	<stop  offset="0.012" style="stop-color:#E0B386"/>
	<stop  offset="0.519" style="stop-color:#DA498C"/>
	<stop  offset="1" style="stop-color:#961484"/>
</linearGradient>
<circle style="fill:url(#SVGID_5_);" cx="252.062" cy="252.062" r="80.085"/>
<linearGradient id="SVGID_6_" gradientUnits="userSpaceOnUse" x1="0.008" y1="588.7667" x2="-19.323" y2="602.4317" gradientTransform="matrix(7.8769 0 0 -7.8769 364.0537 4969.6694)">
	<stop  offset="0.012" style="stop-color:#E0B386"/>
	<stop  offset="0.519" style="stop-color:#DA498C"/>
	<stop  offset="1" style="stop-color:#961484"/>
</linearGradient>
<path style="fill:url(#SVGID_6_);" d="M308.689,195.442c31.279,31.279,31.279,81.975,0,113.254s-81.983,31.279-113.262,0"/>
<g>
	
		<linearGradient id="SVGID_7_" gradientUnits="userSpaceOnUse" x1="-17.1192" y1="603.0256" x2="-47.1132" y2="594.8086" gradientTransform="matrix(7.8769 0 0 -7.8769 364.0537 4969.6694)">
		<stop  offset="0.012" style="stop-color:#E0B386"/>
		<stop  offset="0.519" style="stop-color:#DA498C"/>
		<stop  offset="1" style="stop-color:#961484"/>
	</linearGradient>
	<circle style="fill:url(#SVGID_7_);" cx="111.017" cy="252.062" r="7.877"/>
	
		<linearGradient id="SVGID_8_" gradientUnits="userSpaceOnUse" x1="-16.8225" y1="601.9426" x2="-46.8165" y2="593.7256" gradientTransform="matrix(7.8769 0 0 -7.8769 364.0537 4969.6694)">
		<stop  offset="0.012" style="stop-color:#E0B386"/>
		<stop  offset="0.519" style="stop-color:#DA498C"/>
		<stop  offset="1" style="stop-color:#961484"/>
	</linearGradient>
	<circle style="fill:url(#SVGID_8_);" cx="144.494" cy="252.062" r="7.877"/>
	
		<linearGradient id="SVGID_9_" gradientUnits="userSpaceOnUse" x1="-14.9156" y1="594.9817" x2="-44.9096" y2="586.7646" gradientTransform="matrix(7.8769 0 0 -7.8769 364.0537 4969.6694)">
		<stop  offset="0.012" style="stop-color:#E0B386"/>
		<stop  offset="0.519" style="stop-color:#DA498C"/>
		<stop  offset="1" style="stop-color:#961484"/>
	</linearGradient>
	<circle style="fill:url(#SVGID_9_);" cx="359.66" cy="252.062" r="7.877"/>
	
		<linearGradient id="SVGID_10_" gradientUnits="userSpaceOnUse" x1="-14.6189" y1="593.8986" x2="-44.6129" y2="585.6816" gradientTransform="matrix(7.8769 0 0 -7.8769 364.0537 4969.6694)">
		<stop  offset="0.012" style="stop-color:#E0B386"/>
		<stop  offset="0.519" style="stop-color:#DA498C"/>
		<stop  offset="1" style="stop-color:#961484"/>
	</linearGradient>
	<circle style="fill:url(#SVGID_10_);" cx="393.137" cy="252.062" r="7.877"/>
</g>
<g>
</g>
<g>
</g>
<g>
</g>
<g>
</g>
<g>
</g>
<g>
</g>
<g>
</g>
<g>
</g>
<g>
</g>
<g>
</g>
<g>
</g>
<g>
</g>
<g>
</g>
<g>
</g>
<g>
</g>
</svg>
