<?xml version="1.0" encoding="iso-8859-1"?>
<!-- Generator: Adobe Illustrator 19.0.0, SVG Export Plug-In . SVG Version: 6.00 Build 0)  -->
<svg version="1.1" id="Layer_1" xmlns="http://www.w3.org/2000/svg" xmlns:xlink="http://www.w3.org/1999/xlink" x="0px" y="0px"
	 viewBox="0 0 504.123 504.123" style="enable-background:new 0 0 504.123 504.123;" xml:space="preserve">
<linearGradient id="SVGID_1_" gradientUnits="userSpaceOnUse" x1="-14.2168" y1="629.2491" x2="-14.2168" y2="607.1371" gradientTransform="matrix(7.8769 0 0 -7.8769 364.0537 4969.6694)">
	<stop  offset="0.012" style="stop-color:#E0B386"/>
	<stop  offset="0.519" style="stop-color:#DA498C"/>
	<stop  offset="1" style="stop-color:#961484"/>
</linearGradient>
<path style="fill:url(#SVGID_1_);" d="M158.452,252.062c24.852-22.292,57.596-35.982,93.609-35.982s68.758,13.69,93.601,35.982
	c28.633-25.702,46.757-62.874,46.757-104.377h0.969c-40.314-27.341-88.946-43.323-141.32-43.323s-101.006,15.982-141.32,43.323
	h0.969C111.711,189.196,129.82,226.359,158.452,252.062z"/>
<linearGradient id="SVGID_2_" gradientUnits="userSpaceOnUse" x1="-14.2168" y1="598.085" x2="-14.2168" y2="630.8561" gradientTransform="matrix(7.8769 0 0 -7.8769 364.0537 4969.6694)">
	<stop  offset="0.012" style="stop-color:#E0B386"/>
	<stop  offset="0.519" style="stop-color:#DA498C"/>
	<stop  offset="1" style="stop-color:#961484"/>
</linearGradient>
<path style="fill:url(#SVGID_2_);" d="M110.742,147.684h0.969c0,41.511,18.117,78.675,46.75,104.377
	c24.852-22.292,57.596-35.982,93.609-35.982s68.758,13.69,93.601,35.982c28.633-25.702,46.757-62.874,46.757-104.377h0.969"/>
<g>
	
		<linearGradient id="SVGID_3_" gradientUnits="userSpaceOnUse" x1="-50.6648" y1="592.2896" x2="-0.4778" y2="592.2896" gradientTransform="matrix(7.8769 0 0 -7.8769 364.0537 4969.6694)">
		<stop  offset="0" style="stop-color:#29D3DA"/>
		<stop  offset="0.519" style="stop-color:#0077FF"/>
		<stop  offset="0.999" style="stop-color:#064093"/>
		<stop  offset="1" style="stop-color:#084698"/>
	</linearGradient>
	<path style="fill:url(#SVGID_3_);" d="M393.381,356.439h110.742c0-37.25-8.137-72.562-22.638-104.377
		C462.186,294.432,431.553,330.547,393.381,356.439z"/>
	
		<linearGradient id="SVGID_4_" gradientUnits="userSpaceOnUse" x1="-50.6648" y1="592.2896" x2="-0.4778" y2="592.2896" gradientTransform="matrix(7.8769 0 0 -7.8769 364.0537 4969.6694)">
		<stop  offset="0" style="stop-color:#29D3DA"/>
		<stop  offset="0.519" style="stop-color:#0077FF"/>
		<stop  offset="0.999" style="stop-color:#064093"/>
		<stop  offset="1" style="stop-color:#084698"/>
	</linearGradient>
	<path style="fill:url(#SVGID_4_);" d="M110.742,356.439C72.57,330.547,41.937,294.432,22.63,252.062
		C8.129,283.876,0,319.189,0,356.439H110.742z"/>
</g>
<linearGradient id="SVGID_5_" gradientUnits="userSpaceOnUse" x1="-14.2188" y1="572.5811" x2="-14.2188" y2="586.225" gradientTransform="matrix(7.8769 0 0 -7.8769 364.0537 4969.6694)">
	<stop  offset="0.012" style="stop-color:#E0B386"/>
	<stop  offset="0.519" style="stop-color:#DA498C"/>
	<stop  offset="1" style="stop-color:#961484"/>
</linearGradient>
<path style="fill:url(#SVGID_5_);" d="M345.663,252.062c-24.844,22.292-57.588,35.982-93.601,35.982s-68.758-13.69-93.609-35.982
	c-28.625,25.702-46.742,62.874-46.742,104.377h-0.977c40.314,27.341,88.946,43.323,141.32,43.323s101.006-15.982,141.32-43.323
	h-0.969C392.413,314.927,374.304,277.764,345.663,252.062z"/>
<linearGradient id="SVGID_6_" gradientUnits="userSpaceOnUse" x1="-14.2183" y1="604.3351" x2="-14.2183" y2="573.426" gradientTransform="matrix(7.8769 0 0 -7.8769 364.0537 4969.6694)">
	<stop  offset="0.012" style="stop-color:#E0B386"/>
	<stop  offset="0.519" style="stop-color:#DA498C"/>
	<stop  offset="1" style="stop-color:#961484"/>
</linearGradient>
<path style="fill:url(#SVGID_6_);" d="M393.381,356.439h-0.969c0-41.511-18.117-78.675-46.757-104.377
	c-24.844,22.292-57.588,35.982-93.601,35.982s-68.75-13.69-93.601-35.982c-28.625,25.702-46.742,62.874-46.742,104.377h-0.977"/>
<g>
	
		<linearGradient id="SVGID_7_" gradientUnits="userSpaceOnUse" x1="-3.3278" y1="605.5405" x2="-30.2058" y2="605.5405" gradientTransform="matrix(7.8769 0 0 -7.8769 364.0537 4969.6694)">
		<stop  offset="0" style="stop-color:#29D3DA"/>
		<stop  offset="0.519" style="stop-color:#0077FF"/>
		<stop  offset="0.999" style="stop-color:#064093"/>
		<stop  offset="1" style="stop-color:#084698"/>
	</linearGradient>
	<path style="fill:url(#SVGID_7_);" d="M110.742,147.684H0c0,37.25,8.129,72.562,22.63,104.377
		C41.937,209.692,72.57,173.576,110.742,147.684z"/>
	
		<linearGradient id="SVGID_8_" gradientUnits="userSpaceOnUse" x1="-3.3278" y1="605.5405" x2="-30.2058" y2="605.5405" gradientTransform="matrix(7.8769 0 0 -7.8769 364.0537 4969.6694)">
		<stop  offset="0" style="stop-color:#29D3DA"/>
		<stop  offset="0.519" style="stop-color:#0077FF"/>
		<stop  offset="0.999" style="stop-color:#064093"/>
		<stop  offset="1" style="stop-color:#084698"/>
	</linearGradient>
	<path style="fill:url(#SVGID_8_);" d="M481.485,252.062c14.501-31.815,22.638-67.127,22.638-104.377H393.381
		C431.553,173.576,462.186,209.692,481.485,252.062z"/>
</g>
<g>
</g>
<g>
</g>
<g>
</g>
<g>
</g>
<g>
</g>
<g>
</g>
<g>
</g>
<g>
</g>
<g>
</g>
<g>
</g>
<g>
</g>
<g>
</g>
<g>
</g>
<g>
</g>
<g>
</g>
</svg>
