<?xml version="1.0" encoding="iso-8859-1"?>
<!-- Generator: Adobe Illustrator 19.0.0, SVG Export Plug-In . SVG Version: 6.00 Build 0)  -->
<svg version="1.1" id="Layer_1" xmlns="http://www.w3.org/2000/svg" xmlns:xlink="http://www.w3.org/1999/xlink" x="0px" y="0px"
	 viewBox="0 0 504.123 504.123" style="enable-background:new 0 0 504.123 504.123;" xml:space="preserve">
<linearGradient id="SVGID_1_" gradientUnits="userSpaceOnUse" x1="-28.8858" y1="598.9141" x2="-71.1728" y2="598.9141" gradientTransform="matrix(7.8769 0 0 -7.8769 364.0537 4969.6694)">
	<stop  offset="0" style="stop-color:#29D3DA"/>
	<stop  offset="0.519" style="stop-color:#0077FF"/>
	<stop  offset="0.999" style="stop-color:#064093"/>
	<stop  offset="1" style="stop-color:#084698"/>
</linearGradient>
<path style="fill:url(#SVGID_1_);" d="M15.904,199.05C7.129,199.05,0,206.171,0,214.953v74.232c0,8.775,7.121,15.904,15.904,15.904
	c61.968,0,119.398-19.669,166.502-53.012C135.302,218.719,77.871,199.05,15.904,199.05z"/>
<linearGradient id="SVGID_2_" gradientUnits="userSpaceOnUse" x1="-10.1343" y1="581.2924" x2="-27.9663" y2="544.9854" gradientTransform="matrix(7.8769 0 0 -7.8769 364.0537 4969.6694)">
	<stop  offset="0" style="stop-color:#29D3DA"/>
	<stop  offset="0.519" style="stop-color:#0077FF"/>
	<stop  offset="0.999" style="stop-color:#064093"/>
	<stop  offset="1" style="stop-color:#084698"/>
</linearGradient>
<path style="fill:url(#SVGID_2_);" d="M304.845,487.991c0-61.834-19.582-119.146-52.783-166.195
	c-33.217,47.049-52.799,104.361-52.799,166.195c0,8.783,7.121,15.911,15.911,15.911h73.775
	C297.732,503.903,304.845,496.774,304.845,487.991z"/>
<linearGradient id="SVGID_3_" gradientUnits="userSpaceOnUse" x1="-9.1907" y1="613.7133" x2="-27.0227" y2="654.7023" gradientTransform="matrix(7.8769 0 0 -7.8769 364.0537 4969.6694)">
	<stop  offset="0" style="stop-color:#29D3DA"/>
	<stop  offset="0.519" style="stop-color:#0077FF"/>
	<stop  offset="0.999" style="stop-color:#064093"/>
	<stop  offset="1" style="stop-color:#084698"/>
</linearGradient>
<path style="fill:url(#SVGID_3_);" d="M199.263,16.132c0,61.834,19.582,119.146,52.799,166.187
	c33.201-47.041,52.783-104.353,52.783-166.187c0-8.783-7.113-15.911-15.904-15.911h-73.775
	C206.383,0.221,199.263,7.349,199.263,16.132z"/>
<linearGradient id="SVGID_4_" gradientUnits="userSpaceOnUse" x1="0.4522" y1="598.9141" x2="42.7422" y2="598.9141" gradientTransform="matrix(7.8769 0 0 -7.8769 364.0537 4969.6694)">
	<stop  offset="0" style="stop-color:#29D3DA"/>
	<stop  offset="0.519" style="stop-color:#0077FF"/>
	<stop  offset="0.999" style="stop-color:#064093"/>
	<stop  offset="1" style="stop-color:#084698"/>
</linearGradient>
<path style="fill:url(#SVGID_4_);" d="M488.212,199.05c8.775,0,15.911,7.121,15.911,15.904v74.232
	c0,8.775-7.129,15.904-15.911,15.904c-61.968,0-119.398-19.669-166.502-53.012C368.813,218.719,426.244,199.05,488.212,199.05z"/>
<linearGradient id="SVGID_5_" gradientUnits="userSpaceOnUse" x1="-24.5873" y1="609.2855" x2="-54.4903" y2="639.1875" gradientTransform="matrix(7.8769 0 0 -7.8769 364.0537 4969.6694)">
	<stop  offset="0.012" style="stop-color:#E0B386"/>
	<stop  offset="0.519" style="stop-color:#DA498C"/>
	<stop  offset="1" style="stop-color:#961484"/>
</linearGradient>
<path style="fill:url(#SVGID_5_);" d="M122.557,47.585c-6.199-6.207-16.274-6.207-22.489,0l-52.476,52.484
	c-6.207,6.207-6.207,16.282,0,22.489c43.811,43.811,98.328,70.514,155.215,80.25C193.079,145.912,166.376,91.404,122.557,47.585z"/>
<linearGradient id="SVGID_6_" gradientUnits="userSpaceOnUse" x1="-20.166" y1="592.9663" x2="-45.838" y2="567.2943" gradientTransform="matrix(7.8769 0 0 -7.8769 364.0537 4969.6694)">
	<stop  offset="0.012" style="stop-color:#E0B386"/>
	<stop  offset="0.519" style="stop-color:#DA498C"/>
	<stop  offset="1" style="stop-color:#961484"/>
</linearGradient>
<path style="fill:url(#SVGID_6_);" d="M122.565,456.224c43.733-43.725,70.404-98.107,80.187-154.845
	c-56.745,9.775-111.128,36.462-154.845,80.179c-6.215,6.215-6.215,16.282,0,22.496l52.161,52.169
	C106.275,462.431,116.35,462.431,122.565,456.224z"/>
<linearGradient id="SVGID_7_" gradientUnits="userSpaceOnUse" x1="-9.8174" y1="603.3157" x2="19.1696" y2="632.3057" gradientTransform="matrix(7.8769 0 0 -7.8769 364.0537 4969.6694)">
	<stop  offset="0.012" style="stop-color:#E0B386"/>
	<stop  offset="0.519" style="stop-color:#DA498C"/>
	<stop  offset="1" style="stop-color:#961484"/>
</linearGradient>
<path style="fill:url(#SVGID_7_);" d="M381.55,47.9c-43.725,43.725-70.404,98.091-80.179,154.845
	c56.737-9.783,111.12-36.462,154.837-80.187c6.215-6.207,6.215-16.282,0-22.489L404.047,47.9
	C397.84,41.685,387.773,41.685,381.55,47.9z"/>
<linearGradient id="SVGID_8_" gradientUnits="userSpaceOnUse" x1="-3.8441" y1="588.5457" x2="26.0549" y2="558.6377" gradientTransform="matrix(7.8769 0 0 -7.8769 364.0537 4969.6694)">
	<stop  offset="0.012" style="stop-color:#E0B386"/>
	<stop  offset="0.519" style="stop-color:#DA498C"/>
	<stop  offset="1" style="stop-color:#961484"/>
</linearGradient>
<path style="fill:url(#SVGID_8_);" d="M456.539,381.558c6.199,6.207,6.207,16.282,0,22.489l-52.484,52.484
	c-6.207,6.207-16.282,6.207-22.489,0c-43.819-43.819-70.53-98.336-80.25-155.223C358.203,311.036,412.719,337.747,456.539,381.558z"
	/>
<g>
</g>
<g>
</g>
<g>
</g>
<g>
</g>
<g>
</g>
<g>
</g>
<g>
</g>
<g>
</g>
<g>
</g>
<g>
</g>
<g>
</g>
<g>
</g>
<g>
</g>
<g>
</g>
<g>
</g>
</svg>
