<?xml version="1.0" encoding="iso-8859-1"?>
<!-- Generator: Adobe Illustrator 19.0.0, SVG Export Plug-In . SVG Version: 6.00 Build 0)  -->
<svg version="1.1" id="Layer_1" xmlns="http://www.w3.org/2000/svg" xmlns:xlink="http://www.w3.org/1999/xlink" x="0px" y="0px"
	 viewBox="0 0 504.123 504.123" style="enable-background:new 0 0 504.123 504.123;" xml:space="preserve">
<linearGradient id="SVGID_1_" gradientUnits="userSpaceOnUse" x1="83.4322" y1="598.915" x2="-101.1777" y2="598.915" gradientTransform="matrix(7.8769 0 0 -7.8769 364.0537 4969.6694)">
	<stop  offset="0.012" style="stop-color:#E0B386"/>
	<stop  offset="0.519" style="stop-color:#DA498C"/>
	<stop  offset="1" style="stop-color:#961484"/>
</linearGradient>
<path style="fill:url(#SVGID_1_);" d="M252.062,0C112.853,0,0,112.853,0,252.062s112.853,252.062,252.062,252.062
	S504.123,391.27,504.123,252.062S391.27,0,252.062,0z M294.613,386.276c-97.627,0-176.766-79.147-176.766-176.766
	c0-97.634,79.147-176.766,176.766-176.766c97.634,0,176.766,79.139,176.766,176.766
	C471.387,307.129,392.247,386.276,294.613,386.276z"/>
<linearGradient id="SVGID_2_" gradientUnits="userSpaceOnUse" x1="-50.8373" y1="562.2976" x2="1.2557" y2="614.3876" gradientTransform="matrix(7.8769 0 0 -7.8769 364.0537 4969.6694)">
	<stop  offset="0.012" style="stop-color:#E0B386"/>
	<stop  offset="0.519" style="stop-color:#DA498C"/>
	<stop  offset="1" style="stop-color:#961484"/>
</linearGradient>
<path style="fill:url(#SVGID_2_);" d="M252.062,0C112.853,0,0,112.853,0,252.062s112.853,252.062,252.062,252.062
	S504.123,391.27,504.123,252.062S391.27,0,252.062,0z M294.613,386.276c-97.627,0-176.766-79.147-176.766-176.766
	c0-97.634,79.147-176.766,176.766-176.766c97.634,0,176.766,79.139,176.766,176.766
	C471.387,307.129,392.247,386.276,294.613,386.276z"/>
<linearGradient id="SVGID_3_" gradientUnits="userSpaceOnUse" x1="28.2616" y1="641.3987" x2="-22.5804" y2="590.5537" gradientTransform="matrix(7.8769 0 0 -7.8769 364.0537 4969.6694)">
	<stop  offset="0.012" style="stop-color:#E0B386"/>
	<stop  offset="0.519" style="stop-color:#DA498C"/>
	<stop  offset="1" style="stop-color:#961484"/>
</linearGradient>
<path style="fill:url(#SVGID_3_);" d="M289.973,19.543c-107.473,0-194.592,87.127-194.592,194.599
	c0,107.465,87.127,194.584,194.592,194.584s194.591-87.127,194.591-194.584C484.573,106.669,397.446,19.543,289.973,19.543z
	 M322.828,317.755c-75.366,0-136.468-61.101-136.468-136.46c0-75.366,61.101-136.468,136.468-136.468
	c75.351,0,136.468,61.101,136.468,136.468C459.303,256.654,398.186,317.755,322.828,317.755z"/>
<linearGradient id="SVGID_4_" gradientUnits="userSpaceOnUse" x1="-7.0143" y1="606.1196" x2="16.9717" y2="630.1066" gradientTransform="matrix(7.8769 0 0 -7.8769 364.0537 4969.6694)">
	<stop  offset="0" style="stop-color:#29D3DA"/>
	<stop  offset="0.519" style="stop-color:#0077FF"/>
	<stop  offset="0.999" style="stop-color:#064093"/>
	<stop  offset="1" style="stop-color:#084698"/>
</linearGradient>
<path style="fill:url(#SVGID_4_);" d="M327.806,266.145c49.609,0,89.821-40.22,89.821-89.836s-40.212-89.828-89.821-89.828
	s-89.836,40.212-89.836,89.828S278.197,266.145,327.806,266.145z M312.635,128.48c34.8,0,63,28.199,63,63s-28.199,63-63,63
	c-34.792,0-63.008-28.199-63.008-63S277.843,128.48,312.635,128.48z"/>
<g>
</g>
<g>
</g>
<g>
</g>
<g>
</g>
<g>
</g>
<g>
</g>
<g>
</g>
<g>
</g>
<g>
</g>
<g>
</g>
<g>
</g>
<g>
</g>
<g>
</g>
<g>
</g>
<g>
</g>
</svg>
