<?xml version="1.0" encoding="iso-8859-1"?>
<!-- Generator: Adobe Illustrator 19.0.0, SVG Export Plug-In . SVG Version: 6.00 Build 0)  -->
<svg version="1.1" id="Layer_1" xmlns="http://www.w3.org/2000/svg" xmlns:xlink="http://www.w3.org/1999/xlink" x="0px" y="0px"
	 viewBox="0 0 504.123 504.123" style="enable-background:new 0 0 504.123 504.123;" xml:space="preserve">
<linearGradient id="SVGID_1_" gradientUnits="userSpaceOnUse" x1="-53.5829" y1="585.3521" x2="12.3131" y2="568.2821" gradientTransform="matrix(7.8769 0 0 -7.8769 364.0537 4969.7017)">
	<stop  offset="0.012" style="stop-color:#E0B386"/>
	<stop  offset="0.519" style="stop-color:#DA498C"/>
	<stop  offset="1" style="stop-color:#961484"/>
</linearGradient>
<path style="fill:url(#SVGID_1_);" d="M0,392.093h266.429c0,0-10.539,67.482-106.693,65.993C45.678,456.337,0,392.093,0,392.093z"/>
<linearGradient id="SVGID_2_" gradientUnits="userSpaceOnUse" x1="-44.8156" y1="599.5587" x2="-21.8076" y2="573.5497" gradientTransform="matrix(7.8769 0 0 -7.8769 364.0537 4969.7017)">
	<stop  offset="0.012" style="stop-color:#E0B386"/>
	<stop  offset="0.519" style="stop-color:#DA498C"/>
	<stop  offset="1" style="stop-color:#961484"/>
</linearGradient>
<path style="fill:url(#SVGID_2_);" d="M0,392.125l266.429,0.024c0,0-10.539-67.49-106.693-65.993C45.71,327.896,0,392.125,0,392.125
	z"/>
<linearGradient id="SVGID_3_" gradientUnits="userSpaceOnUse" x1="-43.9849" y1="614.1712" x2="-4.5269" y2="547.1192" gradientTransform="matrix(7.8769 0 0 -7.8769 364.0537 4969.7017)">
	<stop  offset="0.012" style="stop-color:#E0B386"/>
	<stop  offset="0.519" style="stop-color:#DA498C"/>
	<stop  offset="1" style="stop-color:#961484"/>
</linearGradient>
<path style="fill:url(#SVGID_3_);" d="M37.675,205.623l215.292,215.316c0,0-63.031,46.009-139.524-32.87
	C22.693,294.443,37.675,205.623,37.675,205.623z"/>
<linearGradient id="SVGID_4_" gradientUnits="userSpaceOnUse" x1="-25.4178" y1="618.5657" x2="-27.8438" y2="578.9587" gradientTransform="matrix(7.8769 0 0 -7.8769 364.0537 4969.7017)">
	<stop  offset="0.012" style="stop-color:#E0B386"/>
	<stop  offset="0.519" style="stop-color:#DA498C"/>
	<stop  offset="1" style="stop-color:#961484"/>
</linearGradient>
<path style="fill:url(#SVGID_4_);" d="M37.644,205.646l215.292,215.316c0,0,46.033-63.031-32.863-139.524
	C126.488,190.665,37.644,205.646,37.644,205.646z"/>
<linearGradient id="SVGID_5_" gradientUnits="userSpaceOnUse" x1="25.1503" y1="585.3522" x2="-40.7517" y2="568.2822" gradientTransform="matrix(7.8769 0 0 -7.8769 364.0537 4969.7017)">
	<stop  offset="0.012" style="stop-color:#E0B386"/>
	<stop  offset="0.519" style="stop-color:#DA498C"/>
	<stop  offset="1" style="stop-color:#961484"/>
</linearGradient>
<path style="fill:url(#SVGID_5_);" d="M504.123,392.093H237.694c0,0,10.539,67.482,106.693,65.993
	C458.445,456.337,504.123,392.093,504.123,392.093z"/>
<linearGradient id="SVGID_6_" gradientUnits="userSpaceOnUse" x1="16.382" y1="599.5599" x2="-6.628" y2="573.5499" gradientTransform="matrix(7.8769 0 0 -7.8769 364.0537 4969.7017)">
	<stop  offset="0.012" style="stop-color:#E0B386"/>
	<stop  offset="0.519" style="stop-color:#DA498C"/>
	<stop  offset="1" style="stop-color:#961484"/>
</linearGradient>
<path style="fill:url(#SVGID_6_);" d="M504.123,392.125l-266.429,0.024c0,0,10.539-67.49,106.693-65.993
	C458.413,327.896,504.123,392.125,504.123,392.125z"/>
<linearGradient id="SVGID_7_" gradientUnits="userSpaceOnUse" x1="15.5489" y1="614.1727" x2="-23.9141" y2="547.1207" gradientTransform="matrix(7.8769 0 0 -7.8769 364.0537 4969.7017)">
	<stop  offset="0.012" style="stop-color:#E0B386"/>
	<stop  offset="0.519" style="stop-color:#DA498C"/>
	<stop  offset="1" style="stop-color:#961484"/>
</linearGradient>
<path style="fill:url(#SVGID_7_);" d="M466.448,205.623L251.124,420.931c0,0,63.031,46.009,139.516-32.87
	C481.43,294.443,466.448,205.623,466.448,205.623z"/>
<linearGradient id="SVGID_8_" gradientUnits="userSpaceOnUse" x1="-3.0207" y1="618.5648" x2="-0.5957" y2="578.9488" gradientTransform="matrix(7.8769 0 0 -7.8769 364.0537 4969.7017)">
	<stop  offset="0.012" style="stop-color:#E0B386"/>
	<stop  offset="0.519" style="stop-color:#DA498C"/>
	<stop  offset="1" style="stop-color:#961484"/>
</linearGradient>
<path style="fill:url(#SVGID_8_);" d="M466.448,205.646L251.156,420.962c0,0-46.033-63.031,32.863-139.524
	C377.643,190.665,466.448,205.646,466.448,205.646z"/>
<linearGradient id="SVGID_9_" gradientUnits="userSpaceOnUse" x1="-8.2836" y1="635.4484" x2="-32.3246" y2="542.6584" gradientTransform="matrix(7.8769 0 0 -7.8769 364.0537 4969.7017)">
	<stop  offset="0.012" style="stop-color:#E0B386"/>
	<stop  offset="0.519" style="stop-color:#DA498C"/>
	<stop  offset="1" style="stop-color:#961484"/>
</linearGradient>
<path style="fill:url(#SVGID_9_);" d="M252.077,46.013v375.178c0,0-95.004-14.824-92.924-150.174
	C161.634,110.344,252.077,46.013,252.077,46.013z"/>
<linearGradient id="SVGID_10_" gradientUnits="userSpaceOnUse" x1="11.7226" y1="623.1033" x2="-24.9034" y2="590.7062" gradientTransform="matrix(7.8769 0 0 -7.8769 364.0537 4969.7017)">
	<stop  offset="0.012" style="stop-color:#E0B386"/>
	<stop  offset="0.519" style="stop-color:#DA498C"/>
	<stop  offset="1" style="stop-color:#961484"/>
</linearGradient>
<path style="fill:url(#SVGID_10_);" d="M252.03,46.013v375.178c0,0,95.004-14.824,92.924-150.174
	C342.481,110.344,252.03,46.013,252.03,46.013z"/>
<g>
</g>
<g>
</g>
<g>
</g>
<g>
</g>
<g>
</g>
<g>
</g>
<g>
</g>
<g>
</g>
<g>
</g>
<g>
</g>
<g>
</g>
<g>
</g>
<g>
</g>
<g>
</g>
<g>
</g>
</svg>
