<?xml version="1.0" encoding="iso-8859-1"?>
<!-- Generator: Adobe Illustrator 19.0.0, SVG Export Plug-In . SVG Version: 6.00 Build 0)  -->
<svg version="1.1" id="Layer_1" xmlns="http://www.w3.org/2000/svg" xmlns:xlink="http://www.w3.org/1999/xlink" x="0px" y="0px"
	 viewBox="0 0 504.123 504.123" style="enable-background:new 0 0 504.123 504.123;" xml:space="preserve">
<linearGradient id="SVGID_1_" gradientUnits="userSpaceOnUse" x1="0.8362" y1="621.9044" x2="-25.8278" y2="621.9044" gradientTransform="matrix(7.8769 0 0 -7.8769 364.0537 4969.6694)">
	<stop  offset="0" style="stop-color:#29D3DA"/>
	<stop  offset="0.519" style="stop-color:#0077FF"/>
	<stop  offset="0.999" style="stop-color:#064093"/>
	<stop  offset="1" style="stop-color:#084698"/>
</linearGradient>
<path style="fill:url(#SVGID_1_);" d="M187.754,118.24C187.754,66.946,216.544,0,252.062,0s64.299,66.946,64.299,118.24
	s-28.782,3.395-64.299,3.395S187.754,169.527,187.754,118.24z"/>
<linearGradient id="SVGID_2_" gradientUnits="userSpaceOnUse" x1="-23.8798" y1="621.9049" x2="15.6722" y2="621.9049" gradientTransform="matrix(7.8769 0 0 -7.8769 364.0537 4969.6694)">
	<stop  offset="0" style="stop-color:#29D3DA"/>
	<stop  offset="0.519" style="stop-color:#0077FF"/>
	<stop  offset="0.999" style="stop-color:#064093"/>
	<stop  offset="1" style="stop-color:#084698"/>
</linearGradient>
<path style="fill:url(#SVGID_2_);" d="M252.062,121.628c-35.517,0-64.307,47.9-64.307-3.395S216.544,0,252.062,0"/>
<linearGradient id="SVGID_3_" gradientUnits="userSpaceOnUse" x1="-29.2728" y1="575.9257" x2="-2.6178" y2="575.9257" gradientTransform="matrix(7.8769 0 0 -7.8769 364.0537 4969.6694)">
	<stop  offset="0" style="stop-color:#29D3DA"/>
	<stop  offset="0.519" style="stop-color:#0077FF"/>
	<stop  offset="0.999" style="stop-color:#064093"/>
	<stop  offset="1" style="stop-color:#084698"/>
</linearGradient>
<path style="fill:url(#SVGID_3_);" d="M316.361,385.883c0,51.295-28.774,118.241-64.291,118.241s-64.299-66.946-64.299-118.241
	s28.782-3.395,64.299-3.395S316.361,334.596,316.361,385.883z"/>
<linearGradient id="SVGID_4_" gradientUnits="userSpaceOnUse" x1="-4.5578" y1="575.9252" x2="-44.0868" y2="575.9252" gradientTransform="matrix(7.8769 0 0 -7.8769 364.0537 4969.6694)">
	<stop  offset="0" style="stop-color:#29D3DA"/>
	<stop  offset="0.519" style="stop-color:#0077FF"/>
	<stop  offset="0.999" style="stop-color:#064093"/>
	<stop  offset="1" style="stop-color:#084698"/>
</linearGradient>
<path style="fill:url(#SVGID_4_);" d="M252.069,382.495c35.517,0,64.291-47.9,64.291,3.395s-28.774,118.233-64.291,118.233"/>
<linearGradient id="SVGID_5_" gradientUnits="userSpaceOnUse" x1="12.6801" y1="604.5259" x2="-6.1719" y2="623.3829" gradientTransform="matrix(7.8769 0 0 -7.8769 364.0537 4969.6694)">
	<stop  offset="0.012" style="stop-color:#E0B386"/>
	<stop  offset="0.519" style="stop-color:#DA498C"/>
	<stop  offset="1" style="stop-color:#961484"/>
</linearGradient>
<path style="fill:url(#SVGID_5_);" d="M301.221,111.97c36.265-36.265,103.96-63.252,129.079-38.14
	c25.112,25.112-1.875,92.798-38.148,129.071c-36.265,36.265-22.756-17.952-47.86-43.071
	C319.173,134.727,264.956,148.236,301.221,111.97z"/>
<linearGradient id="SVGID_6_" gradientUnits="userSpaceOnUse" x1="-4.7934" y1="622.0034" x2="23.1716" y2="594.0354" gradientTransform="matrix(7.8769 0 0 -7.8769 364.0537 4969.6694)">
	<stop  offset="0.012" style="stop-color:#E0B386"/>
	<stop  offset="0.519" style="stop-color:#DA498C"/>
	<stop  offset="1" style="stop-color:#961484"/>
</linearGradient>
<path style="fill:url(#SVGID_6_);" d="M344.292,159.831c-25.12-25.112-79.336-11.595-43.071-47.86s103.96-63.252,129.079-38.14"/>
<linearGradient id="SVGID_7_" gradientUnits="userSpaceOnUse" x1="-41.1175" y1="593.3053" x2="-22.2655" y2="574.4503" gradientTransform="matrix(7.8769 0 0 -7.8769 364.0537 4969.6694)">
	<stop  offset="0.012" style="stop-color:#E0B386"/>
	<stop  offset="0.519" style="stop-color:#DA498C"/>
	<stop  offset="1" style="stop-color:#961484"/>
</linearGradient>
<path style="fill:url(#SVGID_7_);" d="M202.902,392.16c-36.265,36.265-103.952,63.252-129.063,38.14s1.867-92.806,38.132-129.079
	c36.273-36.265,22.756,17.959,47.876,43.071C184.95,369.404,239.175,355.887,202.902,392.16z"/>
<linearGradient id="SVGID_8_" gradientUnits="userSpaceOnUse" x1="-23.6383" y1="575.8245" x2="-51.6013" y2="603.7845" gradientTransform="matrix(7.8769 0 0 -7.8769 364.0537 4969.6694)">
	<stop  offset="0.012" style="stop-color:#E0B386"/>
	<stop  offset="0.519" style="stop-color:#DA498C"/>
	<stop  offset="1" style="stop-color:#961484"/>
</linearGradient>
<path style="fill:url(#SVGID_8_);" d="M159.846,344.292c25.112,25.112,79.328,11.595,43.055,47.868
	c-36.265,36.265-103.952,63.252-129.063,38.14"/>
<linearGradient id="SVGID_9_" gradientUnits="userSpaceOnUse" x1="8.1885" y1="596.976" x2="-39.3654" y2="623.637" gradientTransform="matrix(7.8769 0 0 -7.8769 364.0537 4969.6694)">
	<stop  offset="0" style="stop-color:#29D3DA"/>
	<stop  offset="0.519" style="stop-color:#0077FF"/>
	<stop  offset="0.999" style="stop-color:#064093"/>
	<stop  offset="1" style="stop-color:#084698"/>
</linearGradient>
<path style="fill:url(#SVGID_9_);" d="M385.883,187.762c51.295,0.008,118.241,28.782,118.241,64.299
	c0.008,35.517-66.946,64.291-118.241,64.291c-51.287,0-3.395-28.774-3.395-64.291S334.596,187.762,385.883,187.762z"/>
<linearGradient id="SVGID_10_" gradientUnits="userSpaceOnUse" x1="7.0159" y1="601.144" x2="-40.5381" y2="561.603" gradientTransform="matrix(7.8769 0 0 -7.8769 364.0537 4969.6694)">
	<stop  offset="0" style="stop-color:#29D3DA"/>
	<stop  offset="0.519" style="stop-color:#0077FF"/>
	<stop  offset="0.999" style="stop-color:#064093"/>
	<stop  offset="1" style="stop-color:#084698"/>
</linearGradient>
<path style="fill:url(#SVGID_10_);" d="M382.495,252.062c0-35.517-47.9-64.299,3.395-64.299
	c51.287,0.008,118.233,28.782,118.233,64.299"/>
<linearGradient id="SVGID_11_" gradientUnits="userSpaceOnUse" x1="-0.8746" y1="617.0194" x2="-48.4286" y2="590.3564" gradientTransform="matrix(7.8769 0 0 -7.8769 364.0537 4969.6694)">
	<stop  offset="0" style="stop-color:#29D3DA"/>
	<stop  offset="0.519" style="stop-color:#0077FF"/>
	<stop  offset="0.999" style="stop-color:#064093"/>
	<stop  offset="1" style="stop-color:#084698"/>
</linearGradient>
<path style="fill:url(#SVGID_11_);" d="M118.24,316.361C66.954,316.361,0,287.586,0,252.069s66.938-64.299,118.248-64.299
	c51.287,0,3.387,28.782,3.403,64.299C121.628,287.586,169.535,316.361,118.24,316.361z"/>
<linearGradient id="SVGID_12_" gradientUnits="userSpaceOnUse" x1="-11.0013" y1="575.0143" x2="-58.5553" y2="614.5433" gradientTransform="matrix(7.8769 0 0 -7.8769 364.0537 4969.6694)">
	<stop  offset="0" style="stop-color:#29D3DA"/>
	<stop  offset="0.519" style="stop-color:#0077FF"/>
	<stop  offset="0.999" style="stop-color:#064093"/>
	<stop  offset="1" style="stop-color:#084698"/>
</linearGradient>
<path style="fill:url(#SVGID_12_);" d="M121.643,252.069c-0.016,35.517,47.892,64.291-3.411,64.291
	C66.954,316.361,0,287.586,0,252.069"/>
<linearGradient id="SVGID_13_" gradientUnits="userSpaceOnUse" x1="-8.6008" y1="572.0181" x2="10.2452" y2="590.8691" gradientTransform="matrix(7.8769 0 0 -7.8769 364.0537 4969.6694)">
	<stop  offset="0.012" style="stop-color:#E0B386"/>
	<stop  offset="0.519" style="stop-color:#DA498C"/>
	<stop  offset="1" style="stop-color:#961484"/>
</linearGradient>
<path style="fill:url(#SVGID_13_);" d="M392.153,301.221c36.265,36.265,63.252,103.952,38.148,129.071
	c-25.112,25.12-92.806-1.875-129.079-38.148c-36.265-36.265,17.944-22.749,43.071-47.852
	C369.396,319.173,355.887,264.948,392.153,301.221z"/>
<linearGradient id="SVGID_14_" gradientUnits="userSpaceOnUse" x1="8.8709" y1="589.4914" x2="-19.0891" y2="561.5334" gradientTransform="matrix(7.8769 0 0 -7.8769 364.0537 4969.6694)">
	<stop  offset="0.012" style="stop-color:#E0B386"/>
	<stop  offset="0.519" style="stop-color:#DA498C"/>
	<stop  offset="1" style="stop-color:#961484"/>
</linearGradient>
<path style="fill:url(#SVGID_14_);" d="M344.292,344.292c25.112-25.12,11.595-79.344,47.86-43.071
	c36.265,36.265,63.252,103.952,38.148,129.071"/>
<linearGradient id="SVGID_15_" gradientUnits="userSpaceOnUse" x1="-19.8305" y1="625.8158" x2="-38.6785" y2="606.9628" gradientTransform="matrix(7.8769 0 0 -7.8769 364.0537 4969.6694)">
	<stop  offset="0.012" style="stop-color:#E0B386"/>
	<stop  offset="0.519" style="stop-color:#DA498C"/>
	<stop  offset="1" style="stop-color:#961484"/>
</linearGradient>
<path style="fill:url(#SVGID_15_);" d="M111.963,202.902C75.705,166.636,48.711,98.95,73.823,73.838s92.806,1.859,129.079,38.14
	c36.265,36.265-17.959,22.749-43.071,47.868C134.719,184.95,148.244,239.175,111.963,202.902z"/>
<linearGradient id="SVGID_16_" gradientUnits="userSpaceOnUse" x1="-37.3069" y1="608.3362" x2="-9.3489" y2="636.3002" gradientTransform="matrix(7.8769 0 0 -7.8769 364.0537 4969.6694)">
	<stop  offset="0.012" style="stop-color:#E0B386"/>
	<stop  offset="0.519" style="stop-color:#DA498C"/>
	<stop  offset="1" style="stop-color:#961484"/>
</linearGradient>
<path style="fill:url(#SVGID_16_);" d="M159.831,159.846c-25.112,25.112-11.587,79.328-47.868,43.055
	C75.705,166.636,48.711,98.95,73.823,73.838"/>
<linearGradient id="SVGID_17_" gradientUnits="userSpaceOnUse" x1="-14.2178" y1="581.3251" x2="-14.2178" y2="604.6401" gradientTransform="matrix(7.8769 0 0 -7.8769 364.0537 4969.6694)">
	<stop  offset="0.012" style="stop-color:#E0B386"/>
	<stop  offset="0.519" style="stop-color:#DA498C"/>
	<stop  offset="1" style="stop-color:#961484"/>
</linearGradient>
<circle style="fill:url(#SVGID_17_);" cx="252.062" cy="252.069" r="77.446"/>
<linearGradient id="SVGID_18_" gradientUnits="userSpaceOnUse" x1="-14.2173" y1="621.55" x2="-14.2173" y2="581.3951" gradientTransform="matrix(7.8769 0 0 -7.8769 364.0537 4969.6694)">
	<stop  offset="0.012" style="stop-color:#E0B386"/>
	<stop  offset="0.519" style="stop-color:#DA498C"/>
	<stop  offset="1" style="stop-color:#961484"/>
</linearGradient>
<path style="fill:url(#SVGID_18_);" d="M174.624,252.069c0-42.78,34.666-77.43,77.438-77.43s77.446,34.651,77.446,77.43"/>
<g>
</g>
<g>
</g>
<g>
</g>
<g>
</g>
<g>
</g>
<g>
</g>
<g>
</g>
<g>
</g>
<g>
</g>
<g>
</g>
<g>
</g>
<g>
</g>
<g>
</g>
<g>
</g>
<g>
</g>
</svg>
