<?xml version="1.0" encoding="iso-8859-1"?>
<!-- Generator: Adobe Illustrator 19.0.0, SVG Export Plug-In . SVG Version: 6.00 Build 0)  -->
<svg version="1.1" id="Layer_1" xmlns="http://www.w3.org/2000/svg" xmlns:xlink="http://www.w3.org/1999/xlink" x="0px" y="0px"
	 viewBox="0 0 504.115 504.115" style="enable-background:new 0 0 504.115 504.115;" xml:space="preserve">
<linearGradient id="SVGID_1_" gradientUnits="userSpaceOnUse" x1="1.9897" y1="553.395" x2="1.9897" y2="597.846" gradientTransform="matrix(7.8769 0 0 -7.8769 364.0537 4969.6689)">
	<stop  offset="0.012" style="stop-color:#E0B386"/>
	<stop  offset="0.519" style="stop-color:#DA498C"/>
	<stop  offset="1" style="stop-color:#961484"/>
</linearGradient>
<path style="fill:url(#SVGID_1_);" d="M376.123,361.85c-32.705,0-63.874,6.68-92.223,18.739
	c38.266,27.506,69.002,64.827,88.497,108.26c43.961-23.922,79.951-60.581,103.156-104.999
	C445.306,369.774,411.632,361.85,376.123,361.85z"/>
<linearGradient id="SVGID_2_" gradientUnits="userSpaceOnUse" x1="1.9897" y1="590.145" x2="1.9897" y2="574.145" gradientTransform="matrix(7.8769 0 0 -7.8769 364.0537 4969.6689)">
	<stop  offset="0.012" style="stop-color:#E0B386"/>
	<stop  offset="0.519" style="stop-color:#DA498C"/>
	<stop  offset="1" style="stop-color:#961484"/>
</linearGradient>
<path style="fill:url(#SVGID_2_);" d="M475.553,383.85c-30.247-14.076-63.921-22-99.43-22c-32.705,0-63.874,6.68-92.223,18.739"/>
<linearGradient id="SVGID_3_" gradientUnits="userSpaceOnUse" x1="-30.4253" y1="553.395" x2="-30.4253" y2="597.846" gradientTransform="matrix(7.8769 0 0 -7.8769 364.0537 4969.6689)">
	<stop  offset="0.012" style="stop-color:#E0B386"/>
	<stop  offset="0.519" style="stop-color:#DA498C"/>
	<stop  offset="1" style="stop-color:#961484"/>
</linearGradient>
<path style="fill:url(#SVGID_3_);" d="M28.57,383.85c23.198,44.418,59.195,81.077,103.156,104.999
	c19.503-43.433,50.231-80.754,88.497-108.26C191.874,368.53,160.705,361.85,128,361.85C92.491,361.85,58.817,369.774,28.57,383.85z"
	/>
<linearGradient id="SVGID_4_" gradientUnits="userSpaceOnUse" x1="-30.4253" y1="592.265" x2="-30.4253" y2="567.975" gradientTransform="matrix(7.8769 0 0 -7.8769 364.0537 4969.6689)">
	<stop  offset="0.012" style="stop-color:#E0B386"/>
	<stop  offset="0.519" style="stop-color:#DA498C"/>
	<stop  offset="1" style="stop-color:#961484"/>
</linearGradient>
<path style="fill:url(#SVGID_4_);" d="M220.223,380.589C191.874,368.53,160.705,361.85,128,361.85c-35.509,0-69.183,7.924-99.43,22"
	/>
<linearGradient id="SVGID_5_" gradientUnits="userSpaceOnUse" x1="-14.2183" y1="571.4771" x2="-14.2183" y2="625.028" gradientTransform="matrix(7.8769 0 0 -7.8769 364.0537 4969.6689)">
	<stop  offset="0" style="stop-color:#29D3DA"/>
	<stop  offset="0.519" style="stop-color:#0077FF"/>
	<stop  offset="0.999" style="stop-color:#064093"/>
	<stop  offset="1" style="stop-color:#084698"/>
</linearGradient>
<path style="fill:url(#SVGID_5_);" d="M252.062,15.265C112.845,15.265,0,128.11,0,267.327c0,30.862,5.569,60.432,15.73,87.773
	c34.162-15.848,72.192-24.757,112.27-24.757c39.306,0,76.627,8.554,110.277,23.843v-77.832c-0.284,0.449-0.488,0.756-0.488,0.756
	s-28.711,20.905-63.496-14.966c-41.307-42.614-34.493-83.015-34.493-83.015h0.008c0,0,40.44-6.766,83.007,34.493
	c12.934,12.54,18.432,24.245,20.244,34.139c2.418-2.095,5.537-3.419,9.003-3.419c3.45,0,6.569,1.323,8.995,3.419
	c1.82-9.893,7.318-21.599,20.252-34.139c42.559-41.259,82.936-34.509,82.999-34.493h0.016c0,0,6.814,40.401-34.509,83.015
	c-34.8,35.911-63.496,14.966-63.496,14.966l0.008-0.016c-0.008-0.016-0.205-0.307-0.488-0.74v77.832
	c33.65-15.289,70.971-23.843,110.277-23.843c40.078,0,78.1,8.909,112.262,24.757c10.169-27.341,15.738-56.911,15.738-87.773
	C504.123,128.118,391.278,15.265,252.062,15.265z M304.089,45.04l17.849,17.865c2.135,2.127,2.135,5.569,0,7.696
	c-14.95,14.966-33.571,24.111-53.004,27.443c3.34-19.417,12.477-38.03,27.443-53.004C298.52,42.913,301.97,42.913,304.089,45.04z
	 M239.427,28.719h25.246c3.017,0,5.443,2.45,5.443,5.443c0,21.173-6.695,40.787-18.062,56.895
	c-11.366-16.108-18.062-35.722-18.062-56.895C234,31.161,236.434,28.719,239.427,28.719z M182.075,62.897l17.952-17.967
	c2.127-2.127,5.569-2.127,7.712,0c14.982,14.998,24.135,33.658,27.459,53.138c-19.48-3.324-38.14-12.477-53.122-27.475
	C179.94,68.466,179.94,65.024,182.075,62.897z M165.786,127.622v-25.403c0-3.017,2.434-5.443,5.443-5.443
	c21.197,0,40.865,6.735,56.982,18.156c-16.124,11.398-35.785,18.141-56.982,18.141C168.212,133.073,165.786,130.639,165.786,127.622
	z M207.738,184.808c-2.135,2.135-5.585,2.135-7.712,0l-17.849-17.865c-2.135-2.127-2.135-5.569,0-7.712
	c14.95-14.95,33.571-24.096,53.004-27.427C231.834,151.237,222.704,169.842,207.738,184.808z M264.68,201.129h-25.246
	c-3.001,0-5.427-2.434-5.427-5.443c0-21.157,6.695-40.787,18.062-56.895c11.366,16.108,18.062,35.738,18.062,56.895
	C270.123,198.703,267.689,201.129,264.68,201.129z M322.048,166.943l-17.951,17.967c-2.127,2.127-5.569,2.127-7.712,0
	c-14.998-14.998-24.135-33.658-27.459-53.122c19.48,3.324,38.14,12.461,53.122,27.459
	C324.183,161.374,324.183,164.825,322.048,166.943z M338.337,127.622c0,3.017-2.434,5.443-5.443,5.443
	c-21.213,0-40.865-6.735-56.982-18.141c16.124-11.414,35.769-18.156,56.982-18.156c3.017,0,5.443,2.434,5.443,5.443L338.337,127.622
	L338.337,127.622z"/>
<linearGradient id="SVGID_6_" gradientUnits="userSpaceOnUse" x1="-14.2178" y1="588.643" x2="-14.2178" y2="650.525" gradientTransform="matrix(7.8769 0 0 -7.8769 364.0537 4969.6689)">
	<stop  offset="0" style="stop-color:#29D3DA"/>
	<stop  offset="0.519" style="stop-color:#0077FF"/>
	<stop  offset="0.999" style="stop-color:#064093"/>
	<stop  offset="1" style="stop-color:#084698"/>
</linearGradient>
<path style="fill:url(#SVGID_6_);" d="M485.155,171.331C447.393,79.746,357.274,15.265,252.062,15.265S56.722,79.746,18.968,171.331
	c33.288,17.558,75.847,31.327,124.243,39.676c-5.585-18.952-3.419-31.878-3.419-31.878h0.008c0,0,40.44-6.766,83.007,34.493
	c2.08,2.032,3.907,4.017,5.624,5.986c7.806,0.276,15.667,0.465,23.623,0.465c7.956,0,15.817-0.181,23.615-0.465
	c1.725-1.969,3.545-3.954,5.632-5.986c42.559-41.259,82.936-34.509,82.999-34.493h0.016c0,0,2.166,12.926-3.419,31.878
	C409.309,202.657,451.86,188.881,485.155,171.331z M304.089,45.04l17.849,17.865c2.135,2.127,2.135,5.569,0,7.696
	c-14.95,14.966-33.571,24.111-53.004,27.443c3.34-19.417,12.477-38.03,27.443-53.004C298.52,42.913,301.97,42.913,304.089,45.04z
	 M239.427,28.719h25.246c3.017,0,5.443,2.45,5.443,5.443c0,21.173-6.695,40.787-18.062,56.895
	c-11.366-16.108-18.062-35.722-18.062-56.895C234,31.161,236.434,28.719,239.427,28.719z M182.075,62.897l17.952-17.967
	c2.127-2.127,5.569-2.127,7.712,0c14.982,14.998,24.135,33.658,27.459,53.138c-19.48-3.324-38.14-12.477-53.122-27.475
	C179.94,68.466,179.94,65.024,182.075,62.897z M165.786,127.622v-25.403c0-3.017,2.434-5.443,5.443-5.443
	c21.197,0,40.865,6.735,56.982,18.156c-16.124,11.398-35.785,18.141-56.982,18.141C168.212,133.073,165.786,130.639,165.786,127.622
	z M207.738,184.808c-2.135,2.135-5.585,2.135-7.712,0l-17.849-17.865c-2.135-2.127-2.135-5.569,0-7.712
	c14.95-14.95,33.571-24.096,53.004-27.427C231.834,151.237,222.704,169.842,207.738,184.808z M264.68,201.129h-25.246
	c-3.001,0-5.427-2.434-5.427-5.443c0-21.157,6.695-40.787,18.062-56.895c11.366,16.108,18.062,35.738,18.062,56.895
	C270.123,198.703,267.689,201.129,264.68,201.129z M322.048,166.943l-17.951,17.967c-2.127,2.127-5.569,2.127-7.712,0
	c-14.998-14.998-24.135-33.658-27.459-53.122c19.48,3.324,38.14,12.461,53.122,27.459
	C324.183,161.374,324.183,164.825,322.048,166.943z M338.337,127.622c0,3.017-2.434,5.443-5.443,5.443
	c-21.213,0-40.865-6.735-56.982-18.141c16.124-11.414,35.769-18.156,56.982-18.156c3.017,0,5.443,2.434,5.443,5.443L338.337,127.622
	L338.337,127.622z"/>
<g>
</g>
<g>
</g>
<g>
</g>
<g>
</g>
<g>
</g>
<g>
</g>
<g>
</g>
<g>
</g>
<g>
</g>
<g>
</g>
<g>
</g>
<g>
</g>
<g>
</g>
<g>
</g>
<g>
</g>
</svg>
