<?xml version="1.0" encoding="iso-8859-1"?>
<!-- Generator: Adobe Illustrator 19.0.0, SVG Export Plug-In . SVG Version: 6.00 Build 0)  -->
<svg version="1.1" id="Layer_1" xmlns="http://www.w3.org/2000/svg" xmlns:xlink="http://www.w3.org/1999/xlink" x="0px" y="0px"
	 viewBox="0 0 496.25 496.25" style="enable-background:new 0 0 496.25 496.25;" xml:space="preserve">
<linearGradient id="SVGID_1_" gradientUnits="userSpaceOnUse" x1="-11.6343" y1="597.3423" x2="-64.4233" y2="566.2823" gradientTransform="matrix(7.8769 0 0 -7.8769 391.1344 4934.6899)">
	<stop  offset="0" style="stop-color:#29D3DA"/>
	<stop  offset="0.519" style="stop-color:#0077FF"/>
	<stop  offset="0.999" style="stop-color:#064093"/>
	<stop  offset="1" style="stop-color:#084698"/>
</linearGradient>
<path style="fill:url(#SVGID_1_);" d="M241.428,245.285L71.933,414.773c0,0-36.226-49.617,25.868-109.82
	C171.505,233.486,241.428,245.285,241.428,245.285z"/>
<linearGradient id="SVGID_2_" gradientUnits="userSpaceOnUse" x1="-8.1797" y1="582.726" x2="-39.3607" y2="584.635" gradientTransform="matrix(7.8769 0 0 -7.8769 391.1344 4934.6899)">
	<stop  offset="0" style="stop-color:#29D3DA"/>
	<stop  offset="0.519" style="stop-color:#0077FF"/>
	<stop  offset="0.999" style="stop-color:#064093"/>
	<stop  offset="1" style="stop-color:#084698"/>
</linearGradient>
<path style="fill:url(#SVGID_2_);" d="M241.413,245.254L71.917,414.765c0,0,49.609,36.21,109.82-25.884
	C253.196,315.193,241.413,245.254,241.413,245.254z"/>
<linearGradient id="SVGID_3_" gradientUnits="userSpaceOnUse" x1="-52.2156" y1="627.1966" x2="-10.6666" y2="556.5926" gradientTransform="matrix(7.8769 0 0 -7.8769 391.1344 4934.6899)">
	<stop  offset="0.012" style="stop-color:#E0B386"/>
	<stop  offset="0.519" style="stop-color:#DA498C"/>
	<stop  offset="1" style="stop-color:#961484"/>
</linearGradient>
<path style="fill:url(#SVGID_3_);" d="M0.969,71.93l226.721,226.706c0,0-66.363,48.443-146.897-34.595
	C-14.792,165.461,0.969,71.93,0.969,71.93z"/>
<linearGradient id="SVGID_4_" gradientUnits="userSpaceOnUse" x1="-32.6651" y1="631.8226" x2="-35.2182" y2="590.1146" gradientTransform="matrix(7.8769 0 0 -7.8769 391.1344 4934.6899)">
	<stop  offset="0.012" style="stop-color:#E0B386"/>
	<stop  offset="0.519" style="stop-color:#DA498C"/>
	<stop  offset="1" style="stop-color:#961484"/>
</linearGradient>
<path style="fill:url(#SVGID_4_);" d="M0.962,71.962l226.706,226.706c0,0,48.443-66.363-34.603-146.897
	C94.484,56.176,0.962,71.962,0.962,71.962z"/>
<linearGradient id="SVGID_5_" gradientUnits="userSpaceOnUse" x1="-43.7213" y1="590.2946" x2="-44.0763" y2="582.4996" gradientTransform="matrix(7.8769 0 0 -7.8769 391.1344 4934.6899)">
	<stop  offset="0.012" style="stop-color:#E0B386"/>
	<stop  offset="0.519" style="stop-color:#DA498C"/>
	<stop  offset="1" style="stop-color:#961484"/>
</linearGradient>
<path style="fill:url(#SVGID_5_);" d="M52.232,293.87c0,3.237-2.631,5.868-5.892,5.868c-3.253,0-5.892-2.631-5.892-5.868
	c0-3.277,2.639-5.908,5.892-5.908C49.602,287.963,52.232,290.593,52.232,293.87z"/>
<linearGradient id="SVGID_6_" gradientUnits="userSpaceOnUse" x1="-42.2798" y1="587.6466" x2="-42.5078" y2="582.6416" gradientTransform="matrix(7.8769 0 0 -7.8769 391.1344 4934.6899)">
	<stop  offset="0.012" style="stop-color:#E0B386"/>
	<stop  offset="0.519" style="stop-color:#DA498C"/>
	<stop  offset="1" style="stop-color:#961484"/>
</linearGradient>
<circle style="fill:url(#SVGID_6_);" cx="57.841" cy="311.522" r="3.789"/>
<linearGradient id="SVGID_7_" gradientUnits="userSpaceOnUse" x1="-42.8175" y1="592.4806" x2="-43.0195" y2="588.0345" gradientTransform="matrix(7.8769 0 0 -7.8769 391.1344 4934.6899)">
	<stop  offset="0" style="stop-color:#29D3DA"/>
	<stop  offset="0.519" style="stop-color:#0077FF"/>
	<stop  offset="0.999" style="stop-color:#064093"/>
	<stop  offset="1" style="stop-color:#084698"/>
</linearGradient>
<circle style="fill:url(#SVGID_7_);" cx="53.635" cy="272.815" r="3.371"/>
<linearGradient id="SVGID_8_" gradientUnits="userSpaceOnUse" x1="-44.7385" y1="585.1945" x2="-45.3205" y2="572.3945" gradientTransform="matrix(7.8769 0 0 -7.8769 391.1344 4934.6899)">
	<stop  offset="0" style="stop-color:#29D3DA"/>
	<stop  offset="0.519" style="stop-color:#0077FF"/>
	<stop  offset="0.999" style="stop-color:#064093"/>
	<stop  offset="1" style="stop-color:#084698"/>
</linearGradient>
<circle style="fill:url(#SVGID_8_);" cx="38.07" cy="339.73" r="9.673"/>
<linearGradient id="SVGID_9_" gradientUnits="userSpaceOnUse" x1="-46.3477" y1="599.5066" x2="-47.1327" y2="582.2446" gradientTransform="matrix(7.8769 0 0 -7.8769 391.1344 4934.6899)">
	<stop  offset="0.012" style="stop-color:#E0B386"/>
	<stop  offset="0.519" style="stop-color:#DA498C"/>
	<stop  offset="1" style="stop-color:#961484"/>
</linearGradient>
<circle style="fill:url(#SVGID_9_);" cx="25.167" cy="231.997" r="13.044"/>
<linearGradient id="SVGID_10_" gradientUnits="userSpaceOnUse" x1="-24.6718" y1="597.341" x2="28.1122" y2="566.281" gradientTransform="matrix(7.8769 0 0 -7.8769 391.1344 4934.6899)">
	<stop  offset="0" style="stop-color:#29D3DA"/>
	<stop  offset="0.519" style="stop-color:#0077FF"/>
	<stop  offset="0.999" style="stop-color:#064093"/>
	<stop  offset="1" style="stop-color:#084698"/>
</linearGradient>
<path style="fill:url(#SVGID_10_);" d="M254.835,245.285L424.33,414.781c0,0,36.21-49.617-25.868-109.82
	C324.758,233.486,254.835,245.285,254.835,245.285z"/>
<linearGradient id="SVGID_11_" gradientUnits="userSpaceOnUse" x1="-28.1286" y1="582.726" x2="3.0514" y2="584.635" gradientTransform="matrix(7.8769 0 0 -7.8769 391.1344 4934.6899)">
	<stop  offset="0" style="stop-color:#29D3DA"/>
	<stop  offset="0.519" style="stop-color:#0077FF"/>
	<stop  offset="0.999" style="stop-color:#064093"/>
	<stop  offset="1" style="stop-color:#084698"/>
</linearGradient>
<path style="fill:url(#SVGID_11_);" d="M254.851,245.254l169.496,169.511c0,0-49.609,36.21-109.82-25.884
	C243.051,315.193,254.851,245.254,254.851,245.254z"/>
<linearGradient id="SVGID_12_" gradientUnits="userSpaceOnUse" x1="15.9017" y1="627.1951" x2="-25.6383" y2="556.5931" gradientTransform="matrix(7.8769 0 0 -7.8769 391.1344 4934.6899)">
	<stop  offset="0.012" style="stop-color:#E0B386"/>
	<stop  offset="0.519" style="stop-color:#DA498C"/>
	<stop  offset="1" style="stop-color:#961484"/>
</linearGradient>
<path style="fill:url(#SVGID_12_);" d="M495.278,71.93L268.572,298.636c0,0,66.363,48.443,146.897-34.595
	C511.055,165.461,495.278,71.93,495.278,71.93z"/>
<linearGradient id="SVGID_13_" gradientUnits="userSpaceOnUse" x1="-3.6453" y1="631.8236" x2="-1.0913" y2="590.1146" gradientTransform="matrix(7.8769 0 0 -7.8769 391.1344 4934.6899)">
	<stop  offset="0.012" style="stop-color:#E0B386"/>
	<stop  offset="0.519" style="stop-color:#DA498C"/>
	<stop  offset="1" style="stop-color:#961484"/>
</linearGradient>
<path style="fill:url(#SVGID_13_);" d="M495.301,71.962L268.596,298.667c0,0-48.459-66.363,34.595-146.897
	C401.779,56.176,495.301,71.962,495.301,71.962z"/>
<linearGradient id="SVGID_14_" gradientUnits="userSpaceOnUse" x1="7.4127" y1="590.2945" x2="7.7627" y2="582.4995" gradientTransform="matrix(7.8769 0 0 -7.8769 391.1344 4934.6899)">
	<stop  offset="0.012" style="stop-color:#E0B386"/>
	<stop  offset="0.519" style="stop-color:#DA498C"/>
	<stop  offset="1" style="stop-color:#961484"/>
</linearGradient>
<path style="fill:url(#SVGID_14_);" d="M444.031,293.87c0,3.237,2.631,5.868,5.892,5.868c3.253,0,5.892-2.631,5.892-5.868
	c0-3.277-2.631-5.908-5.892-5.908C446.661,287.963,444.031,290.593,444.031,293.87z"/>
<linearGradient id="SVGID_15_" gradientUnits="userSpaceOnUse" x1="5.9686" y1="587.6464" x2="6.1956" y2="582.6414" gradientTransform="matrix(7.8769 0 0 -7.8769 391.1344 4934.6899)">
	<stop  offset="0.012" style="stop-color:#E0B386"/>
	<stop  offset="0.519" style="stop-color:#DA498C"/>
	<stop  offset="1" style="stop-color:#961484"/>
</linearGradient>
<circle style="fill:url(#SVGID_15_);" cx="438.406" cy="311.522" r="3.789"/>
<linearGradient id="SVGID_16_" gradientUnits="userSpaceOnUse" x1="6.5041" y1="592.4805" x2="6.7141" y2="588.0345" gradientTransform="matrix(7.8769 0 0 -7.8769 391.1344 4934.6899)">
	<stop  offset="0" style="stop-color:#29D3DA"/>
	<stop  offset="0.519" style="stop-color:#0077FF"/>
	<stop  offset="0.999" style="stop-color:#064093"/>
	<stop  offset="1" style="stop-color:#084698"/>
</linearGradient>
<circle style="fill:url(#SVGID_16_);" cx="442.605" cy="272.815" r="3.363"/>
<linearGradient id="SVGID_17_" gradientUnits="userSpaceOnUse" x1="8.4299" y1="585.1948" x2="9.0139" y2="572.3948" gradientTransform="matrix(7.8769 0 0 -7.8769 391.1344 4934.6899)">
	<stop  offset="0" style="stop-color:#29D3DA"/>
	<stop  offset="0.519" style="stop-color:#0077FF"/>
	<stop  offset="0.999" style="stop-color:#064093"/>
	<stop  offset="1" style="stop-color:#084698"/>
</linearGradient>
<circle style="fill:url(#SVGID_17_);" cx="458.201" cy="339.73" r="9.681"/>
<linearGradient id="SVGID_18_" gradientUnits="userSpaceOnUse" x1="10.0367" y1="599.5056" x2="10.8257" y2="582.2546" gradientTransform="matrix(7.8769 0 0 -7.8769 391.1344 4934.6899)">
	<stop  offset="0.012" style="stop-color:#E0B386"/>
	<stop  offset="0.519" style="stop-color:#DA498C"/>
	<stop  offset="1" style="stop-color:#961484"/>
</linearGradient>
<circle style="fill:url(#SVGID_18_);" cx="471.088" cy="231.997" r="13.044"/>
<linearGradient id="SVGID_19_" gradientUnits="userSpaceOnUse" x1="-18.1547" y1="570.4446" x2="-18.1547" y2="606.9695" gradientTransform="matrix(7.8769 0 0 -7.8769 391.1344 4934.6899)">
	<stop  offset="0" style="stop-color:#29D3DA"/>
	<stop  offset="0.519" style="stop-color:#0077FF"/>
	<stop  offset="0.999" style="stop-color:#064093"/>
	<stop  offset="1" style="stop-color:#084698"/>
</linearGradient>
<path style="fill:url(#SVGID_19_);" d="M291.013,316.894c0.953-62.141-42.386-69.254-42.874-69.317v-0.008h-0.016l0,0v0.016
	c-0.488,0.063-43.843,7.176-42.874,69.317c1.134,73.949,42.63,103.676,42.874,103.849v0.032v-0.016l0.016,0.016v-0.032
	C248.384,420.578,289.879,390.843,291.013,316.894z"/>
<linearGradient id="SVGID_20_" gradientUnits="userSpaceOnUse" x1="4.6844" y1="583.8372" x2="-21.0616" y2="584.0771" gradientTransform="matrix(7.8769 0 0 -7.8769 391.1344 4934.6899)">
	<stop  offset="0" style="stop-color:#29D3DA"/>
	<stop  offset="0.519" style="stop-color:#0077FF"/>
	<stop  offset="0.999" style="stop-color:#064093"/>
	<stop  offset="1" style="stop-color:#084698"/>
</linearGradient>
<path style="fill:url(#SVGID_20_);" d="M248.124,420.744v0.032v-0.016l0.016,0.016v-0.032c0.244-0.165,41.74-29.901,42.874-103.849
	c0.953-62.141-42.386-69.254-42.874-69.317v-0.008h-0.016l0,0v0.016"/>
<linearGradient id="SVGID_21_" gradientUnits="userSpaceOnUse" x1="-18.1547" y1="599.1946" x2="-18.1547" y2="586.4045" gradientTransform="matrix(7.8769 0 0 -7.8769 391.1344 4934.6899)">
	<stop  offset="0.012" style="stop-color:#E0B386"/>
	<stop  offset="0.519" style="stop-color:#DA498C"/>
	<stop  offset="1" style="stop-color:#961484"/>
</linearGradient>
<path style="fill:url(#SVGID_21_);" d="M248.124,272.343v-0.016l0,0h0.016v0.016c0.457,0.063,37.431,6.223,42.299,56.202
	c0.291-3.773,0.512-7.617,0.575-11.65c0.953-62.141-42.386-69.254-42.874-69.317v-0.008h-0.016l0,0v0.016
	c-0.488,0.063-43.843,7.176-42.874,69.317c0.063,4.033,0.291,7.877,0.575,11.65C210.692,278.565,247.667,272.406,248.124,272.343z"
	/>
<linearGradient id="SVGID_22_" gradientUnits="userSpaceOnUse" x1="-18.1547" y1="591.8336" x2="-18.1547" y2="582.3546" gradientTransform="matrix(7.8769 0 0 -7.8769 391.1344 4934.6899)">
	<stop  offset="0.012" style="stop-color:#E0B386"/>
	<stop  offset="0.519" style="stop-color:#DA498C"/>
	<stop  offset="1" style="stop-color:#961484"/>
</linearGradient>
<path style="fill:url(#SVGID_22_);" d="M248.139,297.092L248.139,297.092h-0.016l0,0l0,0c-0.425,0.063-32.075,5.396-40.676,45.71
	c0.803,5.057,1.843,9.728,3.001,14.249c11.296-30.736,37.313-35.131,37.675-35.194l0,0l0,0h0.016l0,0
	c0.362,0.063,26.364,4.45,37.675,35.194c1.15-4.514,2.198-9.192,3.001-14.249C280.198,302.48,248.549,297.155,248.139,297.092z"/>
<linearGradient id="SVGID_23_" gradientUnits="userSpaceOnUse" x1="-18.1562" y1="584.5536" x2="-18.1562" y2="578.1446" gradientTransform="matrix(7.8769 0 0 -7.8769 391.1344 4934.6899)">
	<stop  offset="0.012" style="stop-color:#E0B386"/>
	<stop  offset="0.519" style="stop-color:#DA498C"/>
	<stop  offset="1" style="stop-color:#961484"/>
</linearGradient>
<path style="fill:url(#SVGID_23_);" d="M248.124,371.371v-0.016l0,0h0.016v0.016c0.276,0.024,14.391,2.379,26.364,15.793
	c2.395-4.608,4.679-9.689,6.751-15.336c-12.54-21.811-32.8-25.167-33.122-25.214v-0.016h-0.008l0,0v0.016
	c-0.331,0.047-20.582,3.411-33.138,25.214c2.072,5.648,4.38,10.728,6.751,15.336C233.717,373.75,247.848,371.395,248.124,371.371z"
	/>
<linearGradient id="SVGID_24_" gradientUnits="userSpaceOnUse" x1="-18.1547" y1="577.4546" x2="-18.1547" y2="573.5546" gradientTransform="matrix(7.8769 0 0 -7.8769 391.1344 4934.6899)">
	<stop  offset="0.012" style="stop-color:#E0B386"/>
	<stop  offset="0.519" style="stop-color:#DA498C"/>
	<stop  offset="1" style="stop-color:#961484"/>
</linearGradient>
<path style="fill:url(#SVGID_24_);" d="M248.124,420.744v0.032v-0.016l0.016,0.016v-0.032c0.11-0.063,7.696-5.561,16.447-17.463
	c-8.704-5.829-16.234-7.136-16.447-7.168l0,0h-0.016l0,0l0,0c-0.213,0.032-7.751,1.339-16.447,7.168
	C240.428,415.183,248.013,420.681,248.124,420.744z"/>
<linearGradient id="SVGID_25_" gradientUnits="userSpaceOnUse" x1="-18.1557" y1="591.9386" x2="-18.1557" y2="597.7516" gradientTransform="matrix(7.8769 0 0 -7.8769 391.1344 4934.6899)">
	<stop  offset="0.012" style="stop-color:#E0B386"/>
	<stop  offset="0.519" style="stop-color:#DA498C"/>
	<stop  offset="1" style="stop-color:#961484"/>
</linearGradient>
<path style="fill:url(#SVGID_25_);" d="M269.155,228.791c0,11.618-9.421,21.031-21.031,21.031s-21.031-9.413-21.031-21.031
	c0-11.618,9.421-29.452,21.031-29.452C259.734,199.339,269.155,217.173,269.155,228.791z"/>
<g>
</g>
<g>
</g>
<g>
</g>
<g>
</g>
<g>
</g>
<g>
</g>
<g>
</g>
<g>
</g>
<g>
</g>
<g>
</g>
<g>
</g>
<g>
</g>
<g>
</g>
<g>
</g>
<g>
</g>
</svg>
