<?xml version="1.0" encoding="iso-8859-1"?>
<!-- Generator: Adobe Illustrator 19.0.0, SVG Export Plug-In . SVG Version: 6.00 Build 0)  -->
<svg version="1.1" id="Layer_1" xmlns="http://www.w3.org/2000/svg" xmlns:xlink="http://www.w3.org/1999/xlink" x="0px" y="0px"
	 viewBox="0 0 504.123 504.123" style="enable-background:new 0 0 504.123 504.123;" xml:space="preserve">
<linearGradient id="SVGID_1_" gradientUnits="userSpaceOnUse" x1="-5.3763" y1="578.335" x2="-5.3763" y2="648.3721" gradientTransform="matrix(7.8769 0 0 -7.8769 364.0537 4969.6694)">
	<stop  offset="0" style="stop-color:#29D3DA"/>
	<stop  offset="0.519" style="stop-color:#0077FF"/>
	<stop  offset="0.999" style="stop-color:#064093"/>
	<stop  offset="1" style="stop-color:#084698"/>
</linearGradient>
<path style="fill:url(#SVGID_1_);" d="M478.799,146.361c-30.09-41.685-72.649-73.728-122.234-90.734
	C246.611,81.038,164.612,179.499,164.612,297.173c0,18.282,2.048,36.084,5.797,53.248
	c17.353-119.997,120.572-212.196,245.382-212.196C437.587,138.224,458.673,141.076,478.799,146.361z"/>
<linearGradient id="SVGID_2_" gradientUnits="userSpaceOnUse" x1="-17.5862" y1="582.0045" x2="6.8338" y2="653.2426" gradientTransform="matrix(7.8769 0 0 -7.8769 364.0537 4969.6694)">
	<stop  offset="0.012" style="stop-color:#E0B386"/>
	<stop  offset="0.519" style="stop-color:#DA498C"/>
	<stop  offset="1" style="stop-color:#961484"/>
</linearGradient>
<path style="fill:url(#SVGID_2_);" d="M467.259,76.611C427.552,36.903,376.123,9.728,319.709,0
	C205.556,46.49,134.246,166.896,154.663,293.793c3.167,19.716,8.476,38.55,15.51,56.391
	c-2.143-132.395,93.152-249.73,227.738-271.407C421.4,74.996,444.644,74.413,467.259,76.611z"/>
<linearGradient id="SVGID_3_" gradientUnits="userSpaceOnUse" x1="-13.7259" y1="589.8769" x2="-7.7719" y2="620.7549" gradientTransform="matrix(7.8769 0 0 -7.8769 364.0537 4969.6694)">
	<stop  offset="0.012" style="stop-color:#E0B386"/>
	<stop  offset="0.519" style="stop-color:#DA498C"/>
	<stop  offset="1" style="stop-color:#961484"/>
</linearGradient>
<path style="fill:url(#SVGID_3_);" d="M356.573,55.627C246.619,81.038,164.62,179.499,164.62,297.173
	c0,17.841,1.969,35.202,5.553,51.972c-1.615-131.97,93.507-248.753,227.738-270.368c2.095-0.339,4.183-0.512,6.278-0.803
	C389.246,68.986,373.35,61.377,356.573,55.627z"/>
<linearGradient id="SVGID_4_" gradientUnits="userSpaceOnUse" x1="-24.4874" y1="604.8149" x2="5.3826" y2="685.3369" gradientTransform="matrix(7.8769 0 0 -7.8769 364.0537 4969.6694)">
	<stop  offset="0" style="stop-color:#29D3DA"/>
	<stop  offset="0.519" style="stop-color:#0077FF"/>
	<stop  offset="0.999" style="stop-color:#064093"/>
	<stop  offset="1" style="stop-color:#084698"/>
</linearGradient>
<path style="fill:url(#SVGID_4_);" d="M321.725,33.666C276.89,14.47,226.658,9.161,178.034,19.535
	C101.006,93.877,82.4,213.977,139.831,309.673c8.909,14.88,19.275,28.349,30.688,40.464
	c-44.442-106.031-5.506-231.416,95.988-292.336C284.231,47.167,302.797,39.196,321.725,33.666z"/>
<linearGradient id="SVGID_5_" gradientUnits="userSpaceOnUse" x1="-15.4808" y1="596.7249" x2="-17.3018" y2="636.6839" gradientTransform="matrix(7.8769 0 0 -7.8769 364.0537 4969.6694)">
	<stop  offset="0" style="stop-color:#29D3DA"/>
	<stop  offset="0.519" style="stop-color:#0077FF"/>
	<stop  offset="0.999" style="stop-color:#064093"/>
	<stop  offset="1" style="stop-color:#084698"/>
</linearGradient>
<path style="fill:url(#SVGID_5_);" d="M279.828,20.299C189.495,76.091,136.736,182.43,154.663,293.793
	c0.859,5.301,1.89,10.524,3.048,15.691c-20.874-95.815,20.047-198.404,108.796-251.683c17.723-10.634,36.289-18.605,55.217-24.127
	C308.2,27.876,294.156,23.513,279.828,20.299z"/>
<linearGradient id="SVGID_6_" gradientUnits="userSpaceOnUse" x1="-23.0593" y1="619.493" x2="-23.0593" y2="549.4581" gradientTransform="matrix(7.8769 0 0 -7.8769 364.0537 4969.6694)">
	<stop  offset="0" style="stop-color:#29D3DA"/>
	<stop  offset="0.519" style="stop-color:#0077FF"/>
	<stop  offset="0.999" style="stop-color:#064093"/>
	<stop  offset="1" style="stop-color:#084698"/>
</linearGradient>
<path style="fill:url(#SVGID_6_);" d="M25.324,357.77c30.09,41.685,72.649,73.728,122.234,90.734
	c109.954-25.411,191.953-123.872,191.953-241.546c0-18.282-2.048-36.084-5.797-53.248
	C316.361,273.707,213.142,365.907,88.348,365.907C66.536,365.907,45.45,363.055,25.324,357.77z"/>
<linearGradient id="SVGID_7_" gradientUnits="userSpaceOnUse" x1="-10.8498" y1="615.8241" x2="-35.2688" y2="544.5861" gradientTransform="matrix(7.8769 0 0 -7.8769 364.0537 4969.6694)">
	<stop  offset="0.012" style="stop-color:#E0B386"/>
	<stop  offset="0.519" style="stop-color:#DA498C"/>
	<stop  offset="1" style="stop-color:#961484"/>
</linearGradient>
<path style="fill:url(#SVGID_7_);" d="M36.864,427.52c39.708,39.708,91.136,66.875,147.551,76.603
	c114.168-46.482,185.462-166.896,165.045-293.786c-3.167-19.716-8.476-38.55-15.51-56.391
	c2.143,132.395-93.152,249.73-227.738,271.407C82.739,429.135,59.479,429.718,36.864,427.52z"/>
<linearGradient id="SVGID_8_" gradientUnits="userSpaceOnUse" x1="-14.7122" y1="607.9509" x2="-20.6622" y2="577.0759" gradientTransform="matrix(7.8769 0 0 -7.8769 364.0537 4969.6694)">
	<stop  offset="0.012" style="stop-color:#E0B386"/>
	<stop  offset="0.519" style="stop-color:#DA498C"/>
	<stop  offset="1" style="stop-color:#961484"/>
</linearGradient>
<path style="fill:url(#SVGID_8_);" d="M147.551,448.496c109.954-25.411,191.953-123.872,191.953-241.546
	c0-17.841-1.969-35.202-5.553-51.972c1.623,131.978-93.507,248.745-227.738,270.375c-2.095,0.339-4.183,0.512-6.278,0.803
	C114.893,435.145,130.773,442.754,147.551,448.496z"/>
<linearGradient id="SVGID_9_" gradientUnits="userSpaceOnUse" x1="-3.9471" y1="593.0148" x2="-33.8151" y2="512.4948" gradientTransform="matrix(7.8769 0 0 -7.8769 364.0537 4969.6694)">
	<stop  offset="0" style="stop-color:#29D3DA"/>
	<stop  offset="0.519" style="stop-color:#0077FF"/>
	<stop  offset="0.999" style="stop-color:#064093"/>
	<stop  offset="1" style="stop-color:#084698"/>
</linearGradient>
<path style="fill:url(#SVGID_9_);" d="M182.414,470.465c44.812,19.204,95.043,24.505,143.675,14.131
	c77.028-74.342,95.634-194.442,38.219-290.139c-8.925-14.872-19.291-28.349-30.704-40.464
	c44.449,106.031,5.522,231.408-95.988,292.336C219.892,456.964,201.342,464.935,182.414,470.465z"/>
<linearGradient id="SVGID_10_" gradientUnits="userSpaceOnUse" x1="-12.9509" y1="601.1051" x2="-11.1349" y2="561.1451" gradientTransform="matrix(7.8769 0 0 -7.8769 364.0537 4969.6694)">
	<stop  offset="0" style="stop-color:#29D3DA"/>
	<stop  offset="0.519" style="stop-color:#0077FF"/>
	<stop  offset="0.999" style="stop-color:#064093"/>
	<stop  offset="1" style="stop-color:#084698"/>
</linearGradient>
<path style="fill:url(#SVGID_10_);" d="M224.295,483.832c90.34-55.792,143.092-162.123,125.172-273.495
	c-0.859-5.293-1.875-10.524-3.048-15.683c20.874,95.807-20.047,198.404-108.796,251.676c-17.723,10.634-36.273,18.605-55.201,24.127
	C195.923,476.262,209.967,480.618,224.295,483.832z"/>
<g>
</g>
<g>
</g>
<g>
</g>
<g>
</g>
<g>
</g>
<g>
</g>
<g>
</g>
<g>
</g>
<g>
</g>
<g>
</g>
<g>
</g>
<g>
</g>
<g>
</g>
<g>
</g>
<g>
</g>
</svg>
