<?xml version="1.0" encoding="iso-8859-1"?>
<!-- Generator: Adobe Illustrator 19.0.0, SVG Export Plug-In . SVG Version: 6.00 Build 0)  -->
<svg version="1.1" id="Layer_1" xmlns="http://www.w3.org/2000/svg" xmlns:xlink="http://www.w3.org/1999/xlink" x="0px" y="0px"
	 viewBox="0 0 480.177 480.177" style="enable-background:new 0 0 480.177 480.177;" xml:space="preserve">
<linearGradient id="SVGID_1_" gradientUnits="userSpaceOnUse" x1="1.0943" y1="586.9426" x2="-46.1267" y2="586.9426" gradientTransform="matrix(7.8769 0 0 -7.8769 446.3906 4863.3867)">
	<stop  offset="0" style="stop-color:#29D3DA"/>
	<stop  offset="0.519" style="stop-color:#0077FF"/>
	<stop  offset="0.999" style="stop-color:#064093"/>
	<stop  offset="1" style="stop-color:#084698"/>
</linearGradient>
<path style="fill:url(#SVGID_1_);" d="M351.516,23.048c-7.845,4.427-15.431,9.279-22.709,14.501V442.62
	c7.278,5.23,14.864,10.075,22.709,14.501V23.048z"/>
<linearGradient id="SVGID_2_" gradientUnits="userSpaceOnUse" x1="1.0963" y1="586.9417" x2="-46.1257" y2="586.9417" gradientTransform="matrix(7.8769 0 0 -7.8769 446.3906 4863.3867)">
	<stop  offset="0" style="stop-color:#29D3DA"/>
	<stop  offset="0.519" style="stop-color:#0077FF"/>
	<stop  offset="0.999" style="stop-color:#064093"/>
	<stop  offset="1" style="stop-color:#084698"/>
</linearGradient>
<path style="fill:url(#SVGID_2_);" d="M273.03,387.537c6.94,9.444,14.525,18.361,22.709,26.726V65.922
	c-8.184,8.357-15.77,17.266-22.709,26.711V387.537z"/>
<linearGradient id="SVGID_3_" gradientUnits="userSpaceOnUse" x1="1.0823" y1="586.9426" x2="-46.1117" y2="586.9426" gradientTransform="matrix(7.8769 0 0 -7.8769 446.3906 4863.3867)">
	<stop  offset="0" style="stop-color:#29D3DA"/>
	<stop  offset="0.519" style="stop-color:#0077FF"/>
	<stop  offset="0.999" style="stop-color:#064093"/>
	<stop  offset="1" style="stop-color:#084698"/>
</linearGradient>
<path style="fill:url(#SVGID_3_);" d="M239.931,154.041c-9.862,26.813-15.265,55.8-15.265,86.048s5.404,59.227,15.265,86.04V154.041
	z"/>
<linearGradient id="SVGID_4_" gradientUnits="userSpaceOnUse" x1="1.0943" y1="586.9421" x2="-46.1267" y2="586.9421" gradientTransform="matrix(7.8769 0 0 -7.8769 446.3906 4863.3867)">
	<stop  offset="0" style="stop-color:#29D3DA"/>
	<stop  offset="0.519" style="stop-color:#0077FF"/>
	<stop  offset="0.999" style="stop-color:#064093"/>
	<stop  offset="1" style="stop-color:#084698"/>
</linearGradient>
<path style="fill:url(#SVGID_4_);" d="M407.316,0c-7.735,2.135-15.305,4.624-22.709,7.459v465.258
	c7.396,2.836,14.966,5.333,22.709,7.459V0z"/>
<linearGradient id="SVGID_5_" gradientUnits="userSpaceOnUse" x1="-53.4747" y1="586.9421" x2="-6.2507" y2="586.9421" gradientTransform="matrix(7.8769 0 0 -7.8769 446.3906 4863.3867)">
	<stop  offset="0.012" style="stop-color:#E0B386"/>
	<stop  offset="0.519" style="stop-color:#DA498C"/>
	<stop  offset="1" style="stop-color:#961484"/>
</linearGradient>
<path style="fill:url(#SVGID_5_);" d="M128.662,457.121c7.845-4.419,15.431-9.279,22.709-14.494V37.549
	c-7.278-5.23-14.864-10.075-22.709-14.494V457.121z"/>
<linearGradient id="SVGID_6_" gradientUnits="userSpaceOnUse" x1="-53.4907" y1="586.9426" x2="-6.2407" y2="586.9426" gradientTransform="matrix(7.8769 0 0 -7.8769 446.3906 4863.3867)">
	<stop  offset="0.012" style="stop-color:#E0B386"/>
	<stop  offset="0.519" style="stop-color:#DA498C"/>
	<stop  offset="1" style="stop-color:#961484"/>
</linearGradient>
<path style="fill:url(#SVGID_6_);" d="M207.163,92.64c-6.955-9.444-14.541-18.369-22.725-26.726v348.341
	c8.184-8.357,15.77-17.274,22.725-26.711V92.64z"/>
<linearGradient id="SVGID_7_" gradientUnits="userSpaceOnUse" x1="-53.4897" y1="586.9421" x2="-6.2507" y2="586.9421" gradientTransform="matrix(7.8769 0 0 -7.8769 446.3906 4863.3867)">
	<stop  offset="0.012" style="stop-color:#E0B386"/>
	<stop  offset="0.519" style="stop-color:#DA498C"/>
	<stop  offset="1" style="stop-color:#961484"/>
</linearGradient>
<path style="fill:url(#SVGID_7_);" d="M240.246,326.136c9.878-26.813,15.273-55.8,15.273-86.047s-5.404-59.234-15.273-86.048
	V326.136z"/>
<linearGradient id="SVGID_8_" gradientUnits="userSpaceOnUse" x1="-53.4747" y1="586.9421" x2="-6.2507" y2="586.9421" gradientTransform="matrix(7.8769 0 0 -7.8769 446.3906 4863.3867)">
	<stop  offset="0.012" style="stop-color:#E0B386"/>
	<stop  offset="0.519" style="stop-color:#DA498C"/>
	<stop  offset="1" style="stop-color:#961484"/>
</linearGradient>
<path style="fill:url(#SVGID_8_);" d="M72.862,480.177c7.735-2.135,15.305-4.632,22.709-7.459V7.459
	C88.174,4.616,80.605,2.119,72.862,0V480.177z"/>
<g>
</g>
<g>
</g>
<g>
</g>
<g>
</g>
<g>
</g>
<g>
</g>
<g>
</g>
<g>
</g>
<g>
</g>
<g>
</g>
<g>
</g>
<g>
</g>
<g>
</g>
<g>
</g>
<g>
</g>
</svg>
