<?xml version="1.0" encoding="iso-8859-1"?>
<!-- Generator: Adobe Illustrator 19.0.0, SVG Export Plug-In . SVG Version: 6.00 Build 0)  -->
<svg version="1.1" id="Layer_1" xmlns="http://www.w3.org/2000/svg" xmlns:xlink="http://www.w3.org/1999/xlink" x="0px" y="0px"
	 viewBox="0 0 504.123 504.123" style="enable-background:new 0 0 504.123 504.123;" xml:space="preserve">
<linearGradient id="SVGID_1_" gradientUnits="userSpaceOnUse" x1="-38.5338" y1="635.924" x2="-2.0588" y2="599.449" gradientTransform="matrix(7.8769 0 0 -7.8769 364.0537 4969.6694)">
	<stop  offset="0.012" style="stop-color:#E0B386"/>
	<stop  offset="0.65" style="stop-color:#DA498C"/>
	<stop  offset="1" style="stop-color:#961484"/>
</linearGradient>
<path style="fill:url(#SVGID_1_);" d="M252.062,251.959c-69.585,0-125.983-56.407-125.983-125.984S182.477-0.008,252.046,0"/>
<linearGradient id="SVGID_2_" gradientUnits="userSpaceOnUse" x1="-20.9832" y1="634.5762" x2="-24.9812" y2="598.2052" gradientTransform="matrix(7.8769 0 0 -7.8769 364.0537 4969.6694)">
	<stop  offset="0.012" style="stop-color:#E0B386"/>
	<stop  offset="0.65" style="stop-color:#DA498C"/>
	<stop  offset="1" style="stop-color:#961484"/>
</linearGradient>
<path style="fill:url(#SVGID_2_);" d="M126.078,125.976C126.078,56.399,182.477-0.008,252.046,0"/>
<linearGradient id="SVGID_3_" gradientUnits="userSpaceOnUse" x1="7.1529" y1="563.2938" x2="-38.5431" y2="613.5558" gradientTransform="matrix(7.8769 0 0 -7.8769 364.0537 4969.6694)">
	<stop  offset="0" style="stop-color:#29D3DA"/>
	<stop  offset="0.519" style="stop-color:#0077FF"/>
	<stop  offset="0.999" style="stop-color:#064093"/>
	<stop  offset="1" style="stop-color:#084698"/>
</linearGradient>
<path style="fill:url(#SVGID_3_);" d="M252.062,252.148c69.585,0.008,125.976,56.415,125.976,125.999
	c0.008,69.569-56.391,125.976-125.976,125.976"/>
<linearGradient id="SVGID_4_" gradientUnits="userSpaceOnUse" x1="-1.4285" y1="569.6404" x2="-10.0245" y2="579.0944" gradientTransform="matrix(7.8769 0 0 -7.8769 364.0537 4969.6694)">
	<stop  offset="0" style="stop-color:#29D3DA"/>
	<stop  offset="0.519" style="stop-color:#0077FF"/>
	<stop  offset="0.999" style="stop-color:#064093"/>
	<stop  offset="1" style="stop-color:#084698"/>
</linearGradient>
<path style="fill:url(#SVGID_4_);" d="M378.037,378.147c0.008,69.569-56.391,125.976-125.976,125.976"/>
<linearGradient id="SVGID_5_" gradientUnits="userSpaceOnUse" x1="-53.7874" y1="618.8093" x2="-3.9584" y2="605.4583" gradientTransform="matrix(7.8769 0 0 -7.8769 364.0537 4969.6694)">
	<stop  offset="0.012" style="stop-color:#E0B386"/>
	<stop  offset="0.65" style="stop-color:#DA498C"/>
	<stop  offset="1" style="stop-color:#961484"/>
</linearGradient>
<path style="fill:url(#SVGID_5_);" d="M252.006,251.975c-60.251,34.792-137.311,14.139-172.095-46.112
	c-34.8-60.258-14.155-137.303,46.104-172.087"/>
<linearGradient id="SVGID_6_" gradientUnits="userSpaceOnUse" x1="-37.9066" y1="626.4152" x2="-23.1856" y2="592.9232" gradientTransform="matrix(7.8769 0 0 -7.8769 364.0537 4969.6694)">
	<stop  offset="0.012" style="stop-color:#E0B386"/>
	<stop  offset="0.65" style="stop-color:#DA498C"/>
	<stop  offset="1" style="stop-color:#961484"/>
</linearGradient>
<path style="fill:url(#SVGID_6_);" d="M79.919,205.863c-34.8-60.258-14.155-137.303,46.104-172.087"/>
<linearGradient id="SVGID_7_" gradientUnits="userSpaceOnUse" x1="22.1043" y1="578.7502" x2="-42.6077" y2="599.4341" gradientTransform="matrix(7.8769 0 0 -7.8769 364.0537 4969.6694)">
	<stop  offset="0" style="stop-color:#29D3DA"/>
	<stop  offset="0.519" style="stop-color:#0077FF"/>
	<stop  offset="0.999" style="stop-color:#064093"/>
	<stop  offset="1" style="stop-color:#084698"/>
</linearGradient>
<path style="fill:url(#SVGID_7_);" d="M252.093,252.132c60.274-34.785,137.326-14.123,172.095,46.127
	c34.8,60.243,14.171,137.303-46.096,172.087"/>
<linearGradient id="SVGID_8_" gradientUnits="userSpaceOnUse" x1="11.4928" y1="579.9569" x2="-0.6872" y2="583.8519" gradientTransform="matrix(7.8769 0 0 -7.8769 364.0537 4969.6694)">
	<stop  offset="0" style="stop-color:#29D3DA"/>
	<stop  offset="0.519" style="stop-color:#0077FF"/>
	<stop  offset="0.999" style="stop-color:#064093"/>
	<stop  offset="1" style="stop-color:#084698"/>
</linearGradient>
<path style="fill:url(#SVGID_8_);" d="M424.188,298.26c34.8,60.243,14.171,137.303-46.096,172.087"/>
<linearGradient id="SVGID_9_" gradientUnits="userSpaceOnUse" x1="-58.4263" y1="596.3634" x2="-8.6073" y2="609.7084" gradientTransform="matrix(7.8769 0 0 -7.8769 364.0537 4969.6694)">
	<stop  offset="0.012" style="stop-color:#E0B386"/>
	<stop  offset="0.65" style="stop-color:#DA498C"/>
	<stop  offset="1" style="stop-color:#961484"/>
</linearGradient>
<path style="fill:url(#SVGID_9_);" d="M251.967,252.014c-34.785,60.251-111.844,80.904-172.095,46.112
	C19.606,263.333-1.04,186.289,33.753,126.047"/>
<linearGradient id="SVGID_10_" gradientUnits="userSpaceOnUse" x1="-48.4836" y1="610.8876" x2="-18.9886" y2="589.2366" gradientTransform="matrix(7.8769 0 0 -7.8769 364.0537 4969.6694)">
	<stop  offset="0.012" style="stop-color:#E0B386"/>
	<stop  offset="0.65" style="stop-color:#DA498C"/>
	<stop  offset="1" style="stop-color:#961484"/>
</linearGradient>
<path style="fill:url(#SVGID_10_);" d="M79.88,298.126C19.606,263.333-1.04,186.289,33.753,126.047"/>
<linearGradient id="SVGID_11_" gradientUnits="userSpaceOnUse" x1="27.3216" y1="599.6131" x2="-39.0644" y2="585.1681" gradientTransform="matrix(7.8769 0 0 -7.8769 364.0537 4969.6694)">
	<stop  offset="0" style="stop-color:#29D3DA"/>
	<stop  offset="0.519" style="stop-color:#0077FF"/>
	<stop  offset="0.999" style="stop-color:#064093"/>
	<stop  offset="1" style="stop-color:#084698"/>
</linearGradient>
<path style="fill:url(#SVGID_11_);" d="M252.125,252.109c34.8-60.258,111.852-80.896,172.111-46.104
	c60.258,34.777,80.904,111.829,46.119,172.087"/>
<linearGradient id="SVGID_12_" gradientUnits="userSpaceOnUse" x1="17.5321" y1="595.3558" x2="5.0411" y2="592.6349" gradientTransform="matrix(7.8769 0 0 -7.8769 364.0537 4969.6694)">
	<stop  offset="0" style="stop-color:#29D3DA"/>
	<stop  offset="0.519" style="stop-color:#0077FF"/>
	<stop  offset="0.999" style="stop-color:#064093"/>
	<stop  offset="1" style="stop-color:#084698"/>
</linearGradient>
<path style="fill:url(#SVGID_12_);" d="M424.227,206.005c60.258,34.777,80.904,111.829,46.119,172.087"/>
<linearGradient id="SVGID_13_" gradientUnits="userSpaceOnUse" x1="-51.2267" y1="574.5989" x2="-14.7537" y2="611.072" gradientTransform="matrix(7.8769 0 0 -7.8769 364.0537 4969.6694)">
	<stop  offset="0.012" style="stop-color:#E0B386"/>
	<stop  offset="0.65" style="stop-color:#DA498C"/>
	<stop  offset="1" style="stop-color:#961484"/>
</linearGradient>
<path style="fill:url(#SVGID_13_);" d="M251.951,252.069c0.016,69.569-56.422,125.984-125.976,125.976
	C56.383,378.053-0.016,321.654,0,252.085"/>
<linearGradient id="SVGID_14_" gradientUnits="userSpaceOnUse" x1="-49.8786" y1="592.1466" x2="-13.5076" y2="588.1566" gradientTransform="matrix(7.8769 0 0 -7.8769 364.0537 4969.6694)">
	<stop  offset="0.012" style="stop-color:#E0B386"/>
	<stop  offset="0.65" style="stop-color:#DA498C"/>
	<stop  offset="1" style="stop-color:#961484"/>
</linearGradient>
<path style="fill:url(#SVGID_14_);" d="M125.976,378.045C56.383,378.053-0.016,321.654,0,252.085"/>
<linearGradient id="SVGID_15_" gradientUnits="userSpaceOnUse" x1="21.4027" y1="620.2856" x2="-28.8613" y2="574.5866" gradientTransform="matrix(7.8769 0 0 -7.8769 364.0537 4969.6694)">
	<stop  offset="0" style="stop-color:#29D3DA"/>
	<stop  offset="0.519" style="stop-color:#0077FF"/>
	<stop  offset="0.999" style="stop-color:#064093"/>
	<stop  offset="1" style="stop-color:#084698"/>
</linearGradient>
<path style="fill:url(#SVGID_15_);" d="M252.14,252.069c0-69.585,56.415-125.976,125.984-125.976
	c69.593-0.016,125.984,56.391,125.999,125.968"/>
<linearGradient id="SVGID_16_" gradientUnits="userSpaceOnUse" x1="15.0552" y1="611.7043" x2="5.6002" y2="603.1063" gradientTransform="matrix(7.8769 0 0 -7.8769 364.0537 4969.6694)">
	<stop  offset="0" style="stop-color:#29D3DA"/>
	<stop  offset="0.519" style="stop-color:#0077FF"/>
	<stop  offset="0.999" style="stop-color:#064093"/>
	<stop  offset="1" style="stop-color:#084698"/>
</linearGradient>
<path style="fill:url(#SVGID_16_);" d="M378.124,126.094c69.593-0.016,125.983,56.391,125.999,125.968"/>
<linearGradient id="SVGID_17_" gradientUnits="userSpaceOnUse" x1="-34.1116" y1="559.345" x2="-20.7616" y2="609.172" gradientTransform="matrix(7.8769 0 0 -7.8769 364.0537 4969.6694)">
	<stop  offset="0.012" style="stop-color:#E0B386"/>
	<stop  offset="0.65" style="stop-color:#DA498C"/>
	<stop  offset="1" style="stop-color:#961484"/>
</linearGradient>
<path style="fill:url(#SVGID_17_);" d="M251.967,252.125c34.8,60.235,14.131,137.318-46.112,172.087
	c-60.251,34.8-137.303,14.163-172.071-46.096"/>
<linearGradient id="SVGID_18_" gradientUnits="userSpaceOnUse" x1="-41.7181" y1="575.2259" x2="-8.2281" y2="589.9449" gradientTransform="matrix(7.8769 0 0 -7.8769 364.0537 4969.6694)">
	<stop  offset="0.012" style="stop-color:#E0B386"/>
	<stop  offset="0.65" style="stop-color:#DA498C"/>
	<stop  offset="1" style="stop-color:#961484"/>
</linearGradient>
<path style="fill:url(#SVGID_18_);" d="M205.856,424.204c-60.251,34.8-137.303,14.163-172.071-46.096"/>
<linearGradient id="SVGID_19_" gradientUnits="userSpaceOnUse" x1="5.9465" y1="635.2343" x2="-14.7365" y2="570.5243" gradientTransform="matrix(7.8769 0 0 -7.8769 364.0537 4969.6694)">
	<stop  offset="0" style="stop-color:#29D3DA"/>
	<stop  offset="0.519" style="stop-color:#0077FF"/>
	<stop  offset="0.999" style="stop-color:#064093"/>
	<stop  offset="1" style="stop-color:#084698"/>
</linearGradient>
<path style="fill:url(#SVGID_19_);" d="M252.125,252.03c-34.777-60.266-14.123-137.311,46.127-172.103
	c60.258-34.8,137.303-14.147,172.103,46.104"/>
<linearGradient id="SVGID_20_" gradientUnits="userSpaceOnUse" x1="4.7404" y1="624.6257" x2="0.8464" y2="612.4496" gradientTransform="matrix(7.8769 0 0 -7.8769 364.0537 4969.6694)">
	<stop  offset="0" style="stop-color:#29D3DA"/>
	<stop  offset="0.519" style="stop-color:#0077FF"/>
	<stop  offset="0.999" style="stop-color:#064093"/>
	<stop  offset="1" style="stop-color:#084698"/>
</linearGradient>
<path style="fill:url(#SVGID_20_);" d="M298.252,79.927c60.258-34.8,137.303-14.147,172.103,46.104"/>
<linearGradient id="SVGID_21_" gradientUnits="userSpaceOnUse" x1="-11.6663" y1="554.7054" x2="-25.0123" y2="604.5295" gradientTransform="matrix(7.8769 0 0 -7.8769 364.0537 4969.6694)">
	<stop  offset="0.012" style="stop-color:#E0B386"/>
	<stop  offset="0.65" style="stop-color:#DA498C"/>
	<stop  offset="1" style="stop-color:#961484"/>
</linearGradient>
<path style="fill:url(#SVGID_21_);" d="M252.006,252.164c60.258,34.769,80.904,111.852,46.104,172.087
	c-34.769,60.266-111.813,80.912-172.064,46.111"/>
<linearGradient id="SVGID_22_" gradientUnits="userSpaceOnUse" x1="-26.1903" y1="564.6489" x2="-4.5503" y2="594.1369" gradientTransform="matrix(7.8769 0 0 -7.8769 364.0537 4969.6694)">
	<stop  offset="0.012" style="stop-color:#E0B386"/>
	<stop  offset="0.65" style="stop-color:#DA498C"/>
	<stop  offset="1" style="stop-color:#961484"/>
</linearGradient>
<path style="fill:url(#SVGID_22_);" d="M298.11,424.243c-34.769,60.266-111.813,80.912-172.064,46.111"/>
<linearGradient id="SVGID_23_" gradientUnits="userSpaceOnUse" x1="-14.9166" y1="640.4547" x2="-0.4695" y2="574.0647" gradientTransform="matrix(7.8769 0 0 -7.8769 364.0537 4969.6694)">
	<stop  offset="0" style="stop-color:#29D3DA"/>
	<stop  offset="0.519" style="stop-color:#0077FF"/>
	<stop  offset="0.999" style="stop-color:#064093"/>
	<stop  offset="1" style="stop-color:#084698"/>
</linearGradient>
<path style="fill:url(#SVGID_23_);" d="M252.093,251.999c-60.243-34.8-80.88-111.844-46.096-172.111S317.834-1.008,378.092,33.776"
	/>
<linearGradient id="SVGID_24_" gradientUnits="userSpaceOnUse" x1="-10.6576" y1="630.6631" x2="-7.9376" y2="618.1681" gradientTransform="matrix(7.8769 0 0 -7.8769 364.0537 4969.6694)">
	<stop  offset="0" style="stop-color:#29D3DA"/>
	<stop  offset="0.519" style="stop-color:#0077FF"/>
	<stop  offset="0.999" style="stop-color:#064093"/>
	<stop  offset="1" style="stop-color:#084698"/>
</linearGradient>
<path style="fill:url(#SVGID_24_);" d="M205.997,79.896c34.785-60.266,111.837-80.904,172.095-46.119"/>
<g>
</g>
<g>
</g>
<g>
</g>
<g>
</g>
<g>
</g>
<g>
</g>
<g>
</g>
<g>
</g>
<g>
</g>
<g>
</g>
<g>
</g>
<g>
</g>
<g>
</g>
<g>
</g>
<g>
</g>
</svg>
