<?xml version="1.0" encoding="iso-8859-1"?>
<!-- Generator: Adobe Illustrator 19.0.0, SVG Export Plug-In . SVG Version: 6.00 Build 0)  -->
<svg version="1.1" id="Layer_1" xmlns="http://www.w3.org/2000/svg" xmlns:xlink="http://www.w3.org/1999/xlink" x="0px" y="0px"
	 viewBox="0 0 504.131 504.131" style="enable-background:new 0 0 504.131 504.131;" xml:space="preserve">
<linearGradient id="SVGID_1_" gradientUnits="userSpaceOnUse" x1="-14.2168" y1="630.332" x2="-14.2168" y2="589.035" gradientTransform="matrix(7.8769 0 0 -7.8769 364.0537 4969.6694)">
	<stop  offset="0" style="stop-color:#29D3DA"/>
	<stop  offset="0.519" style="stop-color:#0077FF"/>
	<stop  offset="0.999" style="stop-color:#064093"/>
	<stop  offset="1" style="stop-color:#084698"/>
</linearGradient>
<path style="fill:url(#SVGID_1_);" d="M252.062,180.2c24.678-14.21,53.24-22.465,83.755-22.465c30.807,0,59.589,8.413,84.433,22.859
	c0.008-0.843,0.126-1.67,0.126-2.521c0-92.963-75.351-168.306-168.306-168.306c-92.963,0-168.306,75.343-168.306,168.306
	c0,0.851,0.118,1.678,0.126,2.521c24.828-14.446,53.626-22.859,84.433-22.859C198.821,157.735,227.375,165.99,252.062,180.2z"/>
<linearGradient id="SVGID_2_" gradientUnits="userSpaceOnUse" x1="11.412" y1="622.8148" x2="-29.252" y2="611.9828" gradientTransform="matrix(7.8769 0 0 -7.8769 364.0537 4969.6694)">
	<stop  offset="0" style="stop-color:#29D3DA"/>
	<stop  offset="0.519" style="stop-color:#0077FF"/>
	<stop  offset="0.999" style="stop-color:#064093"/>
	<stop  offset="1" style="stop-color:#084698"/>
</linearGradient>
<path style="fill:url(#SVGID_2_);" d="M252.062,180.2c24.678-14.21,53.24-22.465,83.755-22.465c30.807,0,59.589,8.413,84.433,22.859
	c0.008-0.843,0.126-1.67,0.126-2.521c0-92.963-75.351-168.306-168.306-168.306"/>
<linearGradient id="SVGID_3_" gradientUnits="userSpaceOnUse" x1="-30.2178" y1="568.7451" x2="-30.2178" y2="616.092" gradientTransform="matrix(7.8769 0 0 -7.8769 364.0537 4969.6694)">
	<stop  offset="0" style="stop-color:#29D3DA"/>
	<stop  offset="0.519" style="stop-color:#0077FF"/>
	<stop  offset="0.999" style="stop-color:#064093"/>
	<stop  offset="1" style="stop-color:#084698"/>
</linearGradient>
<path style="fill:url(#SVGID_3_);" d="M167.511,326.049c0-0.851,0.118-1.678,0.126-2.521
	c-49.412-28.751-82.842-81.841-83.755-142.927C33.768,209.755,0,263.893,0,326.049c0,92.963,75.343,168.306,168.306,168.306
	c30.515,0,59.069-8.247,83.755-22.457C201.57,442.849,167.511,388.474,167.511,326.049z"/>
<linearGradient id="SVGID_4_" gradientUnits="userSpaceOnUse" x1="-43.2124" y1="586.3067" x2="-9.4194" y2="620.1037" gradientTransform="matrix(7.8769 0 0 -7.8769 364.0537 4969.6694)">
	<stop  offset="0" style="stop-color:#29D3DA"/>
	<stop  offset="0.519" style="stop-color:#0077FF"/>
	<stop  offset="0.999" style="stop-color:#064093"/>
	<stop  offset="1" style="stop-color:#084698"/>
</linearGradient>
<path style="fill:url(#SVGID_4_);" d="M167.511,326.049c0-0.851,0.118-1.678,0.126-2.521
	c-49.412-28.751-82.842-81.841-83.755-142.927C33.768,209.755,0,263.893,0,326.049"/>
<linearGradient id="SVGID_5_" gradientUnits="userSpaceOnUse" x1="1.7832" y1="559.582" x2="1.7832" y2="609.59" gradientTransform="matrix(7.8769 0 0 -7.8769 364.0537 4969.6694)">
	<stop  offset="0" style="stop-color:#29D3DA"/>
	<stop  offset="0.519" style="stop-color:#0077FF"/>
	<stop  offset="0.999" style="stop-color:#064093"/>
	<stop  offset="1" style="stop-color:#084698"/>
</linearGradient>
<path style="fill:url(#SVGID_5_);" d="M420.25,180.602c-0.906,61.086-34.336,114.168-83.755,142.927
	c0.008,0.843,0.126,1.67,0.126,2.521c0,62.432-34.06,116.799-84.551,145.857c24.678,14.21,53.24,22.457,83.755,22.457
	c92.956,0,168.306-75.343,168.306-168.306C504.123,263.893,470.347,209.755,420.25,180.602z"/>
<linearGradient id="SVGID_6_" gradientUnits="userSpaceOnUse" x1="20.0015" y1="581.0843" x2="-22.0475" y2="623.1323" gradientTransform="matrix(7.8769 0 0 -7.8769 364.0537 4969.6694)">
	<stop  offset="0" style="stop-color:#29D3DA"/>
	<stop  offset="0.519" style="stop-color:#0077FF"/>
	<stop  offset="0.999" style="stop-color:#064093"/>
	<stop  offset="1" style="stop-color:#084698"/>
</linearGradient>
<path style="fill:url(#SVGID_6_);" d="M504.123,326.049c0-62.157-33.776-116.295-83.873-145.447
	c-0.906,61.086-34.336,114.168-83.755,142.927c0.008,0.843,0.126,1.67,0.126,2.521"/>
<linearGradient id="SVGID_7_" gradientUnits="userSpaceOnUse" x1="-14.2178" y1="619.582" x2="-14.2178" y2="568.335" gradientTransform="matrix(7.8769 0 0 -7.8769 364.0537 4969.6694)">
	<stop  offset="0.012" style="stop-color:#E0B386"/>
	<stop  offset="0.519" style="stop-color:#DA498C"/>
	<stop  offset="1" style="stop-color:#961484"/>
</linearGradient>
<path style="fill:url(#SVGID_7_);" d="M288.673,208.715c-10.799-11.075-23.095-20.732-36.612-28.514
	c-13.525,7.775-25.797,17.44-36.612,28.514c11.784-2.647,24.009-4.12,36.604-4.12C264.649,204.595,276.89,206.068,288.673,208.715z"
	/>
<linearGradient id="SVGID_8_" gradientUnits="userSpaceOnUse" x1="3.7816" y1="616.8957" x2="-35.3444" y2="577.7646" gradientTransform="matrix(7.8769 0 0 -7.8769 364.0537 4969.6694)">
	<stop  offset="0.012" style="stop-color:#E0B386"/>
	<stop  offset="0.519" style="stop-color:#DA498C"/>
	<stop  offset="1" style="stop-color:#961484"/>
</linearGradient>
<path style="fill:url(#SVGID_8_);" d="M167.629,323.521c14.675,8.539,30.752,14.903,47.789,18.731
	c-18.141-18.597-31.996-41.37-39.983-66.765C170.638,290.69,167.873,306.79,167.629,323.521z"/>
<linearGradient id="SVGID_9_" gradientUnits="userSpaceOnUse" x1="-31.3956" y1="616.0722" x2="5.7844" y2="578.8872" gradientTransform="matrix(7.8769 0 0 -7.8769 364.0537 4969.6694)">
	<stop  offset="0.012" style="stop-color:#E0B386"/>
	<stop  offset="0.519" style="stop-color:#DA498C"/>
	<stop  offset="1" style="stop-color:#961484"/>
</linearGradient>
<path style="fill:url(#SVGID_9_);" d="M328.688,275.487c-8.011,25.403-21.851,48.167-40.007,66.773
	c17.038-3.828,33.122-10.193,47.813-18.731C336.25,306.79,333.477,290.69,328.688,275.487z"/>
<linearGradient id="SVGID_10_" gradientUnits="userSpaceOnUse" x1="-34.356" y1="613.1278" x2="2.84" y2="575.9348" gradientTransform="matrix(7.8769 0 0 -7.8769 364.0537 4969.6694)">
	<stop  offset="0" style="stop-color:#29D3DA"/>
	<stop  offset="0.519" style="stop-color:#0077FF"/>
	<stop  offset="0.999" style="stop-color:#064093"/>
	<stop  offset="1" style="stop-color:#084698"/>
</linearGradient>
<path style="fill:url(#SVGID_10_);" d="M167.629,227.446c0.244,16.746,3.009,32.847,7.806,48.049
	c7.995-25.403,21.843-48.175,40.007-66.781C198.404,212.543,182.311,218.915,167.629,227.446z"/>
<linearGradient id="SVGID_11_" gradientUnits="userSpaceOnUse" x1="6.7337" y1="613.9436" x2="-32.3933" y2="574.8136" gradientTransform="matrix(7.8769 0 0 -7.8769 364.0537 4969.6694)">
	<stop  offset="0" style="stop-color:#29D3DA"/>
	<stop  offset="0.519" style="stop-color:#0077FF"/>
	<stop  offset="0.999" style="stop-color:#064093"/>
	<stop  offset="1" style="stop-color:#084698"/>
</linearGradient>
<path style="fill:url(#SVGID_11_);" d="M336.494,227.446c-14.69-8.531-30.767-14.895-47.813-18.731
	c18.156,18.605,32.004,41.377,40.007,66.773C333.477,260.285,336.25,244.185,336.494,227.446z"/>
<linearGradient id="SVGID_12_" gradientUnits="userSpaceOnUse" x1="-14.2193" y1="619.582" x2="-14.2193" y2="568.335" gradientTransform="matrix(7.8769 0 0 -7.8769 364.0537 4969.6694)">
	<stop  offset="0" style="stop-color:#29D3DA"/>
	<stop  offset="0.519" style="stop-color:#0077FF"/>
	<stop  offset="0.999" style="stop-color:#064093"/>
	<stop  offset="1" style="stop-color:#084698"/>
</linearGradient>
<path style="fill:url(#SVGID_12_);" d="M215.426,342.252c10.823,11.083,23.103,20.74,36.628,28.522
	c13.517-7.782,25.797-17.432,36.62-28.522c-11.784,2.655-24.025,4.128-36.612,4.128
	C239.451,346.388,227.226,344.907,215.426,342.252z"/>
<g>
</g>
<g>
</g>
<g>
</g>
<g>
</g>
<g>
</g>
<g>
</g>
<g>
</g>
<g>
</g>
<g>
</g>
<g>
</g>
<g>
</g>
<g>
</g>
<g>
</g>
<g>
</g>
<g>
</g>
</svg>
