<?xml version="1.0" encoding="iso-8859-1"?>
<!-- Generator: Adobe Illustrator 19.0.0, SVG Export Plug-In . SVG Version: 6.00 Build 0)  -->
<svg version="1.1" id="Layer_1" xmlns="http://www.w3.org/2000/svg" xmlns:xlink="http://www.w3.org/1999/xlink" x="0px" y="0px"
	 viewBox="0 0 504.123 504.123" style="enable-background:new 0 0 504.123 504.123;" xml:space="preserve">
<linearGradient id="SVGID_1_" gradientUnits="userSpaceOnUse" x1="-9.3702" y1="615.8296" x2="-12.2822" y2="603.4156" gradientTransform="matrix(7.8769 0 0 -7.8769 364.0537 4969.6694)">
	<stop  offset="0.012" style="stop-color:#E0B386"/>
	<stop  offset="0.519" style="stop-color:#DA498C"/>
	<stop  offset="1" style="stop-color:#961484"/>
</linearGradient>
<polygon style="fill:url(#SVGID_1_);" points="0,281.608 168.038,113.562 272.502,218.025 324.734,165.793 364.465,205.533 
	396.264,173.741 504.123,281.608 "/>
<linearGradient id="SVGID_2_" gradientUnits="userSpaceOnUse" x1="-0.9325" y1="611.0242" x2="-38.2825" y2="573.1152" gradientTransform="matrix(7.8769 0 0 -7.8769 364.0537 4969.6694)">
	<stop  offset="0.012" style="stop-color:#E0B386"/>
	<stop  offset="0.519" style="stop-color:#DA498C"/>
	<stop  offset="1" style="stop-color:#961484"/>
</linearGradient>
<polygon style="fill:url(#SVGID_2_);" points="0,281.608 168.038,113.562 227.801,262.719 324.734,165.793 335.155,234.843 
	396.264,173.741 467.243,281.608 "/>
<linearGradient id="SVGID_3_" gradientUnits="userSpaceOnUse" x1="2.0921" y1="615.6455" x2="-35.2579" y2="574.6295" gradientTransform="matrix(7.8769 0 0 -7.8769 364.0537 4969.6694)">
	<stop  offset="0.012" style="stop-color:#E0B386"/>
	<stop  offset="0.519" style="stop-color:#DA498C"/>
	<stop  offset="1" style="stop-color:#961484"/>
</linearGradient>
<polygon style="fill:url(#SVGID_3_);" points="0,281.608 168.038,164.769 227.801,262.719 320.213,191.685 341.213,256.67 
	396.264,173.741 467.243,281.608 "/>
<linearGradient id="SVGID_4_" gradientUnits="userSpaceOnUse" x1="-14.2183" y1="584.335" x2="-14.2183" y2="635.775" gradientTransform="matrix(7.8769 0 0 -7.8769 364.0537 4969.6694)">
	<stop  offset="0" style="stop-color:#29D3DA"/>
	<stop  offset="0.519" style="stop-color:#0077FF"/>
	<stop  offset="0.999" style="stop-color:#064093"/>
	<stop  offset="1" style="stop-color:#084698"/>
</linearGradient>
<path style="fill:url(#SVGID_4_);" d="M489.677,307.862c0,2.174-1.757,3.938-3.938,3.938H18.377c-2.174,0-3.938-1.764-3.938-3.938
	l0,0c0-2.174,1.764-3.938,3.938-3.938h467.361C487.92,303.923,489.677,305.688,489.677,307.862L489.677,307.862z"/>
<g>
	
		<linearGradient id="SVGID_5_" gradientUnits="userSpaceOnUse" x1="-14.2183" y1="584.3251" x2="-14.2183" y2="635.774" gradientTransform="matrix(7.8769 0 0 -7.8769 364.0537 4969.6694)">
		<stop  offset="0" style="stop-color:#29D3DA"/>
		<stop  offset="0.519" style="stop-color:#0077FF"/>
		<stop  offset="0.999" style="stop-color:#064093"/>
		<stop  offset="1" style="stop-color:#084698"/>
	</linearGradient>
	<path style="fill:url(#SVGID_5_);" d="M410.908,334.115c0,2.174-1.757,3.938-3.938,3.938H97.146c-2.174,0-3.938-1.764-3.938-3.938
		l0,0c0-2.174,1.764-3.938,3.938-3.938h309.823C409.151,330.177,410.908,331.941,410.908,334.115L410.908,334.115z"/>
	
		<linearGradient id="SVGID_6_" gradientUnits="userSpaceOnUse" x1="-14.2183" y1="584.3251" x2="-14.2183" y2="635.774" gradientTransform="matrix(7.8769 0 0 -7.8769 364.0537 4969.6694)">
		<stop  offset="0" style="stop-color:#29D3DA"/>
		<stop  offset="0.519" style="stop-color:#0077FF"/>
		<stop  offset="0.999" style="stop-color:#064093"/>
		<stop  offset="1" style="stop-color:#084698"/>
	</linearGradient>
	<path style="fill:url(#SVGID_6_);" d="M371.523,360.369c0,2.174-1.757,3.938-3.938,3.938H136.531c-2.174,0-3.938-1.764-3.938-3.938
		l0,0c0-2.174,1.764-3.938,3.938-3.938h231.054C369.766,356.431,371.523,358.195,371.523,360.369L371.523,360.369z"/>
	
		<linearGradient id="SVGID_7_" gradientUnits="userSpaceOnUse" x1="-14.2183" y1="584.3251" x2="-14.2183" y2="635.774" gradientTransform="matrix(7.8769 0 0 -7.8769 364.0537 4969.6694)">
		<stop  offset="0" style="stop-color:#29D3DA"/>
		<stop  offset="0.519" style="stop-color:#0077FF"/>
		<stop  offset="0.999" style="stop-color:#064093"/>
		<stop  offset="1" style="stop-color:#084698"/>
	</linearGradient>
	<path style="fill:url(#SVGID_7_);" d="M332.138,386.623c0,2.174-1.757,3.938-3.938,3.938H175.915c-2.174,0-3.938-1.764-3.938-3.938
		l0,0c0-2.174,1.764-3.938,3.938-3.938H328.2C330.382,382.685,332.138,384.449,332.138,386.623L332.138,386.623z"/>
</g>
<g>
</g>
<g>
</g>
<g>
</g>
<g>
</g>
<g>
</g>
<g>
</g>
<g>
</g>
<g>
</g>
<g>
</g>
<g>
</g>
<g>
</g>
<g>
</g>
<g>
</g>
<g>
</g>
<g>
</g>
</svg>
