<?xml version="1.0" encoding="iso-8859-1"?>
<!-- Generator: Adobe Illustrator 19.0.0, SVG Export Plug-In . SVG Version: 6.00 Build 0)  -->
<svg version="1.1" id="Layer_1" xmlns="http://www.w3.org/2000/svg" xmlns:xlink="http://www.w3.org/1999/xlink" x="0px" y="0px"
	 viewBox="0 0 504.123 504.123" style="enable-background:new 0 0 504.123 504.123;" xml:space="preserve">
<linearGradient id="SVGID_1_" gradientUnits="userSpaceOnUse" x1="-20.6683" y1="604.082" x2="-20.6683" y2="555.6451" gradientTransform="matrix(7.8769 0 0 -7.8769 364.0267 4969.6694)">
	<stop  offset="0" style="stop-color:#29D3DA"/>
	<stop  offset="0.519" style="stop-color:#0077FF"/>
	<stop  offset="0.999" style="stop-color:#064093"/>
	<stop  offset="1" style="stop-color:#084698"/>
</linearGradient>
<path style="fill:url(#SVGID_1_);" d="M249.206,475.995c-69.868-25.632-124.826-35.903-167.353-38.046
	c44.843,41.086,104.598,66.174,170.212,66.174c23.773,0,46.726-3.363,68.529-9.507C298.847,491.449,275.113,485.494,249.206,475.995
	z"/>
<g>
	
		<linearGradient id="SVGID_2_" gradientUnits="userSpaceOnUse" x1="-14.2143" y1="604.082" x2="-14.2143" y2="555.6451" gradientTransform="matrix(7.8769 0 0 -7.8769 364.0267 4969.6694)">
		<stop  offset="0" style="stop-color:#29D3DA"/>
		<stop  offset="0.519" style="stop-color:#0077FF"/>
		<stop  offset="0.999" style="stop-color:#064093"/>
		<stop  offset="1" style="stop-color:#084698"/>
	</linearGradient>
	<path style="fill:url(#SVGID_2_);" d="M249.206,273.794C121.167,226.832,43.099,231.329,0.232,243.208
		c-0.102,2.938-0.228,5.884-0.228,8.854c0,25.75,3.875,50.586,11.043,73.98c46.293-24.671,119.824-45.859,211.228-10.413
		c156.711,60.794,218.151,51.688,269.107,15.573c8.224-24.891,12.737-51.476,12.737-79.132c0-6.404-0.323-12.729-0.788-19.007
		C469.051,271.541,391.495,325.979,249.206,273.794z"/>
	
		<linearGradient id="SVGID_3_" gradientUnits="userSpaceOnUse" x1="-14.5633" y1="604.082" x2="-14.5633" y2="555.6451" gradientTransform="matrix(7.8769 0 0 -7.8769 364.0267 4969.6694)">
		<stop  offset="0" style="stop-color:#29D3DA"/>
		<stop  offset="0.519" style="stop-color:#0077FF"/>
		<stop  offset="0.999" style="stop-color:#064093"/>
		<stop  offset="1" style="stop-color:#084698"/>
	</linearGradient>
	<path style="fill:url(#SVGID_3_);" d="M222.283,416.729c76.493,29.68,130.237,42.646,171.197,44.008
		c38.833-26.38,69.884-63.33,89.096-106.709c-41.07,33.713-114.672,64.402-233.37,20.858
		C135.558,333.202,61.31,332.075,16.049,340.645c9.342,24.844,22.489,47.797,38.723,68.198
		C98.757,395.162,155.77,390.947,222.283,416.729z"/>
</g>
<linearGradient id="SVGID_4_" gradientUnits="userSpaceOnUse" x1="-14.2703" y1="590.085" x2="-14.2703" y2="647.938" gradientTransform="matrix(7.8769 0 0 -7.8769 364.0267 4969.6694)">
	<stop  offset="0.012" style="stop-color:#E0B386"/>
	<stop  offset="0.519" style="stop-color:#DA498C"/>
	<stop  offset="1" style="stop-color:#961484"/>
</linearGradient>
<path style="fill:url(#SVGID_4_);" d="M222.283,214.528c167.999,65.166,226.525,50.018,279.985,7.357
	C487.341,96.91,381.066,0,252.065,0C120.08,0,11.874,101.439,0.973,230.605C46.249,203.815,123.908,176.396,222.283,214.528z"/>
<linearGradient id="SVGID_5_" gradientUnits="userSpaceOnUse" x1="-0.2223" y1="585.415" x2="-0.2223" y2="625.501" gradientTransform="matrix(7.8769 0 0 -7.8769 364.0267 4969.6694)">
	<stop  offset="0.012" style="stop-color:#E0B386"/>
	<stop  offset="0.519" style="stop-color:#DA498C"/>
	<stop  offset="1" style="stop-color:#961484"/>
</linearGradient>
<path style="fill:url(#SVGID_5_);" d="M222.283,214.528c167.999,65.166,226.525,50.018,279.985,7.357"/>
<g>
</g>
<g>
</g>
<g>
</g>
<g>
</g>
<g>
</g>
<g>
</g>
<g>
</g>
<g>
</g>
<g>
</g>
<g>
</g>
<g>
</g>
<g>
</g>
<g>
</g>
<g>
</g>
<g>
</g>
</svg>
