<?xml version="1.0" encoding="iso-8859-1"?>
<!-- Generator: Adobe Illustrator 19.0.0, SVG Export Plug-In . SVG Version: 6.00 Build 0)  -->
<svg version="1.1" id="Layer_1" xmlns="http://www.w3.org/2000/svg" xmlns:xlink="http://www.w3.org/1999/xlink" x="0px" y="0px"
	 viewBox="0 0 504.123 504.123" style="enable-background:new 0 0 504.123 504.123;" xml:space="preserve">
<linearGradient id="SVGID_1_" gradientUnits="userSpaceOnUse" x1="-32.8134" y1="596.9095" x2="-25.1284" y2="615.4565" gradientTransform="matrix(7.8769 0 0 -7.8769 364.0537 4934.708)">
	<stop  offset="0.012" style="stop-color:#E0B386"/>
	<stop  offset="0.519" style="stop-color:#DA498C"/>
	<stop  offset="1" style="stop-color:#961484"/>
</linearGradient>
<path style="fill:url(#SVGID_1_);" d="M216.489,208.668l10.925,27.553c4.419-21.669,4.758-43.292,1.583-64.071
	c-57.265-38.959-134.215-43.662-197.474-5.687C19.936,173.41,9.437,181.492,0,190.369c60.156-25.206,128.315-15.943,179.255,21.496
	C191.401,209.558,203.863,208.439,216.489,208.668z"/>
<linearGradient id="SVGID_2_" gradientUnits="userSpaceOnUse" x1="-0.7766" y1="579.606" x2="6.9084" y2="598.1559" gradientTransform="matrix(7.8769 0 0 -7.8769 364.0537 4934.708)">
	<stop  offset="0.012" style="stop-color:#E0B386"/>
	<stop  offset="0.519" style="stop-color:#DA498C"/>
	<stop  offset="1" style="stop-color:#961484"/>
</linearGradient>
<path style="fill:url(#SVGID_2_);" d="M472.6,337.652c11.571-6.947,22.079-15.037,31.523-23.914
	c-60.172,25.214-128.323,15.935-179.255-21.488c-12.146,2.308-24.623,3.426-37.242,3.19l-10.925-27.561
	c-4.419,21.677-4.758,43.299-1.591,64.079C332.367,370.916,409.332,375.627,472.6,337.652z"/>
<linearGradient id="SVGID_3_" gradientUnits="userSpaceOnUse" x1="-24.7096" y1="602.3274" x2="-14.6696" y2="626.5524" gradientTransform="matrix(7.8769 0 0 -7.8769 364.0537 4934.708)">
	<stop  offset="0" style="stop-color:#29D3DA"/>
	<stop  offset="0.519" style="stop-color:#0077FF"/>
	<stop  offset="0.999" style="stop-color:#064093"/>
	<stop  offset="1" style="stop-color:#084698"/>
</linearGradient>
<path style="fill:url(#SVGID_3_);" d="M257.583,196.222l-11.752,27.207c18.448-12.201,33.973-27.246,46.427-44.174
	c-12.942-68.033-64.031-125.771-135.617-143.659c-13.099-3.277-26.238-4.986-39.203-5.38
	c60.377,24.71,102.006,79.455,111.561,141.942C239.214,179.105,248.824,187.14,257.583,196.222z"/>
<linearGradient id="SVGID_4_" gradientUnits="userSpaceOnUse" x1="-10.4599" y1="570.3775" x2="-0.4199" y2="594.6035" gradientTransform="matrix(7.8769 0 0 -7.8769 364.0537 4934.708)">
	<stop  offset="0" style="stop-color:#29D3DA"/>
	<stop  offset="0.519" style="stop-color:#0077FF"/>
	<stop  offset="0.999" style="stop-color:#064093"/>
	<stop  offset="1" style="stop-color:#084698"/>
</linearGradient>
<path style="fill:url(#SVGID_4_);" d="M246.532,307.893l11.768-27.207c-18.456,12.201-33.981,27.246-46.427,44.182
	c12.926,68.025,64.016,125.771,135.609,143.651c13.099,3.285,26.238,4.994,39.196,5.388
	c-60.377-24.718-102.006-79.462-111.561-141.95C264.901,325.01,255.307,316.975,246.532,307.893z"/>
<linearGradient id="SVGID_5_" gradientUnits="userSpaceOnUse" x1="-10.9818" y1="597.4262" x2="5.1712" y2="636.4112" gradientTransform="matrix(7.8769 0 0 -7.8769 364.0537 4934.708)">
	<stop  offset="0.012" style="stop-color:#E0B386"/>
	<stop  offset="0.519" style="stop-color:#DA498C"/>
	<stop  offset="1" style="stop-color:#961484"/>
</linearGradient>
<path style="fill:url(#SVGID_5_);" d="M295.456,216.489l-27.561,10.917c21.669,4.427,43.299,4.766,64.079,1.591
	c38.951-57.257,43.646-134.207,5.679-197.474C330.705,19.944,322.623,9.444,313.738,0c25.214,60.164,15.935,128.307-21.488,179.255
	C294.565,191.393,295.676,203.863,295.456,216.489z"/>
<linearGradient id="SVGID_6_" gradientUnits="userSpaceOnUse" x1="-13.3571" y1="596.4663" x2="-12.8471" y2="597.6933" gradientTransform="matrix(7.8769 0 0 -7.8769 364.0537 4934.708)">
	<stop  offset="0" style="stop-color:#29D3DA"/>
	<stop  offset="0.519" style="stop-color:#0077FF"/>
	<stop  offset="0.999" style="stop-color:#064093"/>
	<stop  offset="1" style="stop-color:#084698"/>
</linearGradient>
<polygon style="fill:url(#SVGID_6_);" points="265.342,239.191 261.656,229.888 252.345,233.574 "/>
<linearGradient id="SVGID_7_" gradientUnits="userSpaceOnUse" x1="-35.3928" y1="574.801" x2="-19.8848" y2="612.233" gradientTransform="matrix(7.8769 0 0 -7.8769 364.0537 4934.708)">
	<stop  offset="0" style="stop-color:#29D3DA"/>
	<stop  offset="0.519" style="stop-color:#0077FF"/>
	<stop  offset="0.999" style="stop-color:#064093"/>
	<stop  offset="1" style="stop-color:#084698"/>
</linearGradient>
<path style="fill:url(#SVGID_7_);" d="M196.23,246.532l27.199,11.768c-12.201-18.456-27.238-33.981-44.174-46.434
	C111.214,224.8,53.484,275.889,35.604,347.475c-3.285,13.107-4.994,26.246-5.404,39.211
	c24.734-60.384,79.478-102.014,141.958-111.569C179.113,264.901,187.14,255.299,196.23,246.532z"/>
<linearGradient id="SVGID_8_" gradientUnits="userSpaceOnUse" x1="-15.2524" y1="595.9283" x2="-14.5394" y2="597.6412" gradientTransform="matrix(7.8769 0 0 -7.8769 364.0537 4934.708)">
	<stop  offset="0" style="stop-color:#29D3DA"/>
	<stop  offset="0.519" style="stop-color:#0077FF"/>
	<stop  offset="0.999" style="stop-color:#064093"/>
	<stop  offset="1" style="stop-color:#084698"/>
</linearGradient>
<polygon style="fill:url(#SVGID_8_);" points="252.345,233.574 243.153,229.597 239.183,238.781 "/>
<linearGradient id="SVGID_9_" gradientUnits="userSpaceOnUse" x1="-28.285" y1="565.3871" x2="-12.132" y2="604.3771" gradientTransform="matrix(7.8769 0 0 -7.8769 364.0537 4934.708)">
	<stop  offset="0.012" style="stop-color:#E0B386"/>
	<stop  offset="0.519" style="stop-color:#DA498C"/>
	<stop  offset="1" style="stop-color:#961484"/>
</linearGradient>
<path style="fill:url(#SVGID_9_);" d="M208.675,287.634l27.561-10.925c-21.669-4.427-43.299-4.758-64.079-1.591
	c-38.959,57.249-43.67,134.207-5.695,197.482c6.94,11.579,15.021,22.079,23.906,31.523
	c-25.222-60.172-15.935-128.323,21.496-179.255C209.558,312.714,208.447,300.26,208.675,287.634z"/>
<linearGradient id="SVGID_10_" gradientUnits="userSpaceOnUse" x1="-15.4185" y1="591.6639" x2="-14.9095" y2="592.8949" gradientTransform="matrix(7.8769 0 0 -7.8769 364.0537 4934.708)">
	<stop  offset="0" style="stop-color:#29D3DA"/>
	<stop  offset="0.519" style="stop-color:#0077FF"/>
	<stop  offset="0.999" style="stop-color:#064093"/>
	<stop  offset="1" style="stop-color:#084698"/>
</linearGradient>
<polygon style="fill:url(#SVGID_10_);" points="238.789,264.94 242.475,274.235 251.77,270.549 "/>
<linearGradient id="SVGID_11_" gradientUnits="userSpaceOnUse" x1="-3.4408" y1="589.0518" x2="12.0612" y2="626.4828" gradientTransform="matrix(7.8769 0 0 -7.8769 364.0537 4934.708)">
	<stop  offset="0" style="stop-color:#29D3DA"/>
	<stop  offset="0.519" style="stop-color:#0077FF"/>
	<stop  offset="0.999" style="stop-color:#064093"/>
	<stop  offset="1" style="stop-color:#084698"/>
</linearGradient>
<path style="fill:url(#SVGID_11_);" d="M307.893,257.591l-27.207-11.768c12.201,18.448,27.238,33.981,44.182,46.434
	c68.033-12.942,125.771-64.031,143.651-135.609c3.285-13.115,4.994-26.254,5.388-39.211
	c-24.71,60.377-79.455,101.998-141.942,111.561C325.018,239.222,316.983,248.816,307.893,257.591z"/>
<linearGradient id="SVGID_12_" gradientUnits="userSpaceOnUse" x1="-13.6596" y1="591.8774" x2="-12.9526" y2="593.5914" gradientTransform="matrix(7.8769 0 0 -7.8769 364.0537 4934.708)">
	<stop  offset="0" style="stop-color:#29D3DA"/>
	<stop  offset="0.519" style="stop-color:#0077FF"/>
	<stop  offset="0.999" style="stop-color:#064093"/>
	<stop  offset="1" style="stop-color:#084698"/>
</linearGradient>
<polygon style="fill:url(#SVGID_12_);" points="251.77,270.549 260.962,274.527 264.932,265.342 "/>
<linearGradient id="SVGID_13_" gradientUnits="userSpaceOnUse" x1="-16.9546" y1="594.694" x2="-15.9506" y2="597.118" gradientTransform="matrix(7.8769 0 0 -7.8769 364.0537 4934.708)">
	<stop  offset="0" style="stop-color:#29D3DA"/>
	<stop  offset="0.519" style="stop-color:#0077FF"/>
	<stop  offset="0.999" style="stop-color:#064093"/>
	<stop  offset="1" style="stop-color:#084698"/>
</linearGradient>
<polygon style="fill:url(#SVGID_13_);" points="239.183,238.781 229.88,242.467 233.567,251.778 "/>
<linearGradient id="SVGID_14_" gradientUnits="userSpaceOnUse" x1="-12.1547" y1="592.6334" x2="-11.1507" y2="595.0584" gradientTransform="matrix(7.8769 0 0 -7.8769 364.0537 4934.708)">
	<stop  offset="0" style="stop-color:#29D3DA"/>
	<stop  offset="0.519" style="stop-color:#0077FF"/>
	<stop  offset="0.999" style="stop-color:#064093"/>
	<stop  offset="1" style="stop-color:#084698"/>
</linearGradient>
<polygon style="fill:url(#SVGID_14_);" points="270.557,252.345 264.932,265.342 274.243,261.656 "/>
<linearGradient id="SVGID_15_" gradientUnits="userSpaceOnUse" x1="-16.4852" y1="593.0966" x2="-15.7612" y2="594.8365" gradientTransform="matrix(7.8769 0 0 -7.8769 364.0537 4934.708)">
	<stop  offset="0" style="stop-color:#29D3DA"/>
	<stop  offset="0.519" style="stop-color:#0077FF"/>
	<stop  offset="0.999" style="stop-color:#064093"/>
	<stop  offset="1" style="stop-color:#084698"/>
</linearGradient>
<polygon style="fill:url(#SVGID_15_);" points="233.567,251.778 229.597,260.962 238.789,264.94 "/>
<linearGradient id="SVGID_16_" gradientUnits="userSpaceOnUse" x1="-12.4341" y1="594.6871" x2="-11.7141" y2="596.425" gradientTransform="matrix(7.8769 0 0 -7.8769 364.0537 4934.708)">
	<stop  offset="0" style="stop-color:#29D3DA"/>
	<stop  offset="0.519" style="stop-color:#0077FF"/>
	<stop  offset="0.999" style="stop-color:#064093"/>
	<stop  offset="1" style="stop-color:#084698"/>
</linearGradient>
<polygon style="fill:url(#SVGID_16_);" points="270.557,252.345 274.527,243.161 265.342,239.191 "/>
<g>
</g>
<g>
</g>
<g>
</g>
<g>
</g>
<g>
</g>
<g>
</g>
<g>
</g>
<g>
</g>
<g>
</g>
<g>
</g>
<g>
</g>
<g>
</g>
<g>
</g>
<g>
</g>
<g>
</g>
</svg>
