<?xml version="1.0" encoding="iso-8859-1"?>
<!-- Generator: Adobe Illustrator 19.0.0, SVG Export Plug-In . SVG Version: 6.00 Build 0)  -->
<svg version="1.1" id="Layer_1" xmlns="http://www.w3.org/2000/svg" xmlns:xlink="http://www.w3.org/1999/xlink" x="0px" y="0px"
	 viewBox="0 0 504.121 504.121" style="enable-background:new 0 0 504.121 504.121;" xml:space="preserve">
<linearGradient id="SVGID_1_" gradientUnits="userSpaceOnUse" x1="0.9876" y1="635.5696" x2="-41.7784" y2="592.8036" gradientTransform="matrix(7.8769 0 0 -7.8769 364.0687 4969.6704)">
	<stop  offset="0.012" style="stop-color:#E0B386"/>
	<stop  offset="0.519" style="stop-color:#DA498C"/>
	<stop  offset="1" style="stop-color:#961484"/>
</linearGradient>
<path style="fill:url(#SVGID_1_);" d="M426.187,52.547C339.383-21.331,208.965-17.329,126.95,64.685
	C44.944,146.7,40.942,277.102,114.82,363.914L426.187,52.547z"/>
<linearGradient id="SVGID_2_" gradientUnits="userSpaceOnUse" x1="-10.5885" y1="594.6306" x2="-22.2515" y2="637.6306" gradientTransform="matrix(7.8769 0 0 -7.8769 364.0687 4969.6704)">
	<stop  offset="0.012" style="stop-color:#E0B386"/>
	<stop  offset="0.519" style="stop-color:#DA498C"/>
	<stop  offset="1" style="stop-color:#961484"/>
</linearGradient>
<path style="fill:url(#SVGID_2_);" d="M126.95,64.685C44.944,146.7,40.942,277.102,114.82,363.914L426.187,52.547"/>
<linearGradient id="SVGID_3_" gradientUnits="userSpaceOnUse" x1="-36.3259" y1="590.0163" x2="9.8745" y2="590.0163" gradientTransform="matrix(7.8769 0 0 -7.8769 364.0687 4969.6704)">
	<stop  offset="0" style="stop-color:#29D3DA"/>
	<stop  offset="0.519" style="stop-color:#0077FF"/>
	<stop  offset="0.999" style="stop-color:#064093"/>
	<stop  offset="1" style="stop-color:#084698"/>
</linearGradient>
<path style="fill:url(#SVGID_3_);" d="M389.299,140.194L77.932,451.56c86.812,73.893,217.214,69.892,299.229-12.123
	S463.185,227.021,389.299,140.194z"/>
<linearGradient id="SVGID_4_" gradientUnits="userSpaceOnUse" x1="-10.6996" y1="616.5791" x2="-15.3646" y2="555.9151" gradientTransform="matrix(7.8769 0 0 -7.8769 364.0687 4969.6704)">
	<stop  offset="0" style="stop-color:#29D3DA"/>
	<stop  offset="0.519" style="stop-color:#0077FF"/>
	<stop  offset="0.999" style="stop-color:#064093"/>
	<stop  offset="1" style="stop-color:#084698"/>
</linearGradient>
<path style="fill:url(#SVGID_4_);" d="M377.161,439.438c82.015-82.014,86.024-212.417,12.138-299.244L77.932,451.56"/>
<g>
</g>
<g>
</g>
<g>
</g>
<g>
</g>
<g>
</g>
<g>
</g>
<g>
</g>
<g>
</g>
<g>
</g>
<g>
</g>
<g>
</g>
<g>
</g>
<g>
</g>
<g>
</g>
<g>
</g>
</svg>
