<?xml version="1.0" encoding="iso-8859-1"?>
<!-- Generator: Adobe Illustrator 19.0.0, SVG Export Plug-In . SVG Version: 6.00 Build 0)  -->
<svg version="1.1" id="Layer_1" xmlns="http://www.w3.org/2000/svg" xmlns:xlink="http://www.w3.org/1999/xlink" x="0px" y="0px"
	 viewBox="0 0 504.139 504.139" style="enable-background:new 0 0 504.139 504.139;" xml:space="preserve">
<linearGradient id="SVGID_1_" gradientUnits="userSpaceOnUse" x1="-6.2808" y1="606.8839" x2="-47.0158" y2="566.1438" gradientTransform="matrix(7.8769 0 0 -7.8769 363.9996 4969.7393)">
	<stop  offset="0.012" style="stop-color:#E0B386"/>
	<stop  offset="0.519" style="stop-color:#DA498C"/>
	<stop  offset="1" style="stop-color:#961484"/>
</linearGradient>
<path style="fill:url(#SVGID_1_);" d="M304.853,487.999c0-159.327-129.615-288.949-288.949-288.949
	C7.129,199.05,0,206.171,0,214.953v74.232c0,8.775,7.121,15.904,15.904,15.904c100.864,0,182.918,82.062,182.918,182.918
	c0,8.783,7.121,15.911,15.911,15.911h74.224C297.74,503.91,304.853,496.782,304.853,487.999z"/>
<linearGradient id="SVGID_2_" gradientUnits="userSpaceOnUse" x1="-6.2798" y1="590.962" x2="-47.0128" y2="631.6981" gradientTransform="matrix(7.8769 0 0 -7.8769 363.9996 4969.7393)">
	<stop  offset="0.012" style="stop-color:#E0B386"/>
	<stop  offset="0.519" style="stop-color:#DA498C"/>
	<stop  offset="1" style="stop-color:#961484"/>
</linearGradient>
<path style="fill:url(#SVGID_2_);" d="M304.853,16.14c0,159.327-129.615,288.949-288.949,288.949C7.129,305.089,0,297.968,0,289.185
	v-74.232c0-8.775,7.121-15.904,15.904-15.904c100.864,0,182.918-82.062,182.918-182.918c0-8.783,7.121-15.911,15.911-15.911h74.224
	C297.74,0.228,304.853,7.357,304.853,16.14z"/>
<linearGradient id="SVGID_3_" gradientUnits="userSpaceOnUse" x1="-28.8779" y1="598.9219" x2="-71.1649" y2="598.9219" gradientTransform="matrix(7.8769 0 0 -7.8769 363.9996 4969.7393)">
	<stop  offset="0" style="stop-color:#29D3DA"/>
	<stop  offset="0.519" style="stop-color:#0077FF"/>
	<stop  offset="0.999" style="stop-color:#064093"/>
	<stop  offset="1" style="stop-color:#084698"/>
</linearGradient>
<path style="fill:url(#SVGID_3_);" d="M15.911,199.058c-8.775,0-15.904,7.121-15.904,15.904v74.232
	c0,8.775,7.121,15.904,15.904,15.904c61.968,0,119.398-19.669,166.502-53.012C135.31,218.726,77.879,199.058,15.911,199.058z"/>
<linearGradient id="SVGID_4_" gradientUnits="userSpaceOnUse" x1="-22.1415" y1="606.8864" x2="18.5925" y2="566.1453" gradientTransform="matrix(7.8769 0 0 -7.8769 363.9996 4969.7393)">
	<stop  offset="0.012" style="stop-color:#E0B386"/>
	<stop  offset="0.519" style="stop-color:#DA498C"/>
	<stop  offset="1" style="stop-color:#961484"/>
</linearGradient>
<path style="fill:url(#SVGID_4_);" d="M199.27,487.999c0-159.327,129.623-288.949,288.957-288.949
	c8.775,0,15.911,7.121,15.911,15.904v74.232c0,8.775-7.129,15.904-15.911,15.904c-100.864,0-182.918,82.062-182.918,182.918
	c0,8.783-7.129,15.911-15.911,15.911h-74.224C206.391,503.91,199.27,496.782,199.27,487.999z"/>
<linearGradient id="SVGID_5_" gradientUnits="userSpaceOnUse" x1="-22.142" y1="590.9611" x2="18.591" y2="631.6971" gradientTransform="matrix(7.8769 0 0 -7.8769 363.9996 4969.7393)">
	<stop  offset="0.012" style="stop-color:#E0B386"/>
	<stop  offset="0.519" style="stop-color:#DA498C"/>
	<stop  offset="1" style="stop-color:#961484"/>
</linearGradient>
<path style="fill:url(#SVGID_5_);" d="M199.27,16.14c0,159.327,129.623,288.949,288.957,288.949c8.775,0,15.911-7.121,15.911-15.904
	v-74.232c0-8.775-7.129-15.904-15.911-15.904c-100.864,0-182.918-82.062-182.918-182.918c0-8.783-7.129-15.911-15.911-15.911
	h-74.224C206.391,0.228,199.27,7.357,199.27,16.14z"/>
<linearGradient id="SVGID_6_" gradientUnits="userSpaceOnUse" x1="-10.1264" y1="581.3002" x2="-27.9584" y2="544.9932" gradientTransform="matrix(7.8769 0 0 -7.8769 363.9996 4969.7393)">
	<stop  offset="0" style="stop-color:#29D3DA"/>
	<stop  offset="0.519" style="stop-color:#0077FF"/>
	<stop  offset="0.999" style="stop-color:#064093"/>
	<stop  offset="1" style="stop-color:#084698"/>
</linearGradient>
<path style="fill:url(#SVGID_6_);" d="M304.853,487.999c0-61.834-19.582-119.146-52.783-166.195
	c-33.217,47.049-52.799,104.361-52.799,166.195c0,8.783,7.121,15.911,15.911,15.911h73.775
	C297.74,503.91,304.853,496.782,304.853,487.999z"/>
<linearGradient id="SVGID_7_" gradientUnits="userSpaceOnUse" x1="-9.1829" y1="613.7211" x2="-27.0149" y2="654.7101" gradientTransform="matrix(7.8769 0 0 -7.8769 363.9996 4969.7393)">
	<stop  offset="0" style="stop-color:#29D3DA"/>
	<stop  offset="0.519" style="stop-color:#0077FF"/>
	<stop  offset="0.999" style="stop-color:#064093"/>
	<stop  offset="1" style="stop-color:#084698"/>
</linearGradient>
<path style="fill:url(#SVGID_7_);" d="M199.27,16.14c0,61.834,19.582,119.146,52.799,166.187
	c33.201-47.041,52.783-104.353,52.783-166.187c0-8.783-7.113-15.911-15.904-15.911h-73.775C206.391,0.228,199.27,7.357,199.27,16.14
	z"/>
<linearGradient id="SVGID_8_" gradientUnits="userSpaceOnUse" x1="0.4601" y1="598.9219" x2="42.7501" y2="598.9219" gradientTransform="matrix(7.8769 0 0 -7.8769 363.9996 4969.7393)">
	<stop  offset="0" style="stop-color:#29D3DA"/>
	<stop  offset="0.519" style="stop-color:#0077FF"/>
	<stop  offset="0.999" style="stop-color:#064093"/>
	<stop  offset="1" style="stop-color:#084698"/>
</linearGradient>
<path style="fill:url(#SVGID_8_);" d="M488.22,199.058c8.775,0,15.911,7.121,15.911,15.904v74.232
	c0,8.775-7.129,15.904-15.911,15.904c-61.968,0-119.398-19.669-166.502-53.012C368.821,218.726,426.252,199.058,488.22,199.058z"/>
<g>
</g>
<g>
</g>
<g>
</g>
<g>
</g>
<g>
</g>
<g>
</g>
<g>
</g>
<g>
</g>
<g>
</g>
<g>
</g>
<g>
</g>
<g>
</g>
<g>
</g>
<g>
</g>
<g>
</g>
</svg>
