<?xml version="1.0" encoding="iso-8859-1"?>
<!-- Generator: Adobe Illustrator 19.0.0, SVG Export Plug-In . SVG Version: 6.00 Build 0)  -->
<svg version="1.1" id="Layer_1" xmlns="http://www.w3.org/2000/svg" xmlns:xlink="http://www.w3.org/1999/xlink" x="0px" y="0px"
	 viewBox="0 0 496.246 496.246" style="enable-background:new 0 0 496.246 496.246;" xml:space="preserve">
<linearGradient id="SVGID_1_" gradientUnits="userSpaceOnUse" x1="12.3643" y1="613.6609" x2="-33.3287" y2="585.6969" gradientTransform="matrix(7.8769 0 0 -7.8769 391.1382 4934.7183)">
	<stop  offset="0.012" style="stop-color:#E0B386"/>
	<stop  offset="0.519" style="stop-color:#DA498C"/>
	<stop  offset="1" style="stop-color:#961484"/>
</linearGradient>
<path style="fill:url(#SVGID_1_);" d="M304.23,270.29c-30.476-25.742-60.715-48.341-89.624-67.009
	c18.676,28.908,41.275,59.132,67.017,89.624L304.23,270.29z"/>
<linearGradient id="SVGID_2_" gradientUnits="userSpaceOnUse" x1="9.1023" y1="619.0066" x2="-36.5967" y2="591.0386" gradientTransform="matrix(7.8769 0 0 -7.8769 391.1382 4934.7183)">
	<stop  offset="0.012" style="stop-color:#E0B386"/>
	<stop  offset="0.519" style="stop-color:#DA498C"/>
	<stop  offset="1" style="stop-color:#961484"/>
</linearGradient>
<path style="fill:url(#SVGID_2_);" d="M398.084,224.171c-85.142-71.964-168.204-118.43-226.005-127.732
	c2.623,16.211,8.129,34.422,16.337,54.146c50.46,21.016,110.647,59.613,171.867,111.388L398.084,224.171z"/>
<linearGradient id="SVGID_3_" gradientUnits="userSpaceOnUse" x1="7.0959" y1="622.2825" x2="-38.6061" y2="594.3175" gradientTransform="matrix(7.8769 0 0 -7.8769 391.1382 4934.7183)">
	<stop  offset="0.012" style="stop-color:#E0B386"/>
	<stop  offset="0.519" style="stop-color:#DA498C"/>
	<stop  offset="1" style="stop-color:#961484"/>
</linearGradient>
<path style="fill:url(#SVGID_3_);" d="M496.246,152.357C361.322,38.315,231.196-16.076,186.014,29.099
	c-6.971,6.971-11.516,16.022-13.879,26.742c58.762-13.013,169.362,40.802,283.412,137.2L496.246,152.357z"/>
<linearGradient id="SVGID_4_" gradientUnits="userSpaceOnUse" x1="-8.5051" y1="572.7024" x2="-35.3691" y2="623.1104" gradientTransform="matrix(7.8769 0 0 -7.8769 391.1382 4934.7183)">
	<stop  offset="0" style="stop-color:#29D3DA"/>
	<stop  offset="0.519" style="stop-color:#0077FF"/>
	<stop  offset="0.999" style="stop-color:#064093"/>
	<stop  offset="1" style="stop-color:#084698"/>
</linearGradient>
<path style="fill:url(#SVGID_4_);" d="M191.85,225.943c30.476,25.75,60.715,48.325,89.639,67.009
	c-18.684-28.916-41.275-59.132-67.04-89.624L191.85,225.943z"/>
<linearGradient id="SVGID_5_" gradientUnits="userSpaceOnUse" x1="-14.436" y1="569.5369" x2="-41.296" y2="619.9299" gradientTransform="matrix(7.8769 0 0 -7.8769 391.1382 4934.7183)">
	<stop  offset="0" style="stop-color:#29D3DA"/>
	<stop  offset="0.519" style="stop-color:#0077FF"/>
	<stop  offset="0.999" style="stop-color:#064093"/>
	<stop  offset="1" style="stop-color:#084698"/>
</linearGradient>
<path style="fill:url(#SVGID_5_);" d="M98.146,272.07c85.157,71.964,168.22,118.422,226.02,127.732
	c-2.623-16.203-8.129-34.43-16.337-54.146c-50.46-21.023-110.647-59.613-171.882-111.395L98.146,272.07z"/>
<linearGradient id="SVGID_6_" gradientUnits="userSpaceOnUse" x1="-22.8703" y1="565.0388" x2="-49.7293" y2="615.4288" gradientTransform="matrix(7.8769 0 0 -7.8769 391.1382 4934.7183)">
	<stop  offset="0" style="stop-color:#29D3DA"/>
	<stop  offset="0.519" style="stop-color:#0077FF"/>
	<stop  offset="0.999" style="stop-color:#064093"/>
	<stop  offset="1" style="stop-color:#084698"/>
</linearGradient>
<path style="fill:url(#SVGID_6_);" d="M0,343.868c134.924,114.05,265.051,168.456,310.233,123.282
	c6.971-6.979,11.516-16.037,13.863-26.758C265.366,453.413,154.734,399.59,40.684,303.2L0,343.868z"/>
<g>
</g>
<g>
</g>
<g>
</g>
<g>
</g>
<g>
</g>
<g>
</g>
<g>
</g>
<g>
</g>
<g>
</g>
<g>
</g>
<g>
</g>
<g>
</g>
<g>
</g>
<g>
</g>
<g>
</g>
</svg>
