<?xml version="1.0" encoding="iso-8859-1"?>
<!-- Generator: Adobe Illustrator 19.0.0, SVG Export Plug-In . SVG Version: 6.00 Build 0)  -->
<svg version="1.1" id="Layer_1" xmlns="http://www.w3.org/2000/svg" xmlns:xlink="http://www.w3.org/1999/xlink" x="0px" y="0px"
	 viewBox="0 0 504.123 504.123" style="enable-background:new 0 0 504.123 504.123;" xml:space="preserve">
<linearGradient id="SVGID_1_" gradientUnits="userSpaceOnUse" x1="-14.2178" y1="634.616" x2="-14.2178" y2="565.4771" gradientTransform="matrix(7.8769 0 0 -7.8769 364.0537 4969.6694)">
	<stop  offset="0" style="stop-color:#29D3DA"/>
	<stop  offset="0.519" style="stop-color:#0077FF"/>
	<stop  offset="0.999" style="stop-color:#064093"/>
	<stop  offset="1" style="stop-color:#084698"/>
</linearGradient>
<path style="fill:url(#SVGID_1_);" d="M379.085,34.367C341.788,12.564,298.394,0,252.062,0c-46.34,0-89.726,12.564-127.023,34.367
	c39.889-3.363,82.574-5.215,127.023-5.215S339.196,31.004,379.085,34.367z"/>
<linearGradient id="SVGID_2_" gradientUnits="userSpaceOnUse" x1="-14.2178" y1="634.616" x2="-14.2178" y2="565.4731" gradientTransform="matrix(7.8769 0 0 -7.8769 364.0537 4969.6694)">
	<stop  offset="0" style="stop-color:#29D3DA"/>
	<stop  offset="0.519" style="stop-color:#0077FF"/>
	<stop  offset="0.999" style="stop-color:#064093"/>
	<stop  offset="1" style="stop-color:#084698"/>
</linearGradient>
<path style="fill:url(#SVGID_2_);" d="M475.404,135.231c-9.397-17.936-20.897-34.603-34.17-49.664
	c-56.21-7.625-120.659-11.973-189.172-11.973s-132.97,4.348-189.172,11.981c-13.28,15.061-24.773,31.72-34.17,49.664
	c63.567-10.847,140.469-17.203,223.342-17.203C334.927,118.028,411.829,124.384,475.404,135.231z"/>
<linearGradient id="SVGID_3_" gradientUnits="userSpaceOnUse" x1="-14.2168" y1="634.616" x2="-14.2168" y2="565.472" gradientTransform="matrix(7.8769 0 0 -7.8769 364.0537 4969.6694)">
	<stop  offset="0" style="stop-color:#29D3DA"/>
	<stop  offset="0.519" style="stop-color:#0077FF"/>
	<stop  offset="0.999" style="stop-color:#064093"/>
	<stop  offset="1" style="stop-color:#084698"/>
</linearGradient>
<path style="fill:url(#SVGID_3_);" d="M9.602,183.162C7.617,190.22,5.9,197.38,4.513,204.666
	c23.308,4.663,48.727,8.696,75.926,11.965c51.917-6.231,110.135-9.72,171.63-9.72s119.713,3.489,171.63,9.72
	c27.199-3.261,52.618-7.302,75.926-11.965c-1.402-7.294-3.111-14.454-5.096-21.504c-67.001-12.965-151.072-20.693-242.452-20.693
	S76.611,170.197,9.602,183.162z"/>
<g>
	
		<linearGradient id="SVGID_4_" gradientUnits="userSpaceOnUse" x1="-14.2178" y1="610.816" x2="-14.2178" y2="542.5151" gradientTransform="matrix(7.8769 0 0 -7.8769 364.0537 4969.6694)">
		<stop  offset="0.012" style="stop-color:#E0B386"/>
		<stop  offset="0.519" style="stop-color:#DA498C"/>
		<stop  offset="1" style="stop-color:#961484"/>
	</linearGradient>
	<path style="fill:url(#SVGID_4_);" d="M252.062,270.801c-61.495,0-119.713-3.489-171.63-9.72
		c-28.562,3.426-55.217,7.688-79.439,12.642c0.559,6.617,1.363,13.147,2.426,19.606c23.599,4.758,49.388,8.862,77.013,12.178
		c51.917-6.231,110.135-9.72,171.63-9.72s119.713,3.49,171.63,9.72c27.624-3.316,53.413-7.42,77.013-12.178
		c1.056-6.459,1.859-12.989,2.426-19.606c-24.229-4.962-50.877-9.224-79.439-12.642
		C371.775,267.311,313.557,270.801,252.062,270.801z"/>
	
		<linearGradient id="SVGID_5_" gradientUnits="userSpaceOnUse" x1="-14.2183" y1="610.816" x2="-14.2183" y2="542.5151" gradientTransform="matrix(7.8769 0 0 -7.8769 364.0537 4969.6694)">
		<stop  offset="0.012" style="stop-color:#E0B386"/>
		<stop  offset="0.519" style="stop-color:#DA498C"/>
		<stop  offset="1" style="stop-color:#961484"/>
	</linearGradient>
	<path style="fill:url(#SVGID_5_);" d="M252.062,359.676c-61.495,0-119.713-3.49-171.63-9.72
		c-19.984,2.395-38.975,5.222-56.934,8.397c4.931,10.579,10.579,20.74,16.864,30.452c12.895,2.048,26.214,3.915,40.07,5.577
		c51.917-6.231,110.135-9.72,171.63-9.72s119.713,3.49,171.63,9.72c13.855-1.662,27.175-3.529,40.07-5.577
		c6.286-9.712,11.934-19.873,16.857-30.452c-17.952-3.174-36.935-6.01-56.927-8.397
		C371.775,356.187,313.557,359.676,252.062,359.676z"/>
</g>
<linearGradient id="SVGID_6_" gradientUnits="userSpaceOnUse" x1="-14.2178" y1="610.813" x2="-14.2178" y2="542.525" gradientTransform="matrix(7.8769 0 0 -7.8769 364.0537 4969.6694)">
	<stop  offset="0.012" style="stop-color:#E0B386"/>
	<stop  offset="0.519" style="stop-color:#DA498C"/>
	<stop  offset="1" style="stop-color:#961484"/>
</linearGradient>
<path style="fill:url(#SVGID_6_);" d="M83.149,439.131c16.872,15.25,35.84,28.191,56.383,38.471
	c35.682-2.623,73.421-4.064,112.53-4.064s76.847,1.441,112.522,4.064c20.551-10.279,39.526-23.221,56.391-38.471
	c-51.232,6.034-108.473,9.421-168.913,9.421S134.38,445.164,83.149,439.131z"/>
<linearGradient id="SVGID_7_" gradientUnits="userSpaceOnUse" x1="7.3987" y1="575.155" x2="7.3987" y2="575.2051" gradientTransform="matrix(7.8769 0 0 -7.8769 364.0537 4969.6694)">
	<stop  offset="0.012" style="stop-color:#E0B386"/>
	<stop  offset="0.519" style="stop-color:#DA498C"/>
	<stop  offset="1" style="stop-color:#961484"/>
</linearGradient>
<path style="fill:url(#SVGID_7_);" d="M423.692,438.831c-0.693-0.087-1.402-0.165-2.095-0.244c-0.197,0.181-0.417,0.354-0.622,0.544
	C421.88,439.02,422.802,438.926,423.692,438.831z"/>
<linearGradient id="SVGID_8_" gradientUnits="userSpaceOnUse" x1="-35.8351" y1="575.165" x2="-35.8331" y2="575.2151" gradientTransform="matrix(7.8769 0 0 -7.8769 364.0537 4969.6694)">
	<stop  offset="0.012" style="stop-color:#E0B386"/>
	<stop  offset="0.519" style="stop-color:#DA498C"/>
	<stop  offset="1" style="stop-color:#961484"/>
</linearGradient>
<path style="fill:url(#SVGID_8_);" d="M80.431,438.831c0.89,0.095,1.812,0.189,2.718,0.299c-0.205-0.189-0.425-0.362-0.622-0.544
	C81.833,438.666,81.117,438.745,80.431,438.831z"/>
<linearGradient id="SVGID_9_" gradientUnits="userSpaceOnUse" x1="-14.2178" y1="610.826" x2="-14.2178" y2="542.5151" gradientTransform="matrix(7.8769 0 0 -7.8769 364.0537 4969.6694)">
	<stop  offset="0.012" style="stop-color:#E0B386"/>
	<stop  offset="0.519" style="stop-color:#DA498C"/>
	<stop  offset="1" style="stop-color:#961484"/>
</linearGradient>
<path style="fill:url(#SVGID_9_);" d="M171.662,490.953c25.261,8.499,52.279,13.17,80.4,13.17s55.138-4.671,80.4-13.17
	c-25.97,1.339-52.846,2.04-80.4,2.04S197.632,492.292,171.662,490.953z"/>
<g>
</g>
<g>
</g>
<g>
</g>
<g>
</g>
<g>
</g>
<g>
</g>
<g>
</g>
<g>
</g>
<g>
</g>
<g>
</g>
<g>
</g>
<g>
</g>
<g>
</g>
<g>
</g>
<g>
</g>
</svg>
