<?xml version="1.0" encoding="iso-8859-1"?>
<!-- Generator: Adobe Illustrator 19.0.0, SVG Export Plug-In . SVG Version: 6.00 Build 0)  -->
<svg version="1.1" id="Layer_1" xmlns="http://www.w3.org/2000/svg" xmlns:xlink="http://www.w3.org/1999/xlink" x="0px" y="0px"
	 viewBox="0 0 504.131 504.131" style="enable-background:new 0 0 504.131 504.131;" xml:space="preserve">
<linearGradient id="SVGCleanerId_0_2_" gradientUnits="userSpaceOnUse" x1="-14.2158" y1="614.558" x2="-14.2158" y2="504.8951" gradientTransform="matrix(7.8769 0 0 -7.8769 364.0401 4969.6694)">
	<stop  offset="0" style="stop-color:#29D3DA"/>
	<stop  offset="0.519" style="stop-color:#0077FF"/>
	<stop  offset="0.999" style="stop-color:#064093"/>
	<stop  offset="1" style="stop-color:#084698"/>
</linearGradient>
<path id="SVGCleanerId_0" style="fill:url(#SVGCleanerId_0_2_);" d="M450.649,388.742c0,105.582-88.907,115.381-198.569,115.381
	c-109.678,0-198.601-9.799-198.601-115.381c0-105.59,88.923-191.181,198.601-191.181
	C361.742,197.561,450.649,283.144,450.649,388.742z"/>
<g>
	
		<linearGradient id="SVGCleanerId_0_3_" gradientUnits="userSpaceOnUse" x1="-14.2158" y1="614.558" x2="-14.2158" y2="504.8951" gradientTransform="matrix(7.8769 0 0 -7.8769 364.0401 4969.6694)">
		<stop  offset="0" style="stop-color:#29D3DA"/>
		<stop  offset="0.519" style="stop-color:#0077FF"/>
		<stop  offset="0.999" style="stop-color:#064093"/>
		<stop  offset="1" style="stop-color:#084698"/>
	</linearGradient>
	<path id="SVGCleanerId_0_1_" style="fill:url(#SVGCleanerId_0_3_);" d="M450.649,388.742c0,105.582-88.907,115.381-198.569,115.381
		c-109.678,0-198.601-9.799-198.601-115.381c0-105.59,88.923-191.181,198.601-191.181
		C361.742,197.561,450.649,283.144,450.649,388.742z"/>
</g>
<linearGradient id="SVGID_1_" gradientUnits="userSpaceOnUse" x1="27.6175" y1="624.3148" x2="-67.9425" y2="514.6519" gradientTransform="matrix(7.8769 0 0 -7.8769 364.0401 4969.6694)">
	<stop  offset="0" style="stop-color:#29D3DA"/>
	<stop  offset="0.519" style="stop-color:#0077FF"/>
	<stop  offset="0.999" style="stop-color:#064093"/>
	<stop  offset="1" style="stop-color:#084698"/>
</linearGradient>
<path style="fill:url(#SVGID_1_);" d="M252.079,197.561c109.663,0,198.569,85.583,198.569,191.181
	c0,105.582-88.907,115.381-198.569,115.381"/>
<linearGradient id="SVGID_2_" gradientUnits="userSpaceOnUse" x1="-14.2153" y1="599.3251" x2="-14.2153" y2="524.715" gradientTransform="matrix(7.8769 0 0 -7.8769 364.0401 4969.6694)">
	<stop  offset="0.012" style="stop-color:#E0B386"/>
	<stop  offset="0.519" style="stop-color:#DA498C"/>
	<stop  offset="1" style="stop-color:#961484"/>
</linearGradient>
<path style="fill:url(#SVGID_2_);" d="M387.176,425.614c0,71.838-60.495,78.509-135.097,78.509
	c-74.634,0-135.121-6.672-135.121-78.509s60.495-130.072,135.121-130.072C326.689,295.55,387.176,353.776,387.176,425.614z"/>
<linearGradient id="SVGID_3_" gradientUnits="userSpaceOnUse" x1="14.2441" y1="605.9651" x2="-50.7699" y2="531.3551" gradientTransform="matrix(7.8769 0 0 -7.8769 364.0401 4969.6694)">
	<stop  offset="0.012" style="stop-color:#E0B386"/>
	<stop  offset="0.519" style="stop-color:#DA498C"/>
	<stop  offset="1" style="stop-color:#961484"/>
</linearGradient>
<path style="fill:url(#SVGID_3_);" d="M252.079,295.55c74.61,0,135.097,58.234,135.097,130.072s-60.487,78.501-135.097,78.501"/>
<linearGradient id="SVGID_4_" gradientUnits="userSpaceOnUse" x1="-26.9742" y1="617.3269" x2="4.3558" y2="507.6639" gradientTransform="matrix(7.8769 0 0 -7.8769 364.0401 4969.6694)">
	<stop  offset="0" style="stop-color:#29D3DA"/>
	<stop  offset="0.519" style="stop-color:#0077FF"/>
	<stop  offset="0.999" style="stop-color:#064093"/>
	<stop  offset="1" style="stop-color:#084698"/>
</linearGradient>
<path style="fill:url(#SVGID_4_);" d="M328.501,459.713c0,40.629-34.225,44.41-76.438,44.41c-42.205,0-76.43-3.773-76.43-44.41
	c0-40.645,34.225-73.586,76.43-73.586C294.276,386.135,328.501,419.068,328.501,459.713z"/>
<linearGradient id="SVGID_5_" gradientUnits="userSpaceOnUse" x1="3.4909" y1="618.5046" x2="-30.2071" y2="508.8416" gradientTransform="matrix(7.8769 0 0 -7.8769 364.0401 4969.6694)">
	<stop  offset="0" style="stop-color:#29D3DA"/>
	<stop  offset="0.519" style="stop-color:#0077FF"/>
	<stop  offset="0.999" style="stop-color:#064093"/>
	<stop  offset="1" style="stop-color:#084698"/>
</linearGradient>
<path style="fill:url(#SVGID_5_);" d="M252.064,386.135c42.212,0,76.438,32.941,76.438,73.586c0,40.629-34.225,44.41-76.438,44.41"
	/>
<linearGradient id="SVGID_6_" gradientUnits="userSpaceOnUse" x1="-14.2158" y1="635.3641" x2="-14.2158" y2="579.4401" gradientTransform="matrix(7.8769 0 0 -7.8769 364.0401 4969.6694)">
	<stop  offset="0.012" style="stop-color:#E0B386"/>
	<stop  offset="0.519" style="stop-color:#DA498C"/>
	<stop  offset="1" style="stop-color:#961484"/>
</linearGradient>
<path style="fill:url(#SVGID_6_);" d="M305.879,97.493c0,53.855-24.111,58.848-53.815,58.848s-53.815-4.994-53.815-58.849
	C198.248,43.646,222.36,0,252.064,0S305.879,43.646,305.879,97.493z"/>
<linearGradient id="SVGID_7_" gradientUnits="userSpaceOnUse" x1="-17.1027" y1="605.3152" x2="-42.9997" y2="530.7053" gradientTransform="matrix(7.8769 0 0 -7.8769 364.0401 4969.6694)">
	<stop  offset="0.012" style="stop-color:#E0B386"/>
	<stop  offset="0.519" style="stop-color:#DA498C"/>
	<stop  offset="1" style="stop-color:#961484"/>
</linearGradient>
<path style="fill:url(#SVGID_7_);" d="M252.064,0c29.704,0,53.815,43.646,53.815,97.493c0,53.855-24.111,58.848-53.815,58.848"/>
<linearGradient id="SVGID_8_" gradientUnits="userSpaceOnUse" x1="-41.5573" y1="624.3028" x2="-18.0133" y2="576.9348" gradientTransform="matrix(7.8769 0 0 -7.8769 364.0401 4969.6694)">
	<stop  offset="0.012" style="stop-color:#E0B386"/>
	<stop  offset="0.519" style="stop-color:#DA498C"/>
	<stop  offset="1" style="stop-color:#961484"/>
</linearGradient>
<path style="fill:url(#SVGID_8_);" d="M138.069,141.69c22.678,45.615,4.356,59.983-20.811,72.491
	c-25.167,12.493-47.671,18.416-70.341-27.191c-22.654-45.623-20.63-92.719,4.545-105.228
	C76.629,69.254,115.383,96.075,138.069,141.69z"/>
<linearGradient id="SVGID_9_" gradientUnits="userSpaceOnUse" x1="-23.3347" y1="618.1799" x2="-45.2727" y2="607.2748" gradientTransform="matrix(7.8769 0 0 -7.8769 364.0401 4969.6694)">
	<stop  offset="0.012" style="stop-color:#E0B386"/>
	<stop  offset="0.519" style="stop-color:#DA498C"/>
	<stop  offset="1" style="stop-color:#961484"/>
</linearGradient>
<path style="fill:url(#SVGID_9_);" d="M51.462,81.762c25.159-12.509,63.921,14.312,86.607,59.928
	c22.678,45.615,4.356,59.983-20.811,72.491"/>
<linearGradient id="SVGID_10_" gradientUnits="userSpaceOnUse" x1="13.1244" y1="624.3035" x2="-10.4146" y2="576.9344" gradientTransform="matrix(7.8769 0 0 -7.8769 364.0401 4969.6694)">
	<stop  offset="0.012" style="stop-color:#E0B386"/>
	<stop  offset="0.519" style="stop-color:#DA498C"/>
	<stop  offset="1" style="stop-color:#961484"/>
</linearGradient>
<path style="fill:url(#SVGID_10_);" d="M366.058,141.69c-22.678,45.615-4.356,59.983,20.811,72.491
	c25.167,12.493,47.671,18.416,70.341-27.191c22.662-45.623,20.63-92.719-4.537-105.228
	C427.498,69.254,388.744,96.075,366.058,141.69z"/>
<linearGradient id="SVGID_11_" gradientUnits="userSpaceOnUse" x1="-5.0925" y1="618.1807" x2="16.8345" y2="607.2757" gradientTransform="matrix(7.8769 0 0 -7.8769 364.0401 4969.6694)">
	<stop  offset="0.012" style="stop-color:#E0B386"/>
	<stop  offset="0.519" style="stop-color:#DA498C"/>
	<stop  offset="1" style="stop-color:#961484"/>
</linearGradient>
<path style="fill:url(#SVGID_11_);" d="M452.665,81.762c-25.159-12.509-63.921,14.312-86.607,59.928
	c-22.678,45.615-4.356,59.983,20.811,72.491"/>
<g>
</g>
<g>
</g>
<g>
</g>
<g>
</g>
<g>
</g>
<g>
</g>
<g>
</g>
<g>
</g>
<g>
</g>
<g>
</g>
<g>
</g>
<g>
</g>
<g>
</g>
<g>
</g>
<g>
</g>
</svg>
