<?xml version="1.0" encoding="iso-8859-1"?>
<!-- Generator: Adobe Illustrator 19.0.0, SVG Export Plug-In . SVG Version: 6.00 Build 0)  -->
<svg version="1.1" id="Layer_1" xmlns="http://www.w3.org/2000/svg" xmlns:xlink="http://www.w3.org/1999/xlink" x="0px" y="0px"
	 viewBox="0 0 504.115 504.115" style="enable-background:new 0 0 504.115 504.115;" xml:space="preserve">
<linearGradient id="SVGID_1_" gradientUnits="userSpaceOnUse" x1="-46.2178" y1="598.9111" x2="17.7812" y2="598.9111" gradientTransform="matrix(7.8769 0 0 -7.8769 364.0537 4969.6348)">
	<stop  offset="0.012" style="stop-color:#E0B386"/>
	<stop  offset="0.519" style="stop-color:#DA498C"/>
	<stop  offset="1" style="stop-color:#961484"/>
</linearGradient>
<path style="fill:url(#SVGID_1_);" d="M79.376,312.182c0-116.137,94.153-210.29,210.29-210.298
	c112.735,0.008,204.737,88.726,210.007,200.145c2.875-15.21,4.443-30.885,4.443-46.954C504.123,115.866,391.263,3.013,252.069,3.005
	C112.853,3.005,0,115.866,0,255.09c0,120.383,84.433,221.003,197.293,246.02C127.48,466.893,79.368,395.166,79.376,312.182z"/>
<linearGradient id="SVGID_2_" gradientUnits="userSpaceOnUse" x1="-48.1269" y1="619.1677" x2="0.1251" y2="606.6667" gradientTransform="matrix(7.8769 0 0 -7.8769 364.0537 4969.6348)">
	<stop  offset="0.012" style="stop-color:#E0B386"/>
	<stop  offset="0.519" style="stop-color:#DA498C"/>
	<stop  offset="1" style="stop-color:#961484"/>
</linearGradient>
<path style="fill:url(#SVGID_2_);" d="M252.077,3.005C112.853,3.005,0,115.866,0,255.09"/>
<linearGradient id="SVGID_3_" gradientUnits="userSpaceOnUse" x1="-18.2158" y1="585.8276" x2="10.2882" y2="585.8276" gradientTransform="matrix(7.8769 0 0 -7.8769 364.0537 4969.6348)">
	<stop  offset="0" style="stop-color:#29D3DA"/>
	<stop  offset="0.519" style="stop-color:#0077FF"/>
	<stop  offset="0.999" style="stop-color:#064093"/>
	<stop  offset="1" style="stop-color:#084698"/>
</linearGradient>
<path style="fill:url(#SVGID_3_);" d="M445.093,346.226c0.008-43.819-23.324-82.093-58.171-103.377
	c11.209,18.377,17.794,39.889,17.794,62.992c0,66.907-54.248,121.155-121.163,121.155c-23.111,0-44.599-6.593-62.984-17.802
	c21.291,34.848,59.565,58.179,103.369,58.187C390.845,467.381,445.093,413.133,445.093,346.226z"/>
<g>
</g>
<g>
</g>
<g>
</g>
<g>
</g>
<g>
</g>
<g>
</g>
<g>
</g>
<g>
</g>
<g>
</g>
<g>
</g>
<g>
</g>
<g>
</g>
<g>
</g>
<g>
</g>
<g>
</g>
</svg>
