<?xml version="1.0" encoding="iso-8859-1"?>
<!-- Generator: Adobe Illustrator 19.0.0, SVG Export Plug-In . SVG Version: 6.00 Build 0)  -->
<svg version="1.1" id="Layer_1" xmlns="http://www.w3.org/2000/svg" xmlns:xlink="http://www.w3.org/1999/xlink" x="0px" y="0px"
	 viewBox="0 0 504.129 504.129" style="enable-background:new 0 0 504.129 504.129;" xml:space="preserve">
<linearGradient id="SVGID_1_" gradientUnits="userSpaceOnUse" x1="8.0837" y1="604.046" x2="-14.8483" y2="582.502" gradientTransform="matrix(7.8769 0 0 -7.8769 364.0319 4969.6978)">
	<stop  offset="0" style="stop-color:#29D3DA"/>
	<stop  offset="0.519" style="stop-color:#0077FF"/>
	<stop  offset="0.999" style="stop-color:#064093"/>
	<stop  offset="1" style="stop-color:#084698"/>
</linearGradient>
<path style="fill:url(#SVGID_1_);" d="M252.136,381.364c0,0-7.806-83.803,84.85-112.427c92.656-28.633,89.009-55.186,89.009-55.186
	s16.715,65.599-50.979,78.045C253.215,314.182,252.136,381.364,252.136,381.364z"/>
<linearGradient id="SVGID_2_" gradientUnits="userSpaceOnUse" x1="-18.5143" y1="577.098" x2="9.3157" y2="604.982" gradientTransform="matrix(7.8769 0 0 -7.8769 364.0319 4969.6978)">
	<stop  offset="0" style="stop-color:#29D3DA"/>
	<stop  offset="0.519" style="stop-color:#0077FF"/>
	<stop  offset="0.999" style="stop-color:#064093"/>
	<stop  offset="1" style="stop-color:#084698"/>
</linearGradient>
<path style="fill:url(#SVGID_2_);" d="M427.807,229.994c-1.686,7.428-13.344,29.814-90.411,53.618
	c-65.032,20.11-81.479,66.875-85.417,94.035c0.032,2.402,0.158,3.726,0.158,3.726s1.079-67.182,122.888-89.569
	C421.072,283.336,428.051,250.285,427.807,229.994z"/>
<linearGradient id="SVGID_3_" gradientUnits="userSpaceOnUse" x1="3.031" y1="598.4557" x2="-14.705" y2="581.7897" gradientTransform="matrix(7.8769 0 0 -7.8769 364.0319 4969.6978)">
	<stop  offset="0" style="stop-color:#29D3DA"/>
	<stop  offset="0.519" style="stop-color:#0077FF"/>
	<stop  offset="0.999" style="stop-color:#064093"/>
	<stop  offset="1" style="stop-color:#084698"/>
</linearGradient>
<path style="fill:url(#SVGID_3_);" d="M252.096,386.996c0,0-6.049-64.827,65.631-86.985c71.68-22.142,68.868-42.677,68.868-42.677
	s12.918,50.735-39.44,60.353C252.939,335.009,252.096,386.996,252.096,386.996z"/>
<linearGradient id="SVGID_4_" gradientUnits="userSpaceOnUse" x1="-17.5438" y1="577.6055" x2="3.9812" y2="599.1775" gradientTransform="matrix(7.8769 0 0 -7.8769 364.0319 4969.6978)">
	<stop  offset="0" style="stop-color:#29D3DA"/>
	<stop  offset="0.519" style="stop-color:#0077FF"/>
	<stop  offset="0.999" style="stop-color:#064093"/>
	<stop  offset="1" style="stop-color:#084698"/>
</linearGradient>
<path style="fill:url(#SVGID_4_);" d="M387.989,269.906c-1.308,5.742-10.327,23.048-69.939,41.464
	c-50.31,15.557-63.023,51.736-66.079,72.736c0.024,1.843,0.126,2.891,0.126,2.891s0.843-51.988,95.059-69.309
	C382.774,311.15,388.178,285.581,387.989,269.906z"/>
<linearGradient id="SVGID_5_" gradientUnits="userSpaceOnUse" x1="-1.1787" y1="594.0173" x2="-14.5937" y2="581.4174" gradientTransform="matrix(7.8769 0 0 -7.8769 364.0319 4969.6978)">
	<stop  offset="0" style="stop-color:#29D3DA"/>
	<stop  offset="0.519" style="stop-color:#0077FF"/>
	<stop  offset="0.999" style="stop-color:#064093"/>
	<stop  offset="1" style="stop-color:#084698"/>
</linearGradient>
<path style="fill:url(#SVGID_5_);" d="M252.049,389.919c0,0-4.553-49.018,49.632-65.772c54.193-16.738,52.066-32.264,52.066-32.264
	s9.775,38.353-29.814,45.631C252.695,350.613,252.049,389.919,252.049,389.919z"/>
<linearGradient id="SVGID_6_" gradientUnits="userSpaceOnUse" x1="-16.7326" y1="578.2563" x2="-0.4626" y2="594.5623" gradientTransform="matrix(7.8769 0 0 -7.8769 364.0319 4969.6978)">
	<stop  offset="0" style="stop-color:#29D3DA"/>
	<stop  offset="0.519" style="stop-color:#0077FF"/>
	<stop  offset="0.999" style="stop-color:#064093"/>
	<stop  offset="1" style="stop-color:#084698"/>
</linearGradient>
<path style="fill:url(#SVGID_6_);" d="M354.811,301.398c-1,4.34-7.806,17.432-52.886,31.35
	c-38.03,11.752-47.648,39.109-49.955,54.981c0.016,1.402,0.079,2.182,0.079,2.182s0.646-39.306,71.885-52.397
	C350.865,332.583,354.953,313.245,354.811,301.398z"/>
<linearGradient id="SVGID_7_" gradientUnits="userSpaceOnUse" x1="17.7645" y1="616.7982" x2="-15.1215" y2="585.9042" gradientTransform="matrix(7.8769 0 0 -7.8769 364.0319 4969.6978)">
	<stop  offset="0.012" style="stop-color:#E0B386"/>
	<stop  offset="0.519" style="stop-color:#DA498C"/>
	<stop  offset="1" style="stop-color:#961484"/>
</linearGradient>
<path style="fill:url(#SVGID_7_);" d="M252.191,354.567c0,0-11.177-120.186,121.675-161.249
	c132.86-41.031,127.646-79.108,127.646-79.108s23.962,94.058-73.09,111.892C253.75,258.209,252.191,354.567,252.191,354.567z"/>
<linearGradient id="SVGID_8_" gradientUnits="userSpaceOnUse" x1="-20.3728" y1="578.1495" x2="19.5242" y2="618.1415" gradientTransform="matrix(7.8769 0 0 -7.8769 364.0319 4969.6978)">
	<stop  offset="0.012" style="stop-color:#E0B386"/>
	<stop  offset="0.519" style="stop-color:#DA498C"/>
	<stop  offset="1" style="stop-color:#961484"/>
</linearGradient>
<path style="fill:url(#SVGID_8_);" d="M504.103,137.519c-2.418,10.634-19.149,42.74-129.638,76.879
	c-93.255,28.814-116.831,95.878-122.486,134.814c0.047,3.434,0.205,5.356,0.205,5.356s1.56-96.351,176.23-128.465
	C494.438,213.98,504.449,166.576,504.103,137.519z"/>
<linearGradient id="SVGID_9_" gradientUnits="userSpaceOnUse" x1="10.5164" y1="608.7792" x2="-14.9156" y2="584.8822" gradientTransform="matrix(7.8769 0 0 -7.8769 364.0319 4969.6978)">
	<stop  offset="0.012" style="stop-color:#E0B386"/>
	<stop  offset="0.519" style="stop-color:#DA498C"/>
	<stop  offset="1" style="stop-color:#961484"/>
</linearGradient>
<path style="fill:url(#SVGID_9_);" d="M252.151,362.609c0,0-8.665-92.956,94.113-124.723
	c102.778-31.736,98.737-61.204,98.737-61.204s18.534,72.767-56.541,86.567C253.357,288.07,252.151,362.609,252.151,362.609z"/>
<linearGradient id="SVGID_10_" gradientUnits="userSpaceOnUse" x1="-18.9788" y1="578.8885" x2="11.8852" y2="609.8195" gradientTransform="matrix(7.8769 0 0 -7.8769 364.0319 4969.6978)">
	<stop  offset="0.012" style="stop-color:#E0B386"/>
	<stop  offset="0.519" style="stop-color:#DA498C"/>
	<stop  offset="1" style="stop-color:#961484"/>
</linearGradient>
<path style="fill:url(#SVGID_10_);" d="M447.011,194.721c-1.867,8.231-14.809,33.059-100.281,59.463
	c-72.121,22.292-90.38,74.185-94.744,104.29c0.032,2.647,0.165,4.135,0.165,4.135s1.205-74.539,136.318-99.352
	C439.528,253.869,447.279,217.209,447.011,194.721z"/>
<linearGradient id="SVGID_11_" gradientUnits="userSpaceOnUse" x1="4.4844" y1="602.4193" x2="-14.7506" y2="584.3493" gradientTransform="matrix(7.8769 0 0 -7.8769 364.0319 4969.6978)">
	<stop  offset="0.012" style="stop-color:#E0B386"/>
	<stop  offset="0.519" style="stop-color:#DA498C"/>
	<stop  offset="1" style="stop-color:#961484"/>
</linearGradient>
<path style="fill:url(#SVGID_11_);" d="M252.096,366.808c0,0-6.53-70.278,71.152-94.295c77.706-24.017,74.665-46.277,74.665-46.277
	s14.013,55.012-42.748,65.449C253.002,310.456,252.096,366.808,252.096,366.808z"/>
<linearGradient id="SVGID_12_" gradientUnits="userSpaceOnUse" x1="-17.8231" y1="579.8177" x2="5.5129" y2="603.2007" gradientTransform="matrix(7.8769 0 0 -7.8769 364.0319 4969.6978)">
	<stop  offset="0.012" style="stop-color:#E0B386"/>
	<stop  offset="0.519" style="stop-color:#DA498C"/>
	<stop  offset="1" style="stop-color:#961484"/>
</linearGradient>
<path style="fill:url(#SVGID_12_);" d="M399.434,239.871c-1.426,6.215-11.201,25.001-75.831,44.954
	c-54.532,16.864-68.324,56.092-71.633,78.864c0.024,2.001,0.126,3.119,0.126,3.119s0.906-56.352,103.07-75.122
	C393.778,284.596,399.623,256.87,399.434,239.871z"/>
<linearGradient id="SVGID_13_" gradientUnits="userSpaceOnUse" x1="-36.5122" y1="604.0468" x2="-13.5832" y2="582.5027" gradientTransform="matrix(7.8769 0 0 -7.8769 364.0319 4969.6978)">
	<stop  offset="0" style="stop-color:#29D3DA"/>
	<stop  offset="0.519" style="stop-color:#0077FF"/>
	<stop  offset="0.999" style="stop-color:#064093"/>
	<stop  offset="1" style="stop-color:#084698"/>
</linearGradient>
<path style="fill:url(#SVGID_13_);" d="M251.994,381.364c0,0,7.806-83.803-84.85-112.427
	c-92.656-28.633-89.017-55.186-89.017-55.186s-16.699,65.599,50.987,78.045C250.915,314.182,251.994,381.364,251.994,381.364z"/>
<linearGradient id="SVGID_14_" gradientUnits="userSpaceOnUse" x1="-9.9191" y1="577.0967" x2="-37.7411" y2="604.9818" gradientTransform="matrix(7.8769 0 0 -7.8769 364.0319 4969.6978)">
	<stop  offset="0" style="stop-color:#29D3DA"/>
	<stop  offset="0.519" style="stop-color:#0077FF"/>
	<stop  offset="0.999" style="stop-color:#064093"/>
	<stop  offset="1" style="stop-color:#084698"/>
</linearGradient>
<path style="fill:url(#SVGID_14_);" d="M76.323,229.994c1.678,7.428,13.336,29.814,90.403,53.618
	c65.04,20.11,81.487,66.875,85.425,94.035c-0.032,2.402-0.158,3.726-0.158,3.726s-1.087-67.182-122.888-89.569
	C83.057,283.336,76.079,250.285,76.323,229.994z"/>
<linearGradient id="SVGID_15_" gradientUnits="userSpaceOnUse" x1="-31.4611" y1="598.4548" x2="-13.7211" y2="581.7878" gradientTransform="matrix(7.8769 0 0 -7.8769 364.0319 4969.6978)">
	<stop  offset="0" style="stop-color:#29D3DA"/>
	<stop  offset="0.519" style="stop-color:#0077FF"/>
	<stop  offset="0.999" style="stop-color:#064093"/>
	<stop  offset="1" style="stop-color:#084698"/>
</linearGradient>
<path style="fill:url(#SVGID_15_);" d="M252.033,386.996c0,0,6.042-64.827-65.638-86.985
	c-71.672-22.142-68.868-42.677-68.868-42.677s-12.918,50.735,39.448,60.353C251.198,335.009,252.033,386.996,252.033,386.996z"/>
<linearGradient id="SVGID_16_" gradientUnits="userSpaceOnUse" x1="-10.8883" y1="577.6055" x2="-32.4093" y2="599.1785" gradientTransform="matrix(7.8769 0 0 -7.8769 364.0319 4969.6978)">
	<stop  offset="0" style="stop-color:#29D3DA"/>
	<stop  offset="0.519" style="stop-color:#0077FF"/>
	<stop  offset="0.999" style="stop-color:#064093"/>
	<stop  offset="1" style="stop-color:#084698"/>
</linearGradient>
<path style="fill:url(#SVGID_16_);" d="M116.141,269.906c1.308,5.742,10.327,23.048,69.939,41.464
	c50.31,15.557,63.023,51.736,66.08,72.736c-0.024,1.843-0.126,2.891-0.126,2.891s-0.835-51.988-95.059-69.309
	C121.355,311.15,115.944,285.581,116.141,269.906z"/>
<linearGradient id="SVGID_17_" gradientUnits="userSpaceOnUse" x1="-27.2511" y1="594.0187" x2="-13.8391" y2="581.4188" gradientTransform="matrix(7.8769 0 0 -7.8769 364.0319 4969.6978)">
	<stop  offset="0" style="stop-color:#29D3DA"/>
	<stop  offset="0.519" style="stop-color:#0077FF"/>
	<stop  offset="0.999" style="stop-color:#064093"/>
	<stop  offset="1" style="stop-color:#084698"/>
</linearGradient>
<path style="fill:url(#SVGID_17_);" d="M252.073,389.919c0,0,4.553-49.018-49.632-65.772
	c-54.193-16.738-52.059-32.264-52.059-32.264s-9.775,38.353,29.814,45.631C251.435,350.613,252.073,389.919,252.073,389.919z"/>
<linearGradient id="SVGID_18_" gradientUnits="userSpaceOnUse" x1="-11.6962" y1="578.2566" x2="-27.9692" y2="594.5646" gradientTransform="matrix(7.8769 0 0 -7.8769 364.0319 4969.6978)">
	<stop  offset="0" style="stop-color:#29D3DA"/>
	<stop  offset="0.519" style="stop-color:#0077FF"/>
	<stop  offset="0.999" style="stop-color:#064093"/>
	<stop  offset="1" style="stop-color:#084698"/>
</linearGradient>
<path style="fill:url(#SVGID_18_);" d="M149.318,301.398c0.992,4.34,7.806,17.432,52.886,31.35
	c38.03,11.752,47.648,39.109,49.955,54.981c-0.016,1.402-0.087,2.182-0.087,2.182s-0.638-39.306-71.877-52.397
	C153.264,332.583,149.176,313.245,149.318,301.398z"/>
<linearGradient id="SVGID_19_" gradientUnits="userSpaceOnUse" x1="-46.1931" y1="616.7978" x2="-13.3091" y2="585.9048" gradientTransform="matrix(7.8769 0 0 -7.8769 364.0319 4969.6978)">
	<stop  offset="0.012" style="stop-color:#E0B386"/>
	<stop  offset="0.519" style="stop-color:#DA498C"/>
	<stop  offset="1" style="stop-color:#961484"/>
</linearGradient>
<path style="fill:url(#SVGID_19_);" d="M251.931,354.567c0,0,11.177-120.186-121.667-161.249
	C-2.596,152.288,2.618,114.211,2.618,114.211s-23.962,94.058,73.09,111.892C250.371,258.209,251.931,354.567,251.931,354.567z"/>
<linearGradient id="SVGID_20_" gradientUnits="userSpaceOnUse" x1="-8.058" y1="578.1488" x2="-47.954" y2="618.1428" gradientTransform="matrix(7.8769 0 0 -7.8769 364.0319 4969.6978)">
	<stop  offset="0.012" style="stop-color:#E0B386"/>
	<stop  offset="0.519" style="stop-color:#DA498C"/>
	<stop  offset="1" style="stop-color:#961484"/>
</linearGradient>
<path style="fill:url(#SVGID_20_);" d="M0.019,137.519c2.426,10.634,19.157,42.74,129.646,76.879
	c93.247,28.814,116.831,95.878,122.486,134.814c-0.055,3.434-0.213,5.356-0.213,5.356s-1.568-96.358-176.23-128.465
	C9.684,213.98-0.32,166.576,0.019,137.519z"/>
<linearGradient id="SVGID_21_" gradientUnits="userSpaceOnUse" x1="-38.9482" y1="608.7806" x2="-13.5142" y2="584.8837" gradientTransform="matrix(7.8769 0 0 -7.8769 364.0319 4969.6978)">
	<stop  offset="0.012" style="stop-color:#E0B386"/>
	<stop  offset="0.519" style="stop-color:#DA498C"/>
	<stop  offset="1" style="stop-color:#961484"/>
</linearGradient>
<path style="fill:url(#SVGID_21_);" d="M251.978,362.609c0,0,8.665-92.956-94.113-124.723
	c-102.778-31.736-98.737-61.204-98.737-61.204s-18.542,72.767,56.541,86.567C250.773,288.07,251.978,362.609,251.978,362.609z"/>
<linearGradient id="SVGID_22_" gradientUnits="userSpaceOnUse" x1="-9.4547" y1="578.8881" x2="-40.3117" y2="609.8201" gradientTransform="matrix(7.8769 0 0 -7.8769 364.0319 4969.6978)">
	<stop  offset="0.012" style="stop-color:#E0B386"/>
	<stop  offset="0.519" style="stop-color:#DA498C"/>
	<stop  offset="1" style="stop-color:#961484"/>
</linearGradient>
<path style="fill:url(#SVGID_22_);" d="M57.111,194.721c1.875,8.231,14.816,33.059,100.289,59.463
	c72.129,22.292,90.38,74.185,94.744,104.29c-0.032,2.647-0.165,4.135-0.165,4.135s-1.205-74.539-136.318-99.352
	C64.594,253.869,56.851,217.209,57.111,194.721z"/>
<linearGradient id="SVGID_23_" gradientUnits="userSpaceOnUse" x1="-32.912" y1="602.42" x2="-13.683" y2="584.35" gradientTransform="matrix(7.8769 0 0 -7.8769 364.0319 4969.6978)">
	<stop  offset="0.012" style="stop-color:#E0B386"/>
	<stop  offset="0.519" style="stop-color:#DA498C"/>
	<stop  offset="1" style="stop-color:#961484"/>
</linearGradient>
<path style="fill:url(#SVGID_23_);" d="M252.025,366.808c0,0,6.538-70.278-71.152-94.295
	c-77.706-24.017-74.657-46.277-74.657-46.277s-14.013,55.012,42.748,65.449C251.119,310.456,252.025,366.808,252.025,366.808z"/>
<linearGradient id="SVGID_24_" gradientUnits="userSpaceOnUse" x1="-10.6144" y1="579.8165" x2="-33.9434" y2="603.2084" gradientTransform="matrix(7.8769 0 0 -7.8769 364.0319 4969.6978)">
	<stop  offset="0.012" style="stop-color:#E0B386"/>
	<stop  offset="0.519" style="stop-color:#DA498C"/>
	<stop  offset="1" style="stop-color:#961484"/>
</linearGradient>
<path style="fill:url(#SVGID_24_);" d="M104.695,239.871c1.426,6.215,11.201,25.001,75.823,44.954
	c54.54,16.864,68.332,56.092,71.641,78.864c-0.024,2.001-0.134,3.119-0.134,3.119s-0.906-56.352-103.062-75.122
	C110.351,284.596,104.506,256.87,104.695,239.871z"/>
<g>
</g>
<g>
</g>
<g>
</g>
<g>
</g>
<g>
</g>
<g>
</g>
<g>
</g>
<g>
</g>
<g>
</g>
<g>
</g>
<g>
</g>
<g>
</g>
<g>
</g>
<g>
</g>
<g>
</g>
</svg>
