<?xml version="1.0" encoding="iso-8859-1"?>
<!-- Generator: Adobe Illustrator 19.0.0, SVG Export Plug-In . SVG Version: 6.00 Build 0)  -->
<svg version="1.1" id="Layer_1" xmlns="http://www.w3.org/2000/svg" xmlns:xlink="http://www.w3.org/1999/xlink" x="0px" y="0px"
	 viewBox="0 0 504.123 504.123" style="enable-background:new 0 0 504.123 504.123;" xml:space="preserve">
<linearGradient id="SVGID_1_" gradientUnits="userSpaceOnUse" x1="-50.8917" y1="583.6492" x2="6.5823" y2="568.7592" gradientTransform="matrix(7.8769 0 0 -7.8769 364.0537 4969.7041)">
	<stop  offset="0" style="stop-color:#29D3DA"/>
	<stop  offset="0.519" style="stop-color:#0077FF"/>
	<stop  offset="0.999" style="stop-color:#064093"/>
	<stop  offset="1" style="stop-color:#084698"/>
</linearGradient>
<path style="fill:url(#SVGID_1_);" d="M237.678,434.408c0,0-20.126-96.831-113.176-84.252C31.437,362.728,0,454.534,0,454.534
	s37.723-51.562,111.923-37.73c74.193,13.832,64.142-12.579,85.512-10.059C218.805,409.265,237.678,434.408,237.678,434.408z"/>
<linearGradient id="SVGID_2_" gradientUnits="userSpaceOnUse" x1="-45.3248" y1="599.7128" x2="5.5522" y2="586.5328" gradientTransform="matrix(7.8769 0 0 -7.8769 364.0537 4969.7041)">
	<stop  offset="0.012" style="stop-color:#E0B386"/>
	<stop  offset="0.519" style="stop-color:#DA498C"/>
	<stop  offset="1" style="stop-color:#961484"/>
</linearGradient>
<path style="fill:url(#SVGID_2_);" d="M228.25,384.736c0,0-25.781-47.781-98.714-63.504c-58.147-12.532-85.512-75.461-50.31-138.335
	c0,0,3.773,46.529,59.108,49.05c55.335,2.521,67.529,62.811,76.698,91.798C230.762,373.417,228.25,384.736,228.25,384.736z"/>
<linearGradient id="SVGID_3_" gradientUnits="userSpaceOnUse" x1="-48.4779" y1="592.5056" x2="-17.5579" y2="584.4955" gradientTransform="matrix(7.8769 0 0 -7.8769 364.0537 4969.7041)">
	<stop  offset="0.012" style="stop-color:#E0B386"/>
	<stop  offset="0.519" style="stop-color:#DA498C"/>
	<stop  offset="1" style="stop-color:#961484"/>
</linearGradient>
<path style="fill:url(#SVGID_3_);" d="M129.654,336.821c0,0-25.679-6.412-50.767-26.262c-25.096-19.834-44.363,5.837-64.772-10.5
	c0,0,12.162,44.205,54.28,43.173C116.24,342.067,129.654,336.821,129.654,336.821z"/>
<linearGradient id="SVGID_4_" gradientUnits="userSpaceOnUse" x1="-31.1979" y1="603.3222" x2="7.5831" y2="593.2722" gradientTransform="matrix(7.8769 0 0 -7.8769 364.0537 4969.7041)">
	<stop  offset="0" style="stop-color:#29D3DA"/>
	<stop  offset="0.519" style="stop-color:#0077FF"/>
	<stop  offset="0.999" style="stop-color:#064093"/>
	<stop  offset="1" style="stop-color:#084698"/>
</linearGradient>
<path style="fill:url(#SVGID_4_);" d="M240.821,396.056c0,0-1.26-106.268-56.596-165.998
	c-41.732-45.056,5.033-129.528,67.907-183.603v411.215L240.821,396.056z"/>
<linearGradient id="SVGID_5_" gradientUnits="userSpaceOnUse" x1="-35.448" y1="609.7502" x2="-24.399" y2="606.8882" gradientTransform="matrix(7.8769 0 0 -7.8769 364.0537 4969.7041)">
	<stop  offset="0" style="stop-color:#29D3DA"/>
	<stop  offset="0.519" style="stop-color:#0077FF"/>
	<stop  offset="0.999" style="stop-color:#064093"/>
	<stop  offset="1" style="stop-color:#084698"/>
</linearGradient>
<path style="fill:url(#SVGID_5_);" d="M128.268,212.452c0,0-61.613-23.891-16.337-73.137c0,0-3.363,14.257,13.414,26.829
	C142.115,178.716,128.268,212.452,128.268,212.452z"/>
<linearGradient id="SVGID_6_" gradientUnits="userSpaceOnUse" x1="22.4524" y1="583.6483" x2="-35.0196" y2="568.7583" gradientTransform="matrix(7.8769 0 0 -7.8769 364.0537 4969.7041)">
	<stop  offset="0" style="stop-color:#29D3DA"/>
	<stop  offset="0.519" style="stop-color:#0077FF"/>
	<stop  offset="0.999" style="stop-color:#064093"/>
	<stop  offset="1" style="stop-color:#084698"/>
</linearGradient>
<path style="fill:url(#SVGID_6_);" d="M266.445,434.408c0,0,20.126-96.831,113.176-84.252
	c93.066,12.572,124.503,104.377,124.503,104.377S466.4,402.972,392.2,416.803c-74.193,13.832-64.142-12.579-85.512-10.059
	C285.318,409.265,266.445,434.408,266.445,434.408z"/>
<linearGradient id="SVGID_7_" gradientUnits="userSpaceOnUse" x1="16.8826" y1="599.7116" x2="-33.9874" y2="586.5316" gradientTransform="matrix(7.8769 0 0 -7.8769 364.0537 4969.7041)">
	<stop  offset="0.012" style="stop-color:#E0B386"/>
	<stop  offset="0.519" style="stop-color:#DA498C"/>
	<stop  offset="1" style="stop-color:#961484"/>
</linearGradient>
<path style="fill:url(#SVGID_7_);" d="M275.873,384.736c0,0,25.773-47.781,98.714-63.504
	c58.147-12.532,85.512-75.461,50.318-138.335c0,0-3.781,46.529-59.116,49.05c-55.335,2.521-67.537,62.811-76.713,91.798
	C273.353,373.417,275.873,384.736,275.873,384.736z"/>
<linearGradient id="SVGID_8_" gradientUnits="userSpaceOnUse" x1="20.0405" y1="592.505" x2="-10.8795" y2="584.495" gradientTransform="matrix(7.8769 0 0 -7.8769 364.0537 4969.7041)">
	<stop  offset="0.012" style="stop-color:#E0B386"/>
	<stop  offset="0.519" style="stop-color:#DA498C"/>
	<stop  offset="1" style="stop-color:#961484"/>
</linearGradient>
<path style="fill:url(#SVGID_8_);" d="M374.469,336.821c0,0,25.671-6.412,50.775-26.262c25.08-19.834,44.347,5.837,64.764-10.5
	c0,0-12.17,44.205-54.272,43.173C387.883,342.067,374.469,336.821,374.469,336.821z"/>
<linearGradient id="SVGID_9_" gradientUnits="userSpaceOnUse" x1="6.9484" y1="607.1987" x2="-21.3646" y2="596.1287" gradientTransform="matrix(7.8769 0 0 -7.8769 364.0537 4969.7041)">
	<stop  offset="0" style="stop-color:#29D3DA"/>
	<stop  offset="0.519" style="stop-color:#0077FF"/>
	<stop  offset="0.999" style="stop-color:#064093"/>
	<stop  offset="1" style="stop-color:#084698"/>
</linearGradient>
<path style="fill:url(#SVGID_9_);" d="M263.302,396.056c0,0,1.252-106.268,56.596-165.998
	c41.732-45.056-5.033-129.528-67.907-183.603v411.215L263.302,396.056z"/>
<linearGradient id="SVGID_10_" gradientUnits="userSpaceOnUse" x1="7.0105" y1="609.7499" x2="-4.0375" y2="606.8879" gradientTransform="matrix(7.8769 0 0 -7.8769 364.0537 4969.7041)">
	<stop  offset="0" style="stop-color:#29D3DA"/>
	<stop  offset="0.519" style="stop-color:#0077FF"/>
	<stop  offset="0.999" style="stop-color:#064093"/>
	<stop  offset="1" style="stop-color:#084698"/>
</linearGradient>
<path style="fill:url(#SVGID_10_);" d="M375.847,212.452c0,0,61.613-23.891,16.345-73.137c0,0,3.363,14.257-13.422,26.829
	C362.008,178.716,375.847,212.452,375.847,212.452z"/>
<g>
</g>
<g>
</g>
<g>
</g>
<g>
</g>
<g>
</g>
<g>
</g>
<g>
</g>
<g>
</g>
<g>
</g>
<g>
</g>
<g>
</g>
<g>
</g>
<g>
</g>
<g>
</g>
<g>
</g>
</svg>
