<?xml version="1.0" encoding="iso-8859-1"?>
<!-- Generator: Adobe Illustrator 19.0.0, SVG Export Plug-In . SVG Version: 6.00 Build 0)  -->
<svg version="1.1" id="Layer_1" xmlns="http://www.w3.org/2000/svg" xmlns:xlink="http://www.w3.org/1999/xlink" x="0px" y="0px"
	 viewBox="0 0 504.123 504.123" style="enable-background:new 0 0 504.123 504.123;" xml:space="preserve">
<linearGradient id="SVGID_1_" gradientUnits="userSpaceOnUse" x1="4.2672" y1="587.004" x2="-10.9198" y2="587.004" gradientTransform="matrix(7.8769 0 0 -7.8769 364.0537 4969.6694)">
	<stop  offset="0" style="stop-color:#29D3DA"/>
	<stop  offset="0.519" style="stop-color:#0077FF"/>
	<stop  offset="0.999" style="stop-color:#064093"/>
	<stop  offset="1" style="stop-color:#084698"/>
</linearGradient>
<polygon style="fill:url(#SVGID_1_);" points="143.896,252.062 143.77,252.132 143.77,377.186 252.062,439.706 360.353,377.186 
	360.353,252.132 360.227,252.062 252.062,314.518 "/>
<linearGradient id="SVGID_2_" gradientUnits="userSpaceOnUse" x1="-36.4901" y1="592.2241" x2="-2.9921" y2="580.8741" gradientTransform="matrix(7.8769 0 0 -7.8769 364.0537 4969.6694)">
	<stop  offset="0" style="stop-color:#29D3DA"/>
	<stop  offset="0.519" style="stop-color:#0077FF"/>
	<stop  offset="0.999" style="stop-color:#064093"/>
	<stop  offset="1" style="stop-color:#084698"/>
</linearGradient>
<polyline style="fill:url(#SVGID_2_);" points="252.062,314.518 143.896,252.062 143.77,252.132 143.77,377.186 252.062,439.706 "/>
<linearGradient id="SVGID_3_" gradientUnits="userSpaceOnUse" x1="3.4822" y1="608.0971" x2="-5.4478" y2="609.0891" gradientTransform="matrix(7.8769 0 0 -7.8769 364.0537 4969.6694)">
	<stop  offset="0.012" style="stop-color:#E0B386"/>
	<stop  offset="0.519" style="stop-color:#DA498C"/>
	<stop  offset="1" style="stop-color:#961484"/>
</linearGradient>
<polygon style="fill:url(#SVGID_3_);" points="143.77,126.937 143.77,251.991 143.896,252.062 252.062,189.605 360.227,252.062 
	360.353,251.991 360.353,126.937 252.062,64.417 "/>
<linearGradient id="SVGID_4_" gradientUnits="userSpaceOnUse" x1="-29.8579" y1="608.3464" x2="-0.5779" y2="611.5724" gradientTransform="matrix(7.8769 0 0 -7.8769 364.0537 4969.6694)">
	<stop  offset="0.012" style="stop-color:#E0B386"/>
	<stop  offset="0.519" style="stop-color:#DA498C"/>
	<stop  offset="1" style="stop-color:#961484"/>
</linearGradient>
<polyline style="fill:url(#SVGID_4_);" points="252.062,64.417 143.77,126.937 143.77,251.991 143.896,252.062 252.062,189.605 
	360.227,252.062 "/>
<linearGradient id="SVGID_5_" gradientUnits="userSpaceOnUse" x1="-33.1379" y1="624.3447" x2="-38.9129" y2="591.8408" gradientTransform="matrix(7.8769 0 0 -7.8769 364.0537 4969.6694)">
	<stop  offset="0" style="stop-color:#29D3DA"/>
	<stop  offset="0.519" style="stop-color:#0077FF"/>
	<stop  offset="0.999" style="stop-color:#064093"/>
	<stop  offset="1" style="stop-color:#084698"/>
</linearGradient>
<polygon style="fill:url(#SVGID_5_);" points="72.034,376.84 112.711,376.832 40.684,252.069 112.711,127.283 72.034,127.283 
	0,252.069 "/>
<linearGradient id="SVGID_6_" gradientUnits="userSpaceOnUse" x1="-36.9073" y1="586.0557" x2="-49.9423" y2="615.9157" gradientTransform="matrix(7.8769 0 0 -7.8769 364.0537 4969.6694)">
	<stop  offset="0" style="stop-color:#29D3DA"/>
	<stop  offset="0.519" style="stop-color:#0077FF"/>
	<stop  offset="0.999" style="stop-color:#064093"/>
	<stop  offset="1" style="stop-color:#084698"/>
</linearGradient>
<polyline style="fill:url(#SVGID_6_);" points="0,252.069 72.034,376.84 112.711,376.832 40.684,252.069 "/>
<linearGradient id="SVGID_7_" gradientUnits="userSpaceOnUse" x1="-40.0896" y1="589.9639" x2="-25.3656" y2="604.7499" gradientTransform="matrix(7.8769 0 0 -7.8769 364.0537 4969.6694)">
	<stop  offset="0" style="stop-color:#29D3DA"/>
	<stop  offset="0.519" style="stop-color:#0077FF"/>
	<stop  offset="0.999" style="stop-color:#064093"/>
	<stop  offset="1" style="stop-color:#084698"/>
</linearGradient>
<polyline style="fill:url(#SVGID_7_);" points="0,252.069 72.034,376.84 112.711,376.832 "/>
<linearGradient id="SVGID_8_" gradientUnits="userSpaceOnUse" x1="4.6975" y1="624.3442" x2="10.4775" y2="591.8392" gradientTransform="matrix(7.8769 0 0 -7.8769 364.0537 4969.6694)">
	<stop  offset="0" style="stop-color:#29D3DA"/>
	<stop  offset="0.519" style="stop-color:#0077FF"/>
	<stop  offset="0.999" style="stop-color:#064093"/>
	<stop  offset="1" style="stop-color:#084698"/>
</linearGradient>
<polygon style="fill:url(#SVGID_8_);" points="432.089,376.84 391.412,376.832 463.431,252.069 391.412,127.283 432.089,127.283 
	504.123,252.069 "/>
<linearGradient id="SVGID_9_" gradientUnits="userSpaceOnUse" x1="8.4722" y1="586.0551" x2="21.5022" y2="615.9131" gradientTransform="matrix(7.8769 0 0 -7.8769 364.0537 4969.6694)">
	<stop  offset="0" style="stop-color:#29D3DA"/>
	<stop  offset="0.519" style="stop-color:#0077FF"/>
	<stop  offset="0.999" style="stop-color:#064093"/>
	<stop  offset="1" style="stop-color:#084698"/>
</linearGradient>
<polyline style="fill:url(#SVGID_9_);" points="504.123,252.069 432.089,376.84 391.412,376.832 463.431,252.069 "/>
<linearGradient id="SVGID_10_" gradientUnits="userSpaceOnUse" x1="11.6526" y1="589.9654" x2="-3.0694" y2="604.7494" gradientTransform="matrix(7.8769 0 0 -7.8769 364.0537 4969.6694)">
	<stop  offset="0" style="stop-color:#29D3DA"/>
	<stop  offset="0.519" style="stop-color:#0077FF"/>
	<stop  offset="0.999" style="stop-color:#064093"/>
	<stop  offset="1" style="stop-color:#084698"/>
</linearGradient>
<polyline style="fill:url(#SVGID_10_);" points="504.123,252.069 432.089,376.84 391.412,376.832 "/>
<linearGradient id="SVGID_11_" gradientUnits="userSpaceOnUse" x1="-8.508" y1="593.2048" x2="-21.318" y2="606.0158" gradientTransform="matrix(7.8769 0 0 -7.8769 364.0537 4969.6694)">
	<stop  offset="0.012" style="stop-color:#E0B386"/>
	<stop  offset="0.65" style="stop-color:#DA498C"/>
	<stop  offset="1" style="stop-color:#961484"/>
</linearGradient>
<circle style="fill:url(#SVGID_11_);" cx="252.062" cy="252.062" r="28.239"/>
<linearGradient id="SVGID_12_" gradientUnits="userSpaceOnUse" x1="-16.2115" y1="600.9083" x2="-9.1265" y2="593.8233" gradientTransform="matrix(7.8769 0 0 -7.8769 364.0537 4969.6694)">
	<stop  offset="0.012" style="stop-color:#E0B386"/>
	<stop  offset="0.65" style="stop-color:#DA498C"/>
	<stop  offset="1" style="stop-color:#961484"/>
</linearGradient>
<path style="fill:url(#SVGID_12_);" d="M232.094,272.03c-11.02-11.02-11.02-28.916,0-39.936c11.028-11.02,28.908-11.02,39.936,0.008
	"/>
<g>
</g>
<g>
</g>
<g>
</g>
<g>
</g>
<g>
</g>
<g>
</g>
<g>
</g>
<g>
</g>
<g>
</g>
<g>
</g>
<g>
</g>
<g>
</g>
<g>
</g>
<g>
</g>
<g>
</g>
</svg>
