<?xml version="1.0" encoding="iso-8859-1"?>
<!-- Generator: Adobe Illustrator 19.0.0, SVG Export Plug-In . SVG Version: 6.00 Build 0)  -->
<svg version="1.1" id="Layer_1" xmlns="http://www.w3.org/2000/svg" xmlns:xlink="http://www.w3.org/1999/xlink" x="0px" y="0px"
	 viewBox="0 0 504.123 504.123" style="enable-background:new 0 0 504.123 504.123;" xml:space="preserve">
<linearGradient id="SVGID_1_" gradientUnits="userSpaceOnUse" x1="-13.764" y1="631.2711" x2="-14.789" y2="598.439" gradientTransform="matrix(7.8769 0 0 -7.8769 364.0537 4969.6694)">
	<stop  offset="0.012" style="stop-color:#E0B386"/>
	<stop  offset="0.519" style="stop-color:#DA498C"/>
	<stop  offset="1" style="stop-color:#961484"/>
</linearGradient>
<path style="fill:url(#SVGID_1_);" d="M251.29,252.077c0,0-67.615-56.107-20.354-145.636S255.905,0,255.905,0
	s60.755,36.084,19.984,95.232C202.5,201.681,251.29,252.077,251.29,252.077z"/>
<linearGradient id="SVGID_2_" gradientUnits="userSpaceOnUse" x1="-13.4993" y1="591.7441" x2="-13.5493" y2="632.868" gradientTransform="matrix(7.8769 0 0 -7.8769 364.0537 4969.6694)">
	<stop  offset="0.012" style="stop-color:#E0B386"/>
	<stop  offset="0.519" style="stop-color:#DA498C"/>
	<stop  offset="1" style="stop-color:#961484"/>
</linearGradient>
<path style="fill:url(#SVGID_2_);" d="M269.241,10.657c4.238,6.727,12.154,31.862-27.16,106.315
	c-33.17,62.85-10.776,109.513,6.357,132.458c1.796,1.749,2.859,2.647,2.859,2.647s-48.79-50.397,24.6-156.845
	C303.64,54.997,284.388,25.442,269.241,10.657z"/>
<linearGradient id="SVGID_3_" gradientUnits="userSpaceOnUse" x1="-13.3659" y1="623.415" x2="-14.1569" y2="598.017" gradientTransform="matrix(7.8769 0 0 -7.8769 364.0537 4969.6694)">
	<stop  offset="0" style="stop-color:#29D3DA"/>
	<stop  offset="0.519" style="stop-color:#0077FF"/>
	<stop  offset="0.999" style="stop-color:#064093"/>
	<stop  offset="1" style="stop-color:#084698"/>
</linearGradient>
<path style="fill:url(#SVGID_3_);" d="M255.417,256.252c0,0-52.311-43.41-15.746-112.672c36.565-69.246,19.314-82.33,19.314-82.33
	s47.002,27.916,15.462,73.673C217.671,217.261,255.417,256.252,255.417,256.252z"/>
<linearGradient id="SVGID_4_" gradientUnits="userSpaceOnUse" x1="-13.1619" y1="592.8361" x2="-13.1999" y2="624.6481" gradientTransform="matrix(7.8769 0 0 -7.8769 364.0537 4969.6694)">
	<stop  offset="0" style="stop-color:#29D3DA"/>
	<stop  offset="0.519" style="stop-color:#0077FF"/>
	<stop  offset="0.999" style="stop-color:#064093"/>
	<stop  offset="1" style="stop-color:#084698"/>
</linearGradient>
<path style="fill:url(#SVGID_4_);" d="M269.296,69.498c3.269,5.191,9.397,24.647-21.008,82.243
	c-25.663,48.608-8.35,84.701,4.915,102.463c1.378,1.347,2.206,2.048,2.206,2.048s-37.746-38.991,19.031-121.328
	C295.897,103.802,281.025,80.935,269.296,69.498z"/>
<linearGradient id="SVGID_5_" gradientUnits="userSpaceOnUse" x1="-13.1986" y1="617.0311" x2="-13.7986" y2="597.8281" gradientTransform="matrix(7.8769 0 0 -7.8769 364.0537 4969.6694)">
	<stop  offset="0.012" style="stop-color:#E0B386"/>
	<stop  offset="0.519" style="stop-color:#DA498C"/>
	<stop  offset="1" style="stop-color:#961484"/>
</linearGradient>
<path style="fill:url(#SVGID_5_);" d="M257.552,258.434c0,0-39.55-32.815-11.91-85.173c27.648-52.35,14.604-62.251,14.604-62.251
	s35.533,21.11,11.681,55.698C229.014,228.951,257.552,258.434,257.552,258.434z"/>
<linearGradient id="SVGID_6_" gradientUnits="userSpaceOnUse" x1="-13.0439" y1="593.9141" x2="-13.0729" y2="617.965" gradientTransform="matrix(7.8769 0 0 -7.8769 364.0537 4969.6694)">
	<stop  offset="0.012" style="stop-color:#E0B386"/>
	<stop  offset="0.519" style="stop-color:#DA498C"/>
	<stop  offset="1" style="stop-color:#961484"/>
</linearGradient>
<path style="fill:url(#SVGID_6_);" d="M268.052,117.24c2.473,3.931,7.097,18.637-15.888,62.188
	c-19.401,36.746-6.317,64.039,3.726,77.47c1.032,1.016,1.662,1.536,1.662,1.536s-28.538-29.475,14.383-91.735
	C288.169,143.171,276.913,125.889,268.052,117.24z"/>
<linearGradient id="SVGID_7_" gradientUnits="userSpaceOnUse" x1="-14.6682" y1="566.5611" x2="-13.6482" y2="599.3951" gradientTransform="matrix(7.8769 0 0 -7.8769 364.0537 4969.6694)">
	<stop  offset="0.012" style="stop-color:#E0B386"/>
	<stop  offset="0.519" style="stop-color:#DA498C"/>
	<stop  offset="1" style="stop-color:#961484"/>
</linearGradient>
<path style="fill:url(#SVGID_7_);" d="M252.833,252.046c0,0,67.631,56.107,20.37,145.636s-24.986,106.441-24.986,106.441
	s-60.755-36.084-19.976-95.232C301.639,302.442,252.833,252.046,252.833,252.046z"/>
<linearGradient id="SVGID_8_" gradientUnits="userSpaceOnUse" x1="-14.9347" y1="606.0881" x2="-14.8857" y2="564.9651" gradientTransform="matrix(7.8769 0 0 -7.8769 364.0537 4969.6694)">
	<stop  offset="0.012" style="stop-color:#E0B386"/>
	<stop  offset="0.519" style="stop-color:#DA498C"/>
	<stop  offset="1" style="stop-color:#961484"/>
</linearGradient>
<path style="fill:url(#SVGID_8_);" d="M234.89,493.466c-4.23-6.727-12.146-31.862,27.152-106.315
	c33.185-62.85,10.784-109.505-6.349-132.458c-1.78-1.749-2.867-2.647-2.867-2.647s48.805,50.397-24.592,156.845
	C200.491,449.126,219.735,478.681,234.89,493.466z"/>
<linearGradient id="SVGID_9_" gradientUnits="userSpaceOnUse" x1="-15.0691" y1="574.4171" x2="-14.2772" y2="599.816" gradientTransform="matrix(7.8769 0 0 -7.8769 364.0537 4969.6694)">
	<stop  offset="0" style="stop-color:#29D3DA"/>
	<stop  offset="0.519" style="stop-color:#0077FF"/>
	<stop  offset="0.999" style="stop-color:#064093"/>
	<stop  offset="1" style="stop-color:#084698"/>
</linearGradient>
<path style="fill:url(#SVGID_9_);" d="M248.722,247.871c0,0,52.295,43.41,15.738,112.671c-36.573,69.246-19.314,82.33-19.314,82.33
	s-47.002-27.916-15.462-73.673C286.444,286.862,248.722,247.871,248.722,247.871z"/>
<linearGradient id="SVGID_10_" gradientUnits="userSpaceOnUse" x1="-15.2726" y1="604.9951" x2="-15.2346" y2="573.1851" gradientTransform="matrix(7.8769 0 0 -7.8769 364.0537 4969.6694)">
	<stop  offset="0" style="stop-color:#29D3DA"/>
	<stop  offset="0.519" style="stop-color:#0077FF"/>
	<stop  offset="0.999" style="stop-color:#064093"/>
	<stop  offset="1" style="stop-color:#084698"/>
</linearGradient>
<path style="fill:url(#SVGID_10_);" d="M234.835,434.625c-3.277-5.191-9.405-24.639,21.008-82.243
	c25.663-48.608,8.35-84.701-4.923-102.463c-1.378-1.347-2.198-2.048-2.198-2.048s37.723,38.991-19.039,121.328
	C208.234,400.329,223.114,423.188,234.835,434.625z"/>
<linearGradient id="SVGID_11_" gradientUnits="userSpaceOnUse" x1="-15.2359" y1="580.798" x2="-14.6359" y2="600" gradientTransform="matrix(7.8769 0 0 -7.8769 364.0537 4969.6694)">
	<stop  offset="0.012" style="stop-color:#E0B386"/>
	<stop  offset="0.519" style="stop-color:#DA498C"/>
	<stop  offset="1" style="stop-color:#961484"/>
</linearGradient>
<path style="fill:url(#SVGID_11_);" d="M246.571,245.689c0,0,39.558,32.815,11.926,85.173
	c-27.648,52.358-14.604,62.251-14.604,62.251s-35.549-21.11-11.689-55.698C275.125,275.172,246.571,245.689,246.571,245.689z"/>
<linearGradient id="SVGID_12_" gradientUnits="userSpaceOnUse" x1="-15.3882" y1="603.9161" x2="-15.3632" y2="579.8651" gradientTransform="matrix(7.8769 0 0 -7.8769 364.0537 4969.6694)">
	<stop  offset="0.012" style="stop-color:#E0B386"/>
	<stop  offset="0.519" style="stop-color:#DA498C"/>
	<stop  offset="1" style="stop-color:#961484"/>
</linearGradient>
<path style="fill:url(#SVGID_12_);" d="M236.087,386.883c-2.473-3.931-7.113-18.637,15.888-62.188
	c19.385-36.746,6.309-64.039-3.726-77.47c-1.032-1.016-1.678-1.536-1.678-1.536s28.554,29.475-14.375,91.735
	C215.962,360.952,227.226,378.234,236.087,386.883z"/>
<linearGradient id="SVGID_13_" gradientUnits="userSpaceOnUse" x1="8.982" y1="621.4722" x2="-14.958" y2="598.9812" gradientTransform="matrix(7.8769 0 0 -7.8769 364.0537 4969.6694)">
	<stop  offset="0.012" style="stop-color:#E0B386"/>
	<stop  offset="0.519" style="stop-color:#DA498C"/>
	<stop  offset="1" style="stop-color:#961484"/>
</linearGradient>
<path style="fill:url(#SVGID_13_);" d="M251.518,251.534c0,0-8.145-87.481,88.576-117.39c96.729-29.877,92.932-57.596,92.932-57.596
	s17.44,68.474-53.209,81.471C252.637,181.382,251.518,251.534,251.518,251.534z"/>
<linearGradient id="SVGID_14_" gradientUnits="userSpaceOnUse" x1="-18.7806" y1="593.3359" x2="10.2634" y2="622.4519" gradientTransform="matrix(7.8769 0 0 -7.8769 364.0537 4969.6694)">
	<stop  offset="0.012" style="stop-color:#E0B386"/>
	<stop  offset="0.519" style="stop-color:#DA498C"/>
	<stop  offset="1" style="stop-color:#961484"/>
</linearGradient>
<path style="fill:url(#SVGID_14_);" d="M434.909,93.507c-1.764,7.743-13.942,31.114-94.373,55.966
	c-67.899,20.984-85.055,69.813-89.175,98.154c0.039,2.497,0.165,3.899,0.165,3.899s1.126-70.144,128.299-93.515
	C427.874,149.181,435.161,114.68,434.909,93.507z"/>
<linearGradient id="SVGID_15_" gradientUnits="userSpaceOnUse" x1="3.711" y1="615.6364" x2="-14.813" y2="598.2364" gradientTransform="matrix(7.8769 0 0 -7.8769 364.0537 4969.6694)">
	<stop  offset="0" style="stop-color:#29D3DA"/>
	<stop  offset="0.519" style="stop-color:#0077FF"/>
	<stop  offset="0.999" style="stop-color:#064093"/>
	<stop  offset="1" style="stop-color:#084698"/>
</linearGradient>
<path style="fill:url(#SVGID_15_);" d="M251.471,257.402c0,0-6.302-67.679,68.529-90.805c74.823-23.119,71.877-44.56,71.877-44.56
	s13.493,52.98-41.157,63.031C252.353,203.13,251.471,257.402,251.471,257.402z"/>
<linearGradient id="SVGID_16_" gradientUnits="userSpaceOnUse" x1="-17.7696" y1="593.8709" x2="4.7024" y2="616.3949" gradientTransform="matrix(7.8769 0 0 -7.8769 364.0537 4969.6694)">
	<stop  offset="0" style="stop-color:#29D3DA"/>
	<stop  offset="0.519" style="stop-color:#0077FF"/>
	<stop  offset="0.999" style="stop-color:#064093"/>
	<stop  offset="1" style="stop-color:#084698"/>
</linearGradient>
<path style="fill:url(#SVGID_16_);" d="M393.342,135.152c-1.355,5.994-10.768,24.08-73.019,43.307
	c-52.523,16.234-65.788,53.988-68.97,75.926c0.032,1.922,0.118,3.017,0.118,3.017s0.882-54.272,99.257-72.342
	C387.899,178.215,393.539,151.536,393.342,135.152z"/>
<linearGradient id="SVGID_17_" gradientUnits="userSpaceOnUse" x1="-0.6878" y1="611.0042" x2="-14.6878" y2="597.8511" gradientTransform="matrix(7.8769 0 0 -7.8769 364.0537 4969.6694)">
	<stop  offset="0.012" style="stop-color:#E0B386"/>
	<stop  offset="0.519" style="stop-color:#DA498C"/>
	<stop  offset="1" style="stop-color:#961484"/>
</linearGradient>
<path style="fill:url(#SVGID_17_);" d="M251.447,260.443c0,0-4.766-51.168,51.799-68.655c56.58-17.471,54.343-33.682,54.343-33.682
	s10.208,40.054-31.114,47.648C252.109,219.412,251.447,260.443,251.447,260.443z"/>
<linearGradient id="SVGID_18_" gradientUnits="userSpaceOnUse" x1="-16.9235" y1="594.5497" x2="0.0625" y2="611.5757" gradientTransform="matrix(7.8769 0 0 -7.8769 364.0537 4969.6694)">
	<stop  offset="0.012" style="stop-color:#E0B386"/>
	<stop  offset="0.519" style="stop-color:#DA498C"/>
	<stop  offset="1" style="stop-color:#961484"/>
</linearGradient>
<path style="fill:url(#SVGID_18_);" d="M358.707,168.038c-1.032,4.529-8.153,18.196-55.209,32.729
	c-39.7,12.272-49.743,40.826-52.153,57.407c0.024,1.457,0.102,2.269,0.102,2.269s0.662-41.031,75.028-54.689
	C354.588,200.594,358.849,180.413,358.707,168.038z"/>
<linearGradient id="SVGID_19_" gradientUnits="userSpaceOnUse" x1="-37.4155" y1="576.3601" x2="-13.4725" y2="598.8511" gradientTransform="matrix(7.8769 0 0 -7.8769 364.0537 4969.6694)">
	<stop  offset="0.012" style="stop-color:#E0B386"/>
	<stop  offset="0.519" style="stop-color:#DA498C"/>
	<stop  offset="1" style="stop-color:#961484"/>
</linearGradient>
<path style="fill:url(#SVGID_19_);" d="M252.613,252.589c0,0,8.137,87.489-88.576,117.39
	c-96.729,29.877-92.932,57.596-92.932,57.596s-17.447-68.466,53.209-81.471C251.494,322.741,252.613,252.589,252.613,252.589z"/>
<linearGradient id="SVGID_20_" gradientUnits="userSpaceOnUse" x1="-9.6581" y1="604.4934" x2="-38.6981" y2="575.3754" gradientTransform="matrix(7.8769 0 0 -7.8769 364.0537 4969.6694)">
	<stop  offset="0.012" style="stop-color:#E0B386"/>
	<stop  offset="0.519" style="stop-color:#DA498C"/>
	<stop  offset="1" style="stop-color:#961484"/>
</linearGradient>
<path style="fill:url(#SVGID_20_);" d="M69.215,410.624c1.772-7.751,13.95-31.122,94.381-55.966
	c67.899-20.984,85.063-69.821,89.175-98.154c-0.039-2.505-0.165-3.907-0.165-3.907s-1.126,70.144-128.299,93.515
	C76.249,354.942,68.962,389.443,69.215,410.624z"/>
<linearGradient id="SVGID_21_" gradientUnits="userSpaceOnUse" x1="-32.1415" y1="582.1968" x2="-13.6195" y2="599.5959" gradientTransform="matrix(7.8769 0 0 -7.8769 364.0537 4969.6694)">
	<stop  offset="0" style="stop-color:#29D3DA"/>
	<stop  offset="0.519" style="stop-color:#0077FF"/>
	<stop  offset="0.999" style="stop-color:#064093"/>
	<stop  offset="1" style="stop-color:#084698"/>
</linearGradient>
<path style="fill:url(#SVGID_21_);" d="M252.66,246.729c0,0,6.302,67.679-68.529,90.797c-74.823,23.119-71.885,44.56-71.885,44.56
	s-13.493-52.98,41.165-63.023C251.778,300.993,252.66,246.729,252.66,246.729z"/>
<linearGradient id="SVGID_22_" gradientUnits="userSpaceOnUse" x1="-10.668" y1="603.9583" x2="-33.133" y2="581.4363" gradientTransform="matrix(7.8769 0 0 -7.8769 364.0537 4969.6694)">
	<stop  offset="0" style="stop-color:#29D3DA"/>
	<stop  offset="0.519" style="stop-color:#0077FF"/>
	<stop  offset="0.999" style="stop-color:#064093"/>
	<stop  offset="1" style="stop-color:#084698"/>
</linearGradient>
<path style="fill:url(#SVGID_22_);" d="M110.789,368.971c1.347-5.986,10.776-24.08,73.011-43.292
	c52.523-16.242,65.804-53.996,68.978-75.941c-0.024-1.922-0.118-3.009-0.118-3.009s-0.882,54.264-99.257,72.342
	C116.232,325.908,110.592,352.595,110.789,368.971z"/>
<linearGradient id="SVGID_23_" gradientUnits="userSpaceOnUse" x1="-27.7453" y1="586.8277" x2="-13.7443" y2="599.9807" gradientTransform="matrix(7.8769 0 0 -7.8769 364.0537 4969.6694)">
	<stop  offset="0.012" style="stop-color:#E0B386"/>
	<stop  offset="0.519" style="stop-color:#DA498C"/>
	<stop  offset="1" style="stop-color:#961484"/>
</linearGradient>
<path style="fill:url(#SVGID_23_);" d="M252.684,243.68c0,0,4.758,51.176-51.807,68.663c-56.572,17.471-54.343,33.674-54.343,33.674
	s-10.201-40.046,31.114-47.647C252.022,284.711,252.684,243.68,252.684,243.68z"/>
<linearGradient id="SVGID_24_" gradientUnits="userSpaceOnUse" x1="-11.5075" y1="603.2848" x2="-28.4965" y2="586.2548" gradientTransform="matrix(7.8769 0 0 -7.8769 364.0537 4969.6694)">
	<stop  offset="0.012" style="stop-color:#E0B386"/>
	<stop  offset="0.519" style="stop-color:#DA498C"/>
	<stop  offset="1" style="stop-color:#961484"/>
</linearGradient>
<path style="fill:url(#SVGID_24_);" d="M145.424,336.093c1.032-4.529,8.153-18.204,55.209-32.729
	c39.692-12.28,49.735-40.826,52.153-57.407c-0.016-1.457-0.102-2.276-0.102-2.276s-0.662,41.031-75.036,54.689
	C149.536,303.529,145.282,323.718,145.424,336.093z"/>
<linearGradient id="SVGID_25_" gradientUnits="userSpaceOnUse" x1="18.1373" y1="598.4622" x2="-14.6977" y2="599.4861" gradientTransform="matrix(7.8769 0 0 -7.8769 364.0537 4969.6694)">
	<stop  offset="0.012" style="stop-color:#E0B386"/>
	<stop  offset="0.519" style="stop-color:#DA498C"/>
	<stop  offset="1" style="stop-color:#961484"/>
</linearGradient>
<path style="fill:url(#SVGID_25_);" d="M252.046,251.297c0,0,56.107-67.631,145.644-20.378
	c89.529,47.269,106.433,24.986,106.433,24.986s-36.092,60.763-95.232,19.984C302.442,202.492,252.046,251.297,252.046,251.297z"/>
<linearGradient id="SVGID_26_" gradientUnits="userSpaceOnUse" x1="-21.3898" y1="598.1968" x2="19.7322" y2="598.2468" gradientTransform="matrix(7.8769 0 0 -7.8769 364.0537 4969.6694)">
	<stop  offset="0.012" style="stop-color:#E0B386"/>
	<stop  offset="0.519" style="stop-color:#DA498C"/>
	<stop  offset="1" style="stop-color:#961484"/>
</linearGradient>
<path style="fill:url(#SVGID_26_);" d="M493.466,269.233c-6.727,4.238-31.862,12.154-106.299-27.152
	c-62.858-33.17-109.521-10.776-132.482,6.357c-1.741,1.788-2.639,2.867-2.639,2.867s50.397-48.805,156.845,24.592
	C449.134,303.632,478.681,284.388,493.466,269.233z"/>
<linearGradient id="SVGID_27_" gradientUnits="userSpaceOnUse" x1="10.2782" y1="598.0646" x2="-15.1198" y2="598.8536" gradientTransform="matrix(7.8769 0 0 -7.8769 364.0537 4969.6694)">
	<stop  offset="0" style="stop-color:#29D3DA"/>
	<stop  offset="0.519" style="stop-color:#0077FF"/>
	<stop  offset="0.999" style="stop-color:#064093"/>
	<stop  offset="1" style="stop-color:#084698"/>
</linearGradient>
<path style="fill:url(#SVGID_27_);" d="M247.863,255.409c0,0,43.41-52.303,112.679-15.746c69.254,36.573,82.33,19.322,82.33,19.322
	s-27.916,46.994-73.673,15.462C286.862,217.679,247.863,255.409,247.863,255.409z"/>
<linearGradient id="SVGID_28_" gradientUnits="userSpaceOnUse" x1="-20.2988" y1="597.8597" x2="11.5122" y2="597.8978" gradientTransform="matrix(7.8769 0 0 -7.8769 364.0537 4969.6694)">
	<stop  offset="0" style="stop-color:#29D3DA"/>
	<stop  offset="0.519" style="stop-color:#0077FF"/>
	<stop  offset="0.999" style="stop-color:#064093"/>
	<stop  offset="1" style="stop-color:#084698"/>
</linearGradient>
<path style="fill:url(#SVGID_28_);" d="M434.633,269.296c-5.199,3.269-24.647,9.389-82.243-21.008
	c-48.616-25.671-84.708-8.35-102.471,4.915c-1.339,1.378-2.056,2.198-2.056,2.198s38.999-37.73,121.336,19.039
	C400.329,295.889,423.188,281.017,434.633,269.296z"/>
<linearGradient id="SVGID_29_" gradientUnits="userSpaceOnUse" x1="3.8963" y1="597.8969" x2="-15.3027" y2="598.4958" gradientTransform="matrix(7.8769 0 0 -7.8769 364.0537 4969.6694)">
	<stop  offset="0.012" style="stop-color:#E0B386"/>
	<stop  offset="0.519" style="stop-color:#DA498C"/>
	<stop  offset="1" style="stop-color:#961484"/>
</linearGradient>
<path style="fill:url(#SVGID_29_);" d="M245.705,257.552c0,0,32.8-39.55,85.165-11.918c52.35,27.648,62.236,14.604,62.236,14.604
	s-21.102,35.541-55.698,11.681C275.18,229.006,245.705,257.552,245.705,257.552z"/>
<linearGradient id="SVGID_30_" gradientUnits="userSpaceOnUse" x1="-19.2178" y1="597.7415" x2="4.8322" y2="597.7704" gradientTransform="matrix(7.8769 0 0 -7.8769 364.0537 4969.6694)">
	<stop  offset="0.012" style="stop-color:#E0B386"/>
	<stop  offset="0.519" style="stop-color:#DA498C"/>
	<stop  offset="1" style="stop-color:#961484"/>
</linearGradient>
<path style="fill:url(#SVGID_30_);" d="M386.883,268.052c-3.931,2.473-18.637,7.105-62.188-15.896
	c-36.738-19.393-64.039-6.302-77.47,3.726c-1.016,1.04-1.52,1.67-1.52,1.67s29.468-28.546,91.711,14.375
	C360.952,288.169,378.234,276.905,386.883,268.052z"/>
<linearGradient id="SVGID_31_" gradientUnits="userSpaceOnUse" x1="-46.5727" y1="599.366" x2="-13.7417" y2="598.3461" gradientTransform="matrix(7.8769 0 0 -7.8769 364.0537 4969.6694)">
	<stop  offset="0.012" style="stop-color:#E0B386"/>
	<stop  offset="0.519" style="stop-color:#DA498C"/>
	<stop  offset="1" style="stop-color:#961484"/>
</linearGradient>
<path style="fill:url(#SVGID_31_);" d="M252.077,252.826c0,0-56.107,67.631-145.636,20.378C16.912,225.934,0,248.218,0,248.218
	s36.084-60.755,95.232-19.984C201.681,301.631,252.077,252.826,252.077,252.826z"/>
<linearGradient id="SVGID_32_" gradientUnits="userSpaceOnUse" x1="-7.0448" y1="599.6317" x2="-48.1708" y2="599.5837" gradientTransform="matrix(7.8769 0 0 -7.8769 364.0537 4969.6694)">
	<stop  offset="0.012" style="stop-color:#E0B386"/>
	<stop  offset="0.519" style="stop-color:#DA498C"/>
	<stop  offset="1" style="stop-color:#961484"/>
</linearGradient>
<path style="fill:url(#SVGID_32_);" d="M10.65,234.89c6.727-4.238,31.87-12.154,106.323,27.168
	c62.85,33.162,109.513,10.768,132.458-6.357c1.741-1.804,2.647-2.883,2.647-2.883s-50.397,48.805-156.845-24.592
	C54.989,200.483,25.442,219.735,10.65,234.89z"/>
<linearGradient id="SVGID_33_" gradientUnits="userSpaceOnUse" x1="-38.7177" y1="599.7671" x2="-13.3177" y2="598.9741" gradientTransform="matrix(7.8769 0 0 -7.8769 364.0537 4969.6694)">
	<stop  offset="0" style="stop-color:#29D3DA"/>
	<stop  offset="0.519" style="stop-color:#0077FF"/>
	<stop  offset="0.999" style="stop-color:#064093"/>
	<stop  offset="1" style="stop-color:#084698"/>
</linearGradient>
<path style="fill:url(#SVGID_33_);" d="M256.252,248.714c0,0-43.402,52.303-112.672,15.746
	c-69.246-36.573-82.322-19.322-82.322-19.322s27.908-46.994,73.665-15.455C217.261,286.444,256.252,248.714,256.252,248.714z"/>
<linearGradient id="SVGID_34_" gradientUnits="userSpaceOnUse" x1="-8.1408" y1="599.9698" x2="-39.9528" y2="599.9329" gradientTransform="matrix(7.8769 0 0 -7.8769 364.0537 4969.6694)">
	<stop  offset="0" style="stop-color:#29D3DA"/>
	<stop  offset="0.519" style="stop-color:#0077FF"/>
	<stop  offset="0.999" style="stop-color:#064093"/>
	<stop  offset="1" style="stop-color:#084698"/>
</linearGradient>
<path style="fill:url(#SVGID_34_);" d="M69.498,234.835c5.183-3.285,24.647-9.405,82.243,21.008
	c48.608,25.655,84.708,8.342,102.471-4.931c1.347-1.371,2.04-2.198,2.04-2.198s-38.991,37.73-121.328-19.031
	C103.794,208.234,80.935,223.106,69.498,234.835z"/>
<linearGradient id="SVGID_35_" gradientUnits="userSpaceOnUse" x1="-32.3338" y1="599.9337" x2="-13.1328" y2="599.3337" gradientTransform="matrix(7.8769 0 0 -7.8769 364.0537 4969.6694)">
	<stop  offset="0.012" style="stop-color:#E0B386"/>
	<stop  offset="0.519" style="stop-color:#DA498C"/>
	<stop  offset="1" style="stop-color:#961484"/>
</linearGradient>
<path style="fill:url(#SVGID_35_);" d="M258.434,246.571c0,0-32.815,39.55-85.181,11.918c-52.35-27.648-62.236-14.604-62.236-14.604
	s21.102-35.541,55.698-11.681C228.951,275.117,258.434,246.571,258.434,246.571z"/>
<linearGradient id="SVGID_36_" gradientUnits="userSpaceOnUse" x1="-9.2158" y1="600.0852" x2="-33.2688" y2="600.0612" gradientTransform="matrix(7.8769 0 0 -7.8769 364.0537 4969.6694)">
	<stop  offset="0.012" style="stop-color:#E0B386"/>
	<stop  offset="0.519" style="stop-color:#DA498C"/>
	<stop  offset="1" style="stop-color:#961484"/>
</linearGradient>
<path style="fill:url(#SVGID_36_);" d="M117.232,236.079c3.938-2.473,18.637-7.113,62.196,15.888
	c36.746,19.401,64.047,6.317,77.47-3.718c1.016-1.04,1.536-1.678,1.536-1.678s-29.475,28.546-91.727-14.375
	C143.179,215.954,125.889,227.218,117.232,236.079z"/>
<linearGradient id="SVGID_37_" gradientUnits="userSpaceOnUse" x1="8.3417" y1="575.7155" x2="-14.1523" y2="599.6545" gradientTransform="matrix(7.8769 0 0 -7.8769 364.0537 4969.6694)">
	<stop  offset="0.012" style="stop-color:#E0B386"/>
	<stop  offset="0.519" style="stop-color:#DA498C"/>
	<stop  offset="1" style="stop-color:#961484"/>
</linearGradient>
<path style="fill:url(#SVGID_37_);" d="M252.597,251.518c0,0,87.473-8.153,117.39,88.568c29.869,96.729,57.588,92.932,57.588,92.932
	s-68.474,17.447-81.471-53.201C322.741,252.629,252.597,251.518,252.597,251.518z"/>
<linearGradient id="SVGID_38_" gradientUnits="userSpaceOnUse" x1="-19.7963" y1="603.4775" x2="9.3197" y2="574.4345" gradientTransform="matrix(7.8769 0 0 -7.8769 364.0537 4969.6694)">
	<stop  offset="0.012" style="stop-color:#E0B386"/>
	<stop  offset="0.519" style="stop-color:#DA498C"/>
	<stop  offset="1" style="stop-color:#961484"/>
</linearGradient>
<path style="fill:url(#SVGID_38_);" d="M410.616,434.901c-7.743-1.764-31.114-13.942-55.958-94.366
	c-20.992-67.899-69.813-85.063-98.162-89.183c-2.497,0.039-3.891,0.165-3.891,0.165s70.136,1.118,93.507,128.299
	C354.942,427.867,389.443,435.161,410.616,434.901z"/>
<linearGradient id="SVGID_39_" gradientUnits="userSpaceOnUse" x1="2.5009" y1="580.9938" x2="-14.8991" y2="599.5087" gradientTransform="matrix(7.8769 0 0 -7.8769 364.0537 4969.6694)">
	<stop  offset="0" style="stop-color:#29D3DA"/>
	<stop  offset="0.519" style="stop-color:#0077FF"/>
	<stop  offset="0.999" style="stop-color:#064093"/>
	<stop  offset="1" style="stop-color:#084698"/>
</linearGradient>
<path style="fill:url(#SVGID_39_);" d="M246.729,251.463c0,0,67.671-6.302,90.797,68.529c23.119,74.831,44.56,71.885,44.56,71.885
	s-52.98,13.493-63.031-41.157C300.993,252.353,246.729,251.463,246.729,251.463z"/>
<linearGradient id="SVGID_40_" gradientUnits="userSpaceOnUse" x1="-19.2616" y1="602.4682" x2="3.2604" y2="579.9962" gradientTransform="matrix(7.8769 0 0 -7.8769 364.0537 4969.6694)">
	<stop  offset="0" style="stop-color:#29D3DA"/>
	<stop  offset="0.519" style="stop-color:#0077FF"/>
	<stop  offset="0.999" style="stop-color:#064093"/>
	<stop  offset="1" style="stop-color:#084698"/>
</linearGradient>
<path style="fill:url(#SVGID_40_);" d="M368.971,393.35c-5.994-1.371-24.08-10.784-43.307-73.019
	c-16.226-52.531-53.988-65.796-75.926-68.978c-1.93,0.032-3.009,0.11-3.009,0.11s54.264,0.89,72.334,99.265
	C325.908,387.891,352.587,393.531,368.971,393.35z"/>
<linearGradient id="SVGID_41_" gradientUnits="userSpaceOnUse" x1="-2.1291" y1="585.3856" x2="-15.2811" y2="599.3856" gradientTransform="matrix(7.8769 0 0 -7.8769 364.0537 4969.6694)">
	<stop  offset="0.012" style="stop-color:#E0B386"/>
	<stop  offset="0.519" style="stop-color:#DA498C"/>
	<stop  offset="1" style="stop-color:#961484"/>
</linearGradient>
<path style="fill:url(#SVGID_41_);" d="M243.68,251.447c0,0,51.168-4.766,68.663,51.807c17.463,56.564,33.666,54.327,33.666,54.327
	s-40.046,10.208-47.64-31.114C284.711,252.101,243.68,251.447,243.68,251.447z"/>
<linearGradient id="SVGID_42_" gradientUnits="userSpaceOnUse" x1="-18.5877" y1="601.6231" x2="-1.5577" y2="584.6371" gradientTransform="matrix(7.8769 0 0 -7.8769 364.0537 4969.6694)">
	<stop  offset="0.012" style="stop-color:#E0B386"/>
	<stop  offset="0.519" style="stop-color:#DA498C"/>
	<stop  offset="1" style="stop-color:#961484"/>
</linearGradient>
<path style="fill:url(#SVGID_42_);" d="M336.077,358.707c-4.521-1.032-18.188-8.153-32.713-55.217
	c-12.288-39.692-40.834-49.735-57.415-52.145c-1.457,0.016-2.269,0.102-2.269,0.102s41.031,0.654,54.689,75.02
	C303.521,354.588,323.71,358.841,336.077,358.707z"/>
<linearGradient id="SVGID_43_" gradientUnits="userSpaceOnUse" x1="-36.7762" y1="622.1146" x2="-14.2842" y2="598.1755" gradientTransform="matrix(7.8769 0 0 -7.8769 364.0537 4969.6694)">
	<stop  offset="0.012" style="stop-color:#E0B386"/>
	<stop  offset="0.519" style="stop-color:#DA498C"/>
	<stop  offset="1" style="stop-color:#961484"/>
</linearGradient>
<path style="fill:url(#SVGID_43_);" d="M251.542,252.605c0,0-87.497,8.145-117.398-88.568c-29.877-96.729-57.596-92.94-57.596-92.94
	s68.474-17.44,81.463,53.216C181.382,251.494,251.542,252.605,251.542,252.605z"/>
<linearGradient id="SVGID_44_" gradientUnits="userSpaceOnUse" x1="-8.6388" y1="594.354" x2="-37.7548" y2="623.394" gradientTransform="matrix(7.8769 0 0 -7.8769 364.0537 4969.6694)">
	<stop  offset="0.012" style="stop-color:#E0B386"/>
	<stop  offset="0.519" style="stop-color:#DA498C"/>
	<stop  offset="1" style="stop-color:#961484"/>
</linearGradient>
<path style="fill:url(#SVGID_44_);" d="M93.507,69.215c7.735,1.764,31.106,13.942,55.958,94.389
	c20.984,67.891,69.821,85.047,98.146,89.159c2.513-0.032,3.923-0.165,3.923-0.165s-70.152-1.119-93.531-128.291
	C149.189,76.241,114.68,68.955,93.507,69.215z"/>
<linearGradient id="SVGID_45_" gradientUnits="userSpaceOnUse" x1="-30.9406" y1="616.8402" x2="-13.5386" y2="598.3242" gradientTransform="matrix(7.8769 0 0 -7.8769 364.0537 4969.6694)">
	<stop  offset="0" style="stop-color:#29D3DA"/>
	<stop  offset="0.519" style="stop-color:#0077FF"/>
	<stop  offset="0.999" style="stop-color:#064093"/>
	<stop  offset="1" style="stop-color:#084698"/>
</linearGradient>
<path style="fill:url(#SVGID_45_);" d="M257.394,252.652c0,0-67.679,6.309-90.797-68.529c-23.119-74.823-44.56-71.877-44.56-71.877
	s52.98-13.493,63.023,41.157C203.138,251.778,257.394,252.652,257.394,252.652z"/>
<linearGradient id="SVGID_46_" gradientUnits="userSpaceOnUse" x1="-9.1741" y1="595.3647" x2="-31.6981" y2="617.8327" gradientTransform="matrix(7.8769 0 0 -7.8769 364.0537 4969.6694)">
	<stop  offset="0" style="stop-color:#29D3DA"/>
	<stop  offset="0.519" style="stop-color:#0077FF"/>
	<stop  offset="0.999" style="stop-color:#064093"/>
	<stop  offset="1" style="stop-color:#084698"/>
</linearGradient>
<path style="fill:url(#SVGID_46_);" d="M135.152,110.781c5.986,1.347,24.08,10.784,43.292,73.019
	c16.234,52.515,54.004,65.804,75.949,68.978c1.922-0.032,3.001-0.126,3.001-0.126s-54.256-0.874-72.342-99.257
	C178.208,116.224,151.52,110.584,135.152,110.781z"/>
<linearGradient id="SVGID_47_" gradientUnits="userSpaceOnUse" x1="-26.3062" y1="612.4446" x2="-13.1532" y2="598.4436" gradientTransform="matrix(7.8769 0 0 -7.8769 364.0537 4969.6694)">
	<stop  offset="0.012" style="stop-color:#E0B386"/>
	<stop  offset="0.519" style="stop-color:#DA498C"/>
	<stop  offset="1" style="stop-color:#961484"/>
</linearGradient>
<path style="fill:url(#SVGID_47_);" d="M260.45,252.676c0,0-51.176,4.766-68.671-51.807c-17.471-56.572-33.666-54.327-33.666-54.327
	s40.046-10.208,47.648,31.114C219.412,252.022,260.45,252.676,260.45,252.676z"/>
<linearGradient id="SVGID_48_" gradientUnits="userSpaceOnUse" x1="-9.8502" y1="596.2056" x2="-26.8792" y2="613.1966" gradientTransform="matrix(7.8769 0 0 -7.8769 364.0537 4969.6694)">
	<stop  offset="0.012" style="stop-color:#E0B386"/>
	<stop  offset="0.519" style="stop-color:#DA498C"/>
	<stop  offset="1" style="stop-color:#961484"/>
</linearGradient>
<path style="fill:url(#SVGID_48_);" d="M168.023,145.416c4.537,1.032,18.211,8.153,32.729,55.209
	c12.288,39.7,40.834,49.751,57.415,52.153c1.457-0.016,2.284-0.102,2.284-0.102s-41.039-0.654-54.689-75.02
	C200.602,149.536,180.413,145.274,168.023,145.416z"/>
<g>
</g>
<g>
</g>
<g>
</g>
<g>
</g>
<g>
</g>
<g>
</g>
<g>
</g>
<g>
</g>
<g>
</g>
<g>
</g>
<g>
</g>
<g>
</g>
<g>
</g>
<g>
</g>
<g>
</g>
</svg>
