<?xml version="1.0" encoding="iso-8859-1"?>
<!-- Generator: Adobe Illustrator 19.0.0, SVG Export Plug-In . SVG Version: 6.00 Build 0)  -->
<svg version="1.1" id="Layer_1" xmlns="http://www.w3.org/2000/svg" xmlns:xlink="http://www.w3.org/1999/xlink" x="0px" y="0px"
	 viewBox="0 0 506.659 506.659" style="enable-background:new 0 0 506.659 506.659;" xml:space="preserve">
<linearGradient id="SVGID_1_" gradientUnits="userSpaceOnUse" x1="-12.9496" y1="600.5032" x2="-12.9496" y2="554.5132" gradientTransform="matrix(7.8769 0 0 -7.8769 355.3326 4980.9268)">
	<stop  offset="0" style="stop-color:#29D3DA"/>
	<stop  offset="0.519" style="stop-color:#0077FF"/>
	<stop  offset="0.999" style="stop-color:#064093"/>
	<stop  offset="1" style="stop-color:#084698"/>
</linearGradient>
<path style="fill:url(#SVGID_1_);" d="M253.314,228.383c98.099,0,183.044,56.06,224.705,137.878
	c3.773-7.412,7.184-15.029,10.232-22.835c-36.596-94.05-127.953-160.721-234.937-160.721c-106.969,0-198.325,66.67-234.906,160.713
	c3.04,7.806,6.459,15.423,10.224,22.835C70.294,284.444,155.231,228.383,253.314,228.383z"/>
<linearGradient id="SVGID_2_" gradientUnits="userSpaceOnUse" x1="-12.9516" y1="600.5032" x2="-12.9516" y2="554.5132" gradientTransform="matrix(7.8769 0 0 -7.8769 355.3326 4980.9268)">
	<stop  offset="0" style="stop-color:#29D3DA"/>
	<stop  offset="0.519" style="stop-color:#0077FF"/>
	<stop  offset="0.999" style="stop-color:#064093"/>
	<stop  offset="1" style="stop-color:#084698"/>
</linearGradient>
<path style="fill:url(#SVGID_2_);" d="M253.314,319.732c78.525,0,148.661,35.927,194.875,92.199
	c5.979-7.27,11.508-14.927,16.644-22.835c-44.93-69.199-122.849-115.035-211.527-115.035c-88.663,0-166.573,45.836-211.511,115.035
	c5.136,7.916,10.673,15.573,16.636,22.835C104.676,355.651,174.797,319.732,253.314,319.732z"/>
<linearGradient id="SVGID_3_" gradientUnits="userSpaceOnUse" x1="-12.9491" y1="600.5032" x2="-12.9491" y2="554.5132" gradientTransform="matrix(7.8769 0 0 -7.8769 355.3326 4980.9268)">
	<stop  offset="0" style="stop-color:#29D3DA"/>
	<stop  offset="0.519" style="stop-color:#0077FF"/>
	<stop  offset="0.999" style="stop-color:#064093"/>
	<stop  offset="1" style="stop-color:#084698"/>
</linearGradient>
<path style="fill:url(#SVGID_3_);" d="M399.147,457.61c9.783-6.955,19.046-14.596,27.735-22.835
	c-45.198-42.953-106.268-69.364-173.56-69.364c-67.269,0-128.339,26.411-173.536,69.364c8.696,8.247,17.944,15.888,27.735,22.835
	c41.165-29.263,91.443-46.521,145.802-46.521C307.681,411.081,357.975,428.347,399.147,457.61z"/>
<linearGradient id="SVGID_4_" gradientUnits="userSpaceOnUse" x1="-12.9501" y1="644.4132" x2="-12.9501" y2="558.6872" gradientTransform="matrix(7.8769 0 0 -7.8769 355.3326 4980.9268)">
	<stop  offset="0" style="stop-color:#29D3DA"/>
	<stop  offset="0.519" style="stop-color:#0077FF"/>
	<stop  offset="0.999" style="stop-color:#064093"/>
	<stop  offset="1" style="stop-color:#084698"/>
</linearGradient>
<path style="fill:url(#SVGID_4_);" d="M253.314,458.445c-38.463,0-74.799,8.775-107.394,24.198
	c32.595,15.384,68.994,24.017,107.41,24.017c38.424,0,74.815-8.633,107.402-24.017C328.129,467.22,291.793,458.445,253.314,458.445z
	"/>
<linearGradient id="SVGCleanerId_0_2_" gradientUnits="userSpaceOnUse" x1="28.1804" y1="611.9947" x2="-57.5596" y2="611.9947" gradientTransform="matrix(7.8769 0 0 -7.8769 355.3326 4980.9268)">
	<stop  offset="0.012" style="stop-color:#E0B386"/>
	<stop  offset="0.519" style="stop-color:#DA498C"/>
	<stop  offset="1" style="stop-color:#961484"/>
</linearGradient>
<path id="SVGCleanerId_0" style="fill:url(#SVGCleanerId_0_2_);" d="M253.314,137.027c115.46,0,212.708,77.651,242.57,183.556
	c6.144-21.788,9.507-44.749,9.507-68.513C505.391,112.861,392.539,0,253.314,0C114.113,0,1.268,112.861,1.268,252.069
	c0,23.773,3.356,46.734,9.5,68.514C40.621,214.686,137.878,137.027,253.314,137.027z"/>
<g>
	
		<linearGradient id="SVGCleanerId_0_3_" gradientUnits="userSpaceOnUse" x1="28.1804" y1="611.9947" x2="-57.5596" y2="611.9947" gradientTransform="matrix(7.8769 0 0 -7.8769 355.3326 4980.9268)">
		<stop  offset="0.012" style="stop-color:#E0B386"/>
		<stop  offset="0.519" style="stop-color:#DA498C"/>
		<stop  offset="1" style="stop-color:#961484"/>
	</linearGradient>
	<path id="SVGCleanerId_0_1_" style="fill:url(#SVGCleanerId_0_3_);" d="M253.314,137.027c115.46,0,212.708,77.651,242.57,183.556
		c6.144-21.788,9.507-44.749,9.507-68.513C505.391,112.861,392.539,0,253.314,0C114.113,0,1.268,112.861,1.268,252.069
		c0,23.773,3.356,46.734,9.5,68.514C40.621,214.686,137.878,137.027,253.314,137.027z"/>
</g>
<linearGradient id="SVGID_5_" gradientUnits="userSpaceOnUse" x1="27.8843" y1="573.9097" x2="-45.7457" y2="623.0616" gradientTransform="matrix(7.8769 0 0 -7.8769 355.3326 4980.9268)">
	<stop  offset="0.012" style="stop-color:#E0B386"/>
	<stop  offset="0.519" style="stop-color:#DA498C"/>
	<stop  offset="1" style="stop-color:#961484"/>
</linearGradient>
<path style="fill:url(#SVGID_5_);" d="M253.314,59.636c-128.977,0-235.26,96.91-250.187,221.869
	c1.568,13.359,4.08,26.435,7.641,39.077c29.854-105.897,127.11-183.556,242.546-183.556c115.46,0,212.708,77.651,242.57,183.556
	c3.568-12.635,6.065-25.718,7.641-39.077C488.606,156.546,382.306,59.636,253.314,59.636z"/>
<g>
</g>
<g>
</g>
<g>
</g>
<g>
</g>
<g>
</g>
<g>
</g>
<g>
</g>
<g>
</g>
<g>
</g>
<g>
</g>
<g>
</g>
<g>
</g>
<g>
</g>
<g>
</g>
<g>
</g>
</svg>
