<?xml version="1.0" encoding="iso-8859-1"?>
<!-- Generator: Adobe Illustrator 19.0.0, SVG Export Plug-In . SVG Version: 6.00 Build 0)  -->
<svg version="1.1" id="Layer_1" xmlns="http://www.w3.org/2000/svg" xmlns:xlink="http://www.w3.org/1999/xlink" x="0px" y="0px"
	 viewBox="0 0 504.123 504.123" style="enable-background:new 0 0 504.123 504.123;" xml:space="preserve">
<linearGradient id="SVGID_1_" gradientUnits="userSpaceOnUse" x1="-19.4681" y1="640.948" x2="-13.9721" y2="596.948" gradientTransform="matrix(7.8769 0 0 -7.8769 364.0537 4969.6694)">
	<stop  offset="0" style="stop-color:#29D3DA"/>
	<stop  offset="0.519" style="stop-color:#0077FF"/>
	<stop  offset="0.999" style="stop-color:#064093"/>
	<stop  offset="1" style="stop-color:#084698"/>
</linearGradient>
<path style="fill:url(#SVGID_1_);" d="M504.123,260.805v-54.65L336.51,109.403l-154.553,89.222l-17.904-31.019L260.813,0h-54.658
	l-96.752,167.597l89.23,154.569l-31.027,17.904L0,243.318v54.65l167.597,96.752l154.569-89.23l17.904,31.019l-96.752,167.613h54.65
	L394.72,336.51l-89.222-154.561l31.011-17.896L504.123,260.805z M239.616,298.504l-33.997-58.896l58.896-33.997l33.997,58.896
	L239.616,298.504z"/>
<linearGradient id="SVGID_2_" gradientUnits="userSpaceOnUse" x1="-17.4733" y1="634.7266" x2="-11.4733" y2="568.7255" gradientTransform="matrix(7.8769 0 0 -7.8769 364.0537 4969.6694)">
	<stop  offset="0" style="stop-color:#29D3DA"/>
	<stop  offset="0.519" style="stop-color:#0077FF"/>
	<stop  offset="0.999" style="stop-color:#064093"/>
	<stop  offset="1" style="stop-color:#084698"/>
</linearGradient>
<path style="fill:url(#SVGID_2_);" d="M394.72,336.51l-89.222-154.561l31.011-17.896l167.613,96.752v-54.65L336.51,109.403
	l-154.553,89.222l-17.904-31.019L260.813,0h-54.658l-96.752,167.597l89.23,154.569l-31.027,17.904L0,243.318v54.65l167.597,96.752
	l154.569-89.23l17.904,31.019l-96.752,167.613 M239.616,298.504l-33.997-58.896l58.896-33.997l33.997,58.896L239.616,298.504z"/>
<linearGradient id="SVGID_3_" gradientUnits="userSpaceOnUse" x1="-7.7829" y1="577.205" x2="-22.9479" y2="628.369" gradientTransform="matrix(7.8769 0 0 -7.8769 364.0537 4969.6694)">
	<stop  offset="0" style="stop-color:#29D3DA"/>
	<stop  offset="0.519" style="stop-color:#0077FF"/>
	<stop  offset="0.999" style="stop-color:#064093"/>
	<stop  offset="1" style="stop-color:#084698"/>
</linearGradient>
<path style="fill:url(#SVGID_3_);" d="M109.403,167.597l89.23,154.569l-31.027,17.904L0,243.318v54.65l167.597,96.752l154.569-89.23
	l17.904,31.019l-96.752,167.613h54.65L394.72,336.51l-89.222-154.561l31.011-17.896l167.613,96.752v-54.65L336.51,109.403
	l-154.553,89.222l-17.904-31.019L260.813,0 M239.616,298.504l-33.997-58.896l58.896-33.997l33.997,58.896L239.616,298.504z"/>
<linearGradient id="SVGID_4_" gradientUnits="userSpaceOnUse" x1="-14.8274" y1="613.3552" x2="-13.6654" y2="585.8522" gradientTransform="matrix(7.8769 0 0 -7.8769 364.0537 4969.6694)">
	<stop  offset="0.012" style="stop-color:#E0B386"/>
	<stop  offset="0.519" style="stop-color:#DA498C"/>
	<stop  offset="1" style="stop-color:#961484"/>
</linearGradient>
<path style="fill:url(#SVGID_4_);" d="M240.577,164.777l-58.344,33.682l-17.447,65.087l33.69,58.352l65.063,17.44l58.368-33.697
	l17.44-65.063l-33.682-58.352L240.577,164.777z M239.616,298.504l-9.956-17.243l-19.243-5.151l5.152-19.235l-9.956-17.25
	l17.25-9.964l5.151-19.228l19.228,5.152l17.25-9.964l9.964,17.25l19.235,5.152l-5.151,19.235l9.956,17.243l-17.243,9.956
	l-5.151,19.243l-19.243-5.151L239.616,298.504z"/>
<linearGradient id="SVGCleanerId_0_2_" gradientUnits="userSpaceOnUse" x1="-4.8273" y1="583.769" x2="-24.6663" y2="615.771" gradientTransform="matrix(7.8769 0 0 -7.8769 364.0537 4969.6694)">
	<stop  offset="0.012" style="stop-color:#E0B386"/>
	<stop  offset="0.519" style="stop-color:#DA498C"/>
	<stop  offset="1" style="stop-color:#961484"/>
</linearGradient>
<path id="SVGCleanerId_0" style="fill:url(#SVGCleanerId_0_2_);" d="M182.233,198.459l-17.447,65.087l33.69,58.352l65.063,17.44
	l58.368-33.697l17.44-65.063l-33.682-58.352 M239.616,298.504l-9.956-17.243l-19.243-5.151l5.152-19.235l-9.956-17.25l17.25-9.964
	l5.151-19.228l19.228,5.152l17.25-9.964l9.964,17.25l19.235,5.152l-5.151,19.235l9.956,17.243l-17.243,9.956l-5.151,19.243
	l-19.243-5.151L239.616,298.504z"/>
<g>
	
		<linearGradient id="SVGCleanerId_0_3_" gradientUnits="userSpaceOnUse" x1="-4.8273" y1="583.769" x2="-24.6663" y2="615.771" gradientTransform="matrix(7.8769 0 0 -7.8769 364.0537 4969.6694)">
		<stop  offset="0.012" style="stop-color:#E0B386"/>
		<stop  offset="0.519" style="stop-color:#DA498C"/>
		<stop  offset="1" style="stop-color:#961484"/>
	</linearGradient>
	<path id="SVGCleanerId_0_1_" style="fill:url(#SVGCleanerId_0_3_);" d="M182.233,198.459l-17.447,65.087l33.69,58.352l65.063,17.44
		l58.368-33.697l17.44-65.063l-33.682-58.352 M239.616,298.504l-9.956-17.243l-19.243-5.151l5.152-19.235l-9.956-17.25l17.25-9.964
		l5.151-19.228l19.228,5.152l17.25-9.964l9.964,17.25l19.235,5.152l-5.151,19.235l9.956,17.243l-17.243,9.956l-5.151,19.243
		l-19.243-5.151L239.616,298.504z"/>
</g>
<linearGradient id="SVGID_5_" gradientUnits="userSpaceOnUse" x1="-14.6882" y1="610.028" x2="-13.7912" y2="588.859" gradientTransform="matrix(7.8769 0 0 -7.8769 364.0537 4969.6694)">
	<stop  offset="0.012" style="stop-color:#E0B386"/>
	<stop  offset="0.519" style="stop-color:#DA498C"/>
	<stop  offset="1" style="stop-color:#961484"/>
</linearGradient>
<path style="fill:url(#SVGID_5_);" d="M321.906,305.64l17.44-65.063l-33.682-58.352 M182.233,198.459l-17.447,65.087l33.69,58.352"
	/>
<linearGradient id="SVGID_6_" gradientUnits="userSpaceOnUse" x1="-3.1028" y1="599.3855" x2="-24.2708" y2="598.4895" gradientTransform="matrix(7.8769 0 0 -7.8769 364.0537 4969.6694)">
	<stop  offset="0.012" style="stop-color:#E0B386"/>
	<stop  offset="0.519" style="stop-color:#DA498C"/>
	<stop  offset="1" style="stop-color:#961484"/>
</linearGradient>
<path style="fill:url(#SVGID_6_);" d="M198.491,321.898l65.063,17.447l58.352-33.69 M305.672,182.225l-65.087-17.447l-58.352,33.69"
	/>
<linearGradient id="SVGID_7_" gradientUnits="userSpaceOnUse" x1="-6.0283" y1="591.3956" x2="-21.6373" y2="605.7276" gradientTransform="matrix(7.8769 0 0 -7.8769 364.0537 4969.6694)">
	<stop  offset="0.012" style="stop-color:#E0B386"/>
	<stop  offset="0.519" style="stop-color:#DA498C"/>
	<stop  offset="1" style="stop-color:#961484"/>
</linearGradient>
<path style="fill:url(#SVGID_7_);" d="M164.785,263.562l33.674,58.336l65.087,17.447 M339.346,240.585l-33.682-58.36l-65.095-17.44"
	/>
<linearGradient id="SVGID_8_" gradientUnits="userSpaceOnUse" x1="-20.8202" y1="611.5861" x2="-20.1852" y2="596.6171" gradientTransform="matrix(7.8769 0 0 -7.8769 364.0537 4969.6694)">
	<stop  offset="0.012" style="stop-color:#E0B386"/>
	<stop  offset="0.519" style="stop-color:#DA498C"/>
	<stop  offset="1" style="stop-color:#961484"/>
</linearGradient>
<path style="fill:url(#SVGID_8_);" d="M240.577,164.777l-58.344,33.682l-17.447,65.087"/>
<g>
</g>
<g>
</g>
<g>
</g>
<g>
</g>
<g>
</g>
<g>
</g>
<g>
</g>
<g>
</g>
<g>
</g>
<g>
</g>
<g>
</g>
<g>
</g>
<g>
</g>
<g>
</g>
<g>
</g>
</svg>
