<?xml version="1.0" encoding="iso-8859-1"?>
<!-- Generator: Adobe Illustrator 19.0.0, SVG Export Plug-In . SVG Version: 6.00 Build 0)  -->
<svg version="1.1" id="Layer_1" xmlns="http://www.w3.org/2000/svg" xmlns:xlink="http://www.w3.org/1999/xlink" x="0px" y="0px"
	 viewBox="0 0 504.139 504.139" style="enable-background:new 0 0 504.139 504.139;" xml:space="preserve">
<linearGradient id="SVGID_1_" gradientUnits="userSpaceOnUse" x1="24.6539" y1="621.2488" x2="-14.9871" y2="584.3688" gradientTransform="matrix(7.8769 0 0 -7.8769 363.9996 4969.7393)">
	<stop  offset="0.012" style="stop-color:#E0B386"/>
	<stop  offset="0.65" style="stop-color:#DA498C"/>
	<stop  offset="1" style="stop-color:#961484"/>
</linearGradient>
<polygon style="fill:url(#SVGID_1_);" points="306.68,319.496 395.296,252.069 306.696,184.635 504.139,252.062 "/>
<linearGradient id="SVGID_2_" gradientUnits="userSpaceOnUse" x1="-9.5078" y1="584.791" x2="7.6122" y2="596.657" gradientTransform="matrix(7.8769 0 0 -7.8769 363.9996 4969.7393)">
	<stop  offset="0.012" style="stop-color:#E0B386"/>
	<stop  offset="0.65" style="stop-color:#DA498C"/>
	<stop  offset="1" style="stop-color:#961484"/>
</linearGradient>
<polyline style="fill:url(#SVGID_2_);" points="504.139,252.062 306.68,319.496 395.296,252.069 "/>
<linearGradient id="SVGID_3_" gradientUnits="userSpaceOnUse" x1="-53.0742" y1="621.2488" x2="-13.4282" y2="584.3688" gradientTransform="matrix(7.8769 0 0 -7.8769 363.9996 4969.7393)">
	<stop  offset="0.012" style="stop-color:#E0B386"/>
	<stop  offset="0.65" style="stop-color:#DA498C"/>
	<stop  offset="1" style="stop-color:#961484"/>
</linearGradient>
<polygon style="fill:url(#SVGID_3_);" points="197.474,184.627 108.859,252.054 197.474,319.488 0,252.069 "/>
<linearGradient id="SVGID_4_" gradientUnits="userSpaceOnUse" x1="-18.8981" y1="613.0534" x2="-36.0281" y2="601.1904" gradientTransform="matrix(7.8769 0 0 -7.8769 363.9996 4969.7393)">
	<stop  offset="0.012" style="stop-color:#E0B386"/>
	<stop  offset="0.65" style="stop-color:#DA498C"/>
	<stop  offset="1" style="stop-color:#961484"/>
</linearGradient>
<polyline style="fill:url(#SVGID_4_);" points="0,252.069 197.474,184.627 108.859,252.054 "/>
<linearGradient id="SVGID_5_" gradientUnits="userSpaceOnUse" x1="16.7609" y1="567.9537" x2="-11.2691" y2="595.9837" gradientTransform="matrix(7.8769 0 0 -7.8769 363.9996 4969.7393)">
	<stop  offset="0.012" style="stop-color:#E0B386"/>
	<stop  offset="0.65" style="stop-color:#DA498C"/>
	<stop  offset="1" style="stop-color:#961484"/>
</linearGradient>
<polygon style="fill:url(#SVGID_5_);" points="243.003,338.353 353.335,353.319 338.369,242.995 430.308,430.293 "/>
<linearGradient id="SVGID_6_" gradientUnits="userSpaceOnUse" x1="-20.8798" y1="585.6152" x2="-0.3798" y2="581.8932" gradientTransform="matrix(7.8769 0 0 -7.8769 363.9996 4969.7393)">
	<stop  offset="0.012" style="stop-color:#E0B386"/>
	<stop  offset="0.65" style="stop-color:#DA498C"/>
	<stop  offset="1" style="stop-color:#961484"/>
</linearGradient>
<polyline style="fill:url(#SVGID_6_);" points="430.308,430.293 243.003,338.353 353.335,353.319 "/>
<linearGradient id="SVGID_7_" gradientUnits="userSpaceOnUse" x1="-45.1784" y1="629.8944" x2="-17.1494" y2="601.8644" gradientTransform="matrix(7.8769 0 0 -7.8769 363.9996 4969.7393)">
	<stop  offset="0.012" style="stop-color:#E0B386"/>
	<stop  offset="0.65" style="stop-color:#DA498C"/>
	<stop  offset="1" style="stop-color:#961484"/>
</linearGradient>
<polygon style="fill:url(#SVGID_7_);" points="261.152,165.762 150.796,150.796 165.77,261.128 73.846,73.83 "/>
<linearGradient id="SVGID_8_" gradientUnits="userSpaceOnUse" x1="-7.5397" y1="612.2338" x2="-28.0367" y2="615.9548" gradientTransform="matrix(7.8769 0 0 -7.8769 363.9996 4969.7393)">
	<stop  offset="0.012" style="stop-color:#E0B386"/>
	<stop  offset="0.65" style="stop-color:#DA498C"/>
	<stop  offset="1" style="stop-color:#961484"/>
</linearGradient>
<polyline style="fill:url(#SVGID_8_);" points="73.846,73.83 261.152,165.762 150.796,150.796 "/>
<linearGradient id="SVGID_9_" gradientUnits="userSpaceOnUse" x1="-14.2099" y1="555.1229" x2="-14.2099" y2="594.7689" gradientTransform="matrix(7.8769 0 0 -7.8769 363.9996 4969.7393)">
	<stop  offset="0.012" style="stop-color:#E0B386"/>
	<stop  offset="0.65" style="stop-color:#DA498C"/>
	<stop  offset="1" style="stop-color:#961484"/>
</linearGradient>
<polygon style="fill:url(#SVGID_9_);" points="184.643,306.656 252.062,395.272 319.496,306.664 252.062,504.131 "/>
<linearGradient id="SVGID_10_" gradientUnits="userSpaceOnUse" x1="-28.3399" y1="594.235" x2="-16.4769" y2="577.105" gradientTransform="matrix(7.8769 0 0 -7.8769 363.9996 4969.7393)">
	<stop  offset="0.012" style="stop-color:#E0B386"/>
	<stop  offset="0.65" style="stop-color:#DA498C"/>
	<stop  offset="1" style="stop-color:#961484"/>
</linearGradient>
<polyline style="fill:url(#SVGID_10_);" points="252.062,504.131 184.643,306.656 252.062,395.272 "/>
<linearGradient id="SVGID_11_" gradientUnits="userSpaceOnUse" x1="-14.2089" y1="642.7209" x2="-14.2089" y2="603.0809" gradientTransform="matrix(7.8769 0 0 -7.8769 363.9996 4969.7393)">
	<stop  offset="0.012" style="stop-color:#E0B386"/>
	<stop  offset="0.65" style="stop-color:#DA498C"/>
	<stop  offset="1" style="stop-color:#961484"/>
</linearGradient>
<polygon style="fill:url(#SVGID_11_);" points="319.512,197.451 252.077,108.828 184.643,197.451 252.062,0.008 "/>
<linearGradient id="SVGID_12_" gradientUnits="userSpaceOnUse" x1="-0.0791" y1="603.6178" x2="-11.9441" y2="620.7448" gradientTransform="matrix(7.8769 0 0 -7.8769 363.9996 4969.7393)">
	<stop  offset="0.012" style="stop-color:#E0B386"/>
	<stop  offset="0.65" style="stop-color:#DA498C"/>
	<stop  offset="1" style="stop-color:#961484"/>
</linearGradient>
<polyline style="fill:url(#SVGID_12_);" points="252.062,0.008 319.512,197.451 252.077,108.828 "/>
<linearGradient id="SVGID_13_" gradientUnits="userSpaceOnUse" x1="-45.181" y1="567.952" x2="-17.148" y2="595.987" gradientTransform="matrix(7.8769 0 0 -7.8769 363.9996 4969.7393)">
	<stop  offset="0.012" style="stop-color:#E0B386"/>
	<stop  offset="0.65" style="stop-color:#DA498C"/>
	<stop  offset="1" style="stop-color:#961484"/>
</linearGradient>
<polygon style="fill:url(#SVGID_13_);" points="165.77,242.995 150.804,353.319 261.152,338.33 73.838,430.285 "/>
<linearGradient id="SVGID_14_" gradientUnits="userSpaceOnUse" x1="-27.5197" y1="605.5959" x2="-31.2417" y2="585.0929" gradientTransform="matrix(7.8769 0 0 -7.8769 363.9996 4969.7393)">
	<stop  offset="0.012" style="stop-color:#E0B386"/>
	<stop  offset="0.65" style="stop-color:#DA498C"/>
	<stop  offset="1" style="stop-color:#961484"/>
</linearGradient>
<polyline style="fill:url(#SVGID_14_);" points="73.838,430.285 165.77,242.995 150.804,353.319 "/>
<linearGradient id="SVGID_15_" gradientUnits="userSpaceOnUse" x1="16.7604" y1="629.8936" x2="-11.2686" y2="601.8626" gradientTransform="matrix(7.8769 0 0 -7.8769 363.9996 4969.7393)">
	<stop  offset="0.012" style="stop-color:#E0B386"/>
	<stop  offset="0.65" style="stop-color:#DA498C"/>
	<stop  offset="1" style="stop-color:#961484"/>
</linearGradient>
<polygon style="fill:url(#SVGID_15_);" points="338.385,261.128 353.335,150.78 243.011,165.778 430.293,73.823 "/>
<linearGradient id="SVGID_16_" gradientUnits="userSpaceOnUse" x1="-0.8992" y1="592.2528" x2="2.8208" y2="612.7528" gradientTransform="matrix(7.8769 0 0 -7.8769 363.9996 4969.7393)">
	<stop  offset="0.012" style="stop-color:#E0B386"/>
	<stop  offset="0.65" style="stop-color:#DA498C"/>
	<stop  offset="1" style="stop-color:#961484"/>
</linearGradient>
<polyline style="fill:url(#SVGID_16_);" points="430.293,73.823 338.385,261.128 353.335,150.78 "/>
<linearGradient id="SVGID_17_" gradientUnits="userSpaceOnUse" x1="-14.2089" y1="615.9429" x2="-14.2089" y2="579.0629" gradientTransform="matrix(7.8769 0 0 -7.8769 363.9996 4969.7393)">
	<stop  offset="0.012" style="stop-color:#E0B386"/>
	<stop  offset="0.65" style="stop-color:#DA498C"/>
	<stop  offset="1" style="stop-color:#961484"/>
</linearGradient>
<path style="fill:url(#SVGID_17_);" d="M278.449,203.981c-7.782-7.971-16.628-14.927-26.372-20.519
	c-9.736,5.6-18.582,12.556-26.372,20.519c8.491-1.89,17.29-2.954,26.372-2.954C261.136,201.027,269.958,202.082,278.449,203.981z"/>
<linearGradient id="SVGID_18_" gradientUnits="userSpaceOnUse" x1="-1.2497" y1="614.0087" x2="-29.4207" y2="585.8367" gradientTransform="matrix(7.8769 0 0 -7.8769 363.9996 4969.7393)">
	<stop  offset="0.012" style="stop-color:#E0B386"/>
	<stop  offset="0.65" style="stop-color:#DA498C"/>
	<stop  offset="1" style="stop-color:#961484"/>
</linearGradient>
<path style="fill:url(#SVGID_18_);" d="M191.275,286.657c10.571,6.152,22.142,10.736,34.414,13.493
	c-13.06-13.399-23.048-29.783-28.798-48.081C193.449,263.026,191.449,274.605,191.275,286.657z"/>
<linearGradient id="SVGID_19_" gradientUnits="userSpaceOnUse" x1="-26.5807" y1="613.4221" x2="0.1943" y2="586.6421" gradientTransform="matrix(7.8769 0 0 -7.8769 363.9996 4969.7393)">
	<stop  offset="0.012" style="stop-color:#E0B386"/>
	<stop  offset="0.65" style="stop-color:#DA498C"/>
	<stop  offset="1" style="stop-color:#961484"/>
</linearGradient>
<path style="fill:url(#SVGID_19_);" d="M307.247,252.069c-5.75,18.29-15.722,34.674-28.798,48.081
	c12.264-2.757,23.843-7.341,34.43-13.493C312.69,274.605,310.705,263.026,307.247,252.069z"/>
<linearGradient id="SVGID_20_" gradientUnits="userSpaceOnUse" x1="-28.7109" y1="611.3019" x2="-1.9309" y2="584.5179" gradientTransform="matrix(7.8769 0 0 -7.8769 363.9996 4969.7393)">
	<stop  offset="0.012" style="stop-color:#E0B386"/>
	<stop  offset="0.65" style="stop-color:#DA498C"/>
	<stop  offset="1" style="stop-color:#961484"/>
</linearGradient>
<path style="fill:url(#SVGID_20_);" d="M191.275,217.466c0.165,12.06,2.166,23.662,5.616,34.603
	c5.75-18.29,15.738-34.69,28.814-48.089C213.433,206.746,201.846,211.33,191.275,217.466z"/>
<linearGradient id="SVGID_21_" gradientUnits="userSpaceOnUse" x1="0.884" y1="611.893" x2="-27.308" y2="583.702" gradientTransform="matrix(7.8769 0 0 -7.8769 363.9996 4969.7393)">
	<stop  offset="0.012" style="stop-color:#E0B386"/>
	<stop  offset="0.65" style="stop-color:#DA498C"/>
	<stop  offset="1" style="stop-color:#961484"/>
</linearGradient>
<path style="fill:url(#SVGID_21_);" d="M312.879,217.466c-10.587-6.136-22.15-10.72-34.43-13.493
	c13.076,13.399,23.048,29.798,28.798,48.089C310.705,241.113,312.69,229.534,312.879,217.466z"/>
<linearGradient id="SVGID_22_" gradientUnits="userSpaceOnUse" x1="-14.2099" y1="615.9459" x2="-14.2099" y2="579.0429" gradientTransform="matrix(7.8769 0 0 -7.8769 363.9996 4969.7393)">
	<stop  offset="0.012" style="stop-color:#E0B386"/>
	<stop  offset="0.65" style="stop-color:#DA498C"/>
	<stop  offset="1" style="stop-color:#961484"/>
</linearGradient>
<path style="fill:url(#SVGID_22_);" d="M225.69,300.15c7.798,7.987,16.628,14.935,26.388,20.535
	c9.72-5.6,18.566-12.556,26.372-20.535c-8.491,1.906-17.306,2.97-26.372,2.97C243.003,303.112,234.181,302.056,225.69,300.15z"/>
<g>
</g>
<g>
</g>
<g>
</g>
<g>
</g>
<g>
</g>
<g>
</g>
<g>
</g>
<g>
</g>
<g>
</g>
<g>
</g>
<g>
</g>
<g>
</g>
<g>
</g>
<g>
</g>
<g>
</g>
</svg>
