<?xml version="1.0" encoding="iso-8859-1"?>
<!-- Generator: Adobe Illustrator 19.0.0, SVG Export Plug-In . SVG Version: 6.00 Build 0)  -->
<svg version="1.1" id="Layer_1" xmlns="http://www.w3.org/2000/svg" xmlns:xlink="http://www.w3.org/1999/xlink" x="0px" y="0px"
	 viewBox="0 0 504.123 504.123" style="enable-background:new 0 0 504.123 504.123;" xml:space="preserve">
<linearGradient id="SVGID_1_" gradientUnits="userSpaceOnUse" x1="-14.2178" y1="556.835" x2="-14.2178" y2="645.3431" gradientTransform="matrix(7.8769 0 0 -7.8769 364.0537 4969.6694)">
	<stop  offset="0.012" style="stop-color:#E0B386"/>
	<stop  offset="0.519" style="stop-color:#DA498C"/>
	<stop  offset="1" style="stop-color:#961484"/>
</linearGradient>
<path style="fill:url(#SVGID_1_);" d="M252.062,193.426c32.335,0,58.636,26.309,58.636,58.636s-26.301,58.636-58.636,58.636
	s-58.636-26.309-58.636-58.636S219.727,193.426,252.062,193.426 M252.062,169.795c-45.442,0-82.267,36.833-82.267,82.267
	s36.825,82.267,82.267,82.267c45.434,0,82.267-36.832,82.267-82.267S297.496,169.795,252.062,169.795L252.062,169.795z"/>
<linearGradient id="SVGID_2_" gradientUnits="userSpaceOnUse" x1="-14.2178" y1="624.582" x2="-14.2178" y2="539.025" gradientTransform="matrix(7.8769 0 0 -7.8769 364.0537 4969.6694)">
	<stop  offset="0" style="stop-color:#29D3DA"/>
	<stop  offset="0.519" style="stop-color:#0077FF"/>
	<stop  offset="0.999" style="stop-color:#064093"/>
	<stop  offset="1" style="stop-color:#084698"/>
</linearGradient>
<path style="fill:url(#SVGID_2_);" d="M252.062,132.198c66.095,0,119.863,53.768,119.863,119.863s-53.768,119.863-119.863,119.863
	s-119.863-53.768-119.863-119.863S185.966,132.198,252.062,132.198 M252.062,108.568c-79.258,0-143.494,64.236-143.494,143.494
	c0,79.25,64.236,143.494,143.494,143.494s143.494-64.244,143.494-143.494C395.555,172.804,331.319,108.568,252.062,108.568
	L252.062,108.568z"/>
<linearGradient id="SVGID_3_" gradientUnits="userSpaceOnUse" x1="-14.2183" y1="556.835" x2="-14.2183" y2="645.3431" gradientTransform="matrix(7.8769 0 0 -7.8769 364.0537 4969.6694)">
	<stop  offset="0.012" style="stop-color:#E0B386"/>
	<stop  offset="0.519" style="stop-color:#DA498C"/>
	<stop  offset="1" style="stop-color:#961484"/>
</linearGradient>
<path style="fill:url(#SVGID_3_);" d="M252.062,75.768c97.217,0,176.301,79.084,176.301,176.293s-79.084,176.301-176.301,176.301
	S75.752,349.271,75.752,252.062S154.845,75.768,252.062,75.768 M252.062,52.137c-110.427,0-199.94,89.498-199.94,199.924
	c0,110.419,89.513,199.932,199.94,199.932s199.932-89.513,199.932-199.932C451.994,141.635,362.488,52.137,252.062,52.137
	L252.062,52.137z"/>
<linearGradient id="SVGID_4_" gradientUnits="userSpaceOnUse" x1="-14.2178" y1="624.582" x2="-14.2178" y2="539.025" gradientTransform="matrix(7.8769 0 0 -7.8769 364.0537 4969.6694)">
	<stop  offset="0" style="stop-color:#29D3DA"/>
	<stop  offset="0.519" style="stop-color:#0077FF"/>
	<stop  offset="0.999" style="stop-color:#064093"/>
	<stop  offset="1" style="stop-color:#084698"/>
</linearGradient>
<path style="fill:url(#SVGID_4_);" d="M252.062,23.631c125.952,0,228.431,102.471,228.431,228.431S378.014,480.492,252.062,480.492
	S23.631,378.021,23.631,252.062S126.11,23.631,252.062,23.631 M252.062,0C112.837,0,0,112.837,0,252.062
	c0,139.217,112.837,252.062,252.062,252.062c139.232,0,252.062-112.845,252.062-252.062C504.123,112.837,391.294,0,252.062,0
	L252.062,0z"/>
<g>
</g>
<g>
</g>
<g>
</g>
<g>
</g>
<g>
</g>
<g>
</g>
<g>
</g>
<g>
</g>
<g>
</g>
<g>
</g>
<g>
</g>
<g>
</g>
<g>
</g>
<g>
</g>
<g>
</g>
</svg>
