<?xml version="1.0" encoding="iso-8859-1"?>
<!-- Generator: Adobe Illustrator 19.0.0, SVG Export Plug-In . SVG Version: 6.00 Build 0)  -->
<svg version="1.1" id="Layer_1" xmlns="http://www.w3.org/2000/svg" xmlns:xlink="http://www.w3.org/1999/xlink" x="0px" y="0px"
	 viewBox="0 0 504.123 504.123" style="enable-background:new 0 0 504.123 504.123;" xml:space="preserve">
<linearGradient id="SVGID_1_" gradientUnits="userSpaceOnUse" x1="-55.9977" y1="604.7069" x2="-3.0827" y2="597.7669" gradientTransform="matrix(7.8769 0 0 -7.8769 364.0266 4969.6694)">
	<stop  offset="0.012" style="stop-color:#E0B386"/>
	<stop  offset="0.519" style="stop-color:#DA498C"/>
	<stop  offset="1" style="stop-color:#961484"/>
</linearGradient>
<path style="fill:url(#SVGID_1_);" d="M161.583,252.062c0-114.404,76.264-210.952,180.689-241.743
	C319.642,3.647,295.696,0,270.899,0C131.69,0,18.838,112.853,18.838,252.062c0,139.217,112.853,252.062,252.062,252.062
	c24.789,0,48.742-3.639,71.373-10.311C237.84,463.029,161.583,366.474,161.583,252.062z"/>
<linearGradient id="SVGID_2_" gradientUnits="userSpaceOnUse" x1="10.4075" y1="602.1881" x2="-35.4705" y2="621.4711" gradientTransform="matrix(7.8769 0 0 -7.8769 364.0266 4969.6694)">
	<stop  offset="0" style="stop-color:#29D3DA"/>
	<stop  offset="0.519" style="stop-color:#0077FF"/>
	<stop  offset="0.999" style="stop-color:#064093"/>
	<stop  offset="1" style="stop-color:#084698"/>
</linearGradient>
<path style="fill:url(#SVGID_2_);" d="M349.708,154.025c61.535,0,113.475,41.023,130.032,97.201
	c3.584-12.17,5.545-25.056,5.545-38.392c0-74.87-60.7-135.562-135.578-135.57c-74.878,0-135.585,60.692-135.585,135.562
	c0,13.336,1.969,26.222,5.561,38.392C236.249,195.048,288.181,154.033,349.708,154.025z"/>
<linearGradient id="SVGID_3_" gradientUnits="userSpaceOnUse" x1="8.7067" y1="583.8885" x2="-27.1443" y2="622.3355" gradientTransform="matrix(7.8769 0 0 -7.8769 364.0266 4969.6694)">
	<stop  offset="0.012" style="stop-color:#E0B386"/>
	<stop  offset="0.519" style="stop-color:#DA498C"/>
	<stop  offset="1" style="stop-color:#961484"/>
</linearGradient>
<path style="fill:url(#SVGID_3_);" d="M397.174,295.786c0,45.765-30.523,84.393-72.302,96.705c9.051,2.67,18.629,4.127,28.562,4.127
	c55.674,0,100.832-45.143,100.832-100.84S409.131,194.93,353.434,194.93c-9.909,0-19.511,1.449-28.562,4.128
	C366.651,211.377,397.174,250.006,397.174,295.786z"/>
<g>
</g>
<g>
</g>
<g>
</g>
<g>
</g>
<g>
</g>
<g>
</g>
<g>
</g>
<g>
</g>
<g>
</g>
<g>
</g>
<g>
</g>
<g>
</g>
<g>
</g>
<g>
</g>
<g>
</g>
</svg>
