<?xml version="1.0" encoding="iso-8859-1"?>
<!-- Generator: Adobe Illustrator 19.0.0, SVG Export Plug-In . SVG Version: 6.00 Build 0)  -->
<svg version="1.1" id="Layer_1" xmlns="http://www.w3.org/2000/svg" xmlns:xlink="http://www.w3.org/1999/xlink" x="0px" y="0px"
	 viewBox="0 0 504.123 504.123" style="enable-background:new 0 0 504.123 504.123;" xml:space="preserve">
<linearGradient id="SVGID_1_" gradientUnits="userSpaceOnUse" x1="36.7626" y1="660.6148" x2="-38.5574" y2="593.9838" gradientTransform="matrix(7.8769 0 0 -7.8769 364.0532 4969.6699)">
	<stop  offset="0.012" style="stop-color:#E0B386"/>
	<stop  offset="0.519" style="stop-color:#DA498C"/>
	<stop  offset="1" style="stop-color:#961484"/>
</linearGradient>
<path style="fill:url(#SVGID_1_);" d="M90.537,342.646c0,0-23.678-223.98,193.623-188.463
	c217.301,35.525,227.745-64.63,217.301-125.219c0,0-36.21,86.859-178.294-1.591C193.111-53.61-43.173,43.323,89.151,342.646H90.537z
	"/>
<linearGradient id="SVGID_2_" gradientUnits="userSpaceOnUse" x1="-11.1027" y1="628.2072" x2="-15.0817" y2="575.4202" gradientTransform="matrix(7.8769 0 0 -7.8769 364.0532 4969.6699)">
	<stop  offset="0.012" style="stop-color:#E0B386"/>
	<stop  offset="0.519" style="stop-color:#DA498C"/>
	<stop  offset="1" style="stop-color:#961484"/>
</linearGradient>
<path style="fill:url(#SVGID_2_);" d="M323.167,27.719C206.1-45.166,3.041,23.891,60.109,258.812
	c1.583-63.055,25.088-208.715,212.173-178.129c126.251,20.63,188.558-0.725,217.505-35.178
	C470.197,65.528,422.668,89.655,323.167,27.719z"/>
<linearGradient id="SVGID_3_" gradientUnits="userSpaceOnUse" x1="-65.1956" y1="537.2162" x2="10.1214" y2="603.8472" gradientTransform="matrix(7.8769 0 0 -7.8769 364.0532 4969.6699)">
	<stop  offset="0" style="stop-color:#29D3DA"/>
	<stop  offset="0.519" style="stop-color:#0077FF"/>
	<stop  offset="0.999" style="stop-color:#064093"/>
	<stop  offset="1" style="stop-color:#084698"/>
</linearGradient>
<path style="fill:url(#SVGID_3_);" d="M413.57,161.477c0,0,23.694,223.98-193.607,188.463C2.662,314.415-7.782,414.57,2.662,475.16
	c0,0,36.21-86.859,178.278,1.591c130.072,80.983,366.348-15.951,234.023-315.274H413.57z"/>
<linearGradient id="SVGID_4_" gradientUnits="userSpaceOnUse" x1="-17.3319" y1="569.6221" x2="-13.3569" y2="622.4051" gradientTransform="matrix(7.8769 0 0 -7.8769 364.0532 4969.6699)">
	<stop  offset="0" style="stop-color:#29D3DA"/>
	<stop  offset="0.519" style="stop-color:#0077FF"/>
	<stop  offset="0.999" style="stop-color:#064093"/>
	<stop  offset="1" style="stop-color:#084698"/>
</linearGradient>
<path style="fill:url(#SVGID_4_);" d="M180.941,476.404c117.075,72.885,320.15,3.82,263.073-231.101
	c-1.583,63.055-25.096,208.715-212.173,178.129c-126.259-20.622-188.55,0.733-217.505,35.186
	C33.926,438.595,81.455,414.468,180.941,476.404z"/>
<g>
</g>
<g>
</g>
<g>
</g>
<g>
</g>
<g>
</g>
<g>
</g>
<g>
</g>
<g>
</g>
<g>
</g>
<g>
</g>
<g>
</g>
<g>
</g>
<g>
</g>
<g>
</g>
<g>
</g>
</svg>
