<?xml version="1.0" encoding="iso-8859-1"?>
<!-- Generator: Adobe Illustrator 19.0.0, SVG Export Plug-In . SVG Version: 6.00 Build 0)  -->
<svg version="1.1" id="Layer_1" xmlns="http://www.w3.org/2000/svg" xmlns:xlink="http://www.w3.org/1999/xlink" x="0px" y="0px"
	 viewBox="0 0 504.123 504.123" style="enable-background:new 0 0 504.123 504.123;" xml:space="preserve">
<linearGradient id="SVGID_1_" gradientUnits="userSpaceOnUse" x1="-24.4657" y1="614.9371" x2="1.6523" y2="613.1962" gradientTransform="matrix(7.8769 0 0 -7.8769 364.0537 4969.6694)">
	<stop  offset="0" style="stop-color:#29D3DA"/>
	<stop  offset="0.519" style="stop-color:#0077FF"/>
	<stop  offset="0.999" style="stop-color:#064093"/>
	<stop  offset="1" style="stop-color:#084698"/>
</linearGradient>
<path style="fill:url(#SVGID_1_);" d="M277,187.353c-4.734-0.937-46.876-11.091-45.899-74.941
	c0.173-11.28,1.276-21.496,2.946-30.933c-30.334-14.226-53.193-10.555-53.39-10.524h-0.008l0,0l-0.024,0.016l0.024,0.016
	c-0.039,0.276-7.578,45.899,39.062,94.003c23.324,24.056,44.134,25.561,57.273,22.812C276.992,187.644,276.992,187.494,277,187.353z
	"/>
<linearGradient id="SVGID_2_" gradientUnits="userSpaceOnUse" x1="-3.5863" y1="637.0795" x2="-16.4063" y2="602.6545" gradientTransform="matrix(7.8769 0 0 -7.8769 364.0537 4969.6694)">
	<stop  offset="0.012" style="stop-color:#E0B386"/>
	<stop  offset="0.519" style="stop-color:#DA498C"/>
	<stop  offset="1" style="stop-color:#961484"/>
</linearGradient>
<path style="fill:url(#SVGID_2_);" d="M277.528,0.016V0l-0.016,0.016L277.496,0v0.016c-0.228,0.165-33.327,24.048-43.457,81.471
	c12.619,5.916,26.482,14.856,40.613,28.546c37.352,36.234,20.354,66.584,17.353,71.255c0.039,0.134,0.071,0.26,0.11,0.394
	c13.863-7.987,32.461-26.577,31.807-69.262C322.71,32.39,277.803,0.213,277.528,0.016z"/>
<linearGradient id="SVGID_3_" gradientUnits="userSpaceOnUse" x1="-3.972" y1="582.8919" x2="-30.093" y2="584.6329" gradientTransform="matrix(7.8769 0 0 -7.8769 364.0537 4969.6694)">
	<stop  offset="0" style="stop-color:#29D3DA"/>
	<stop  offset="0.519" style="stop-color:#0077FF"/>
	<stop  offset="0.999" style="stop-color:#064093"/>
	<stop  offset="1" style="stop-color:#084698"/>
</linearGradient>
<path style="fill:url(#SVGID_3_);" d="M227.115,316.77c4.734,0.937,46.883,11.099,45.899,74.941
	c-0.165,11.288-1.276,21.496-2.938,30.941c30.326,14.226,53.193,10.547,53.39,10.516l0,0l0,0h0.039l-0.039-0.024
	c0.039-0.276,7.585-45.899-39.054-94.003c-23.324-24.048-44.134-25.553-57.289-22.804
	C227.123,316.479,227.123,316.637,227.115,316.77z"/>
<linearGradient id="SVGID_4_" gradientUnits="userSpaceOnUse" x1="-24.8497" y1="560.7546" x2="-12.0287" y2="595.1746" gradientTransform="matrix(7.8769 0 0 -7.8769 364.0537 4969.6694)">
	<stop  offset="0.012" style="stop-color:#E0B386"/>
	<stop  offset="0.519" style="stop-color:#DA498C"/>
	<stop  offset="1" style="stop-color:#961484"/>
</linearGradient>
<path style="fill:url(#SVGID_4_);" d="M226.595,504.107v0.016V504.107l0.024,0.016v-0.016c0.228-0.165,33.327-24.048,43.465-81.463
	c-12.619-5.923-26.49-14.864-40.613-28.554c-37.344-36.234-20.362-66.584-17.353-71.247c-0.039-0.134-0.079-0.26-0.118-0.394
	c-13.871,7.979-32.453,26.569-31.799,69.254C181.406,471.741,226.304,503.91,226.595,504.107z"/>
<linearGradient id="SVGID_5_" gradientUnits="userSpaceOnUse" x1="-10.1348" y1="617.4911" x2="7.1032" y2="597.79" gradientTransform="matrix(7.8769 0 0 -7.8769 364.0537 4969.6694)">
	<stop  offset="0" style="stop-color:#29D3DA"/>
	<stop  offset="0.519" style="stop-color:#0077FF"/>
	<stop  offset="0.999" style="stop-color:#064093"/>
	<stop  offset="1" style="stop-color:#084698"/>
</linearGradient>
<path style="fill:url(#SVGID_5_);" d="M315.447,223.941c-2.686-4.001-25.309-40.992,20.535-85.449
	c8.082-7.845,16.1-14.289,23.954-19.787c-11.39-31.508-30.153-45.088-30.31-45.198h-0.008l0,0l-0.024-0.016v0.032
	c-0.205,0.165-37.801,27.089-38.841,94.09c-0.512,33.493,13.131,49.278,24.371,56.619
	C315.234,224.138,315.337,224.035,315.447,223.941z"/>
<linearGradient id="SVGID_6_" gradientUnits="userSpaceOnUse" x1="20.2919" y1="618.3859" x2="-13.1221" y2="603.1059" gradientTransform="matrix(7.8769 0 0 -7.8769 364.0537 4969.6694)">
	<stop  offset="0.012" style="stop-color:#E0B386"/>
	<stop  offset="0.519" style="stop-color:#DA498C"/>
	<stop  offset="1" style="stop-color:#961484"/>
</linearGradient>
<path style="fill:url(#SVGID_6_);" d="M448.291,91.853l0.008-0.016h-0.016v-0.024l-0.016,0.016
	c-0.276-0.047-40.566-6.561-88.332,26.876c4.734,13.107,8.216,29.231,8.531,48.908c0.788,52.027-32.681,61.472-38.109,62.653
	c-0.071,0.118-0.15,0.228-0.205,0.354c15.455,4.151,41.748,4.159,71.459-26.482C457.342,146.684,448.354,92.184,448.291,91.853z"/>
<linearGradient id="SVGID_7_" gradientUnits="userSpaceOnUse" x1="-18.3006" y1="580.3361" x2="-35.5396" y2="600.043" gradientTransform="matrix(7.8769 0 0 -7.8769 364.0537 4969.6694)">
	<stop  offset="0" style="stop-color:#29D3DA"/>
	<stop  offset="0.519" style="stop-color:#0077FF"/>
	<stop  offset="0.999" style="stop-color:#064093"/>
	<stop  offset="1" style="stop-color:#084698"/>
</linearGradient>
<path style="fill:url(#SVGID_7_);" d="M188.668,280.174c2.678,4.009,25.301,40.999-20.535,85.457
	c-8.082,7.853-16.1,14.281-23.962,19.795c11.398,31.508,30.161,45.08,30.326,45.19l0,0l0,0l0.031,0.016l-0.008-0.032
	c0.221-0.165,37.817-27.089,38.857-94.09c0.504-33.485-13.139-49.27-24.395-56.619C188.881,279.985,188.77,280.095,188.668,280.174z
	"/>
<linearGradient id="SVGID_8_" gradientUnits="userSpaceOnUse" x1="-48.7188" y1="579.4484" x2="-15.3168" y2="594.7233" gradientTransform="matrix(7.8769 0 0 -7.8769 364.0537 4969.6694)">
	<stop  offset="0.012" style="stop-color:#E0B386"/>
	<stop  offset="0.519" style="stop-color:#DA498C"/>
	<stop  offset="1" style="stop-color:#961484"/>
</linearGradient>
<path style="fill:url(#SVGID_8_);" d="M55.816,412.27v0.016h0.024v0.024l0.008-0.016c0.276,0.047,40.566,6.561,88.324-26.868
	c-4.726-13.115-8.216-29.239-8.515-48.916c-0.788-52.027,32.666-61.479,38.101-62.653c0.071-0.118,0.142-0.228,0.197-0.354
	c-15.447-4.159-41.74-4.159-71.452,26.482C46.773,357.431,55.769,411.939,55.816,412.27z"/>
<linearGradient id="SVGID_9_" gradientUnits="userSpaceOnUse" x1="1.8042" y1="609.1629" x2="0.0652" y2="583.0449" gradientTransform="matrix(7.8769 0 0 -7.8769 364.0537 4969.6694)">
	<stop  offset="0" style="stop-color:#29D3DA"/>
	<stop  offset="0.519" style="stop-color:#0077FF"/>
	<stop  offset="0.999" style="stop-color:#064093"/>
	<stop  offset="1" style="stop-color:#084698"/>
</linearGradient>
<path style="fill:url(#SVGID_9_);" d="M316.77,276.992c0.929-4.726,11.091-46.868,74.941-45.891
	c11.272,0.165,21.496,1.276,30.925,2.946c14.234-30.342,10.563-53.193,10.531-53.39v-0.008l0,0l-0.008-0.024l-0.032,0.024
	c-0.26-0.039-45.883-7.578-93.987,39.062c-24.056,23.324-25.561,44.134-22.812,57.273
	C316.471,276.992,316.629,276.992,316.77,276.992z"/>
<linearGradient id="SVGID_10_" gradientUnits="userSpaceOnUse" x1="23.9418" y1="588.2838" x2="-10.4782" y2="601.1038" gradientTransform="matrix(7.8769 0 0 -7.8769 364.0537 4969.6694)">
	<stop  offset="0.012" style="stop-color:#E0B386"/>
	<stop  offset="0.519" style="stop-color:#DA498C"/>
	<stop  offset="1" style="stop-color:#961484"/>
</linearGradient>
<path style="fill:url(#SVGID_10_);" d="M504.099,277.528L504.099,277.528l0.008-0.016l0.016-0.016h-0.024
	c-0.165-0.228-24.048-33.319-81.471-43.457c-5.923,12.619-14.864,26.482-28.538,40.613c-36.242,37.345-66.584,20.354-71.247,17.353
	c-0.142,0.039-0.268,0.071-0.402,0.102c7.987,13.871,26.569,32.469,69.262,31.823C471.725,322.702,503.91,277.811,504.099,277.528z"
	/>
<linearGradient id="SVGID_11_" gradientUnits="userSpaceOnUse" x1="-30.2418" y1="588.6671" x2="-28.4998" y2="614.7881" gradientTransform="matrix(7.8769 0 0 -7.8769 364.0537 4969.6694)">
	<stop  offset="0" style="stop-color:#29D3DA"/>
	<stop  offset="0.519" style="stop-color:#0077FF"/>
	<stop  offset="0.999" style="stop-color:#064093"/>
	<stop  offset="1" style="stop-color:#084698"/>
</linearGradient>
<path style="fill:url(#SVGID_11_);" d="M187.353,227.115c-0.945,4.734-11.099,46.876-74.957,45.899
	c-11.272-0.165-21.488-1.276-30.925-2.938c-14.234,30.334-10.555,53.193-10.524,53.39l0,0l0,0l0.008,0.031l0.016-0.031
	c0.284,0.047,45.907,7.585,94.011-39.054c24.04-23.324,25.553-44.134,22.804-57.281
	C187.628,227.131,187.479,227.131,187.353,227.115z"/>
<linearGradient id="SVGID_12_" gradientUnits="userSpaceOnUse" x1="-52.3835" y1="609.548" x2="-17.9595" y2="596.727" gradientTransform="matrix(7.8769 0 0 -7.8769 364.0537 4969.6694)">
	<stop  offset="0.012" style="stop-color:#E0B386"/>
	<stop  offset="0.519" style="stop-color:#DA498C"/>
	<stop  offset="1" style="stop-color:#961484"/>
</linearGradient>
<path style="fill:url(#SVGID_12_);" d="M0.016,226.588L0,226.595l0.016,0.016L0,226.627l0.016-0.008
	c0.165,0.236,24.048,33.327,81.463,43.465c5.923-12.619,14.856-26.49,28.554-40.613c36.234-37.344,66.584-20.37,71.247-17.353
	c0.134-0.047,0.26-0.071,0.394-0.118c-7.979-13.863-26.569-32.453-69.254-31.799C32.382,181.406,0.213,226.312,0.016,226.588z"/>
<linearGradient id="SVGID_13_" gradientUnits="userSpaceOnUse" x1="4.355" y1="594.8309" x2="-15.34" y2="577.595" gradientTransform="matrix(7.8769 0 0 -7.8769 364.0537 4969.6694)">
	<stop  offset="0" style="stop-color:#29D3DA"/>
	<stop  offset="0.519" style="stop-color:#0077FF"/>
	<stop  offset="0.999" style="stop-color:#064093"/>
	<stop  offset="1" style="stop-color:#084698"/>
</linearGradient>
<path style="fill:url(#SVGID_13_);" d="M280.182,315.447c4.001-2.686,40.984-25.301,85.449,20.535
	c7.838,8.082,14.289,16.108,19.779,23.954c31.508-11.39,45.087-30.153,45.206-30.31v-0.016l0,0l0.016-0.024h-0.039
	c-0.165-0.205-27.089-37.809-94.082-38.841c-33.493-0.512-49.278,13.131-56.619,24.371
	C279.985,315.234,280.088,315.337,280.182,315.447z"/>
<linearGradient id="SVGID_14_" gradientUnits="userSpaceOnUse" x1="5.2502" y1="564.4064" x2="-10.0248" y2="597.8174" gradientTransform="matrix(7.8769 0 0 -7.8769 364.0537 4969.6694)">
	<stop  offset="0.012" style="stop-color:#E0B386"/>
	<stop  offset="0.519" style="stop-color:#DA498C"/>
	<stop  offset="1" style="stop-color:#961484"/>
</linearGradient>
<path style="fill:url(#SVGID_14_);" d="M412.27,448.284l0.016,0.008v-0.008h0.016l-0.016-0.016
	c0.047-0.284,6.569-40.566-26.876-88.332c-13.107,4.734-29.223,8.216-48.9,8.531c-52.027,0.788-61.472-32.681-62.653-38.109
	c-0.134-0.071-0.236-0.15-0.354-0.205c-4.151,15.455-4.159,41.748,26.482,71.467C357.439,457.334,411.939,448.354,412.27,448.284z"
	/>
<linearGradient id="SVGID_15_" gradientUnits="userSpaceOnUse" x1="-32.7945" y1="602.9987" x2="-13.0945" y2="620.2357" gradientTransform="matrix(7.8769 0 0 -7.8769 364.0537 4969.6694)">
	<stop  offset="0" style="stop-color:#29D3DA"/>
	<stop  offset="0.519" style="stop-color:#0077FF"/>
	<stop  offset="0.999" style="stop-color:#064093"/>
	<stop  offset="1" style="stop-color:#084698"/>
</linearGradient>
<path style="fill:url(#SVGID_15_);" d="M223.949,188.668c-4.025,2.678-40.999,25.301-85.457-20.543
	c-7.853-8.074-14.289-16.093-19.787-23.946c-31.508,11.39-45.088,30.153-45.198,30.318l0,0l0,0l-0.024,0.031l0.039-0.016
	c0.165,0.228,27.089,37.825,94.09,38.865c33.485,0.504,49.262-13.139,56.619-24.395C224.138,188.881,224.012,188.77,223.949,188.668
	z"/>
<linearGradient id="SVGID_16_" gradientUnits="userSpaceOnUse" x1="-33.6895" y1="633.4243" x2="-18.4095" y2="600.0153" gradientTransform="matrix(7.8769 0 0 -7.8769 364.0537 4969.6694)">
	<stop  offset="0.012" style="stop-color:#E0B386"/>
	<stop  offset="0.519" style="stop-color:#DA498C"/>
	<stop  offset="1" style="stop-color:#961484"/>
</linearGradient>
<path style="fill:url(#SVGID_16_);" d="M91.853,55.824l-0.016-0.008v0.024h-0.024l0.016,0.008
	c-0.047,0.276-6.569,40.566,26.876,88.332c13.107-4.734,29.223-8.224,48.908-8.523c52.019-0.788,61.479,32.673,62.645,38.101
	c0.126,0.071,0.236,0.142,0.362,0.197c4.159-15.447,4.151-41.74-26.49-71.459C146.684,46.773,92.184,55.769,91.853,55.824z"/>
<g>
</g>
<g>
</g>
<g>
</g>
<g>
</g>
<g>
</g>
<g>
</g>
<g>
</g>
<g>
</g>
<g>
</g>
<g>
</g>
<g>
</g>
<g>
</g>
<g>
</g>
<g>
</g>
<g>
</g>
</svg>
