<?xml version="1.0" encoding="iso-8859-1"?>
<!-- Generator: Adobe Illustrator 19.0.0, SVG Export Plug-In . SVG Version: 6.00 Build 0)  -->
<svg version="1.1" id="Layer_1" xmlns="http://www.w3.org/2000/svg" xmlns:xlink="http://www.w3.org/1999/xlink" x="0px" y="0px"
	 viewBox="0 0 504.123 504.123" style="enable-background:new 0 0 504.123 504.123;" xml:space="preserve">
<linearGradient id="SVGID_1_" gradientUnits="userSpaceOnUse" x1="-25.1733" y1="619.425" x2="-25.1733" y2="574.3641" gradientTransform="matrix(7.8769 0 0 -7.8769 364.0537 4969.6606)">
	<stop  offset="0" style="stop-color:#29D3DA"/>
	<stop  offset="0.519" style="stop-color:#0077FF"/>
	<stop  offset="0.999" style="stop-color:#064093"/>
	<stop  offset="1" style="stop-color:#084698"/>
</linearGradient>
<path style="fill:url(#SVGID_1_);" d="M79.439,252.462c51.003-38.518,121.651-38.518,172.654,0l79.439-79.447
	C236.284,91.45,95.256,91.45,0,173.016L79.439,252.462z"/>
<linearGradient id="SVGID_2_" gradientUnits="userSpaceOnUse" x1="-25.1733" y1="617.894" x2="-25.1733" y2="598.2941" gradientTransform="matrix(7.8769 0 0 -7.8769 364.0537 4969.6606)">
	<stop  offset="0" style="stop-color:#29D3DA"/>
	<stop  offset="0.519" style="stop-color:#0077FF"/>
	<stop  offset="0.999" style="stop-color:#064093"/>
	<stop  offset="1" style="stop-color:#084698"/>
</linearGradient>
<path style="fill:url(#SVGID_2_);" d="M331.532,173.016C236.284,91.45,95.256,91.45,0,173.016"/>
<linearGradient id="SVGID_3_" gradientUnits="userSpaceOnUse" x1="-3.2623" y1="619.4571" x2="-3.2623" y2="574.394" gradientTransform="matrix(7.8769 0 0 -7.8769 364.0537 4969.6606)">
	<stop  offset="0" style="stop-color:#29D3DA"/>
	<stop  offset="0.519" style="stop-color:#0077FF"/>
	<stop  offset="0.999" style="stop-color:#064093"/>
	<stop  offset="1" style="stop-color:#084698"/>
</linearGradient>
<path style="fill:url(#SVGID_3_);" d="M252.03,252.21c51.003-38.51,121.651-38.51,172.654,0l79.439-79.439
	c-95.256-81.566-236.292-81.566-331.532,0L252.03,252.21z"/>
<linearGradient id="SVGID_4_" gradientUnits="userSpaceOnUse" x1="-3.2623" y1="617.9261" x2="-3.2623" y2="598.324" gradientTransform="matrix(7.8769 0 0 -7.8769 364.0537 4969.6606)">
	<stop  offset="0" style="stop-color:#29D3DA"/>
	<stop  offset="0.519" style="stop-color:#0077FF"/>
	<stop  offset="0.999" style="stop-color:#064093"/>
	<stop  offset="1" style="stop-color:#084698"/>
</linearGradient>
<path style="fill:url(#SVGID_4_);" d="M504.123,172.771c-95.256-81.566-236.292-81.566-331.532,0"/>
<linearGradient id="SVGID_5_" gradientUnits="userSpaceOnUse" x1="-14.2178" y1="588.5441" x2="-14.2178" y2="618.079" gradientTransform="matrix(7.8769 0 0 -7.8769 364.0537 4969.6606)">
	<stop  offset="0.012" style="stop-color:#E0B386"/>
	<stop  offset="0.519" style="stop-color:#DA498C"/>
	<stop  offset="1" style="stop-color:#961484"/>
</linearGradient>
<path style="fill:url(#SVGID_5_);" d="M252.03,252.21c0.323-0.244,0.677-0.449,1.016-0.701l78.486-78.494
	c-24.151-20.693-51.279-36.108-79.848-46.301c-28.286,10.193-55.138,25.537-79.092,46.056L252.03,252.21z"/>
<linearGradient id="SVGID_6_" gradientUnits="userSpaceOnUse" x1="11.0216" y1="586.2476" x2="-22.7284" y2="615.7826" gradientTransform="matrix(7.8769 0 0 -7.8769 364.0537 4969.6606)">
	<stop  offset="0.012" style="stop-color:#E0B386"/>
	<stop  offset="0.519" style="stop-color:#DA498C"/>
	<stop  offset="1" style="stop-color:#961484"/>
</linearGradient>
<path style="fill:url(#SVGID_6_);" d="M252.03,252.21c0.323-0.244,0.677-0.449,1.016-0.701l78.486-78.494
	c-24.151-20.693-51.279-36.108-79.848-46.301"/>
<linearGradient id="SVGID_7_" gradientUnits="userSpaceOnUse" x1="-3.2623" y1="578.4041" x2="-3.2623" y2="623.4601" gradientTransform="matrix(7.8769 0 0 -7.8769 364.0537 4969.6606)">
	<stop  offset="0" style="stop-color:#29D3DA"/>
	<stop  offset="0.519" style="stop-color:#0077FF"/>
	<stop  offset="0.999" style="stop-color:#064093"/>
	<stop  offset="1" style="stop-color:#084698"/>
</linearGradient>
<path style="fill:url(#SVGID_7_);" d="M424.684,251.667c-51.003,38.51-121.651,38.51-172.654,0l-79.439,79.447
	c95.24,81.558,236.276,81.558,331.532,0L424.684,251.667z"/>
<linearGradient id="SVGID_8_" gradientUnits="userSpaceOnUse" x1="-3.2623" y1="579.9341" x2="-3.2623" y2="599.5301" gradientTransform="matrix(7.8769 0 0 -7.8769 364.0537 4969.6606)">
	<stop  offset="0" style="stop-color:#29D3DA"/>
	<stop  offset="0.519" style="stop-color:#0077FF"/>
	<stop  offset="0.999" style="stop-color:#064093"/>
	<stop  offset="1" style="stop-color:#084698"/>
</linearGradient>
<path style="fill:url(#SVGID_8_);" d="M172.591,331.113c95.24,81.558,236.276,81.558,331.532,0"/>
<linearGradient id="SVGID_9_" gradientUnits="userSpaceOnUse" x1="-25.1733" y1="578.3641" x2="-25.1733" y2="623.4271" gradientTransform="matrix(7.8769 0 0 -7.8769 364.0537 4969.6606)">
	<stop  offset="0" style="stop-color:#29D3DA"/>
	<stop  offset="0.519" style="stop-color:#0077FF"/>
	<stop  offset="0.999" style="stop-color:#064093"/>
	<stop  offset="1" style="stop-color:#084698"/>
</linearGradient>
<path style="fill:url(#SVGID_9_);" d="M252.093,251.919c-51.003,38.502-121.651,38.502-172.654,0L0,331.358
	c95.256,81.558,236.284,81.558,331.532,0L252.093,251.919z"/>
<linearGradient id="SVGID_10_" gradientUnits="userSpaceOnUse" x1="-25.1733" y1="579.894" x2="-25.1733" y2="599.5001" gradientTransform="matrix(7.8769 0 0 -7.8769 364.0537 4969.6606)">
	<stop  offset="0" style="stop-color:#29D3DA"/>
	<stop  offset="0.519" style="stop-color:#0077FF"/>
	<stop  offset="0.999" style="stop-color:#064093"/>
	<stop  offset="1" style="stop-color:#084698"/>
</linearGradient>
<path style="fill:url(#SVGID_10_);" d="M0,331.358c95.256,81.558,236.284,81.558,331.532,0"/>
<linearGradient id="SVGID_11_" gradientUnits="userSpaceOnUse" x1="-14.2178" y1="609.2841" x2="-14.2178" y2="579.7521" gradientTransform="matrix(7.8769 0 0 -7.8769 364.0537 4969.6606)">
	<stop  offset="0.012" style="stop-color:#E0B386"/>
	<stop  offset="0.519" style="stop-color:#DA498C"/>
	<stop  offset="1" style="stop-color:#961484"/>
</linearGradient>
<path style="fill:url(#SVGID_11_);" d="M252.093,251.919c-0.323,0.244-0.685,0.457-1.016,0.701l-78.486,78.494
	c24.151,20.685,51.271,36.108,79.848,46.293c28.286-10.185,55.138-25.529,79.092-46.048L252.093,251.919z"/>
<linearGradient id="SVGID_12_" gradientUnits="userSpaceOnUse" x1="-30.846" y1="576.4042" x2="2.904" y2="605.9392" gradientTransform="matrix(7.8769 0 0 -7.8769 364.0537 4969.6606)">
	<stop  offset="0.012" style="stop-color:#E0B386"/>
	<stop  offset="0.519" style="stop-color:#DA498C"/>
	<stop  offset="1" style="stop-color:#961484"/>
</linearGradient>
<path style="fill:url(#SVGID_12_);" d="M252.093,251.919c-0.323,0.244-0.685,0.457-1.016,0.701l-78.486,78.494
	c24.151,20.685,51.271,36.108,79.848,46.293"/>
<g>
</g>
<g>
</g>
<g>
</g>
<g>
</g>
<g>
</g>
<g>
</g>
<g>
</g>
<g>
</g>
<g>
</g>
<g>
</g>
<g>
</g>
<g>
</g>
<g>
</g>
<g>
</g>
<g>
</g>
</svg>
