<?xml version="1.0" encoding="iso-8859-1"?>
<!-- Generator: Adobe Illustrator 19.0.0, SVG Export Plug-In . SVG Version: 6.00 Build 0)  -->
<svg version="1.1" id="Layer_1" xmlns="http://www.w3.org/2000/svg" xmlns:xlink="http://www.w3.org/1999/xlink" x="0px" y="0px"
	 viewBox="0 0 496.238 496.238" style="enable-background:new 0 0 496.238 496.238;" xml:space="preserve">
<g>
	<path style="fill:#D10257;" d="M430.651,164.411c-1.063-2.639-2.206-5.23-3.356-7.806c1.103,2.497,2.221,4.962,3.237,7.475
		C430.58,164.198,430.62,164.285,430.651,164.411z"/>
	<path style="fill:#D10257;" d="M426.177,154.084c0.063,0.071,0.095,0.165,0.126,0.221c-1.528-3.324-3.182-6.609-4.868-9.87
		c0.095,0.189,0.165,0.394,0.284,0.591C423.278,148.003,424.791,151.02,426.177,154.084z"/>
	<path style="fill:#D10257;" d="M430.816,164.868c1.804,4.458,3.403,9.027,4.899,13.603
		C434.219,173.887,432.62,169.326,430.816,164.868z"/>
	<path style="fill:#D10257;" d="M410.069,125.192c0.63,0.953,1.189,1.93,1.804,2.891c1.386,2.166,2.788,4.324,4.096,6.522
		c0.417,0.725,0.796,1.457,1.197,2.174c1.434,2.465,2.844,4.931,4.167,7.428c-5.049-9.57-10.823-18.865-17.361-27.774
		c0.378,0.52,0.748,1.048,1.095,1.575C406.776,120.379,408.47,122.766,410.069,125.192z"/>
	<path style="fill:#D10257;" d="M445.885,227.269c0.465,4.758,0.685,9.547,0.827,14.336
		C446.57,236.808,446.35,232.027,445.885,227.269z"/>
	<path style="fill:#D10257;" d="M446.791,244.661c0.079,4.844,0.047,9.712-0.197,14.572
		C446.838,254.373,446.862,249.505,446.791,244.661z"/>
	<path style="fill:#D10257;" d="M436.614,181.228c1.481,4.718,2.836,9.46,3.994,14.241
		C439.45,190.689,438.095,185.939,436.614,181.228z"/>
	<path style="fill:#D10257;" d="M440.615,195.556c1.15,4.718,2.079,9.429,2.891,14.178
		C442.695,204.985,441.75,200.275,440.615,195.556z"/>
	<path style="fill:#D10257;" d="M443.995,212.626c0.772,4.836,1.426,9.681,1.883,14.549
		C445.42,222.306,444.767,217.462,443.995,212.626z"/>
	<path style="fill:#D10257;" d="M439.45,305.109c1.205-4.584,2.332-9.208,3.23-13.848
		C441.781,295.901,440.655,300.524,439.45,305.109z"/>
	<path style="fill:#D10257;" d="M428.973,335.726c1.859-4.387,3.639-8.799,5.215-13.257
		C432.62,326.928,430.832,331.339,428.973,335.726z"/>
	<path style="fill:#D10257;" d="M421.246,352.142c2.276-4.332,4.34-8.736,6.325-13.17
		C425.586,343.406,423.53,347.809,421.246,352.142z"/>
	<path style="fill:#D10257;" d="M403.649,380.262c2.922-3.994,5.687-8.113,8.342-12.28
		C409.336,372.149,406.571,376.277,403.649,380.262z"/>
	<path style="fill:#D10257;" d="M413.944,364.879c2.513-4.12,4.962-8.294,7.192-12.54
		C418.907,356.592,416.457,360.759,413.944,364.879z"/>
</g>
<linearGradient id="SVGID_1_" gradientUnits="userSpaceOnUse" x1="-25.4474" y1="642.4417" x2="-25.4474" y2="529.7927" gradientTransform="matrix(7.8769 0 0 -7.8769 391.1653 4934.6733)">
	<stop  offset="0" style="stop-color:#29D3DA"/>
	<stop  offset="0.519" style="stop-color:#0077FF"/>
	<stop  offset="0.999" style="stop-color:#064093"/>
	<stop  offset="1" style="stop-color:#084698"/>
</linearGradient>
<path style="fill:url(#SVGID_1_);" d="M381.42,406.114L223.559,248.253l-0.126-0.126L381.436,90.124
	c-87.261-87.261-228.738-87.261-315.999,0c-87.253,87.253-87.253,228.738,0.016,315.991
	C152.698,493.375,294.176,493.375,381.42,406.114z"/>
<g>
	<path style="fill:#D10257;" d="M445.357,273.577c0.544-4.742,0.992-9.484,1.229-14.234
		C446.35,264.094,445.901,268.843,445.357,273.577z"/>
	<path style="fill:#D10257;" d="M442.726,291.064c0.922-4.75,1.646-9.531,2.269-14.304
		C444.373,281.533,443.648,286.322,442.726,291.064z"/>
	<path style="fill:#D10257;" d="M434.282,322.225c1.599-4.561,3.001-9.2,4.285-13.855
		C437.283,313.025,435.881,317.664,434.282,322.225z"/>
</g>
<g>
	<path style="fill:#FF2970;" d="M439.205,306.204c1.292-4.868,2.465-9.799,3.45-14.769
		C441.671,296.373,440.513,301.32,439.205,306.204z"/>
	<path style="fill:#FF2970;" d="M446.878,248.127l-0.142-0.016c-0.016,8.696-0.425,17.377-1.426,26.025
		C446.303,265.598,446.878,256.918,446.878,248.127z"/>
	<path style="fill:#FF2970;" d="M442.837,290.324c0.874-4.49,1.568-9.011,2.158-13.588
		C444.388,281.289,443.711,285.802,442.837,290.324z"/>
</g>
<linearGradient id="SVGID_2_" gradientUnits="userSpaceOnUse" x1="-25.4482" y1="550.2126" x2="-25.4482" y2="578.8937" gradientTransform="matrix(7.8769 0 0 -7.8769 391.1653 4934.6733)">
	<stop  offset="0" style="stop-color:#29D3DA"/>
	<stop  offset="0.519" style="stop-color:#0077FF"/>
	<stop  offset="0.999" style="stop-color:#064093"/>
	<stop  offset="1" style="stop-color:#084698"/>
</linearGradient>
<path style="fill:url(#SVGID_2_);" d="M223.449,471.556c61.684,0,117.539-25.009,157.972-65.449L223.559,248.253l-0.126-0.126
	L0.004,248.111C-0.012,371.519,100.017,471.556,223.449,471.556z"/>
<g>
	<path style="fill:#FF2970;" d="M434.716,320.815c1.441-4.214,2.765-8.491,3.97-12.808
		C437.496,312.324,436.157,316.585,434.716,320.815z"/>
	<path style="fill:#FF2970;" d="M405.004,378.27c2.253-3.135,4.411-6.325,6.498-9.602
		C409.431,371.937,407.257,375.119,405.004,378.27z"/>
	<path style="fill:#FF2970;" d="M413.724,365.241c2.41-3.899,4.695-7.877,6.861-11.949
		C418.434,357.333,416.15,361.318,413.724,365.241z"/>
	<path style="fill:#FF2970;" d="M428.682,336.546c1.898-4.427,3.655-8.948,5.293-13.509
		C432.353,327.566,430.596,332.087,428.682,336.546z"/>
	<path style="fill:#FF2970;" d="M422.278,349.999c1.804-3.537,3.521-7.081,5.159-10.72
		C425.823,342.894,424.09,346.439,422.278,349.999z"/>
</g>
<linearGradient id="SVGID_3_" gradientUnits="userSpaceOnUse" x1="-0.8434" y1="559.2927" x2="-0.8434" y2="598.0197" gradientTransform="matrix(7.8769 0 0 -7.8769 391.1653 4934.6733)">
	<stop  offset="0.012" style="stop-color:#E0B386"/>
	<stop  offset="0.519" style="stop-color:#DA498C"/>
	<stop  offset="1" style="stop-color:#961484"/>
</linearGradient>
<path style="fill:url(#SVGID_3_);" d="M430.801,406.114c87.261-87.245,87.245-228.738-0.016-315.983l-157.98,157.98L430.801,406.114
	z"/>
<linearGradient id="SVGID_4_" gradientUnits="userSpaceOnUse" x1="-0.8442" y1="614.2457" x2="-0.8442" y2="565.4427" gradientTransform="matrix(7.8769 0 0 -7.8769 391.1653 4934.6733)">
	<stop  offset="0.012" style="stop-color:#E0B386"/>
	<stop  offset="0.519" style="stop-color:#DA498C"/>
	<stop  offset="1" style="stop-color:#961484"/>
</linearGradient>
<path style="fill:url(#SVGID_4_);" d="M496.234,248.253l-223.311-0.016l-0.126-0.126L430.785,90.124
	C474.455,133.778,496.266,191.004,496.234,248.253z"/>
<g>
</g>
<g>
</g>
<g>
</g>
<g>
</g>
<g>
</g>
<g>
</g>
<g>
</g>
<g>
</g>
<g>
</g>
<g>
</g>
<g>
</g>
<g>
</g>
<g>
</g>
<g>
</g>
<g>
</g>
</svg>
