<?xml version="1.0" encoding="iso-8859-1"?>
<!-- Generator: Adobe Illustrator 19.0.0, SVG Export Plug-In . SVG Version: 6.00 Build 0)  -->
<svg version="1.1" id="Layer_1" xmlns="http://www.w3.org/2000/svg" xmlns:xlink="http://www.w3.org/1999/xlink" x="0px" y="0px"
	 viewBox="0 0 496.251 496.251" style="enable-background:new 0 0 496.251 496.251;" xml:space="preserve">
<linearGradient id="SVGID_1_" gradientUnits="userSpaceOnUse" x1="-55.6633" y1="587.6587" x2="17.7567" y2="579.6967" gradientTransform="matrix(7.8769 0 0 -7.8769 391.1175 4934.7314)">
	<stop  offset="0.012" style="stop-color:#E0B386"/>
	<stop  offset="0.519" style="stop-color:#DA498C"/>
	<stop  offset="1" style="stop-color:#961484"/>
</linearGradient>
<path style="fill:url(#SVGID_1_);" d="M66.012,417.503C35.418,373.18,39.797,311.992,79.253,272.56
	c39.432-39.432,100.62-43.827,144.935-13.225l32.87-32.87c-62.637-48.333-152.891-43.819-210.314,13.603
	s-61.92,147.684-13.603,210.306L66.012,417.503z"/>
<linearGradient id="SVGID_2_" gradientUnits="userSpaceOnUse" x1="25.4659" y1="615.8769" x2="-75.8141" y2="562.3609" gradientTransform="matrix(7.8769 0 0 -7.8769 391.1175 4934.7314)">
	<stop  offset="0" style="stop-color:#29D3DA"/>
	<stop  offset="0.519" style="stop-color:#0077FF"/>
	<stop  offset="0.999" style="stop-color:#064093"/>
	<stop  offset="1" style="stop-color:#084698"/>
</linearGradient>
<path style="fill:url(#SVGID_2_);" d="M430.241,78.74c30.594,44.331,26.199,105.511-13.241,144.943
	c-39.432,39.44-100.628,43.827-144.943,13.233l-32.863,32.863c62.637,48.333,152.883,43.819,210.306-13.603
	c57.431-57.415,61.928-147.677,13.611-210.298L430.241,78.74z"/>
<g>
</g>
<g>
</g>
<g>
</g>
<g>
</g>
<g>
</g>
<g>
</g>
<g>
</g>
<g>
</g>
<g>
</g>
<g>
</g>
<g>
</g>
<g>
</g>
<g>
</g>
<g>
</g>
<g>
</g>
</svg>
