<svg xmlns="http://www.w3.org/2000/svg" xmlns:xlink="http://www.w3.org/1999/xlink" viewBox="0 0 210.56 218.75"><defs><style>.cls-1{isolation:isolate;}.cls-2{fill:url(#radial-gradient);}.cls-3{fill:url(#radial-gradient-2);}.cls-4{opacity:0.37;mix-blend-mode:multiply;fill:url(#Blanco_Negro);}.cls-5{fill:url(#radial-gradient-3);}.cls-6{fill:url(#radial-gradient-4);}.cls-7{fill:url(#linear-gradient);}.cls-8{fill:url(#linear-gradient-2);}.cls-9{fill:url(#linear-gradient-3);}.cls-10{fill:url(#linear-gradient-4);}</style><radialGradient id="radial-gradient" cx="35.22" cy="66.78" r="154.42" gradientUnits="userSpaceOnUse"><stop offset="0" stop-color="#2a8bf3"/><stop offset="0.68" stop-color="#754ff6"/><stop offset="1" stop-color="#9932f7"/></radialGradient><radialGradient id="radial-gradient-2" cx="17.36" cy="48.87" r="157.41" gradientTransform="matrix(0.98, 0.18, -0.18, 0.98, 15.86, -14.38)" gradientUnits="userSpaceOnUse"><stop offset="0" stop-color="#04d3f7"/><stop offset="0.58" stop-color="#756df3"/><stop offset="1" stop-color="#c129f1"/></radialGradient><linearGradient id="Blanco_Negro" x1="14.95" y1="93.49" x2="39.39" y2="164.29" gradientUnits="userSpaceOnUse"><stop offset="0" stop-color="#fff"/><stop offset="1" stop-color="#222221"/></linearGradient><radialGradient id="radial-gradient-3" cx="143.54" cy="111.68" r="160.13" gradientTransform="matrix(0.98, 0.18, -0.18, 0.98, 15.86, -14.38)" gradientUnits="userSpaceOnUse"><stop offset="0" stop-color="#d395f7"/><stop offset="0.61" stop-color="#55b3fc"/><stop offset="1" stop-color="#09c5ff"/></radialGradient><radialGradient id="radial-gradient-4" cx="124.7" cy="126.36" r="122.64" gradientTransform="matrix(0.98, 0.18, -0.18, 0.98, 15.86, -14.38)" gradientUnits="userSpaceOnUse"><stop offset="0" stop-color="#ffd3f7"/><stop offset="0.32" stop-color="#b3d3f7"/><stop offset="1" stop-color="#04d3f7"/></radialGradient><linearGradient id="linear-gradient" x1="159.18" y1="88.7" x2="93.22" y2="167.26" gradientTransform="matrix(1, -0.05, 0.05, 1, -5.41, 6.73)" gradientUnits="userSpaceOnUse"><stop offset="0" stop-color="#fff"/><stop offset="0.32" stop-color="#b3f2fd"/><stop offset="1" stop-color="#04d3f7"/></linearGradient><linearGradient id="linear-gradient-2" x1="168.89" y1="78.93" x2="106.09" y2="151.01" gradientTransform="matrix(1, -0.05, 0.05, 1, -5.41, 6.73)" gradientUnits="userSpaceOnUse"><stop offset="0" stop-color="#fff"/><stop offset="0.35" stop-color="#b3e6ff"/><stop offset="1" stop-color="#1fb4ff"/></linearGradient><linearGradient id="linear-gradient-3" x1="141.21" y1="109.54" x2="115.48" y2="143.31" gradientUnits="userSpaceOnUse"><stop offset="0" stop-color="#04fff7"/><stop offset="0.63" stop-color="#7e75f3"/><stop offset="1" stop-color="#c129f1"/></linearGradient><linearGradient id="linear-gradient-4" x1="172.41" y1="72.88" x2="148.31" y2="98.66" gradientTransform="matrix(1, -0.05, 0.05, 1, -5.41, 6.73)" xlink:href="#linear-gradient-3"/></defs><title>ORBIT NEXT FRAMEWORK - LOGO ONLY</title><g class="cls-1"><g id="Layer_2" data-name="Layer 2"><g id="OBJECTS"><path class="cls-2" d="M128.08,185.41a6,6,0,1,1-4.84-7A6.05,6.05,0,0,1,128.08,185.41ZM103.47,16.77c-50.73-.27-90,39.74-92.34,89.24-.57,12.14.6,23,5.22,32.91,1.5,1.75,2.93,3,4,4.31,13,14.74,32,14,38.08,12.46-24.53-.75-37.28-19.22-36.59-45.32,1.12-42,35.58-76,77.6-75.61A76.65,76.65,0,0,1,149.69,54,6.78,6.78,0,0,1,147,65.62c-7.25,1.92-16.4,1.59-18.47,1-6.86-2.07-8.68,4.54-3.9,6.37a20,20,0,0,0,8.06,1.16,1.87,1.87,0,0,1,.67,3.65,89,89,0,0,1-17,3.29c-9,1-8,8.28.06,8,19.73-.55,36.46-20,43.26-24.4,6.33,8.68,11.72,18.62,14,29.51-1.2,1.41-11.85,16.46-11.25,26.23.37,6,7.28,6.36,6.81-2.07a21,21,0,0,1,1.49-9.83,2.59,2.59,0,0,1,4.93,1q0,1.28,0,2.55c-.14,26.15-13.64,44.61-33.81,56.77a8.82,8.82,0,0,0-4.14,9l0,.18a8.88,8.88,0,0,0,13.72,5.9c25.33-16.78,43.18-45.46,43.34-77C195.13,57.43,154.21,17,103.47,16.77Z"/><path class="cls-3" d="M125.67,213.8a8.53,8.53,0,0,1-10.42-9.18l0-.18a8.54,8.54,0,0,1,6.51-7.42c40-9.62,72.87-47.22,73.09-90,.26-49.55-40.66-89.94-91.4-90.21S13.72,56.52,11.13,106c-1.88,35.91,19.15,46.16,28.47,53.51C28.91,157.16,8.37,157.86.38,108.84c0-1.42-.08-2.84-.07-4.27a105.12,105.12,0,1,1,210.24,1.11C210.29,156.34,172,202.76,125.67,213.8Zm-23.55-12.65a8.87,8.87,0,1,0,7.11,10.34A8.87,8.87,0,0,0,102.12,201.15Z"/><path class="cls-4" d="M58.47,155.69c-11.15-.34-19.86-4.35-26-11.07h0C10.42,133.94,1,110.24,1.13,92a104.67,104.67,0,0,0-.82,12.59c0,1.43,0,2.85.07,4.27,8,49,28.53,48.32,39.22,50.68C45,157,53,157.09,58.47,155.69Z"/><path class="cls-5" d="M114.21,121.77c-16.54,21.58-38.54,37.76-67.1,33.16-28-4.49-45.73-31.7-46-63-7.8,54.52,26.37,82.71,61.51,84.89,30.82,1.91,56.66-15.83,71.79-37.37C129.49,130.66,119,124.75,114.21,121.77Z"/><path class="cls-6" d="M125.46,129.38a97.74,97.74,0,0,0-11.25-7.61c-16.54,21.58-38.54,37.76-67.1,33.16-28-4.49-45.73-31.7-46-63a.78.78,0,0,1,0,.16c-4.51,49.83,26.5,73,57.37,74.61C86.59,168.2,111.53,152.17,125.46,129.38Z"/><path class="cls-7" d="M137.12,141.12A53.34,53.34,0,0,1,112,121.94a5.84,5.84,0,0,1,.21-7.14c7.9-9.61,30.35-36.71,37.28-42.86,8.45-7.52,26.17-16.33,30.09-13.35s.6,22.15-4.4,32.85C172,98.25,151.1,128.62,143.82,139A5.8,5.8,0,0,1,137.12,141.12Z"/><path class="cls-8" d="M179.6,58.62h0l0,0a2.82,2.82,0,0,0-.29-.18h0c-4.44-2.39-21.54,6.18-29.8,13.53-6.93,6.15-29.38,33.25-37.28,42.86a5.84,5.84,0,0,0-.21,7.14,59.65,59.65,0,0,0,7.11,8.06h0c.62.58,1.24,1.14,1.87,1.68l.43.36c.55.46,1.1.91,1.66,1.34l.31.24c.66.51,1.33,1,2,1.46l.3.2c.57.39,1.15.77,1.73,1.13l.53.32c.6.37,1.21.72,1.82,1.06l.26.14c.7.38,1.4.74,2.11,1.08l.53.25c.55.26,1.11.51,1.67.74l.61.26c.72.3,1.45.59,2.19.86l.19,0h0a5.79,5.79,0,0,0,6.51-2.2c7.28-10.35,28.16-40.72,31.34-47.53C180.14,80.77,183.47,61.69,179.6,58.62ZM172,90.08c-3.64,6.57-26.37,35.59-34.5,45.29-3,3.58-7.8,1.53-13.8-3.32-3.79-3.07-9.38-8.91-6-13.35,7.47-10,28.41-38.23,35-44.74,6.83-6.74,20.27-14.74,26.67-15.31C181.63,63.76,177.29,80.55,172,90.08Z"/><path class="cls-9" d="M116.61,109.44l-14,13.28a1.33,1.33,0,0,1-2.28-1.24l3-10.11a5,5,0,0,1,1.34-2.21l10.84-10.42a3,3,0,0,1,3.85-.22l3.91,3Zm31.24,23.72-9,17.05a1.33,1.33,0,0,0,1.81,1.87l8.94-5.58a5.18,5.18,0,0,0,1.77-1.89l7.12-13.24a3,3,0,0,0-.82-3.76l-3.92-3Zm-26.73,5,6.65-6.29,10.86-14.3a1.69,1.69,0,0,0-.32-2.36l-1.79-1.36a1.69,1.69,0,0,0-2.36.32l-10.92,14.39-4.22,8A1.34,1.34,0,0,0,121.12,138.12Z"/><path class="cls-10" d="M160.74,73.25a8.77,8.77,0,1,0,9.17,8.33A8.75,8.75,0,0,0,160.74,73.25Zm.74,15.32a6.57,6.57,0,1,1,6.24-6.88A6.57,6.57,0,0,1,161.48,88.57Z"/></g></g></g></svg>